<svg width="39" height="39" viewBox="0 0 39 39" fill="none" xmlns="http://www.w3.org/2000/svg">
<rect width="39" height="39" rx="6" fill="#ECEEF4"/>
<path d="M23 20H32V30C32 30.5523 31.5523 31 31 31H23V20Z" fill="#F92120"/>
<path d="M23 8H31C31.5523 8 32 8.44772 32 9V20H23V8Z" fill="white"/>
<path d="M7 10C7 9.44772 7.44772 9 8 9H23V31H8C7.44772 31 7 30.5523 7 30V10Z" fill="#072D6E"/>
<path d="M15 14L16.3471 18.1459H20.7063L17.1796 20.7082L18.5267 24.8541L15 22.2918L11.4733 24.8541L12.8204 20.7082L9.29366 18.1459H13.6529L15 14Z" fill="white"/>
<path d="M23 19.5H32V30C32 30.5523 31.5523 31 31 31H23V19.5Z" fill="#F92120"/>
<path d="M7 9C7 8.44772 7.44772 8 8 8H23V31H8C7.44772 31 7 30.5523 7 30V9Z" fill="#072D6E"/>
<path d="M15 14L16.3471 18.1459H20.7063L17.1796 20.7082L18.5267 24.8541L15 22.2918L11.4733 24.8541L12.8204 20.7082L9.29366 18.1459H13.6529L15 14Z" fill="white"/>
</svg>
