<svg width="39" height="39" viewBox="0 0 39 39" fill="none" xmlns="http://www.w3.org/2000/svg">
<rect width="39" height="39" rx="6" fill="#ECEEF4"/>
<circle cx="19.5224" cy="19.3305" r="12.6459" fill="#003877"/>
<path d="M14.6702 10.023C14.7111 9.83364 14.9705 9.80731 15.0486 9.98458L16.3475 12.9301C16.3825 13.0094 16.4645 13.0571 16.5507 13.0484L19.7535 12.7233C19.9462 12.7037 20.0514 12.9422 19.907 13.0713L17.507 15.2169C17.4424 15.2746 17.4223 15.3674 17.4573 15.4467L18.7562 18.3922C18.8344 18.5695 18.64 18.7432 18.4726 18.6458L15.6904 17.0263C15.6155 16.9827 15.5211 16.9923 15.4565 17.05L13.0565 19.1956C12.9121 19.3247 12.6868 19.1935 12.7278 19.0042L13.4083 15.8577C13.4266 15.773 13.3883 15.6862 13.3134 15.6426L10.5312 14.0231C10.3638 13.9256 10.4189 13.6708 10.6116 13.6513L13.8144 13.3262C13.9006 13.3174 13.9713 13.2541 13.9897 13.1695L14.6702 10.023Z" fill="white"/>
<path d="M29.0104 14.6881C29.0907 14.5118 28.8984 14.3358 28.7298 14.4313L25.9288 16.018C25.8535 16.0607 25.7591 16.05 25.6952 15.9915L23.3206 13.818C23.1777 13.6872 22.9508 13.8157 22.9896 14.0055L23.6331 17.1597C23.6505 17.2446 23.6111 17.331 23.5357 17.3737L20.7348 18.9605C20.5662 19.056 20.6183 19.3114 20.8108 19.3332L24.0095 19.6959C24.0956 19.7056 24.1656 19.7697 24.183 19.8546L24.8265 23.0088C24.8652 23.1987 25.1243 23.228 25.2045 23.0517L26.5379 20.1216C26.5738 20.0427 26.6563 19.996 26.7424 20.0057L29.9411 20.3684C30.1337 20.3902 30.2416 20.1529 30.0987 20.0221L27.7241 17.8486C27.6602 17.7901 27.6412 17.6971 27.6771 17.6182L29.0104 14.6881Z" fill="white"/>
<path d="M19.2885 20.7853C19.2903 20.5915 19.0432 20.5086 18.9278 20.6643L17.0109 23.2505C16.9593 23.3201 16.8687 23.3486 16.7866 23.321L13.7346 22.2971C13.5509 22.2355 13.3957 22.4449 13.508 22.6027L15.3753 25.225C15.4256 25.2956 15.4247 25.3905 15.3731 25.4601L13.4562 28.0464C13.3408 28.202 13.492 28.4144 13.6768 28.3563L16.7478 27.3907C16.8305 27.3647 16.9205 27.3949 16.9707 27.4655L18.838 30.0878C18.9504 30.2456 19.1991 30.1674 19.2009 29.9737L19.2316 26.7546C19.2324 26.668 19.2889 26.5917 19.3716 26.5657L22.4426 25.6001C22.6274 25.542 22.6299 25.2814 22.4462 25.2197L19.3942 24.1958C19.312 24.1683 19.257 24.091 19.2578 24.0043L19.2885 20.7853Z" fill="white"/>
<path fill-rule="evenodd" clip-rule="evenodd" d="M19.4999 31.6424C26.2058 31.6424 31.6419 26.2063 31.6419 19.5004C31.6419 12.7946 26.2058 7.3584 19.4999 7.3584C12.7941 7.3584 7.35791 12.7946 7.35791 19.5004C7.35791 26.2063 12.7941 31.6424 19.4999 31.6424ZM19.4999 32.6424C26.7581 32.6424 32.6419 26.7586 32.6419 19.5004C32.6419 12.2423 26.7581 6.3584 19.4999 6.3584C12.2418 6.3584 6.35791 12.2423 6.35791 19.5004C6.35791 26.7586 12.2418 32.6424 19.4999 32.6424Z" fill="#D93649"/>
</svg>
