<svg width="39" height="39" viewBox="0 0 39 39" fill="none" xmlns="http://www.w3.org/2000/svg">
<rect width="39" height="39" rx="6" fill="#ECEEF4"/>
<path d="M8 9C8 8.44772 8.44772 8 9 8H30C30.5523 8 31 8.44772 31 9V30C31 30.5523 30.5523 31 30 31H9C8.44772 31 8 30.5523 8 30V9Z" fill="#072D6E"/>
<path fill-rule="evenodd" clip-rule="evenodd" d="M20.3464 15.2875C19.9656 14.9593 19.5899 14.626 19.2195 14.2824C18.8178 13.9183 18.5673 13.9081 18.1447 14.2414C18.1284 14.2542 18.112 14.2671 18.097 14.2799C18.088 14.2876 18.0795 14.2952 18.0717 14.3029C17.1117 15.1542 16.5743 16.2105 16.4021 17.4669C16.3134 18.1079 16.9552 19.154 17.6699 19.4874C17.7611 19.5322 17.8162 19.423 17.9029 19.2509C18.0444 18.9702 18.2702 18.5222 18.8751 18.3028C19.1992 18.3028 19.3436 18.4716 19.7939 18.998L19.7966 19.0011C19.8602 19.0755 19.93 19.1571 20.0073 19.2463C20.4038 18.4874 20.4925 18.0259 20.3621 17.1746C20.3475 17.071 20.3152 16.9723 20.2829 16.8734C20.2688 16.8304 20.2547 16.7874 20.2421 16.7439L20.2942 16.7182C20.3188 16.7649 20.3458 16.8098 20.3726 16.8543C20.4252 16.9419 20.477 17.0281 20.5082 17.1233C20.6564 17.5305 20.5942 17.9425 20.5328 18.3498L20.529 18.3746C20.4508 18.8874 20.2734 19.3643 20.0125 19.8104C20.0281 19.8309 20.0438 19.8514 20.0647 19.872C20.0841 19.8606 20.1048 19.8499 20.1262 19.8395C20.1355 19.835 20.145 19.8305 20.1546 19.8261C20.1622 19.8226 20.1699 19.819 20.1776 19.8155L20.208 19.8018C20.3203 19.7515 20.4335 19.7007 20.4768 19.6156L20.4949 19.5798C20.7293 19.114 20.971 18.6338 21.1186 18.1438C21.4473 17.0567 21.249 16.0721 20.3464 15.2875ZM17.2039 16.4212L17.203 16.4234L17.2021 16.4253C17.1385 16.5682 17.0749 16.7112 17.0073 16.8515C16.9935 16.8821 16.9637 16.9059 16.933 16.9304C16.9279 16.9345 16.9228 16.9386 16.9177 16.9427C16.9117 16.9477 16.9056 16.9527 16.8998 16.9579C16.8955 16.9617 16.8914 16.9655 16.8874 16.9695C16.8843 16.9584 16.88 16.947 16.8752 16.9354C16.8719 16.9272 16.8683 16.919 16.8648 16.9108C16.8474 16.8709 16.83 16.831 16.8404 16.8003C16.9708 16.3439 17.1795 15.9336 17.4925 15.5747C17.5248 15.5397 17.5512 15.5009 17.5777 15.4617C17.5868 15.4483 17.5959 15.4347 17.6053 15.4213C17.6128 15.4108 17.6203 15.4004 17.6282 15.3901C17.6491 15.4106 17.6751 15.4311 17.696 15.4465C17.6604 15.5128 17.6234 15.5785 17.5866 15.6439L17.586 15.645C17.5205 15.7614 17.4553 15.8772 17.3986 15.9952C17.3311 16.1355 17.2675 16.2783 17.2039 16.4212Z" fill="#FBFCFD"/>
<path d="M14.1065 18.5592C14.123 18.5707 14.1393 18.5825 14.1555 18.5944C14.1964 18.6244 14.2367 18.6553 14.277 18.6863L14.2779 18.687C14.3988 18.7798 14.5193 18.8723 14.6543 18.9387C15.2074 19.2053 15.7709 19.4566 16.3343 19.7027L16.3611 19.714C16.5176 19.7793 16.5248 19.7823 16.5743 20.0207C16.4965 20.0048 16.419 19.9897 16.3422 19.9748L16.3418 19.9747C16.146 19.9366 15.9544 19.8993 15.7709 19.8514C14.9674 19.6463 14.3204 19.2053 13.8248 18.5489C13.5483 18.1848 13.3865 17.7746 13.4544 17.3131C13.5222 16.8464 13.7674 16.6054 14.2474 16.5592C14.8943 16.4977 15.4995 16.6823 16.0839 16.9182C16.1256 16.9336 16.1778 17.0208 16.1673 17.0618C15.9587 17.9079 16.2143 18.6259 16.7882 19.2515C16.6682 19.4874 16.71 19.5079 16.9708 19.5643C17.2108 19.6156 17.4508 19.7232 17.6647 19.8361C17.8194 19.9187 17.9654 20.0162 18.1111 20.1136L18.1115 20.1138C18.1918 20.1674 18.2719 20.221 18.3534 20.272C18.6351 20.4463 18.9482 20.4104 19.2456 20.3386C19.6577 20.2412 20.0647 20.1335 20.4716 20.0258C20.9203 19.913 21.3638 19.9438 21.7968 20.0976C21.9951 20.1643 22.0003 20.1899 21.8699 20.3335C21.4577 20.8053 21.0351 21.2719 20.4873 21.595C19.809 22.0001 19.089 22.1232 18.3482 21.7847C17.8839 21.5796 17.5969 21.1847 17.3308 20.7796C17.1934 20.5728 17.0577 20.3643 16.9227 20.157L16.9209 20.1542C16.8155 19.9923 16.7106 19.8312 16.6056 19.672C16.5743 19.6258 16.5274 19.5848 16.4752 19.5643C15.8346 19.2699 15.1981 18.9794 14.5549 18.6859L14.2996 18.5694C14.2811 18.5604 14.2626 18.5526 14.2442 18.5454L14.2341 18.5415L14.222 18.537L14.2012 18.5294L14.1904 18.5255L14.172 18.5189L14.1567 18.5131L14.143 18.5079C14.1274 18.5284 14.117 18.5489 14.1065 18.5592Z" fill="#FBFCFD"/>
<path fill-rule="evenodd" clip-rule="evenodd" d="M24.6276 17.3095L24.6282 17.3073C24.643 17.2551 24.6579 17.2025 24.6715 17.149C24.6881 17.1522 24.7046 17.1555 24.7198 17.1561C24.7286 17.1565 24.7369 17.156 24.7446 17.1541C24.7389 17.2859 24.7421 17.4193 24.7454 17.5531C24.7541 17.9087 24.7629 18.2677 24.6037 18.6105C24.3898 19.0617 24.0663 19.4361 23.6907 19.7797C23.8289 19.7532 23.9636 19.7247 24.0961 19.6967C24.3236 19.6486 24.5445 19.6018 24.7654 19.5694C24.9115 19.554 24.995 19.5079 25.0524 19.3694C25.3498 18.6823 25.3915 17.9643 25.3393 17.2413C25.3237 16.99 25.2454 16.7439 24.9794 16.6054C24.9645 16.6244 24.9505 16.6426 24.9369 16.6601L24.9323 16.6662L24.9308 16.6681L24.9275 16.6724L24.9247 16.676C24.9149 16.6888 24.9053 16.7012 24.8958 16.7134C24.8768 16.7378 24.8581 16.7613 24.8385 16.7849C24.8248 16.6996 24.8431 16.6261 24.8618 16.5507C24.8645 16.5399 24.8672 16.5291 24.8698 16.5182C24.8745 16.4988 24.8793 16.4794 24.8843 16.4602C24.8935 16.4242 24.9031 16.3885 24.9126 16.353C24.9492 16.2165 24.9853 16.0816 25.0002 15.9388C25.0368 15.6413 24.9429 15.5183 24.6611 15.4413C24.1811 15.3183 23.7011 15.3593 23.242 15.5388C22.4751 15.8311 21.969 16.4105 21.5568 17.0772C21.5359 17.1131 21.5255 17.1644 21.5255 17.2054C21.5307 18.0054 21.2594 18.7335 20.9046 19.4361C20.8967 19.4542 20.8901 19.4737 20.8842 19.4932C20.8784 19.5122 20.8733 19.5312 20.8681 19.5489C20.8716 19.5522 20.8752 19.5554 20.879 19.5583C20.8839 19.5622 20.8891 19.5658 20.8942 19.5694C20.9033 19.5758 20.9125 19.5822 20.9203 19.5899L22.8768 17.6823C22.8816 17.6858 22.886 17.6896 22.8903 17.6935C22.8929 17.6958 22.8954 17.6982 22.8978 17.7007C22.9034 17.7063 22.9086 17.712 22.9137 17.7175C22.9189 17.7232 22.924 17.7286 22.929 17.7336C22.5766 18.257 22.1351 18.6989 21.6895 19.145C21.5544 19.2802 21.419 19.4157 21.2855 19.554C21.4157 19.4995 21.5458 19.4458 21.6756 19.3923L21.6761 19.3921L21.6793 19.3908L21.6798 19.3906C21.7977 19.342 21.9153 19.2935 22.0324 19.2446C22.1002 19.2163 22.1677 19.1878 22.2351 19.1592C22.2374 19.165 22.24 19.1705 22.2428 19.1759C22.2462 19.1824 22.2498 19.1887 22.2533 19.195L22.2594 19.2059C22.2638 19.214 22.268 19.2222 22.2716 19.231C22.2346 19.2535 22.1976 19.276 22.1605 19.2984L22.0426 19.3696L22.0403 19.371C21.8562 19.4821 21.6713 19.5937 21.4838 19.713C21.5729 19.7607 21.676 19.7863 21.7786 19.8116C22.0064 19.868 22.2313 19.9236 22.2925 20.2207C22.2962 20.2207 22.2998 20.2208 22.3033 20.2211C22.3066 20.2213 22.3097 20.2216 22.3127 20.2219L22.3133 20.222C22.3241 20.2231 22.3328 20.2239 22.3394 20.2207C23.5185 19.8976 24.3898 18.8771 24.5411 17.6925C24.5558 17.5622 24.5914 17.4369 24.6276 17.3095ZM22.5612 19.0182C22.5576 19.013 22.5541 19.0078 22.5506 19.0027C22.5463 18.9965 22.542 18.9905 22.5377 18.9848C22.6368 18.9079 22.7411 18.8258 22.835 18.7387C22.8559 18.7643 22.8716 18.7848 22.8872 18.8053C22.8142 18.9233 22.7255 19.0156 22.5846 19.0515C22.5768 19.0412 22.569 19.0297 22.5612 19.0182Z" fill="#FBFCFD"/>
<path d="M21.4994 21.8924C22.3394 22.2155 23.9672 22.436 24.7237 22.2309L24.6862 22.2237L24.651 22.2167L24.622 22.211C24.5203 22.1908 24.4185 22.1706 24.3168 22.1591C24.082 22.1374 23.8472 22.1195 23.6124 22.1016C23.2368 22.0729 22.8612 22.0443 22.4855 22.0001C22.016 21.9437 21.6142 21.718 21.2438 21.4155C21.3109 21.3443 21.3769 21.2728 21.4425 21.2017L21.4429 21.2013L21.4431 21.2011C21.6324 20.9959 21.8185 20.7944 22.016 20.6155C22.0787 20.5572 22.1765 20.5402 22.275 20.5231C22.3238 20.5146 22.3727 20.506 22.4177 20.4924C22.6187 20.4332 22.8203 20.3723 23.0221 20.3114C23.4486 20.1826 23.8761 20.0535 24.3011 19.9386C24.7863 19.8104 25.2768 19.7694 25.7672 19.9027C26.2733 20.0412 26.6541 20.3386 26.8941 20.7847C27.2072 21.3745 26.7898 22.1232 26.1167 22.2001C25.9048 22.2251 25.6859 22.2399 25.4545 22.2556L25.3836 22.2605L25.2924 22.2668L25.402 22.4103L25.4005 22.4134L25.3989 22.4167C25.3946 22.4261 25.3895 22.437 25.3811 22.4411C25.2857 22.4668 25.1903 22.4932 25.0948 22.5197L25.0902 22.5209C24.7485 22.6155 24.4054 22.7105 24.0559 22.7744C23.2785 22.918 22.5325 22.8257 21.896 22.3129C21.7904 22.2207 21.6936 22.1112 21.5968 22.0016L21.5966 22.0014C21.5643 21.9648 21.532 21.9283 21.4994 21.8924Z" fill="#FBFCFD"/>
<path d="M18.8908 22.2821C18.5621 22.1591 18.2491 22.0411 17.9152 21.9129C17.4873 22.2873 16.9969 22.6257 16.423 22.8155C16.3865 22.8257 16.3448 22.8975 16.3395 22.9488C16.303 23.2103 16.5065 23.5795 16.7517 23.6924C17.3253 23.9486 17.9042 24.1946 18.483 24.4407L18.4838 24.441C18.5412 24.4667 18.6038 24.4923 18.6665 24.518C18.6639 24.5257 18.66 24.5346 18.6561 24.5436L18.6521 24.5526C18.6496 24.5585 18.6473 24.5641 18.6456 24.5692C18.2139 24.5537 17.8303 24.3903 17.4263 24.2183C17.2981 24.1638 17.1679 24.1083 17.0335 24.0564C17.4404 24.5026 18.4682 25 18.9847 25C19.7934 25 20.5342 24.7641 21.2229 24.3641C21.1531 24.3781 21.0832 24.3924 21.0132 24.4067L21.0115 24.4071C20.4131 24.5299 19.8095 24.6537 19.1934 24.5436C19.3038 24.5048 19.4172 24.4837 19.5314 24.4623C19.5682 24.4555 19.6052 24.4486 19.6421 24.441C19.8651 24.3939 20.0888 24.3475 20.3127 24.301L20.314 24.3007C20.7234 24.2157 21.1334 24.1305 21.5412 24.0411C21.8177 23.9795 21.9586 23.7744 22.0107 23.5282C22.0473 23.3334 22.0525 23.1334 22.0212 22.9385C22.006 22.8238 21.9117 22.7139 21.8297 22.6183L21.8229 22.6103C21.7478 22.525 21.6685 22.4448 21.5892 22.3647L21.5888 22.3643L21.5887 22.3641C21.4919 22.2663 21.3952 22.1686 21.3064 22.0616C21.2271 21.9614 21.1587 21.8532 21.0914 21.7466L21.0912 21.7462C21.0656 21.7056 21.0401 21.6653 21.0142 21.6257C20.9947 21.6368 20.9753 21.6478 20.956 21.6587C20.9222 21.678 20.8887 21.6972 20.8554 21.7162L20.8533 21.7174C20.6313 21.8445 20.4183 21.9664 20.1951 22.0616C20.0177 22.1386 19.9708 22.2155 20.0125 22.3898C20.049 22.5283 20.049 22.6667 19.8769 22.7847C19.8595 22.6707 19.8421 22.5647 19.8247 22.4586C19.8171 22.4124 19.8095 22.3662 19.802 22.3193C19.7956 22.2802 19.7893 22.2405 19.783 22.2001L19.7194 22.2133L19.6653 22.2247C19.6204 22.2342 19.5809 22.2428 19.543 22.2514C19.4282 23.2206 19.3238 23.5282 19.0525 23.6667C19.0733 23.5783 19.0961 23.493 19.1186 23.4084C19.1471 23.3016 19.1753 23.196 19.1986 23.0872C19.2508 22.8719 19.2978 22.6514 19.3343 22.4308C19.3414 22.3957 19.3167 22.3557 19.292 22.3158C19.2807 22.2975 19.2694 22.2793 19.2612 22.2616C19.254 22.2655 19.2465 22.2691 19.2389 22.2727C19.225 22.2791 19.2106 22.2852 19.1962 22.2912L19.1958 22.2914C19.144 22.3132 19.0921 22.3351 19.063 22.3744C19.0309 22.4182 19.0069 22.4665 18.9829 22.515C18.9562 22.569 18.9293 22.6233 18.8908 22.6719C18.8556 22.7203 18.8014 22.7571 18.7458 22.7948C18.719 22.813 18.6919 22.8313 18.6665 22.8514C18.659 22.844 18.6515 22.8354 18.644 22.8268L18.643 22.8258C18.6384 22.8204 18.6338 22.8151 18.6291 22.8101C18.6259 22.8066 18.6227 22.8032 18.6195 22.8001C18.7082 22.6206 18.8021 22.4462 18.8908 22.2821Z" fill="#FBFCFD"/>
<path d="M14.4561 22.4103C14.6335 22.3796 14.7743 22.3539 14.9152 22.3283C14.9152 22.3026 14.9152 22.2821 14.9204 22.2565C14.8779 22.2501 14.8359 22.2416 14.794 22.2332C14.7025 22.2148 14.6118 22.1966 14.5187 22.2001C13.9761 22.2206 13.4544 22.1539 12.9378 22.0001C12.4996 21.8668 12.2179 21.5745 12.0509 21.1694C11.9205 20.8565 12.0457 20.513 12.3692 20.2771C12.9744 19.8463 13.6578 19.6925 14.3935 19.713C14.6291 19.7195 14.833 19.8028 15.0376 19.8863C15.1546 19.9341 15.2718 19.9819 15.3952 20.0155C15.6132 20.0719 15.8328 20.1221 16.0514 20.1721L16.0521 20.1722C16.2308 20.2131 16.4088 20.2538 16.5847 20.2976C16.6682 20.3181 16.7569 20.3796 16.7986 20.4514C16.8848 20.5784 16.9591 20.7111 17.0416 20.8582C17.069 20.9072 17.0974 20.9578 17.1274 21.0104H15.8491C15.8439 21.0309 15.8439 21.0463 15.8387 21.0668C15.8895 21.0784 15.9405 21.0905 15.9918 21.1027C16.167 21.1444 16.3446 21.1866 16.5221 21.2104C16.7047 21.236 16.8874 21.236 17.07 21.2052C17.2369 21.1796 17.3204 21.2309 17.4039 21.3591C17.4481 21.4287 17.5037 21.4873 17.5641 21.5567C17.5749 21.569 17.5859 21.5818 17.5969 21.595C17.0956 21.8798 16.5444 21.9884 15.9851 22.0986C15.7993 22.1352 15.6126 22.172 15.4265 22.2155C15.6769 22.3642 16.1569 22.2821 17.4195 21.9078C17.2734 22.1283 16.5795 22.477 16.0369 22.6103C15.4995 22.759 14.9935 22.6462 14.4561 22.4103Z" fill="#FBFCFD"/>
<path d="M18.1813 19.1438L17.8839 19.6309C18.0352 19.8002 18.1447 19.8463 18.2647 19.8925C18.5778 20.0771 19.1777 20.1335 19.7516 19.8925C19.7729 19.8437 19.7938 19.7988 19.8138 19.7555C19.8677 19.6396 19.9157 19.536 19.9499 19.4053L19.4177 18.8669C19.0056 18.2669 18.5934 18.513 18.1813 19.1438Z" fill="#FBFCFD"/>
<path d="M8 9C8 8.44772 8.44772 8 9 8H10V31H9C8.44772 31 8 30.5523 8 30V9Z" fill="#EAAB22"/>
<path d="M29 8H30C30.5523 8 31 8.44772 31 9V30C31 30.5523 30.5523 31 30 31H29V8Z" fill="#EAAB22"/>
</svg>
