<svg width="39" height="39" viewBox="0 0 39 39" fill="none" xmlns="http://www.w3.org/2000/svg">
<rect width="39" height="39" rx="6" fill="#ECEEF4"/>
<path d="M8 9C8 8.44772 8.44772 8 9 8H30C30.5523 8 31 8.44772 31 9V30C31 30.5523 30.5523 31 30 31H9C8.44772 31 8 30.5523 8 30V9Z" fill="white"/>
<path d="M28.1716 8L19.5 16.6716L10.8284 8H9C8.44772 8 8 8.44772 8 9V10.8284L16.6716 19.5L8 28.1716V30C8 30.5523 8.44772 31 9 31H10.8284L19.5 22.3284L28.1716 31H30C30.5523 31 31 30.5523 31 30V28.1716L22.3284 19.5L31 10.8284V9C31 8.44772 30.5523 8 30 8H28.1716Z" fill="#E61938"/>
</svg>
