<svg width="39" height="39" viewBox="0 0 39 39" fill="none" xmlns="http://www.w3.org/2000/svg">
<rect width="39" height="39" rx="6" fill="#ECEEF4"/>
<path d="M8 9C8 8.44772 8.44772 8 9 8H30C30.5523 8 31 8.44772 31 9V30C31 30.5523 30.5523 31 30 31H9C8.44772 31 8 30.5523 8 30V9Z" fill="#012A86"/>
<path fill-rule="evenodd" clip-rule="evenodd" d="M22.7674 28.9386C22.5776 28.8463 22.563 28.8147 22.6468 28.6778C22.6843 28.6166 22.715 28.5495 22.715 28.5286C22.715 28.5078 22.7566 28.446 22.8074 28.3913C22.8986 28.2932 23.1357 27.7573 23.1867 27.5342C23.2369 27.314 23.2433 26.8043 23.2 26.4674C23.1635 26.1833 23.1429 26.108 23.0506 25.923C22.92 25.6608 22.6822 25.3289 22.5288 25.1946C22.4662 25.1398 22.3269 25.0092 22.2192 24.9044C21.9889 24.6801 21.7896 24.4802 21.7683 24.4802L21.4914 24.2394C21.4914 24.2394 21.3831 24.176 21.277 24.0985C20.993 23.8909 20.7918 23.64 20.6087 23.2648C20.5411 23.1264 20.4679 23.0234 20.3911 22.9587C20.2754 22.8611 20.0283 22.7559 19.8318 22.7204C19.7744 22.7101 19.6159 22.6585 19.4796 22.6057C19.0492 22.4393 19.0528 22.4397 18.9631 22.5444C18.8174 22.7146 18.7943 22.8008 18.8074 23.124C18.8139 23.2844 18.8277 23.4373 18.8382 23.4638C18.8515 23.4974 18.8272 23.5487 18.7575 23.6341L18.6578 23.7564L18.2373 23.7373C17.7345 23.7145 17.4058 23.759 16.9486 23.9117C16.6233 24.0204 16.6113 24.0262 16.3242 24.2132C16.1521 24.3254 16.1123 24.3396 15.9685 24.34L15.8067 24.3404L15.794 24.5369C15.7787 24.7731 15.7413 24.8268 15.491 24.9716C15.2861 25.0901 15.0187 25.1849 14.7871 25.2213C14.6509 25.2426 14.6085 25.2392 14.558 25.2025C14.4812 25.1467 14.4798 25.0756 14.5524 24.9059C14.6628 24.6481 15.1128 24.0812 15.357 23.8923C15.4072 23.8535 15.5266 23.7406 15.6223 23.6414C15.718 23.5423 15.8237 23.4542 15.8571 23.4456C15.8906 23.437 16.0933 23.3902 16.3076 23.3415C16.9441 23.1969 17.4011 23.0116 17.5479 22.8385C17.6318 22.7396 17.6464 22.5057 17.5868 22.2162C17.4912 21.7515 17.4973 21.0828 17.5991 20.8618C17.6973 20.6485 17.9869 20.4637 18.2467 20.4484C18.3077 20.4448 18.3575 20.4346 18.3573 20.4258C18.3572 20.417 18.2486 20.3337 18.116 20.2406C17.5587 19.8495 17.1275 19.4917 16.6055 18.9875C16.3342 18.7254 16.3246 18.719 16.1967 18.719C16.1247 18.719 15.8799 18.6858 15.6527 18.6451C14.9647 18.522 14.9742 18.5217 14.6134 18.6708L14.3003 18.8001L14.2389 18.998C14.2051 19.1069 14.1503 19.3715 14.1172 19.5861C14.064 19.93 14.0602 20.0054 14.0851 20.2219C14.1317 20.6266 14.1385 20.6007 13.9583 20.6988C13.8099 20.7796 13.8006 20.7905 13.8214 20.8578C13.8343 20.8997 13.8957 20.9628 13.9676 21.008C14.0358 21.0509 14.1228 21.1186 14.161 21.1585C14.2209 21.2211 14.2286 21.248 14.2171 21.3551C14.2098 21.4233 14.1829 21.5122 14.1574 21.5527C14.1319 21.5931 14.1024 21.6841 14.092 21.755C14.0815 21.8258 14.0501 21.9255 14.0221 21.9765C13.9582 22.0929 13.8278 22.2162 13.7684 22.2162C13.711 22.2162 13.4908 21.8864 13.4373 21.7203C13.4151 21.6512 13.3924 21.4712 13.3869 21.3202C13.3815 21.1692 13.3609 20.9224 13.3413 20.7718C13.3106 20.5366 13.3109 20.4673 13.3433 20.2805C13.3845 20.0428 13.572 19.309 13.6771 18.9737C13.7179 18.8438 13.7517 18.6523 13.7649 18.4768C13.7955 18.0708 13.882 17.9655 14.3264 17.7931C14.5606 17.7022 15.2638 17.4037 15.4334 17.3231L15.5229 17.2806L15.3787 17.1111C15.2993 17.0179 15.1743 16.842 15.1008 16.7202C14.9546 16.4779 14.6659 15.8467 14.6257 15.6815C14.6101 15.6171 14.5532 15.5288 14.4764 15.4498C14.4082 15.3796 14.312 15.263 14.2627 15.1908C14.2133 15.1186 14.1194 15.0192 14.0539 14.9697C13.9366 14.8811 13.9303 14.8799 13.5958 14.8768C13.4092 14.875 13.1333 14.8936 12.9826 14.9179C12.8319 14.9423 12.6617 14.9695 12.6043 14.9784C12.5465 14.9873 12.4475 14.9769 12.3825 14.9552C12.2477 14.91 12.163 14.9232 11.8998 15.0306C11.6708 15.124 11.434 15.1318 11.2903 15.0506C11.1632 14.9788 10.9995 14.7779 11 14.6944C11.0008 14.5668 11.0383 14.5408 11.406 14.4122C11.5484 14.3624 11.6884 14.3121 11.7171 14.3005C11.7458 14.2888 11.8045 14.2882 11.8476 14.2992C11.9867 14.3346 12.2144 14.3271 12.3457 14.2827C12.4415 14.2504 12.5396 14.2439 12.7347 14.2572C13.0416 14.278 13.6177 14.2123 13.935 14.1202C14.2314 14.0343 14.4263 14.0447 14.5653 14.1538C14.625 14.2007 14.7262 14.2639 14.7901 14.2943C14.8779 14.3359 14.9593 14.4195 15.1214 14.634C15.2396 14.7905 15.4261 14.9977 15.5358 15.0945C15.6456 15.1913 15.7947 15.3409 15.8673 15.4269L15.9992 15.5832L16.1362 15.4185C16.2463 15.2861 16.3318 15.2214 16.5723 15.0889C17.2266 14.7283 17.7225 14.0355 18.4725 13.8908L18.6355 13.8594L18.6238 13.6953C18.6173 13.605 18.6073 13.5254 18.6014 13.5183C18.5956 13.5111 18.5571 13.5274 18.5158 13.5544C18.4082 13.6248 18.2004 13.6195 18.1277 13.5445C18.0553 13.4698 18.0545 13.3684 18.1258 13.319C18.1645 13.2922 18.1729 13.2716 18.1536 13.2504C18.1344 13.2291 18.0942 13.2341 18.0196 13.2672C17.7967 13.3659 17.6796 13.2998 17.6283 13.0461C17.6129 12.9701 17.5869 12.8841 17.5705 12.855C17.5468 12.8131 17.5518 12.7757 17.5941 12.6753C17.6235 12.6056 17.6538 12.492 17.6613 12.4229C17.6803 12.2479 17.7615 12.1584 17.9012 12.1584C17.9704 12.1584 18.0752 12.1236 18.1902 12.0626C18.2894 12.0099 18.5497 11.8774 18.7685 11.7681C18.9874 11.6588 19.1664 11.5621 19.1663 11.5532C19.1661 11.53 19.0118 11.4358 18.9742 11.4358C18.9568 11.4358 18.8966 11.4618 18.8403 11.4936C18.7163 11.5636 18.6905 11.5646 18.5476 11.5041C18.399 11.4412 18.3941 11.3651 18.5405 11.3925C18.6365 11.4105 18.6529 11.4035 18.7391 11.308C18.8139 11.2252 18.8291 11.1906 18.8136 11.1392C18.8028 11.1036 18.7905 10.9834 18.7861 10.872C18.7818 10.7606 18.7704 10.6468 18.7608 10.6191C18.7295 10.5286 18.7881 10.5663 18.8379 10.6687C18.8883 10.7724 19.0763 10.9383 19.1061 10.9053C19.1155 10.8949 19.0984 10.8572 19.0682 10.8215C18.9899 10.7291 18.8609 10.403 18.8454 10.2581C18.8287 10.1023 18.8525 10.1024 18.9171 10.2584C19.0148 10.4943 19.1219 10.5784 19.3857 10.6262C19.4588 10.6395 19.551 10.6594 19.5904 10.6705C19.6495 10.687 19.6622 10.6811 19.6621 10.6369C19.6621 10.6073 19.6864 10.4921 19.7162 10.3809C19.7756 10.1587 19.8939 9.96727 19.9486 10.0047C20.002 10.0413 20.2298 10.5996 20.2494 10.7421C20.2696 10.889 20.3249 11.0022 20.3764 11.0022C20.4036 11.0022 20.4088 10.936 20.4008 10.6916C20.3952 10.5207 20.3794 10.3353 20.3658 10.2797C20.3353 10.1557 20.3348 10.1034 20.3635 10.0531C20.412 9.96847 20.7185 10.2302 20.8656 10.4819L20.9078 10.5541L21.0069 10.4964C21.0614 10.4646 21.1422 10.4165 21.1864 10.3895C21.3166 10.3099 21.478 10.3244 21.6694 10.433C21.8084 10.5118 21.8489 10.5524 21.906 10.6697C21.9888 10.8399 22.0663 10.874 22.2584 10.8251C22.3817 10.7937 22.4965 10.7248 22.5845 10.6293C22.6192 10.5917 22.6245 10.6075 22.6315 10.7681C22.6376 10.9107 22.6277 10.971 22.5848 11.0516C22.5548 11.108 22.5354 11.1598 22.5417 11.1668C22.5481 11.1738 22.616 11.1442 22.6928 11.1009C22.7696 11.0577 22.8656 11.0179 22.9061 11.0126L22.9798 11.0029L22.9244 11.1022L22.8689 11.2016L22.942 11.2437C23.042 11.3013 23.135 11.4167 23.1975 11.5607C23.2476 11.6762 23.2547 11.6812 23.3608 11.676C23.4217 11.673 23.4716 11.681 23.4716 11.6939C23.4716 11.7311 23.2478 11.7904 23.1874 11.7691C23.154 11.7574 23.1324 11.7624 23.1324 11.782C23.1324 11.8412 23.2598 11.956 23.3254 11.956C23.4159 11.956 23.4313 12.0007 23.3658 12.0733C23.3219 12.1219 23.2915 12.1309 23.2213 12.1164C23.1076 12.0927 23.1028 12.1475 23.2071 12.2801C23.3683 12.4851 23.4009 12.6346 23.3238 12.8147C23.2825 12.911 23.2829 12.9216 23.3303 13.0192C23.4051 13.1732 23.3932 13.4536 23.2994 13.746C23.2583 13.8742 23.2171 13.9791 23.2078 13.9791C23.1985 13.9791 23.186 13.9043 23.18 13.8129C23.1676 13.6226 23.0886 13.4199 23.0216 13.4062C22.9451 13.3906 22.9659 13.5468 23.0778 13.8285C23.1841 14.0959 23.2287 14.3432 23.1983 14.4964C23.1744 14.6169 23.128 14.6093 23.0411 14.4705C23.0013 14.4069 22.9574 14.3549 22.9434 14.3549C22.9107 14.3549 22.9321 14.5069 22.9882 14.6725C23.04 14.8254 23.0266 14.9747 22.9377 15.2362C22.8661 15.447 22.7866 15.8224 22.8061 15.8574C22.8138 15.8713 22.8083 15.8908 22.7937 15.9008C22.7791 15.9108 22.7672 15.9005 22.7672 15.8778C22.7672 15.8552 22.7454 15.8056 22.7188 15.7677C22.6922 15.7298 22.6498 15.6273 22.6246 15.5398C22.5698 15.3501 22.4783 15.1352 22.4523 15.1352C22.442 15.1352 22.4616 15.2358 22.4959 15.3587C22.5301 15.4816 22.5607 15.6507 22.5639 15.7344C22.567 15.8181 22.5789 15.8866 22.5901 15.8866C22.6014 15.8866 22.6106 15.9032 22.6106 15.9234C22.6106 15.9437 22.6521 16.03 22.7028 16.1152C22.7534 16.2004 22.7903 16.2753 22.7847 16.2815C22.7791 16.2877 22.7151 16.2486 22.6426 16.1945L22.5108 16.0963L22.4543 16.2733C22.3398 16.6316 22.3161 16.6959 22.2987 16.6959C22.2889 16.6959 22.2857 16.5398 22.2916 16.3491C22.3007 16.0584 22.2962 16.0023 22.2642 16.0023C22.2386 16.0023 22.2218 16.0428 22.2134 16.1251C22.2011 16.2452 22.1577 16.3617 22.0384 16.5947C21.9253 16.8156 21.8496 16.9012 21.7014 16.976C21.6203 17.017 21.5359 17.0601 21.5139 17.0718C21.4919 17.0836 21.4389 17.1017 21.3961 17.1121C21.341 17.1255 21.2957 17.1707 21.2405 17.2675C21.0667 17.5717 20.9394 17.6721 20.7715 17.6372C20.674 17.6169 20.6448 17.5629 20.7314 17.5629C20.7597 17.5629 20.8038 17.5277 20.8292 17.4845C20.8688 17.4175 20.875 17.3431 20.8719 16.9715C20.87 16.7325 20.8561 16.5044 20.841 16.4647C20.8166 16.4006 20.8134 16.4088 20.8119 16.5377C20.809 16.7893 20.758 17.1564 20.7034 17.3181C20.6519 17.4706 20.5501 17.5953 20.426 17.6579C20.3407 17.7009 20.3292 17.6703 20.3774 17.5286C20.403 17.4533 20.4234 17.2868 20.4289 17.1077C20.4372 16.8399 20.4336 16.8115 20.3919 16.8115C20.3374 16.8115 20.2716 17.0567 20.2847 17.211C20.2913 17.2881 20.2822 17.31 20.2385 17.3227C20.1722 17.3419 20.1722 17.3422 20.2334 17.5393C20.297 17.7443 20.3425 17.8231 20.3971 17.8231C20.4497 17.8231 20.5493 17.9551 20.5493 18.0248C20.5493 18.0949 20.633 18.1699 20.7113 18.1699C20.8 18.1699 20.8367 18.2254 20.8579 18.3922C20.8776 18.5469 20.8664 18.5378 21.319 18.7659L21.6843 18.95C21.905 19.0611 22.3364 19.3395 22.5062 19.4803C22.5852 19.5457 22.6615 19.6008 22.6758 19.6027C22.6902 19.6046 22.7155 19.6081 22.732 19.6106C22.7486 19.613 22.8694 19.732 23.0004 19.875C23.2131 20.1069 23.2357 20.1414 23.2099 20.1947C23.1882 20.2396 23.1891 20.2653 23.2136 20.2979C23.2415 20.3352 23.2522 20.3278 23.2893 20.2455C23.4031 19.9933 23.6069 19.6342 23.7392 19.4528C24.0219 19.0652 24.1899 18.9647 24.5545 18.9647C24.8612 18.9647 25.0527 19.0553 25.2533 19.2953C25.5391 19.6373 25.6239 19.9325 25.5954 20.4856L25.5781 20.8216L25.7096 20.87C25.902 20.9408 26.114 21.1193 26.1705 21.2582C26.2001 21.3308 26.2751 21.4235 26.3712 21.5062C26.5497 21.6597 26.725 21.9118 26.8423 22.1833C26.9146 22.351 26.9249 22.4042 26.9235 22.6063C26.9222 22.8125 26.9313 22.8578 27.0081 23.0254C27.1339 23.2996 27.1398 23.6149 27.0276 24.0738C27.0052 24.1657 26.9936 24.2483 27.0018 24.2574C27.01 24.2665 27.056 24.2409 27.1038 24.2004C27.2991 24.0354 27.6027 24.053 27.7632 24.2386C27.8181 24.302 27.8629 24.3259 27.9268 24.3259C27.9825 24.3259 28.0085 24.3373 27.9976 24.3568C27.9881 24.3738 27.9411 24.3839 27.893 24.3793C27.845 24.3748 27.7973 24.3804 27.787 24.3918C27.7766 24.4033 27.7167 24.4127 27.6538 24.4127C27.5084 24.4127 27.4231 24.4622 27.2872 24.6255C27.1576 24.7812 27.1323 24.8728 27.1727 25.04C27.2117 25.2016 27.2109 25.2799 27.1702 25.2791C27.1235 25.2782 26.9402 25.1759 26.8637 25.1079C26.8278 25.076 26.7525 25.0469 26.6964 25.043C26.6048 25.0368 26.5827 25.0186 26.4814 24.8662C26.4193 24.7727 26.3548 24.6455 26.338 24.5834C26.3097 24.4789 26.3003 24.4705 26.2124 24.4705C26.086 24.4705 25.7365 24.2803 25.5801 24.1264C25.4 23.9494 25.3207 23.7488 25.3042 23.4294L25.2909 23.1699L25.0923 23.1698C24.941 23.1697 24.8737 23.1562 24.8097 23.1129C24.716 23.0496 24.59 22.8717 24.5074 22.6859L24.4528 22.5631L24.3819 22.6384C24.3428 22.6799 24.2996 22.7061 24.2859 22.6967C24.2722 22.6873 24.2557 22.6094 24.2493 22.5235C24.2415 22.4192 24.2036 22.292 24.1351 22.1401C24.0384 21.9254 24.0322 21.8957 24.0243 21.6092C24.0152 21.2772 24.0561 21.1149 24.1851 20.9708C24.2529 20.895 24.4171 20.6169 24.4466 20.5277C24.4694 20.4587 24.4261 20.4253 24.3135 20.4247C24.2589 20.4245 24.1481 20.476 24.0004 20.5707C23.7823 20.7104 23.7645 20.7166 23.6152 20.705C23.5291 20.6983 23.4364 20.6823 23.4091 20.6694C23.3653 20.6487 23.3615 20.6556 23.376 20.7302C23.4742 21.2324 23.465 21.843 23.3539 22.2017C23.269 22.476 23.2381 22.5436 23.0346 22.9008C22.9848 22.9882 22.9313 23.1391 22.9064 23.2621C22.883 23.3783 22.8512 23.4824 22.8359 23.4934C22.7936 23.5238 22.8834 23.7725 23.0593 24.1121C23.2156 24.4137 23.2981 24.5091 23.563 24.6942C23.6348 24.7443 23.7316 24.8404 23.7783 24.9077C23.8785 25.0524 23.8853 25.1546 23.8211 25.5543C23.7655 25.9003 23.8042 26.4996 23.9293 27.2297C23.9646 27.4359 23.9935 27.6333 23.9935 27.6684C23.9935 27.7612 23.9242 27.8266 23.8481 27.8055C23.8133 27.7958 23.7847 27.7991 23.7847 27.8127C23.7847 27.8264 23.7435 27.8871 23.6932 27.9476C23.623 28.0323 23.6075 28.0693 23.6261 28.1078C23.6395 28.1353 23.6492 28.1768 23.6477 28.2C23.6428 28.2789 23.7399 28.4865 23.79 28.5041C23.8174 28.5137 23.8363 28.5303 23.8319 28.541C23.8275 28.5516 23.802 28.6215 23.7751 28.6963C23.7273 28.8295 23.7223 28.8337 23.5189 28.9087C23.2196 29.0191 22.9548 29.0297 22.7674 28.9386ZM20.8397 16.0327C20.802 16.0732 20.7028 16.187 20.6193 16.2856C20.5357 16.3841 20.4613 16.4648 20.4539 16.4648C20.4378 16.4648 20.6576 16.1167 20.7642 15.9735C21.1424 15.4653 21.5589 14.8189 21.7214 14.488C21.9247 14.074 22.0834 13.4206 22.0448 13.1568C22.0288 13.0474 22.0582 13.0218 22.1043 13.105C22.1477 13.1831 22.1487 13.5178 22.106 13.6623C22.0851 13.7333 22.06 13.8542 22.0504 13.9309C22.0326 14.0722 21.9008 14.3827 21.7355 14.6729C21.6856 14.7603 21.6136 14.8904 21.5754 14.9619C21.4872 15.1271 21.4348 15.1954 21.4097 15.1782C21.3988 15.1707 21.3718 15.2145 21.3497 15.2756C21.3092 15.3878 20.9665 15.8966 20.8397 16.0327ZM22.3236 14.774C22.338 14.7839 22.3497 14.7976 22.3497 14.8046C22.3497 14.8116 22.338 14.8174 22.3236 14.8174C22.3093 14.8174 22.2975 14.8036 22.2975 14.7868C22.2975 14.7699 22.3093 14.7642 22.3236 14.774ZM18.7539 13.4656C18.781 13.4756 18.8492 13.7265 18.8523 13.8275C18.8542 13.8921 18.7559 13.8669 18.7393 13.7986C18.7105 13.6794 18.7204 13.4533 18.7539 13.4656ZM19.8119 13.5616C19.7745 13.5972 19.6335 13.6671 19.4986 13.7169C19.2009 13.8268 18.9901 13.8612 18.9738 13.8025L18.9211 13.6125C18.8982 13.5301 18.8794 13.4439 18.8794 13.4211C18.8794 13.3686 18.9911 13.3434 19.223 13.3434C19.3648 13.3434 19.4191 13.3563 19.4769 13.4036C19.5248 13.4428 19.6077 13.4695 19.7151 13.4803L19.8799 13.4968L19.8119 13.5616ZM19.7222 12.0211C19.763 12.157 19.7628 12.1584 19.7063 12.1588C19.6749 12.159 19.6257 12.1651 19.597 12.1724C19.5683 12.1796 19.492 12.1606 19.4274 12.1302C19.3628 12.0998 19.2742 12.0742 19.2304 12.0733C19.1552 12.0718 19.1514 12.0662 19.1614 11.9715C19.1735 11.8569 19.1848 11.851 19.4414 11.8244C19.6509 11.8027 19.658 11.8077 19.7222 12.0211Z" fill="white"/>
<path fill-rule="evenodd" clip-rule="evenodd" d="M22.3497 14.8046C22.3497 14.7976 22.338 14.7839 22.3236 14.774C22.3093 14.7642 22.2975 14.7699 22.2975 14.7868C22.2975 14.8036 22.3093 14.8174 22.3236 14.8174C22.338 14.8174 22.3497 14.8116 22.3497 14.8046Z" fill="white"/>
</svg>
