<svg width="40" height="40" viewBox="0 0 40 40" fill="none" xmlns="http://www.w3.org/2000/svg">
<rect x="0.200195" y="0.147461" width="39" height="39" rx="6" fill="#ECEEF4"/>
<path d="M9 9C9 8.44772 9.44772 8 10 8H31C31.5523 8 32 8.44772 32 9V30C32 30.5523 31.5523 31 31 31H10C9.44772 31 9 30.5523 9 30V9Z" fill="#002986"/>
<path fill-rule="evenodd" clip-rule="evenodd" d="M20.519 11.4442C19.244 11.4216 17.9668 11.7844 16.7478 12.6128C15.9022 12.0215 14.9277 11.4966 13.8788 11.418L13.1104 12.6405C14.8253 13.0648 14.6114 15.6817 14.3172 16.9656C14.2383 17.3151 14.1488 17.6789 14.0571 18.0515C13.3398 20.9677 12.4903 24.4211 15.5468 25.7404C16.0914 25.9755 16.6943 26.1195 17.2996 26.2641C18.5121 26.5537 19.7347 26.8458 20.5191 27.8768C21.3035 26.8458 22.5259 26.5537 23.7385 26.2641C24.3438 26.1195 24.9467 25.9755 25.4913 25.7404C28.5478 24.4211 27.6983 20.9677 26.981 18.0516C26.8893 17.6789 26.7998 17.3151 26.7209 16.9656C26.4267 15.6817 26.2127 13.0648 27.9277 12.6405L27.1593 11.418C26.1103 11.4966 25.1359 12.0215 24.2903 12.6128C23.0712 11.7844 21.794 11.4216 20.519 11.4442ZM20.4998 23.7855C22.8666 23.7855 24.7852 21.8668 24.7852 19.5C24.7852 17.1333 22.8666 15.2146 20.4998 15.2146C18.133 15.2146 16.2144 17.1333 16.2144 19.5C16.2144 21.8668 18.133 23.7855 20.4998 23.7855Z" fill="#FFCC18"/>
</svg>
