<svg width="47" height="38" viewBox="0 0 47 38" fill="none" xmlns="http://www.w3.org/2000/svg">
<path d="M29.7331 20.5685C29.5303 20.5685 29.3859 20.3714 29.4471 20.178L30.1896 17.8307C30.2554 17.6228 30.4483 17.4815 30.6663 17.4815H34.0525C34.3287 17.4815 34.5525 17.2576 34.5525 16.9815V14.107C34.5525 13.8309 34.3287 13.607 34.0525 13.607H31.9059C31.7033 13.607 31.5589 13.4103 31.6198 13.217L33.0565 8.65005C33.1579 8.3279 32.9173 8 32.5796 8H29.1864C28.9681 8 28.775 8.14167 28.7095 8.34995L27.1656 13.2571C27.1001 13.4653 26.907 13.607 26.6887 13.607H23.1174C22.9148 13.607 22.7704 13.4103 22.8313 13.217L24.268 8.65005C24.3694 8.3279 24.1288 8 23.7911 8H20.3979C20.1796 8 19.9865 8.14167 19.921 8.34995L18.3771 13.2571C18.3116 13.4653 18.1185 13.607 17.9002 13.607H14.168C13.8919 13.607 13.668 13.8309 13.668 14.107V16.9815C13.668 17.2576 13.8919 17.4815 14.168 17.4815H16.6605C16.8633 17.4815 17.0077 17.6786 16.9465 17.872L16.204 20.2193C16.1382 20.4272 15.9453 20.5685 15.7273 20.5685H12.4355C12.1594 20.5685 11.9355 20.7924 11.9355 21.0685V23.943C11.9355 24.2191 12.1594 24.443 12.4355 24.443H14.4877C14.6903 24.443 14.8347 24.6397 14.7739 24.833L13.5259 28.8015C13.4246 29.1237 13.6652 29.4515 14.0029 29.4515H17.3961C17.6145 29.4515 17.8076 29.3098 17.8731 29.1015L19.228 24.793C19.2935 24.5847 19.4866 24.443 19.705 24.443H23.2762C23.4788 24.443 23.6232 24.6397 23.5624 24.833L22.3144 28.8015C22.2131 29.1237 22.4537 29.4515 22.7914 29.4515H26.1846C26.403 29.4515 26.5961 29.3098 26.6616 29.1015L28.0165 24.793C28.082 24.5847 28.2751 24.443 28.4935 24.443H32.32C32.5962 24.443 32.82 24.2191 32.82 23.943V21.0685C32.82 20.7924 32.5962 20.5685 32.32 20.5685H29.7331ZM21.4011 17.8307C21.4668 17.6228 21.6598 17.4815 21.8778 17.4815H25.449C25.6518 17.4815 25.7962 17.6786 25.735 17.872L24.9925 20.2193C24.9267 20.4272 24.7338 20.5685 24.5158 20.5685H20.9446C20.7418 20.5685 20.5974 20.3714 20.6586 20.178L21.4011 17.8307Z" fill="#9D7AFF"/>
<path d="M41.7072 20.2929C41.3167 19.9024 40.6835 19.9024 40.293 20.2929L35.8535 24.7323C35.5385 25.0473 35.7616 25.5859 36.2071 25.5859H39.0001L39 28.5859C39 31.3474 36.7614 33.5859 34 33.5859H30V37.5859H34C38.9706 37.5859 43 33.5565 43 28.5859V25.5859L45.7931 25.5859C46.2385 25.5859 46.4616 25.0473 46.1466 24.7323L41.7072 20.2929Z" fill="#B59BFF"/>
<path d="M3.29396 9V12C3.29399 12 3.29392 12 3.29396 12L0.500881 12C0.055428 12 -0.167656 12.5386 0.147327 12.8536L4.58678 17.293C4.97731 17.6836 5.61047 17.6836 6.001 17.293L10.4405 12.8536C10.7554 12.5386 10.5324 12 10.0869 12H7.29386C7.29389 12 7.29383 12.0001 7.29386 12L7.29396 9C7.29396 6.23858 9.53253 4 12.294 4H16.294V0H12.294C7.32339 0 3.29396 4.02944 3.29396 9Z" fill="#B59BFF"/>
</svg>
