<svg width="39" height="39" viewBox="0 0 39 39" fill="none" xmlns="http://www.w3.org/2000/svg">
<rect x="0.5" y="0.5" width="38" height="38" rx="5.5" stroke="#D4EFFF"/>
<path d="M17 31H22V24H17V31Z" fill="#0090E0"/>
<path d="M5 9.23256C5 7.99955 5.99955 7 7.23256 7H31.7674C33.0004 7 34 7.99955 34 9.23256V24.7674C34 26.0005 33.0005 27 31.7674 27H7.23256C5.99955 27 5 26.0005 5 24.7674V9.23256Z" fill="#26B1FF"/>
<path d="M6.5 9.43023C6.5 8.91648 6.91648 8.5 7.43023 8.5H31.5698C32.0835 8.5 32.5 8.91648 32.5 9.43023V24H6.5V9.43023Z" fill="#7DD0FF"/>
<path d="M11 32.0698C11 32.5835 11.4165 33 11.9302 33H27.0698C27.5835 33 28 32.5835 28 32.0698V31.9302C28 31.4165 27.5835 31 27.0698 31H11.9302C11.4165 31 11 31.4165 11 31.9302V32.0698Z" fill="#0090E0"/>
<path d="M6 23H33V24.7674C33 26.0004 32.0005 27 30.7674 27H8.23256C6.99955 27 6 26.0004 6 24.7674V23Z" fill="#26B1FF"/>
</svg>
