<svg width="34" height="40" viewBox="0 0 34 40" fill="none" xmlns="http://www.w3.org/2000/svg">
<path d="M4 40C1.79086 40 7.8281e-08 38.2091 1.74846e-07 36L1.57361e-06 4C1.67017e-06 1.79086 1.79086 7.8281e-08 4 1.74846e-07L21.8431 9.54794e-07C22.904 1.00117e-06 23.9214 0.42143 24.6716 1.17157L32.8284 9.32843C33.5786 10.0786 34 11.096 34 12.1569L34 36C34 38.2091 32.2091 40 30 40L4 40Z" fill="#46CA63"/>
<rect x="6" y="6" width="13" height="3" rx="1.5" fill="#90DFA1"/>
<rect x="6" y="12" width="22" height="3" rx="1.5" fill="#90DFA1"/>
<path d="M16 30.4202C16 28.4664 14.8115 27.5512 12.5195 27.0055L10.9066 26.6183C10.0068 26.407 9.58234 26.1254 9.58234 25.4917C9.58234 24.7349 10.2275 24.2948 11.2292 24.2948C12.2988 24.2948 12.927 24.8053 13.0968 25.8086H15.983C15.8812 24.6645 15.4907 23.7844 14.8115 23.1683C14.1494 22.5523 13.3345 22.1474 12.3667 21.9538V20H10.1426V21.8834C7.90153 22.1826 6.4584 23.6436 6.4584 25.7382C6.4584 27.6392 7.51104 28.7305 9.80306 29.2585L11.7046 29.6986C12.5195 29.8922 12.927 30.209 12.927 30.7195C12.927 31.3707 12.3667 31.7756 11.2971 31.7756C9.93888 31.7756 9.05603 31.1419 8.86927 30.0858H6C6.22071 32.4972 7.85059 33.9054 10.1426 34.2398V36H12.3667V34.2222C14.6078 33.8702 16 32.462 16 30.4202Z" fill="#EDFAF0"/>
</svg>
