<svg width="49" height="43" viewBox="0 0 49 43" fill="none" xmlns="http://www.w3.org/2000/svg">
<path d="M19 41H30V28H19V41Z" fill="#26B1FF"/>
<path d="M0 4C0 1.79086 1.79086 0 4 0H45C47.2091 0 49 1.79086 49 4V30C49 32.2091 47.2091 34 45 34H4C1.79086 34 0 32.2091 0 30V4Z" fill="#51C1FF"/>
<path d="M3 4.66667C3 3.74619 3.74619 3 4.66667 3H44.3333C45.2538 3 46 3.74619 46 4.66667V29H3V4.66667Z" fill="#EAF8FF"/>
<path d="M9 41.3333C9 42.2538 9.74619 43 10.6667 43H38.3333C39.2538 43 40 42.2538 40 41.3333V40.6667C40 39.7462 39.2538 39 38.3333 39H10.6667C9.74619 39 9 39.7462 9 40.6667V41.3333Z" fill="#26B1FF"/>
<path d="M2 27H47V30C47 32.2091 45.2091 34 43 34H6C3.79086 34 2 32.2091 2 30V27Z" fill="#51C1FF"/>
</svg>
