<svg width="39" height="39" viewBox="0 0 39 39" fill="none" xmlns="http://www.w3.org/2000/svg">
<rect x="0.5" y="0.5" width="38" height="38" rx="5.5" stroke="#DAF4E0"/>
<path fill-rule="evenodd" clip-rule="evenodd" d="M30.204 18.3189C29.9335 15.9742 28.8587 13.7866 27.1532 12.1098C25.4477 10.433 23.2111 9.36481 20.8049 9.07787C18.3986 8.79093 15.9633 9.30201 13.8923 10.5284C11.8213 11.755 10.2356 13.6252 9.39157 15.8371C7.67067 16.3125 6.18429 17.3773 5.20634 18.8352C4.2284 20.2932 3.82482 22.046 4.07001 23.7707C4.31519 25.4954 5.19256 27.0758 6.54046 28.2205C7.88836 29.3652 9.61598 29.9972 11.4049 30H28.9351C30.4334 29.9992 31.8785 29.459 32.992 28.4832C34.1056 27.5074 34.8088 26.1651 34.9664 24.7149C35.1239 23.2646 34.7246 21.8089 33.8453 20.628C32.9661 19.4472 31.669 18.6247 30.204 18.3189ZM21.9017 22.7487L22.8908 21.5452C23.007 21.4043 23.1678 21.3049 23.3481 21.2624C23.5285 21.2199 23.7182 21.2368 23.8877 21.3102L26.4249 22.4058C26.6069 22.4846 26.7543 22.6236 26.8407 22.7982C26.9272 22.9728 26.9472 23.1716 26.8971 23.3592L26.3408 25.4477C26.2885 25.6425 26.1647 25.8118 25.9926 25.9237C25.8207 26.0355 25.6125 26.082 25.4076 26.0544C22.7264 25.6878 20.2408 24.4816 18.3263 22.6182C16.4117 20.7548 15.1725 18.3356 14.7958 15.726C14.7675 15.5266 14.8154 15.3239 14.9303 15.1564C15.0452 14.9889 15.2193 14.8682 15.4194 14.8173L17.5649 14.2763C17.7577 14.2275 17.962 14.2469 18.1414 14.3311C18.3208 14.4152 18.4637 14.5587 18.5444 14.7359L19.6718 17.2059C19.747 17.371 19.7641 17.5557 19.7202 17.7312C19.6763 17.9067 19.5739 18.0632 19.429 18.1761L18.1924 19.1388C19.0929 20.6299 20.3696 21.8724 21.9017 22.7487Z" fill="#46CA63"/>
</svg>
