<svg width="39" height="39" viewBox="0 0 39 39" fill="none" xmlns="http://www.w3.org/2000/svg">
<rect x="0.5" y="0.5" width="38" height="38" rx="5.5" stroke="#F3EFFF"/>
<path d="M14.015 29.264L12.7924 30.7923C10.8989 29.6795 9.32094 28.1017 8.20798 26.2083L9.73635 24.9858C9.91538 24.8423 10.0419 24.6437 10.0962 24.4208C10.1504 24.1979 10.1294 23.9633 10.0364 23.7537L8.643 20.6172C8.54318 20.3921 8.36664 20.2099 8.14488 20.103C7.92313 19.9961 7.6706 19.9715 7.43237 20.0335L4.78064 20.7205C4.53322 20.7852 4.31813 20.9384 4.17607 21.1511C4.03402 21.3638 3.97486 21.6212 4.0098 21.8745C4.47543 25.1883 6.00711 28.2604 8.37335 30.6266C10.7396 32.9928 13.8118 34.5245 17.1256 34.9901C17.3788 35.0252 17.6362 34.9661 17.8487 34.8241C18.0613 34.6821 18.2144 34.467 18.279 34.2196L18.9666 31.5676C19.0285 31.3294 19.0038 31.0769 18.8969 30.8552C18.79 30.6335 18.6079 30.4569 18.3829 30.357L15.2471 28.9657C15.0376 28.8724 14.8031 28.8511 14.5802 28.905C14.3573 28.959 14.1586 29.0852 14.015 29.264Z" fill="#B59BFF"/>
<path d="M29.6897 5.27064C30.7434 6.0938 31.4914 7.2458 31.8147 8.54353C32.7494 8.68561 33.5959 9.17592 34.1846 9.91596C34.7733 10.6556 35.0607 11.5905 34.9893 12.5334C34.9179 13.4763 34.4929 14.3573 33.7995 15C33.1061 15.643 32.1955 16 31.2499 16H20.7501C19.8045 16 18.8939 15.643 18.2005 15C17.5071 14.3573 17.0821 13.4763 17.0107 12.5334C16.9393 11.5905 17.2267 10.6556 17.8154 9.91596C18.4041 9.17592 19.2506 8.68561 20.1853 8.54353C20.5086 7.2458 21.2566 6.0938 22.3103 5.27064C23.364 4.4471 24.6628 4 26 4C27.3372 4 28.636 4.4471 29.6897 5.27064Z" fill="#8459FF"/>
<path d="M26 18V21C26 23.2091 24.2091 25 22 25H17" stroke="#B59BFF"/>
</svg>
