<svg width="51" height="50" viewBox="0 0 51 50" fill="none" xmlns="http://www.w3.org/2000/svg">
<path d="M16.3312 4.45944C8.61138 7.69005 3.18691 15.067 2.57129 23.4999M32.7282 3.9928C40.8789 7.06898 46.79 14.7506 47.4287 23.4999M15.0001 45.31C18.0123 46.8078 21.4078 47.65 25 47.65C28.7926 47.65 32.3658 46.7112 35.5001 45.0534" stroke="#B59BFF" stroke-width="3"/>
<path d="M7 34.5C9.3196 34.5 11.2 32.5972 11.2 30.25C11.2 27.9028 9.3196 26 7 26C4.6804 26 2.8 27.9028 2.8 30.25C2.8 32.5972 4.6804 34.5 7 34.5Z" fill="#9D7AFF"/>
<path d="M7 35.9167C2.275 35.9167 0 38.9002 0 40.6384V41.5833C0 41.9591 0.1475 42.3194 0.41005 42.5851C0.672601 42.8507 1.0287 43 1.4 43H12.6C12.9713 43 13.3274 42.8507 13.5899 42.5851C13.8525 42.3194 14 41.9591 14 41.5833V40.6384C14 38.9002 11.725 35.9167 7 35.9167Z" fill="#9D7AFF"/>
<path d="M44 34.5C46.3196 34.5 48.2 32.5972 48.2 30.25C48.2 27.9028 46.3196 26 44 26C41.6804 26 39.8 27.9028 39.8 30.25C39.8 32.5972 41.6804 34.5 44 34.5Z" fill="#9D7AFF"/>
<path d="M44 35.9167C39.275 35.9167 37 38.9002 37 40.6384V41.5833C37 41.9591 37.1475 42.3194 37.4101 42.5851C37.6726 42.8507 38.0287 43 38.4 43H49.6C49.9713 43 50.3274 42.8507 50.5899 42.5851C50.8525 42.3194 51 41.9591 51 41.5833V40.6384C51 38.9002 48.725 35.9167 44 35.9167Z" fill="#9D7AFF"/>
<path d="M25 8.5C27.3196 8.5 29.2 6.59721 29.2 4.25C29.2 1.90279 27.3196 0 25 0C22.6804 0 20.8 1.90279 20.8 4.25C20.8 6.59721 22.6804 8.5 25 8.5Z" fill="#9D7AFF"/>
<path d="M25 9.91667C20.275 9.91667 18 12.9002 18 14.6384V15.5833C18 15.9591 18.1475 16.3194 18.4101 16.5851C18.6726 16.8507 19.0287 17 19.4 17H30.6C30.9713 17 31.3274 16.8507 31.5899 16.5851C31.8525 16.3194 32 15.9591 32 15.5833V14.6384C32 12.9002 29.725 9.91667 25 9.91667Z" fill="#9D7AFF"/>
</svg>
