<svg width="39" height="39" viewBox="0 0 39 39" fill="none" xmlns="http://www.w3.org/2000/svg">
<rect x="0.5" y="0.5" width="38" height="38" rx="5.5" stroke="#D1E6FF"/>
<rect x="6" y="20" width="4" height="11" rx="2" fill="#A2CDFF"/>
<rect x="14" y="15" width="4" height="16" rx="2" fill="#A2CDFF"/>
<rect x="22" y="21" width="4" height="10" rx="2" fill="#A2CDFF"/>
<path d="M30 15C30 13.8954 30.8954 13 32 13C33.1046 13 34 13.8954 34 15V29C34 30.1046 33.1046 31 32 31C30.8954 31 30 30.1046 30 29V15Z" fill="#A2CDFF"/>
<path d="M32 9C33.1046 9 34 8.10457 34 7C34 5.89543 33.1046 5 32 5C30.8954 5 30 5.89543 30 7C30 7.3709 30.101 7.71823 30.2769 8.01598L26.4749 11.818C25.108 13.1849 22.892 13.1849 21.5251 11.818L18.182 8.47487C16.4246 6.71751 13.5754 6.71751 11.818 8.47487L5.64645 14.6464C5.45118 14.8417 5.45118 15.1583 5.64645 15.3536C5.84171 15.5488 6.15829 15.5488 6.35355 15.3536L12.5251 9.18198C13.892 7.81514 16.108 7.81515 17.4749 9.18198L20.818 12.5251C22.5754 14.2825 25.4246 14.2825 27.182 12.5251L30.984 8.72309C31.2818 8.89903 31.6291 9 32 9Z" fill="#1782FF"/>
</svg>
