<svg width="49" height="52" viewBox="0 0 49 52" fill="none" xmlns="http://www.w3.org/2000/svg">
<path d="M0 22C0 19.7909 1.79086 18 4 18H45C47.2091 18 49 19.7909 49 22V48C49 50.2091 47.2091 52 45 52H4C1.79086 52 0 50.2091 0 48V22Z" fill="#FFA47E"/>
<path d="M3 47C3 48.1046 3.89543 49 5 49H44C45.1046 49 46 48.1046 46 47V42.1742C46 41.4492 45.6077 40.7811 44.9747 40.4278L25.3123 29.4534C24.8074 29.1716 24.1926 29.1716 23.6877 29.4534L4.02527 40.4278C3.39227 40.7811 3 41.4492 3 42.1742V47Z" fill="#FF8652"/>
<path d="M3 23C3 21.8954 3.89543 21 5 21H44C45.1046 21 46 21.8954 46 23V23.8258C46 24.5508 45.6077 25.2189 44.9747 25.5722L25.3123 36.5466C24.8074 36.8284 24.1926 36.8284 23.6877 36.5466L4.02527 25.5722C3.39227 25.2189 3 24.5508 3 23.8258V23Z" fill="#FFE1D4"/>
<rect x="20" width="3" height="16" rx="1.5" fill="#FF6827"/>
<rect x="27" y="3" width="3" height="10" rx="1.5" fill="#FF6827"/>
<rect x="13" y="2" width="3" height="12" rx="1.5" fill="#FF6827"/>
<rect x="34" y="5" width="3" height="6" rx="1.5" fill="#FF6827"/>
</svg>
