<svg width="39" height="39" viewBox="0 0 39 39" fill="none" xmlns="http://www.w3.org/2000/svg">
<rect x="0.5" y="0.5" width="38" height="38" rx="5.5" stroke="#D4EFFF"/>
<path d="M33.3047 19.0575C30.3639 13.2519 25.2067 9.73877 19.4997 9.73877C13.7927 9.73877 8.6267 13.2519 5.71211 19.0575L5.46777 19.4954L5.69466 19.9427C8.63542 25.7483 13.7927 29.2614 19.4997 29.2614C25.2067 29.2614 30.3727 25.7949 33.3047 19.9427L33.5316 19.4954L33.3047 19.0575ZM19.4997 27.3511C14.5868 27.3511 10.0753 24.425 7.45737 19.4954C10.0753 14.5658 14.5868 11.6398 19.4997 11.6398C24.4126 11.6398 28.8717 14.5752 31.5333 19.4954C28.8717 24.425 24.4039 27.3511 19.4997 27.3511Z" fill="#26B1FF" stroke="white" stroke-width="0.7"/>
<path d="M19.5005 25.6812C22.9143 25.6812 25.6817 22.9138 25.6817 19.5C25.6817 16.0863 22.9143 13.3188 19.5005 13.3188C16.0867 13.3188 13.3193 16.0863 13.3193 19.5C13.3193 22.9138 16.0867 25.6812 19.5005 25.6812Z" fill="#26B1FF"/>
</svg>
