<svg width="40" height="32" viewBox="0 0 40 32" fill="none" xmlns="http://www.w3.org/2000/svg">
<path d="M4 0C1.79089 0 0 1.79089 0 4V29.4679C0 31.0225 1.69594 31.9827 3.02899 31.1828L9.52499 27.2853C9.83581 27.0988 10.1915 27.0002 10.554 27.0002L36 27C38.2091 27 40 25.2091 40 23V4C40 1.79089 38.2091 0 36 0H4Z" fill="#51C1FF"/>
<rect x="6" y="6" width="11" height="3" rx="1.5" fill="#EAF8FF"/>
<rect x="6" y="12" width="29" height="3" rx="1.5" fill="#EAF8FF"/>
<rect x="6" y="18" width="24" height="3" rx="1.5" fill="#EAF8FF"/>
<path d="M22 27H0V29.4679C0 31.0225 1.69592 31.9827 3.02905 31.1829L9.52502 27.2853C9.83582 27.0988 10.1915 27.0002 10.554 27.0002L22 27Z" fill="#26B1FF"/>
</svg>
