<svg width="49" height="27" viewBox="0 0 49 27" fill="none" xmlns="http://www.w3.org/2000/svg">
<path d="M3.41581 9.07625e-06H0L14.3535 23.868C15.8357 26.2402 18.4039 27.2124 20.7282 26.9616L5.06567 0.910869C4.7127 0.346066 4.07986 0.00205173 3.41581 9.07625e-06Z" fill="#FA4D4D"/>
<path d="M12.4447 9.07863e-06C13.1087 0.00205173 13.7471 0.346066 14.1001 0.910869L24.0389 17.4437C24.249 17.7879 24.7498 17.7893 24.9576 17.4437L34.2793 1.94377H34.2802L34.5477 1.49716L34.9193 0.879054C35.2768 0.33341 35.92 0.00201381 36.5714 9.07863e-06H39.9703L26.768 21.968C27.934 23.5118 30.2572 23.4968 31.3755 21.8118L43.963 0.860245C44.0465 0.736006 44.1445 0.623164 44.2538 0.523105C44.5391 0.266271 44.9773 0.021751 45.538 0.000997498C45.5586 0.000339287 45.5791 5.58829e-06 45.5997 0L49 9.07863e-06L34.6761 23.8284C33.4191 25.8905 31.1915 27.0017 28.9926 26.9998C26.8129 26.9979 24.5891 25.8464 23.374 23.868L9.02012 9.07863e-06H12.4447Z" fill="#FA4D4D"/>
</svg>
