<svg width="50" height="50" viewBox="0 0 50 50" fill="none" xmlns="http://www.w3.org/2000/svg">
<path d="M50 7C50 10.866 46.866 14 43 14C42.0465 14 41.1375 13.8094 40.3091 13.4641C39.3909 13.0814 38.2856 13.1287 37.5822 13.8321L27.8285 23.5858C27.0475 24.3669 27.0475 25.6332 27.8285 26.4143L37.5821 36.1679C38.2856 36.8713 39.3908 36.9186 40.3091 36.5359C41.1375 36.1907 42.0465 36 43 36C46.866 36 50 39.134 50 43C50 46.866 46.866 50 43 50C39.134 50 36 46.866 36 43C36 42.0465 36.1907 41.1375 36.5359 40.309C36.9186 39.3908 36.8713 38.2855 36.1679 37.5821L26.4143 27.8285C25.6332 27.0475 24.3669 27.0475 23.5858 27.8285L13.8321 37.5822C13.1287 38.2856 13.0814 39.3909 13.4641 40.3091C13.8094 41.1376 14 42.0465 14 43C14 46.866 10.866 50 7 50C3.134 50 0 46.866 0 43C0 39.134 3.134 36 7 36C7.95355 36 8.86257 36.1907 9.69101 36.5359C10.6093 36.9186 11.7146 36.8714 12.418 36.1679L22.1717 26.4143C22.9527 25.6332 22.9527 24.3669 22.1717 23.5858L12.4179 13.8321C11.7145 13.1287 10.6092 13.0814 9.69091 13.4641C8.86249 13.8094 7.95351 14 7 14C3.134 14 0 10.866 0 7C0 3.13403 3.134 0 7 0C10.866 0 14 3.13403 14 7C14 7.95352 13.8093 8.86252 13.4641 9.69096C13.0814 10.6092 13.1287 11.7145 13.8321 12.4179L23.5858 22.1717C24.3669 22.9527 25.6332 22.9527 26.4143 22.1717L36.1679 12.418C36.8714 11.7146 36.9186 10.6093 36.5359 9.69101C36.1907 8.86257 36 7.95355 36 7C36 3.13403 39.134 0 43 0C46.866 0 50 3.13403 50 7Z" fill="#6BD482"/>
<circle cx="25" cy="25" r="13" fill="#46CA63"/>
<path d="M31.1998 27.1001L28.4549 25.8821C28.1834 25.762 27.8799 25.7348 27.5913 25.8047C27.3028 25.8747 27.0453 26.0378 26.8589 26.2689L26.0303 27.3057C24.6875 26.4515 23.5486 25.3129 22.6939 23.9703L23.7299 23.1426C23.9618 22.9564 24.1256 22.6987 24.1959 22.4098C24.2662 22.1208 24.2389 21.8167 24.1184 21.5448L22.8996 18.8C22.7701 18.5085 22.5413 18.2724 22.254 18.1338C21.9667 17.9952 21.6395 17.963 21.3307 18.0432L19.0102 18.646C18.69 18.7296 18.4117 18.9278 18.2279 19.2029C18.044 19.478 17.9675 19.811 18.0127 20.1387C18.4424 23.1287 19.8291 25.8991 21.9652 28.035C24.1013 30.1709 26.8718 31.5574 29.8619 31.9869C29.9234 31.9956 29.9854 32 30.0474 32C30.3462 31.9998 30.6364 31.9006 30.8728 31.7179C31.1092 31.5352 31.2783 31.2793 31.3538 30.9903L31.9558 28.6689C32.0371 28.3603 32.0056 28.0327 31.867 27.7452C31.7285 27.4576 31.4919 27.2289 31.1998 27.1001Z" fill="#EDFAF0"/>
</svg>
