<svg width="39" height="40" viewBox="0 0 39 40" fill="none" xmlns="http://www.w3.org/2000/svg">
<rect x="0.5" y="0.910645" width="38" height="38" rx="5.5" stroke="#E6E8E9"/>
<path d="M30.1334 24.8106V21.9106C30.1334 20.309 28.835 19.0106 27.2334 19.0106H22.4C20.7984 19.0106 19.5 17.7122 19.5 16.1106M19.5 16.1106V14.1772M19.5 16.1106C19.5 17.7122 18.2017 19.0106 16.6 19.0106H11.7667C10.1651 19.0106 8.8667 20.309 8.8667 21.9106V24.8106M19.5 19.9772V24.8106" stroke="#99A1A6"/>
<path d="M15.6333 8.41064C15.6333 7.85836 16.081 7.41064 16.6333 7.41064H22.3666C22.9189 7.41064 23.3666 7.85836 23.3666 8.41064V14.144C23.3666 14.6963 22.9189 15.144 22.3666 15.144H16.6333C16.081 15.144 15.6333 14.6963 15.6333 14.144V8.41064Z" fill="#667379"/>
<path d="M5 24.844C5 24.2917 5.44772 23.844 6 23.844H11.7333C12.2856 23.844 12.7333 24.2917 12.7333 24.844V30.5773C12.7333 31.1296 12.2856 31.5773 11.7333 31.5773H6C5.44771 31.5773 5 31.1296 5 30.5773V24.844Z" fill="#33444D"/>
<path d="M15.6333 24.844C15.6333 24.2917 16.081 23.844 16.6333 23.844H22.3666C22.9189 23.844 23.3666 24.2917 23.3666 24.844V30.5773C23.3666 31.1296 22.9189 31.5773 22.3666 31.5773H16.6333C16.081 31.5773 15.6333 31.1296 15.6333 30.5773V24.844Z" fill="#33444D"/>
<path d="M26.2666 24.844C26.2666 24.2917 26.7143 23.844 27.2666 23.844H32.9999C33.5522 23.844 33.9999 24.2917 33.9999 24.844V30.5773C33.9999 31.1296 33.5522 31.5773 32.9999 31.5773H27.2666C26.7143 31.5773 26.2666 31.1296 26.2666 30.5773V24.844Z" fill="#33444D"/>
</svg>
