<svg width="24" height="24" viewBox="0 0 24 24" fill="none" xmlns="http://www.w3.org/2000/svg">
<path d="M23.5 12C23.5 18.3513 18.3513 23.5 12 23.5C5.64872 23.5 0.5 18.3513 0.5 12C0.5 5.6487 5.64872 0.5 12 0.5C18.3513 0.5 23.5 5.6487 23.5 12Z" fill="#1782FF" fill-opacity="0.1" stroke="#1782FF"/>
<path fill-rule="evenodd" clip-rule="evenodd" d="M18 8C18 9.65686 16.6569 11 15 11C13.3431 11 12 9.65686 12 8C12 6.34314 13.3431 5 15 5C16.6569 5 18 6.34314 18 8ZM13.567 13.75C13.7594 13.4166 14.2406 13.4166 14.433 13.75L17.0311 18.25C17.2235 18.5834 16.983 19 16.5981 19H11.4019C11.017 19 10.7765 18.5834 10.9689 18.25L13.567 13.75ZM4.5 8C4.22385 8 4 8.22388 4 8.5V13.5C4 13.7761 4.22385 14 4.5 14H9.5C9.77615 14 10 13.7761 10 13.5V8.5C10 8.22388 9.77615 8 9.5 8H4.5Z" fill="#1782FF"/>
</svg>
