<svg width="41" height="28" viewBox="0 0 41 28" fill="none" xmlns="http://www.w3.org/2000/svg">
<path fill-rule="evenodd" clip-rule="evenodd" d="M17.3365 3.05899C18.6277 1.71487 20.4248 0.882518 22.4101 0.882518C25.0571 0.882518 27.3512 2.35311 28.5865 4.54428C29.6831 4.0541 30.8707 3.80103 32.0718 3.80164C36.8365 3.80164 40.7042 7.69869 40.7042 12.5075C40.7042 17.3163 36.8365 21.2134 32.0718 21.2134C31.4895 21.2134 30.9218 21.1549 30.3659 21.0443C29.2851 22.9708 27.2189 24.2796 24.8659 24.2796C23.908 24.2815 22.9623 24.0642 22.1012 23.6443C21.0057 26.2178 18.4542 28.0266 15.4836 28.0266C12.3807 28.0266 9.7483 26.0708 8.73359 23.3208C8.28197 23.4161 7.82163 23.464 7.36006 23.4637C3.66889 23.4637 0.683594 20.4343 0.683594 16.7137C0.683594 14.2137 2.02771 12.0372 4.02183 10.8608C3.59878 9.8862 3.38102 8.83494 3.38212 7.77252C3.38212 3.4784 6.86742 0.0078125 11.1615 0.0078125C13.6762 0.0078125 15.9262 1.20634 17.338 3.06664" fill="#00A1E0"/>
</svg>
