<svg width="180" height="180" viewBox="0 0 180 180" fill="none" xmlns="http://www.w3.org/2000/svg">
<g clip-path="url(#clip0)">
<path d="M16.0599 43H4L54.6768 126.67C59.9099 134.986 68.9771 138.394 77.1833 137.515L21.8849 46.1931C20.6387 44.2131 18.4044 43.0072 16.0599 43Z" fill="#F92120"/>
<path d="M47.9372 43C50.2819 43.0072 52.5357 44.2131 53.7819 46.1931L88.8719 104.149C89.6139 105.356 91.3821 105.361 92.1156 104.149L125.027 49.8139H125.03L125.975 48.2483L127.286 46.0815C128.549 44.1688 130.819 43.0071 133.119 43H145.12L98.5074 120.01C102.624 125.421 110.826 125.369 114.775 119.462L159.216 46.0156C159.511 45.5801 159.857 45.1845 160.243 44.8338C161.25 43.9334 162.797 43.0762 164.777 43.0035C164.85 43.0012 164.922 43 164.995 43L177 43L126.428 126.531C121.99 133.76 114.125 137.655 106.362 137.648C98.666 137.642 90.8145 133.605 86.5244 126.67L35.8466 43H47.9372Z" fill="#F92120"/>
<path d="M89.0165 104.353L98.5114 120.018L145.12 43H133.12C130.82 43.007 128.549 44.1687 127.287 46.0815L125.975 48.2483L125.031 49.8139H125.027L92.1162 104.149C91.4266 105.288 89.8227 105.352 89.0165 104.353Z" fill="url(#paint0_linear)"/>
</g>
<defs>
<linearGradient id="paint0_linear" x1="137.576" y1="47.6673" x2="99.4236" y2="113.417" gradientUnits="userSpaceOnUse">
<stop stop-color="#F92120"/>
<stop offset="1" stop-color="#C00100"/>
</linearGradient>
<clipPath id="clip0">
<rect width="173" height="94.6492" fill="white" transform="translate(4 43)"/>
</clipPath>
</defs>
</svg>
