<svg width="774" height="451" viewBox="0 0 774 451" fill="none" xmlns="http://www.w3.org/2000/svg">
<g filter="url(#filter0_d)">
<path d="M703.935 25.1715L703.862 25.0568C703.836 25.0163 703.811 24.9763 703.785 24.9367L697.249 14.7627L693.426 15.7842L693.713 18.8726H177.205C173.815 18.8726 170.481 21.557 169.758 24.8684L104.868 319.186L100.953 321.016L107.124 330.639L107.13 330.637C107.943 332.057 109.502 332.971 111.48 332.971H632.045C635.435 332.971 638.769 330.286 639.492 326.975L704.415 28.8468C704.717 27.4623 704.516 26.1874 703.931 25.1725L703.935 25.1715Z" fill="#1A2D37"/>
</g>
<path d="M165.655 18.4649C166.31 15.4629 169.333 13.0292 172.406 13.0292H693.558C696.631 13.0292 698.59 15.4629 697.935 18.4649L632.64 317.432C631.984 320.435 628.962 322.868 625.889 322.868H104.737C101.664 322.868 99.7043 320.435 100.36 317.432L165.655 18.4649Z" fill="url(#paint0_linear)"/>
<path opacity="0.2" d="M346.641 97.9358C347.364 94.6244 350.698 91.9399 354.088 91.9399H479.9C483.289 91.9399 485.45 94.6244 484.727 97.9358L451.335 250.829C450.612 254.141 447.278 256.825 443.888 256.825H318.077C314.687 256.825 312.526 254.141 313.249 250.829L346.641 97.9358Z" fill="#001520"/>
<g filter="url(#filter1_d)">
<path d="M465.327 68.7417L465.253 68.627C465.228 68.5865 465.203 68.5465 465.176 68.5069L461.212 62.3113L457.388 63.3327L457.676 66.4212H335.168C331.778 66.4212 328.444 69.1056 327.721 72.417L295.146 221.567L290.685 222.544L294.801 228.974L294.807 228.973C295.619 230.392 297.179 231.306 299.157 231.306H424.968C428.358 231.306 431.692 228.622 432.415 225.31L465.807 72.417C466.109 71.0325 465.907 69.7576 465.322 68.7427L465.327 68.7417Z" fill="url(#paint1_linear)"/>
</g>
<path d="M323.655 66.072C324.378 62.7606 327.712 60.0762 331.102 60.0762H456.913C460.303 60.0762 462.464 62.7606 461.741 66.072L428.349 218.965C427.626 222.277 424.292 224.961 420.902 224.961H295.09C291.701 224.961 289.54 222.277 290.263 218.965L323.655 66.072Z" fill="#FBFBFD"/>
<path d="M371.322 77.2586L368.285 77.2586L376.552 97.8463C377.423 99.8925 379.523 100.731 381.638 100.515L372.618 78.0442C372.41 77.5571 371.912 77.2603 371.322 77.2586Z" fill="#F92120"/>
<path d="M379.351 77.2586C379.941 77.2603 380.444 77.5571 380.651 78.0442L386.374 92.305C386.496 92.6018 386.942 92.6031 387.191 92.305L398.4 78.9352L398.401 78.9352L398.723 78.5499L399.17 78.0168C399.591 77.5461 400.225 77.2603 400.805 77.2586L403.827 77.2586L387.949 96.2075C388.695 97.5391 390.764 97.5262 392.075 96.0728L407.215 78.0006C407.313 77.8934 407.421 77.7961 407.538 77.7098C407.84 77.4882 408.275 77.2773 408.778 77.2594C408.796 77.2588 408.815 77.2585 408.833 77.2585L411.857 77.2586L394.631 97.8121C393.124 99.5908 390.934 100.549 388.979 100.548C387.041 100.546 385.281 99.5528 384.573 97.8463L376.306 77.2586L379.351 77.2586Z" fill="#F92120"/>
<path d="M386.412 92.365L387.962 96.2221L403.851 77.2585L400.826 77.2585C400.246 77.2603 399.612 77.5463 399.191 78.0173L398.743 78.5508L398.421 78.9363L398.42 78.9363L387.204 92.3148C386.969 92.5953 386.561 92.6109 386.412 92.365Z" fill="url(#paint2_linear)"/>
<path d="M323.343 200.978C323.704 199.322 325.371 197.98 327.066 197.98H400.712C402.407 197.98 403.487 199.322 403.126 200.978L400.507 212.97C400.145 214.625 398.478 215.968 396.784 215.968H323.138C321.443 215.968 320.362 214.625 320.724 212.97L323.343 200.978Z" fill="#F92120"/>
<path d="M354.741 209.516H352.325L353.268 205.199H352.148L350.986 210.52H354.522L354.741 209.516ZM356.711 210.61C358 210.61 359.025 209.673 359.269 208.557C359.513 207.44 358.897 206.503 357.608 206.503C356.319 206.503 355.293 207.44 355.05 208.557C354.806 209.673 355.422 210.61 356.711 210.61ZM356.139 208.557C356.293 207.852 356.828 207.44 357.403 207.44C357.978 207.44 358.333 207.852 358.18 208.557C358.026 209.261 357.491 209.673 356.915 209.673C356.34 209.673 355.985 209.261 356.139 208.557ZM363.12 207.073C362.945 206.713 362.554 206.503 361.986 206.503C360.866 206.503 359.961 207.38 359.722 208.474C359.483 209.568 360.005 210.445 361.125 210.445C361.693 210.445 362.144 210.205 362.41 209.936L362.29 210.483C362.189 210.947 361.84 211.247 361.287 211.247C360.743 211.247 360.622 210.955 360.625 210.73H359.536C359.462 211.352 359.829 212.162 361.072 212.162C362.3 212.162 363.18 211.397 363.404 210.37L364.229 206.593H363.224L363.12 207.073ZM362.76 208.474C362.626 209.089 362.143 209.508 361.56 209.508C360.977 209.508 360.677 209.089 360.811 208.474C360.945 207.86 361.428 207.44 362.011 207.44C362.594 207.44 362.894 207.86 362.76 208.474ZM365.786 206.083C366.17 206.083 366.503 205.821 366.585 205.446C366.667 205.072 366.45 204.802 366.066 204.802C365.682 204.802 365.347 205.072 365.265 205.446C365.184 205.821 365.402 206.083 365.786 206.083ZM364.272 210.52H365.362L366.219 206.593H365.13L364.272 210.52ZM368.167 206.593H367.162L366.305 210.52H367.394L367.885 208.272C368 207.747 368.363 207.417 368.892 207.417C369.376 207.417 369.506 207.732 369.407 208.189L368.898 210.52H369.987L370.522 208.069C370.727 207.133 370.35 206.503 369.384 206.503C368.785 206.503 368.32 206.735 368.063 207.073L368.167 206.593Z" fill="#FBFBFD"/>
<path d="M322.318 124.939C322.553 123.86 323.64 122.985 324.744 122.985H435.816C436.921 122.985 437.625 123.86 437.389 124.939L434.314 139.018C434.079 140.098 432.992 140.972 431.887 140.972H320.816C319.711 140.972 319.007 140.098 319.243 139.018L322.318 124.939Z" fill="#E6E9EF"/>
<path fill-rule="evenodd" clip-rule="evenodd" d="M325.087 113.51C325.3 113.338 325.559 113.242 325.807 113.242H331.609C331.857 113.242 332.074 113.338 332.212 113.51C332.349 113.682 332.397 113.914 332.344 114.157L332.169 114.957L327.886 117.007L324.498 114.957L324.672 114.157C324.725 113.914 324.875 113.682 325.087 113.51ZM325.683 113.809C325.589 113.809 325.49 113.846 325.409 113.911C325.328 113.976 325.272 114.065 325.252 114.157L325.15 114.621L328.027 116.361L331.663 114.621L331.765 114.157C331.785 114.065 331.767 113.976 331.714 113.911C331.662 113.846 331.58 113.809 331.485 113.809H325.683Z" fill="#111827"/>
<path d="M324.932 115.621L324.341 118.322C324.321 118.415 324.339 118.503 324.392 118.569C324.444 118.634 324.527 118.671 324.621 118.671H330.424C330.518 118.671 330.617 118.634 330.698 118.569C330.778 118.503 330.835 118.415 330.855 118.322L331.446 115.621H332.024L331.434 118.322C331.381 118.565 331.232 118.798 331.019 118.969C330.806 119.141 330.548 119.238 330.3 119.238H324.497C324.25 119.238 324.033 119.141 323.895 118.969C323.758 118.798 323.71 118.565 323.763 118.322L324.353 115.621H324.932Z" fill="#111827"/>
<path d="M327.764 117.567L329.591 116.692L329.45 117.338L327.622 118.213L326.177 117.339L326.319 116.692L327.764 117.567Z" fill="#111827"/>
<path d="M337.404 117.91H335.084L335.335 116.759H337.551L337.697 116.087H335.482L335.72 114.996H338.04L338.187 114.324H335.124L334.195 118.581H337.257L337.404 117.91ZM341.129 116.795C341.239 116.291 341.583 116.009 342.018 116.009C342.46 116.009 342.553 116.315 342.465 116.717L342.058 118.581H342.788L343.215 116.627C343.37 115.919 343.091 115.398 342.324 115.398C341.833 115.398 341.447 115.59 341.136 115.889C341.024 115.59 340.747 115.398 340.286 115.398C339.777 115.398 339.418 115.638 339.229 115.883L339.319 115.47H338.644L337.965 118.581H338.695L339.09 116.771C339.194 116.297 339.533 116.009 339.969 116.009C340.404 116.009 340.505 116.309 340.416 116.717L340.008 118.581H340.739L341.129 116.795ZM346.599 115.476L346.502 115.919C346.37 115.596 346.038 115.404 345.541 115.404C344.602 115.404 343.907 116.141 343.713 117.029C343.519 117.916 343.892 118.653 344.831 118.653C345.328 118.653 345.744 118.462 346.017 118.138L345.921 118.581H346.596L347.274 115.476H346.599ZM344.443 117.029C344.565 116.471 345.004 116.033 345.557 116.033C346.115 116.033 346.357 116.471 346.235 117.029C346.113 117.586 345.68 118.024 345.122 118.024C344.569 118.024 344.321 117.586 344.443 117.029ZM348.582 114.948C348.846 114.948 349.075 114.768 349.132 114.51C349.189 114.246 349.039 114.061 348.776 114.061C348.506 114.061 348.275 114.246 348.217 114.51C348.161 114.768 348.312 114.948 348.582 114.948ZM347.42 118.581H348.15L348.83 115.47H348.1L347.42 118.581ZM349.705 118.581L350.687 114.085H349.956L348.974 118.581H349.705Z" fill="#001520"/>
<path opacity="0.8" d="M330.231 129.674L330.155 130.022H328.265L327.923 131.587H329.519L329.443 131.935H327.847L327.426 133.866H326.996L327.911 129.674H330.231ZM331.087 129.974C331.002 129.974 330.934 129.944 330.886 129.884C330.838 129.824 330.823 129.75 330.843 129.662C330.862 129.575 330.908 129.503 330.982 129.447C331.056 129.387 331.136 129.357 331.222 129.357C331.308 129.357 331.375 129.387 331.424 129.447C331.473 129.503 331.488 129.575 331.469 129.662C331.449 129.75 331.402 129.824 331.328 129.884C331.254 129.944 331.173 129.974 331.087 129.974ZM331.167 130.592L330.452 133.866H330.023L330.738 130.592H331.167ZM332.443 131.173C332.581 130.97 332.759 130.812 332.976 130.7C333.197 130.588 333.448 130.532 333.731 130.532L333.635 130.97H333.518C333.207 130.97 332.94 131.052 332.716 131.215C332.492 131.379 332.338 131.653 332.254 132.037L331.855 133.866H331.425L332.14 130.592H332.57L332.443 131.173ZM334.792 133.914C334.407 133.914 334.111 133.828 333.903 133.656C333.7 133.48 333.617 133.242 333.654 132.942H334.096C334.076 133.126 334.131 133.276 334.262 133.392C334.397 133.504 334.597 133.56 334.863 133.56C335.096 133.56 335.29 133.506 335.445 133.398C335.603 133.29 335.7 133.156 335.735 132.996C335.759 132.884 335.743 132.792 335.685 132.72C335.627 132.648 335.545 132.592 335.439 132.552C335.338 132.509 335.197 132.463 335.015 132.415C334.779 132.351 334.591 132.287 334.449 132.223C334.308 132.159 334.195 132.065 334.112 131.941C334.034 131.813 334.017 131.643 334.064 131.431C334.099 131.271 334.18 131.123 334.308 130.988C334.436 130.852 334.599 130.744 334.796 130.664C334.993 130.584 335.207 130.544 335.436 130.544C335.796 130.544 336.067 130.634 336.248 130.814C336.431 130.99 336.496 131.233 336.445 131.545H336.015C336.045 131.353 336.001 131.199 335.883 131.084C335.77 130.964 335.591 130.904 335.345 130.904C335.128 130.904 334.941 130.954 334.785 131.054C334.628 131.153 334.533 131.277 334.501 131.425C334.473 131.553 334.489 131.659 334.548 131.743C334.612 131.823 334.699 131.887 334.807 131.935C334.916 131.979 335.065 132.029 335.253 132.085C335.48 132.149 335.659 132.211 335.789 132.271C335.919 132.331 336.023 132.419 336.1 132.534C336.177 132.65 336.196 132.804 336.158 132.996C336.12 133.172 336.036 133.33 335.908 133.47C335.78 133.606 335.619 133.714 335.426 133.794C335.232 133.874 335.021 133.914 334.792 133.914ZM337.973 130.946L337.53 132.978C337.486 133.178 337.495 133.316 337.556 133.392C337.617 133.468 337.746 133.506 337.942 133.506H338.335L338.256 133.866H337.796C337.493 133.866 337.283 133.798 337.165 133.662C337.049 133.522 337.025 133.294 337.094 132.978L337.538 130.946H337.071L337.149 130.592H337.615L337.794 129.77H338.23L338.051 130.592H338.971L338.894 130.946H337.973ZM342.948 130.532C343.349 130.532 343.65 130.654 343.85 130.898C344.051 131.137 344.102 131.487 344.002 131.947L343.582 133.866H343.159L343.568 131.995C343.645 131.639 343.613 131.367 343.469 131.179C343.33 130.992 343.103 130.898 342.788 130.898C342.465 130.898 342.186 130.998 341.95 131.197C341.714 131.397 341.553 131.691 341.469 132.079L341.079 133.866H340.649L341.364 130.592H341.793L341.672 131.149C341.822 130.95 342.008 130.798 342.232 130.694C342.456 130.586 342.694 130.532 342.948 130.532ZM344.695 132.223C344.768 131.887 344.9 131.593 345.09 131.341C345.285 131.086 345.518 130.89 345.789 130.754C346.065 130.614 346.357 130.544 346.663 130.544C346.983 130.544 347.241 130.616 347.439 130.76C347.64 130.904 347.768 131.088 347.821 131.311L347.979 130.592H348.408L347.693 133.866H347.264L347.422 133.14C347.267 133.364 347.056 133.55 346.791 133.698C346.53 133.842 346.241 133.914 345.921 133.914C345.619 133.914 345.36 133.844 345.145 133.704C344.934 133.564 344.787 133.366 344.704 133.11C344.625 132.854 344.622 132.558 344.695 132.223ZM347.621 132.229C347.679 131.965 347.674 131.733 347.607 131.533C347.54 131.333 347.423 131.179 347.254 131.072C347.089 130.964 346.892 130.91 346.663 130.91C346.426 130.91 346.202 130.962 345.991 131.066C345.78 131.169 345.598 131.321 345.444 131.521C345.294 131.717 345.19 131.951 345.131 132.223C345.072 132.491 345.074 132.726 345.136 132.93C345.203 133.13 345.318 133.284 345.483 133.392C345.648 133.496 345.85 133.548 346.087 133.548C346.316 133.548 346.537 133.494 346.749 133.386C346.964 133.278 347.149 133.124 347.303 132.924C347.458 132.724 347.563 132.493 347.621 132.229ZM353.391 130.532C353.784 130.532 354.076 130.654 354.269 130.898C354.466 131.137 354.514 131.487 354.414 131.947L353.995 133.866H353.571L353.98 131.995C354.058 131.639 354.029 131.367 353.894 131.179C353.759 130.992 353.54 130.898 353.238 130.898C352.923 130.898 352.649 131 352.416 131.203C352.183 131.407 352.025 131.703 351.94 132.091L351.552 133.866H351.129L351.537 131.995C351.615 131.639 351.586 131.367 351.452 131.179C351.317 130.992 351.096 130.898 350.789 130.898C350.474 130.898 350.2 131 349.967 131.203C349.735 131.407 349.576 131.703 349.491 132.091L349.104 133.866H348.674L349.389 130.592H349.819L349.695 131.155C349.846 130.952 350.031 130.798 350.25 130.694C350.47 130.586 350.701 130.532 350.942 130.532C351.233 130.532 351.472 130.6 351.659 130.736C351.85 130.872 351.966 131.072 352.007 131.335C352.153 131.076 352.35 130.878 352.597 130.742C352.848 130.602 353.113 130.532 353.391 130.532ZM358.375 132.061C358.343 132.205 358.315 132.315 358.291 132.391H355.51C355.469 132.638 355.484 132.85 355.556 133.026C355.628 133.202 355.744 133.336 355.904 133.428C356.065 133.516 356.251 133.56 356.464 133.56C356.742 133.56 356.99 133.494 357.207 133.362C357.428 133.23 357.594 133.052 357.704 132.828H358.158C358.006 133.148 357.773 133.41 357.459 133.614C357.149 133.814 356.792 133.914 356.387 133.914C356.072 133.914 355.804 133.846 355.584 133.71C355.365 133.57 355.212 133.374 355.124 133.122C355.04 132.866 355.036 132.568 355.11 132.229C355.184 131.889 355.319 131.591 355.514 131.335C355.709 131.08 355.946 130.884 356.225 130.748C356.504 130.612 356.804 130.544 357.123 130.544C357.442 130.544 357.705 130.612 357.913 130.748C358.125 130.884 358.269 131.068 358.345 131.299C358.426 131.527 358.436 131.781 358.375 132.061ZM357.942 132.049C357.999 131.805 357.993 131.597 357.925 131.425C357.86 131.253 357.747 131.123 357.586 131.036C357.425 130.948 357.239 130.904 357.026 130.904C356.707 130.904 356.413 131.004 356.144 131.203C355.875 131.403 355.689 131.685 355.585 132.049H357.942Z" fill="#374151"/>
<path d="M314.275 161.711C314.51 160.632 315.597 159.757 316.701 159.757H427.773C428.877 159.757 429.582 160.632 429.346 161.711L426.271 175.79C426.036 176.869 424.949 177.744 423.844 177.744H312.773C311.668 177.744 310.964 176.869 311.2 175.79L314.275 161.711Z" fill="#E6E9EF"/>
<path opacity="0.8" d="M322.348 167.652C322.27 168.011 322.086 168.301 321.796 168.521C321.507 168.741 321.121 168.851 320.638 168.851H319.773L319.383 170.638H318.953L319.868 166.446H321.163C321.642 166.446 321.978 166.556 322.171 166.776C322.369 166.996 322.428 167.288 322.348 167.652ZM320.717 168.491C321.388 168.491 321.784 168.211 321.907 167.652C321.968 167.372 321.934 167.16 321.806 167.016C321.678 166.872 321.438 166.8 321.086 166.8H320.221L319.851 168.491H320.717ZM322.58 168.995C322.653 168.659 322.785 168.365 322.975 168.113C323.17 167.857 323.403 167.662 323.674 167.526C323.95 167.386 324.241 167.316 324.548 167.316C324.867 167.316 325.126 167.388 325.323 167.532C325.525 167.676 325.653 167.859 325.706 168.083L325.863 167.364H326.293L325.578 170.638H325.148L325.307 169.912C325.151 170.136 324.941 170.322 324.675 170.47C324.415 170.614 324.125 170.686 323.806 170.686C323.503 170.686 323.244 170.616 323.029 170.476C322.819 170.336 322.671 170.138 322.588 169.882C322.509 169.626 322.506 169.33 322.58 168.995ZM325.506 169.001C325.563 168.737 325.559 168.505 325.492 168.305C325.425 168.105 325.307 167.951 325.139 167.843C324.974 167.736 324.777 167.682 324.548 167.682C324.311 167.682 324.086 167.734 323.876 167.837C323.665 167.941 323.482 168.093 323.328 168.293C323.179 168.489 323.075 168.723 323.015 168.995C322.957 169.262 322.958 169.498 323.02 169.702C323.087 169.902 323.203 170.056 323.367 170.164C323.533 170.268 323.734 170.32 323.972 170.32C324.201 170.32 324.421 170.266 324.633 170.158C324.849 170.05 325.034 169.896 325.188 169.696C325.342 169.496 325.448 169.264 325.506 169.001ZM327.702 170.686C327.317 170.686 327.021 170.6 326.813 170.428C326.61 170.252 326.527 170.014 326.564 169.714H327.006C326.986 169.898 327.041 170.048 327.171 170.164C327.306 170.276 327.507 170.332 327.773 170.332C328.006 170.332 328.2 170.278 328.354 170.17C328.513 170.062 328.61 169.928 328.645 169.768C328.669 169.656 328.652 169.564 328.595 169.492C328.537 169.42 328.455 169.364 328.349 169.324C328.248 169.28 328.107 169.235 327.925 169.187C327.689 169.123 327.501 169.059 327.359 168.995C327.218 168.931 327.105 168.837 327.022 168.713C326.943 168.585 326.927 168.415 326.974 168.203C327.008 168.043 327.09 167.895 327.218 167.76C327.346 167.624 327.508 167.516 327.706 167.436C327.903 167.356 328.117 167.316 328.346 167.316C328.706 167.316 328.977 167.406 329.158 167.586C329.341 167.762 329.406 168.005 329.354 168.317H328.925C328.954 168.125 328.91 167.971 328.792 167.855C328.68 167.736 328.5 167.676 328.255 167.676C328.038 167.676 327.851 167.726 327.694 167.826C327.537 167.925 327.443 168.049 327.411 168.197C327.383 168.325 327.398 168.431 327.458 168.515C327.522 168.595 327.608 168.659 327.717 168.707C327.826 168.751 327.974 168.801 328.163 168.857C328.39 168.921 328.569 168.983 328.699 169.043C328.829 169.103 328.933 169.191 329.009 169.306C329.086 169.422 329.106 169.576 329.068 169.768C329.03 169.944 328.946 170.102 328.817 170.242C328.69 170.378 328.529 170.486 328.336 170.566C328.142 170.646 327.931 170.686 327.702 170.686ZM330.83 170.686C330.446 170.686 330.149 170.6 329.942 170.428C329.739 170.252 329.655 170.014 329.692 169.714H330.134C330.114 169.898 330.17 170.048 330.3 170.164C330.435 170.276 330.635 170.332 330.901 170.332C331.135 170.332 331.329 170.278 331.483 170.17C331.642 170.062 331.738 169.928 331.773 169.768C331.798 169.656 331.781 169.564 331.723 169.492C331.665 169.42 331.583 169.364 331.477 169.324C331.377 169.28 331.235 169.235 331.053 169.187C330.818 169.123 330.629 169.059 330.488 168.995C330.346 168.931 330.234 168.837 330.15 168.713C330.072 168.585 330.056 168.415 330.102 168.203C330.137 168.043 330.218 167.895 330.346 167.76C330.474 167.624 330.637 167.516 330.834 167.436C331.032 167.356 331.245 167.316 331.474 167.316C331.834 167.316 332.105 167.406 332.287 167.586C332.469 167.762 332.535 168.005 332.483 168.317H332.053C332.083 168.125 332.039 167.971 331.921 167.855C331.808 167.736 331.629 167.676 331.383 167.676C331.167 167.676 330.98 167.726 330.823 167.826C330.666 167.925 330.571 168.049 330.539 168.197C330.511 168.325 330.527 168.431 330.586 168.515C330.651 168.595 330.737 168.659 330.845 168.707C330.954 168.751 331.103 168.801 331.291 168.857C331.519 168.921 331.697 168.983 331.827 169.043C331.957 169.103 332.061 169.191 332.138 169.306C332.215 169.422 332.235 169.576 332.197 169.768C332.158 169.944 332.075 170.102 331.946 170.242C331.818 170.378 331.657 170.486 331.464 170.566C331.271 170.646 331.059 170.686 330.83 170.686ZM337.949 167.364L336.185 170.638H335.755L335.428 167.891L333.902 170.638H333.466L333.132 167.364H333.567L333.78 170.212L335.341 167.364H335.771L336.074 170.218L337.526 167.364H337.949ZM339.276 170.686C338.961 170.686 338.692 170.618 338.468 170.482C338.249 170.342 338.093 170.146 338.001 169.894C337.913 169.638 337.907 169.34 337.981 169.001C338.055 168.661 338.193 168.365 338.396 168.113C338.599 167.857 338.842 167.662 339.126 167.526C339.41 167.386 339.709 167.316 340.024 167.316C340.339 167.316 340.609 167.386 340.832 167.526C341.06 167.662 341.217 167.857 341.305 168.113C341.397 168.365 341.406 168.661 341.332 169.001C341.259 169.336 341.12 169.632 340.917 169.888C340.714 170.144 340.468 170.342 340.18 170.482C339.893 170.618 339.591 170.686 339.276 170.686ZM339.356 170.32C339.577 170.32 339.792 170.272 340.001 170.176C340.211 170.076 340.395 169.928 340.552 169.732C340.715 169.532 340.827 169.288 340.89 169.001C340.953 168.713 340.948 168.471 340.877 168.275C340.806 168.075 340.687 167.927 340.519 167.831C340.353 167.732 340.159 167.682 339.938 167.682C339.717 167.682 339.502 167.732 339.292 167.831C339.083 167.927 338.899 168.075 338.741 168.275C338.588 168.471 338.48 168.713 338.417 169.001C338.354 169.288 338.356 169.532 338.423 169.732C338.495 169.928 338.612 170.076 338.774 170.176C338.941 170.272 339.135 170.32 339.356 170.32ZM342.775 167.945C342.914 167.742 343.091 167.584 343.308 167.472C343.529 167.36 343.781 167.304 344.063 167.304L343.967 167.742H343.851C343.54 167.742 343.272 167.824 343.048 167.987C342.824 168.151 342.67 168.425 342.587 168.809L342.187 170.638H341.758L342.473 167.364H342.902L342.775 167.945ZM344.143 168.995C344.217 168.659 344.351 168.365 344.545 168.113C344.74 167.857 344.973 167.662 345.244 167.526C345.52 167.386 345.811 167.316 346.118 167.316C346.413 167.316 346.663 167.386 346.87 167.526C347.077 167.666 347.211 167.847 347.273 168.071L347.681 166.201H348.111L347.142 170.638H346.712L346.872 169.906C346.72 170.134 346.511 170.322 346.246 170.47C345.981 170.614 345.691 170.686 345.376 170.686C345.069 170.686 344.808 170.616 344.593 170.476C344.382 170.336 344.235 170.138 344.152 169.882C344.073 169.626 344.07 169.33 344.143 168.995ZM347.07 169.001C347.127 168.737 347.123 168.505 347.056 168.305C346.989 168.105 346.871 167.951 346.702 167.843C346.538 167.736 346.341 167.682 346.112 167.682C345.875 167.682 345.65 167.734 345.44 167.837C345.229 167.941 345.046 168.093 344.892 168.293C344.743 168.489 344.639 168.723 344.579 168.995C344.521 169.262 344.522 169.498 344.584 169.702C344.651 169.902 344.767 170.056 344.931 170.164C345.097 170.268 345.298 170.32 345.536 170.32C345.765 170.32 345.985 170.266 346.197 170.158C346.413 170.05 346.598 169.896 346.752 169.696C346.906 169.496 347.012 169.264 347.07 169.001Z" fill="#374151"/>
<g opacity="0.8">
<path d="M348.776 182.265L348.704 182.598H347.309L347.078 183.655H348.21L348.138 183.988H347.005L346.697 185.4H346.278L346.963 182.265H348.776ZM349.689 185.44C349.453 185.44 349.249 185.388 349.079 185.283C348.912 185.178 348.794 185.029 348.725 184.837C348.66 184.643 348.656 184.418 348.711 184.163C348.766 183.911 348.87 183.689 349.022 183.497C349.178 183.303 349.364 183.154 349.58 183.052C349.796 182.947 350.024 182.895 350.263 182.895C350.503 182.895 350.707 182.947 350.878 183.052C351.049 183.154 351.169 183.301 351.237 183.493C351.309 183.685 351.317 183.908 351.261 184.163C351.206 184.418 351.098 184.643 350.939 184.837C350.784 185.029 350.596 185.178 350.377 185.283C350.158 185.388 349.928 185.44 349.689 185.44ZM349.767 185.08C349.918 185.08 350.066 185.046 350.213 184.977C350.361 184.908 350.489 184.804 350.599 184.667C350.712 184.529 350.79 184.361 350.833 184.163C350.876 183.965 350.873 183.797 350.823 183.659C350.774 183.521 350.692 183.419 350.577 183.354C350.463 183.285 350.331 183.25 350.181 183.25C350.028 183.25 349.879 183.285 349.735 183.354C349.595 183.419 349.471 183.521 349.364 183.659C349.258 183.797 349.182 183.965 349.139 184.163C349.095 184.364 349.095 184.533 349.139 184.671C349.185 184.809 349.264 184.912 349.375 184.981C349.486 185.047 349.617 185.08 349.767 185.08ZM352.411 183.336C352.516 183.195 352.644 183.085 352.796 183.007C352.951 182.929 353.127 182.89 353.323 182.89L353.231 183.313H353.121C352.651 183.313 352.362 183.562 352.253 184.06L351.961 185.4H351.542L352.08 182.935H352.499L352.411 183.336ZM354.846 182.895C355.064 182.895 355.244 182.941 355.387 183.034C355.532 183.127 355.629 183.244 355.678 183.385L355.776 182.935H356.2L355.65 185.454C355.601 185.678 355.508 185.878 355.372 186.052C355.235 186.229 355.064 186.366 354.858 186.465C354.655 186.564 354.433 186.614 354.191 186.614C353.859 186.614 353.6 186.537 353.412 186.384C353.225 186.232 353.14 186.023 353.157 185.759H353.572C353.585 185.909 353.654 186.029 353.778 186.119C353.902 186.212 354.066 186.258 354.268 186.258C354.498 186.258 354.701 186.188 354.876 186.047C355.054 185.906 355.171 185.708 355.226 185.454L355.339 184.936C355.225 185.08 355.076 185.2 354.893 185.296C354.709 185.392 354.508 185.44 354.29 185.44C354.066 185.44 353.874 185.386 353.714 185.278C353.556 185.17 353.446 185.019 353.385 184.824C353.323 184.629 353.319 184.407 353.373 184.158C353.428 183.907 353.529 183.686 353.674 183.497C353.821 183.306 353.996 183.157 354.2 183.052C354.407 182.947 354.622 182.895 354.846 182.895ZM355.508 184.163C355.549 183.977 355.546 183.815 355.499 183.677C355.453 183.539 355.371 183.434 355.255 183.363C355.142 183.288 355.008 183.25 354.851 183.25C354.695 183.25 354.544 183.286 354.4 183.358C354.255 183.43 354.13 183.535 354.023 183.673C353.916 183.811 353.842 183.973 353.802 184.158C353.76 184.347 353.763 184.512 353.809 184.653C353.855 184.791 353.935 184.897 354.047 184.972C354.16 185.044 354.295 185.08 354.452 185.08C354.608 185.08 354.759 185.044 354.903 184.972C355.052 184.897 355.179 184.791 355.286 184.653C355.394 184.512 355.468 184.349 355.508 184.163ZM357.461 185.44C357.224 185.44 357.021 185.388 356.851 185.283C356.683 185.178 356.565 185.029 356.497 184.837C356.432 184.643 356.427 184.418 356.483 184.163C356.538 183.911 356.642 183.689 356.794 183.497C356.95 183.303 357.136 183.154 357.352 183.052C357.568 182.947 357.796 182.895 358.035 182.895C358.274 182.895 358.479 182.947 358.65 183.052C358.821 183.154 358.94 183.301 359.009 183.493C359.081 183.685 359.089 183.908 359.033 184.163C358.977 184.418 358.87 184.643 358.711 184.837C358.555 185.029 358.368 185.178 358.149 185.283C357.929 185.388 357.7 185.44 357.461 185.44ZM357.539 185.08C357.69 185.08 357.838 185.046 357.985 184.977C358.132 184.908 358.261 184.804 358.371 184.667C358.484 184.529 358.562 184.361 358.605 184.163C358.648 183.965 358.645 183.797 358.595 183.659C358.546 183.521 358.464 183.419 358.349 183.354C358.235 183.285 358.103 183.25 357.953 183.25C357.799 183.25 357.651 183.285 357.507 183.354C357.367 183.419 357.243 183.521 357.136 183.659C357.029 183.797 356.954 183.965 356.911 184.163C356.867 184.364 356.867 184.533 356.911 184.671C356.957 184.809 357.036 184.912 357.147 184.981C357.258 185.047 357.389 185.08 357.539 185.08ZM360.289 183.273L359.972 184.725C359.946 184.845 359.953 184.93 359.994 184.981C360.036 185.029 360.121 185.053 360.25 185.053H360.558L360.483 185.4H360.105C359.872 185.4 359.709 185.347 359.615 185.242C359.521 185.137 359.501 184.965 359.553 184.725L359.87 183.273H359.543L359.617 182.935H359.944L360.079 182.315H360.498L360.363 182.935H361.021L360.947 183.273H360.289ZM364.847 183.183C364.79 183.443 364.65 183.661 364.428 183.835C364.21 184.006 363.913 184.091 363.539 184.091H362.922L362.636 185.4H362.217L362.902 182.265H363.938C364.3 182.265 364.556 182.351 364.706 182.522C364.858 182.692 364.905 182.913 364.847 183.183ZM363.613 183.754C363.846 183.754 364.028 183.704 364.16 183.605C364.293 183.506 364.379 183.366 364.418 183.183C364.503 182.796 364.318 182.603 363.864 182.603H363.247L362.996 183.754H363.613ZM364.998 184.158C365.053 183.907 365.153 183.686 365.298 183.497C365.445 183.306 365.62 183.157 365.824 183.052C366.031 182.947 366.246 182.895 366.47 182.895C366.691 182.895 366.873 182.941 367.015 183.034C367.158 183.127 367.253 183.244 367.302 183.385L367.4 182.935H367.824L367.286 185.4H366.862L366.962 184.941C366.848 185.085 366.698 185.205 366.511 185.301C366.328 185.394 366.128 185.44 365.91 185.44C365.686 185.44 365.495 185.386 365.338 185.278C365.18 185.17 365.07 185.019 365.009 184.824C364.947 184.629 364.943 184.407 364.998 184.158ZM367.132 184.163C367.173 183.977 367.17 183.815 367.123 183.677C367.077 183.539 366.995 183.434 366.879 183.363C366.767 183.288 366.632 183.25 366.476 183.25C366.319 183.25 366.168 183.286 366.024 183.358C365.879 183.43 365.754 183.535 365.647 183.673C365.54 183.811 365.466 183.973 365.426 184.158C365.384 184.347 365.387 184.512 365.433 184.653C365.479 184.791 365.559 184.897 365.671 184.972C365.784 185.044 365.919 185.08 366.076 185.08C366.232 185.08 366.383 185.044 366.527 184.972C366.676 184.897 366.803 184.791 366.91 184.653C367.018 184.512 367.092 184.349 367.132 184.163ZM368.878 185.44C368.684 185.44 368.518 185.409 368.378 185.346C368.239 185.28 368.138 185.19 368.073 185.076C368.01 184.959 367.99 184.825 368.014 184.676H368.446C368.432 184.799 368.468 184.899 368.555 184.977C368.646 185.055 368.777 185.094 368.949 185.094C369.108 185.094 369.242 185.059 369.349 184.99C369.456 184.921 369.521 184.834 369.544 184.73C369.567 184.622 369.536 184.542 369.448 184.491C369.362 184.437 369.222 184.385 369.027 184.334C368.85 184.286 368.707 184.238 368.598 184.19C368.493 184.139 368.408 184.066 368.343 183.97C368.281 183.871 368.268 183.742 368.303 183.583C368.33 183.457 368.394 183.342 368.494 183.237C368.593 183.132 368.72 183.049 368.874 182.989C369.029 182.926 369.197 182.895 369.378 182.895C369.657 182.895 369.868 182.964 370.01 183.102C370.151 183.24 370.202 183.428 370.162 183.668H369.743C369.762 183.539 369.731 183.436 369.65 183.358C369.572 183.28 369.451 183.241 369.289 183.241C369.138 183.241 369.012 183.273 368.909 183.336C368.806 183.398 368.744 183.481 368.722 183.583C368.704 183.664 368.715 183.731 368.756 183.785C368.8 183.836 368.858 183.878 368.931 183.911C369.007 183.941 369.113 183.976 369.249 184.015C369.419 184.063 369.556 184.11 369.659 184.158C369.763 184.203 369.845 184.272 369.904 184.365C369.967 184.458 369.983 184.58 369.953 184.73C369.924 184.864 369.859 184.986 369.759 185.094C369.658 185.202 369.531 185.287 369.376 185.35C369.225 185.41 369.059 185.44 368.878 185.44ZM371.282 185.44C371.089 185.44 370.923 185.409 370.783 185.346C370.644 185.28 370.542 185.19 370.478 185.076C370.415 184.959 370.395 184.825 370.418 184.676H370.851C370.836 184.799 370.873 184.899 370.96 184.977C371.05 185.055 371.182 185.094 371.353 185.094C371.513 185.094 371.646 185.059 371.753 184.99C371.861 184.921 371.926 184.834 371.949 184.73C371.972 184.622 371.94 184.542 371.853 184.491C371.767 184.437 371.626 184.385 371.432 184.334C371.255 184.286 371.112 184.238 371.003 184.19C370.898 184.139 370.812 184.066 370.747 183.97C370.686 183.871 370.673 183.742 370.708 183.583C370.735 183.457 370.799 183.342 370.898 183.237C370.998 183.132 371.125 183.049 371.279 182.989C371.434 182.926 371.602 182.895 371.783 182.895C372.062 182.895 372.273 182.964 372.415 183.102C372.556 183.24 372.607 183.428 372.567 183.668H372.148C372.167 183.539 372.136 183.436 372.055 183.358C371.977 183.28 371.856 183.241 371.694 183.241C371.543 183.241 371.417 183.273 371.314 183.336C371.211 183.398 371.149 183.481 371.126 183.583C371.109 183.664 371.12 183.731 371.161 183.785C371.205 183.836 371.263 183.878 371.336 183.911C371.412 183.941 371.518 183.976 371.654 184.015C371.824 184.063 371.961 184.11 372.064 184.158C372.168 184.203 372.249 184.272 372.309 184.365C372.371 184.458 372.388 184.58 372.358 184.73C372.329 184.864 372.264 184.986 372.164 185.094C372.063 185.202 371.936 185.287 371.781 185.35C371.63 185.41 371.463 185.44 371.282 185.44ZM376.701 182.935L375.376 185.4H374.943L374.763 183.443L373.728 185.4H373.296L373.042 182.935H373.47L373.598 185.004L374.676 182.935H375.104L375.264 185.008L376.287 182.935H376.701ZM377.67 185.44C377.434 185.44 377.231 185.388 377.06 185.283C376.893 185.178 376.775 185.029 376.706 184.837C376.641 184.643 376.637 184.418 376.693 184.163C376.747 183.911 376.851 183.689 377.004 183.497C377.16 183.303 377.345 183.154 377.561 183.052C377.777 182.947 378.005 182.895 378.244 182.895C378.484 182.895 378.689 182.947 378.859 183.052C379.03 183.154 379.15 183.301 379.219 183.493C379.29 183.685 379.298 183.908 379.242 184.163C379.187 184.418 379.079 184.643 378.92 184.837C378.765 185.029 378.577 185.178 378.358 185.283C378.139 185.388 377.91 185.44 377.67 185.44ZM377.749 185.08C377.899 185.08 378.048 185.046 378.195 184.977C378.342 184.908 378.47 184.804 378.58 184.667C378.693 184.529 378.771 184.361 378.814 184.163C378.858 183.965 378.854 183.797 378.805 183.659C378.755 183.521 378.673 183.419 378.559 183.354C378.445 183.285 378.313 183.25 378.162 183.25C378.009 183.25 377.86 183.285 377.716 183.354C377.576 183.419 377.452 183.521 377.346 183.659C377.239 183.797 377.164 183.965 377.121 184.163C377.077 184.364 377.077 184.533 377.12 184.671C377.167 184.809 377.245 184.912 377.356 184.981C377.467 185.047 377.598 185.08 377.749 185.08ZM380.393 183.336C380.497 183.195 380.625 183.085 380.777 183.007C380.933 182.929 381.108 182.89 381.305 182.89L381.212 183.313H381.102C380.632 183.313 380.343 183.562 380.235 184.06L379.942 185.4H379.523L380.061 182.935H380.48L380.393 183.336ZM381.355 184.158C381.41 183.907 381.51 183.686 381.656 183.497C381.802 183.306 381.977 183.157 382.181 183.052C382.388 182.947 382.605 182.895 382.832 182.895C383.028 182.895 383.201 182.94 383.35 183.03C383.5 183.117 383.604 183.232 383.661 183.376L383.946 182.072H384.37L383.643 185.4H383.219L383.321 184.936C383.206 185.083 383.056 185.205 382.873 185.301C382.69 185.394 382.489 185.44 382.272 185.44C382.048 185.44 381.855 185.386 381.695 185.278C381.537 185.17 381.428 185.019 381.366 184.824C381.304 184.629 381.3 184.407 381.355 184.158ZM383.49 184.163C383.53 183.977 383.527 183.815 383.481 183.677C383.434 183.539 383.353 183.434 383.236 183.363C383.124 183.288 382.989 183.25 382.833 183.25C382.676 183.25 382.526 183.286 382.381 183.358C382.237 183.43 382.111 183.535 382.004 183.673C381.897 183.811 381.823 183.973 381.783 184.158C381.742 184.347 381.744 184.512 381.79 184.653C381.836 184.791 381.916 184.897 382.029 184.972C382.142 185.044 382.277 185.08 382.433 185.08C382.59 185.08 382.74 185.044 382.885 184.972C383.033 184.897 383.161 184.791 383.267 184.653C383.375 184.512 383.449 184.349 383.49 184.163ZM385.863 182.225C386.167 182.225 386.394 182.309 386.545 182.477C386.695 182.645 386.74 182.869 386.678 183.151C386.61 183.466 386.459 183.7 386.226 183.853C385.994 184.003 385.707 184.078 385.367 184.078L385.26 184.505H384.896L385.033 183.794H385.166C385.47 183.794 385.718 183.749 385.909 183.659C386.101 183.569 386.224 183.4 386.278 183.151C386.317 182.971 386.293 182.829 386.205 182.724C386.118 182.619 385.981 182.567 385.793 182.567C385.603 182.567 385.442 182.618 385.309 182.719C385.18 182.818 385.096 182.955 385.058 183.129H384.663C384.702 182.949 384.778 182.791 384.89 182.656C385.003 182.519 385.143 182.412 385.31 182.337C385.479 182.262 385.664 182.225 385.863 182.225ZM384.874 185.427C384.794 185.427 384.733 185.4 384.689 185.346C384.646 185.292 384.633 185.226 384.65 185.148C384.667 185.07 384.709 185.004 384.776 184.95C384.843 184.896 384.916 184.869 384.996 184.869C385.073 184.869 385.131 184.896 385.172 184.95C385.215 185.004 385.228 185.07 385.211 185.148C385.194 185.226 385.152 185.292 385.085 185.346C385.021 185.4 384.951 185.427 384.874 185.427Z" fill="#374151"/>
<path d="M345.826 185.849H386.31L386.261 186.074H345.776L345.826 185.849Z" fill="#374151"/>
</g>
<path d="M329.977 153.003L330.247 151.768H331.315C331.8 151.768 331.966 152.02 331.885 152.392C331.803 152.763 331.53 153.003 331.045 153.003H329.977ZM329.831 153.675H330.892C331.905 153.675 332.475 153.117 332.633 152.392C332.792 151.666 332.493 151.096 331.455 151.096H329.651L328.721 155.353H329.464L329.831 153.675ZM335.28 152.248L335.183 152.691C335.052 152.368 334.719 152.176 334.222 152.176C333.283 152.176 332.588 152.913 332.394 153.801C332.2 154.688 332.573 155.425 333.512 155.425C334.009 155.425 334.426 155.234 334.699 154.91L334.602 155.353H335.277L335.955 152.248H335.28ZM333.125 153.801C333.246 153.243 333.686 152.805 334.238 152.805C334.796 152.805 335.038 153.243 334.917 153.801C334.795 154.358 334.362 154.796 333.803 154.796C333.251 154.796 333.003 154.358 333.125 153.801ZM337.178 155.425C338.068 155.425 338.607 154.982 338.722 154.454C338.997 153.195 337.052 153.729 337.184 153.123C337.234 152.895 337.449 152.751 337.811 152.751C338.186 152.751 338.308 152.979 338.284 153.201H338.983C339.044 152.781 338.871 152.17 337.957 152.17C337.171 152.17 336.593 152.625 336.479 153.147C336.203 154.412 338.16 153.825 338.016 154.484C337.969 154.7 337.73 154.838 337.349 154.838C336.901 154.838 336.726 154.628 336.767 154.358H336.061C335.973 154.928 336.245 155.425 337.178 155.425ZM340.135 155.425C341.025 155.425 341.563 154.982 341.679 154.454C341.954 153.195 340.008 153.729 340.141 153.123C340.19 152.895 340.406 152.751 340.768 152.751C341.142 152.751 341.264 152.979 341.24 153.201H341.94C342.001 152.781 341.828 152.17 340.913 152.17C340.128 152.17 339.55 152.625 339.436 153.147C339.159 154.412 341.117 153.825 340.973 154.484C340.925 154.7 340.687 154.838 340.306 154.838C339.858 154.838 339.683 154.628 339.723 154.358H339.018C338.93 154.928 339.202 155.425 340.135 155.425ZM344.941 155.353H345.635L347.425 152.242H346.683L345.476 154.478L345.24 152.242H344.565L343.348 154.472L343.123 152.242H342.368L342.799 155.353H343.493L344.683 153.219H344.689L344.941 155.353ZM348.532 155.425C349.55 155.425 350.352 154.676 350.544 153.801C350.735 152.925 350.261 152.17 349.243 152.17C348.23 152.17 347.427 152.925 347.236 153.801C347.044 154.676 347.519 155.425 348.532 155.425ZM347.966 153.801C348.098 153.195 348.577 152.799 349.105 152.799C349.639 152.799 349.945 153.195 349.813 153.801C349.682 154.4 349.203 154.796 348.669 154.796C348.141 154.796 347.835 154.4 347.966 153.801ZM353.226 152.218C353.226 152.218 353.154 152.212 353.123 152.212C352.571 152.212 352.243 152.475 352.083 152.673L352.178 152.242H351.503L350.823 155.353H351.553L351.907 153.735C352.038 153.135 352.402 152.871 352.918 152.871C352.998 152.871 353.081 152.883 353.081 152.883L353.226 152.218ZM355.748 152.649C355.628 152.386 355.331 152.17 354.834 152.17C353.895 152.17 353.2 152.907 353.005 153.801C352.811 154.688 353.184 155.425 354.123 155.425C354.62 155.425 355.037 155.234 355.31 154.91L355.213 155.353H355.888L356.87 150.857H356.14L355.748 152.649ZM355.527 153.801C355.406 154.358 354.973 154.796 354.414 154.796C353.862 154.796 353.614 154.358 353.735 153.801C353.86 153.231 354.298 152.799 354.85 152.799C355.409 152.799 355.652 153.231 355.527 153.801Z" fill="#001520"/>
<path d="M319.454 153.274C319.364 153.688 318.947 154.023 318.523 154.023C318.1 154.023 317.83 153.688 317.92 153.274C318.01 152.86 318.427 152.524 318.851 152.524C319.275 152.524 319.545 152.86 319.454 153.274Z" fill="#111827"/>
<path d="M321.756 153.274C321.665 153.688 321.249 154.023 320.825 154.023C320.401 154.023 320.131 153.688 320.221 153.274C320.312 152.86 320.729 152.524 321.152 152.524C321.576 152.524 321.846 152.86 321.756 153.274Z" fill="#111827"/>
<path d="M323.126 154.023C323.55 154.023 323.967 153.688 324.057 153.274C324.148 152.86 323.877 152.524 323.454 152.524C323.03 152.524 322.613 152.86 322.523 153.274C322.432 153.688 322.703 154.023 323.126 154.023Z" fill="#111827"/>
<path fill-rule="evenodd" clip-rule="evenodd" d="M318.632 150.014C317.636 150.014 316.657 150.802 316.444 151.775L315.79 154.773C315.577 155.745 316.212 156.534 317.208 156.534H323.345C324.341 156.534 325.32 155.745 325.532 154.773L326.187 151.775C326.4 150.802 325.765 150.014 324.769 150.014H318.632ZM316.981 151.775C317.131 151.092 317.818 150.538 318.517 150.538H324.655C325.354 150.538 325.799 151.092 325.65 151.775L324.995 154.773C324.846 155.456 324.159 156.009 323.46 156.009H317.322C316.623 156.009 316.178 155.456 316.327 154.773L316.981 151.775Z" fill="#111827"/>
<path opacity="0.2" d="M694.212 35.4337H161.932L165.655 18.465C166.31 15.4628 169.333 13.0292 172.406 13.0292H693.558C696.631 13.0292 698.59 15.4629 697.935 18.465L694.212 35.4337Z" fill="#001520"/>
<path opacity="0.2" d="M101.557 311.946L156.6 59.9242H233.507C236.897 59.9242 239.058 62.6086 238.335 65.92L185.911 305.95C185.188 309.262 181.854 311.946 178.465 311.946H101.557Z" fill="#001520"/>
<g filter="url(#filter2_d)">
<path d="M202.727 28.4844L209.458 35.4736L209.457 35.4768C210.76 36.9068 211.324 38.973 210.822 41.2708L159.44 279.101C158.497 283.417 154.151 286.917 149.733 286.917H34.8939C32.772 286.917 31.0192 286.109 29.875 284.792L23.1051 277.736C23.5173 276.618 24.5652 274.892 24.992 274.188C25.0998 274.011 25.168 273.898 25.1763 273.878C25.2057 273.804 28.3442 274.39 31.2551 274.952L81.8506 43.2894C82.7933 38.9729 87.1392 35.4736 91.5575 35.4736H201.017L202.727 28.4844Z" fill="url(#paint3_linear)"/>
</g>
<path d="M206.63 60.6758L210.856 41.3258C211.358 39.028 210.794 36.9618 209.491 35.5317L209.492 35.5285L202.727 28.4844L201.017 35.4736H195.79V49.4897L206.63 60.6758Z" fill="#1A2D37"/>
<g clip-path="url(#clip0)">
<rect width="130.501" height="259.222" rx="8" transform="matrix(1 0 -0.213371 0.976971 75.4286 26.6013)" fill="white"/>
<rect opacity="0.92" width="440" height="663" transform="matrix(1 0 0.213371 -0.976971 -111.058 880.474)" fill="#FBFCFD"/>
<g filter="url(#filter3_d)">
<rect width="144.144" height="41.523" transform="matrix(1 0 -0.213371 0.976971 64.1137 47.1744)" fill="white"/>
</g>
<path d="M85.1106 110.89H82.8321L84.7127 102.279H83.935L81.4727 102.559L81.3271 103.225H83.5101L81.8362 110.89H79.5441L79.3578 111.743H84.9243L85.1106 110.89Z" fill="#33444D"/>
<path d="M78.6552 142.446H77.4L78.7682 136.181H77.7041L71.5685 142.473L71.3822 143.326H76.2392L75.7327 145.645H76.7014L77.2079 143.326H78.4631L78.6552 142.446ZM77.5026 137.541L76.4314 142.446H72.7067L77.489 137.541H77.5026Z" fill="#33444D"/>
<path d="M70.7075 151.74C70.2412 151.74 69.9712 151.396 70.0874 150.864C70.2036 150.332 70.6069 149.984 71.1123 149.984C71.4754 149.984 71.742 150.165 71.7639 150.488H72.2301C72.2357 149.925 71.8126 149.581 71.2004 149.581C70.4637 149.581 69.7974 150.106 69.6318 150.864C69.4655 151.625 69.8933 152.144 70.6158 152.144C71.3383 152.144 71.996 151.625 72.1623 150.864C72.1745 150.808 72.1831 150.753 72.1831 150.753H71.0904L71.0069 151.135H71.6404C71.474 151.539 71.1239 151.74 70.7075 151.74ZM75.4129 149.633H74.9823L74.759 150.655H73.5596L73.7829 149.633H73.3522L72.813 152.102H73.2437L73.4745 151.045H74.674L74.4431 152.102H74.8737L75.4129 149.633ZM76.9044 149.633H76.4738L75.9346 152.102H76.3653L76.9044 149.633Z" fill="#667379"/>
<path d="M66.1144 172.256L66.388 171.003H71.1768C68.8528 173.336 67.0234 176.215 65.7362 179.547H66.8004C68.1565 175.962 69.7642 173.536 72.4163 170.95L72.6055 170.083H65.6202L65.1457 172.256H66.1144Z" fill="#33444D"/>
<path d="M60.9229 184.641L61.0793 183.925H61.6986C61.9798 183.925 62.076 184.071 62.0289 184.286C61.9818 184.502 61.8233 184.641 61.5422 184.641H60.9229ZM60.8378 185.03H61.4536C62.0408 185.03 62.3712 184.707 62.4631 184.286C62.555 183.866 62.3816 183.535 61.7801 183.535H60.7337L60.1945 186.004H60.6252L60.8378 185.03ZM65.6874 184.77C65.8476 184.036 65.431 183.483 64.6622 183.483C63.8934 183.483 63.2353 184.036 63.075 184.77C62.9148 185.503 63.3315 186.056 64.1002 186.056C64.296 186.056 64.4858 186.018 64.6597 185.955L64.9093 186.442H65.4075L65.0441 185.743C65.3647 185.514 65.6008 185.166 65.6874 184.77ZM65.2318 184.77C65.1164 185.298 64.6866 185.653 64.1883 185.653C63.6936 185.653 63.4152 185.298 63.5306 184.77C63.6468 184.238 64.0794 183.886 64.5741 183.886C65.0724 183.886 65.348 184.238 65.2318 184.77ZM68.3691 186.004L68.013 184.978C68.3703 184.874 68.5882 184.61 68.6596 184.283C68.7538 183.852 68.5488 183.535 67.99 183.535H66.8796L66.3404 186.004H66.7711L66.9837 185.03H67.5638L67.8637 186.004H68.3691ZM68.2254 184.283C68.1791 184.495 68.019 184.641 67.7521 184.641H67.0687L67.2252 183.925H67.9085C68.1755 183.925 68.2717 184.071 68.2254 184.283ZM70.0815 185.674C69.7398 185.674 69.597 185.496 69.6369 185.232H69.2098C69.136 185.635 69.3047 186.053 69.9773 186.053C70.5824 186.053 71.0448 185.761 71.1428 185.312C71.3584 184.325 69.8429 184.745 69.9614 184.203C70.0092 183.984 70.2173 183.862 70.5127 183.862C70.8366 183.862 70.9613 184.057 70.9117 184.3H71.3353C71.4256 183.838 71.1899 183.483 70.5955 183.483C70.0331 183.483 69.6178 183.82 69.532 184.213C69.3163 185.201 70.8326 184.728 70.7012 185.329C70.6526 185.552 70.4267 185.674 70.0815 185.674Z" fill="#667379"/>
<path d="M64.0884 204.516L57.1742 212.339M58.8829 204.516L62.3797 212.339M55.8859 208.427H65.3768" stroke="#33444D" stroke-width="0.593186"/>
<path d="M117.03 118.2L117.316 117.723H118.447L118.525 118.2H118.995L118.552 115.731H118.092L116.575 118.2H117.03ZM118.206 116.252L118.389 117.341H117.542L118.199 116.252H118.206ZM120.816 118.2C121.364 118.2 121.713 117.939 121.807 117.508C121.866 117.236 121.747 117.035 121.519 116.951C121.767 116.861 121.949 116.663 122.006 116.402C122.089 116.023 121.896 115.731 121.316 115.731H120.294L119.755 118.2H120.816ZM121.043 117.143C121.307 117.143 121.425 117.268 121.379 117.48C121.33 117.702 121.159 117.817 120.892 117.817H120.262L120.41 117.143H121.043ZM121.236 116.113C121.51 116.113 121.606 116.242 121.564 116.437C121.515 116.659 121.337 116.757 121.095 116.757H120.494L120.634 116.113H121.236ZM122.727 116.962C122.561 117.723 122.973 118.248 123.709 118.248C124.336 118.248 124.9 117.883 125.131 117.296H124.672C124.511 117.643 124.178 117.845 123.797 117.845C123.292 117.845 123.066 117.494 123.182 116.962C123.299 116.43 123.677 116.082 124.182 116.082C124.563 116.082 124.808 116.284 124.817 116.631H125.276C125.301 116.044 124.897 115.679 124.271 115.679C123.534 115.679 122.892 116.204 122.727 116.962Z" fill="#667379"/>
<path d="M125.438 111.743L125.639 110.823H120.618L124.237 108.184C125.648 107.157 126.409 106.238 126.679 104.998C127.049 103.305 126.253 102.079 124.22 102.079C122.283 102.079 120.879 103.319 120.481 105.145C120.449 105.291 120.444 105.438 120.444 105.438H121.453C121.453 105.438 121.452 105.318 121.484 105.171C121.761 103.905 122.592 102.972 124.025 102.972C125.348 102.972 125.918 103.798 125.647 105.038C125.435 106.011 124.756 106.744 123.827 107.437L119.193 110.916L119.012 111.743H125.438Z" fill="#33444D"/>
<path d="M111.415 151.316C111.354 151.598 111.166 151.771 110.889 151.771C110.625 151.771 110.505 151.605 110.561 151.351C110.583 151.25 110.606 151.191 110.606 151.191H110.172C110.172 151.191 110.148 151.253 110.126 151.351C110.017 151.851 110.294 152.147 110.807 152.147C111.333 152.147 111.737 151.813 111.849 151.302L112.213 149.633H111.783L111.415 151.316ZM114.913 152.102L114.182 150.659L115.402 149.633H114.836C113.646 150.683 113.391 150.892 113.391 150.892L113.665 149.633H113.235L112.696 152.102H113.126L113.274 151.424L113.814 150.975L114.376 152.102H114.913ZM117.323 151.712H116.152L116.606 149.633H116.176L115.636 152.102H117.238L117.323 151.712Z" fill="#667379"/>
<path d="M112.736 141.606H113.636C113.932 141.126 114.813 140.34 115.987 140.34C117.392 140.34 118.023 141.26 117.738 142.566C117.426 143.992 116.303 144.952 114.993 144.952C113.574 144.952 113.117 144.045 113.174 143.099H112.151C111.973 144.725 112.902 145.845 114.798 145.845C116.708 145.845 118.349 144.392 118.748 142.566C119.111 140.9 118.304 139.473 116.34 139.473C115.071 139.473 114.234 140.18 114.151 140.247L115.275 137.101H119.491L119.692 136.181H114.698L112.736 141.606Z" fill="#33444D"/>
<path d="M104.491 183.535H102.594L102.507 183.935H103.24L102.788 186.004H103.219L103.671 183.935H104.404L104.491 183.535ZM105.752 186.056C106.328 186.056 106.877 185.712 107.035 184.989L107.352 183.535H106.922L106.6 185.006C106.515 185.399 106.253 185.667 105.837 185.667C105.42 185.667 105.276 185.399 105.362 185.006L105.683 183.535H105.252L104.935 184.989C104.777 185.712 105.172 186.056 105.752 186.056ZM110.04 183.535L108.903 185.448H108.896L108.598 183.535H108.111L108.547 186.004H108.995L110.513 183.535H110.04Z" fill="#667379"/>
<path d="M107.38 179.747C109.563 179.747 110.889 178.547 111.224 177.015C111.439 176.028 111.087 175.082 110.129 174.655C111.136 174.229 111.782 173.336 111.971 172.469C112.277 171.07 111.485 169.883 109.534 169.883C107.583 169.883 106.287 171.07 105.984 172.456C105.792 173.336 106.034 174.229 106.841 174.655C105.697 175.082 104.931 176.028 104.716 177.015C104.381 178.547 105.197 179.747 107.38 179.747ZM108.39 175.122C109.754 175.122 110.47 175.842 110.223 176.975C109.984 178.068 109.084 178.881 107.569 178.881C106.055 178.881 105.509 178.068 105.748 176.975C105.995 175.842 107.026 175.122 108.39 175.122ZM108.579 174.255C107.256 174.255 106.712 173.496 106.937 172.469C107.149 171.496 107.994 170.75 109.345 170.75C110.696 170.75 111.212 171.51 110.999 172.483C110.778 173.496 109.889 174.255 108.579 174.255Z" fill="#33444D"/>
<path d="M99.9757 213.649C102.145 213.649 103.778 211.73 104.436 208.717C105.094 205.705 104.299 203.786 102.13 203.786C99.947 203.786 98.3272 205.705 97.6693 208.717C97.0114 211.73 97.7928 213.649 99.9757 213.649ZM101.932 204.692C103.378 204.692 103.998 206.038 103.413 208.717C102.825 211.41 101.62 212.743 100.174 212.743C98.7275 212.743 98.1045 211.41 98.6925 208.717C99.2777 206.038 100.486 204.692 101.932 204.692Z" fill="#33444D"/>
<path d="M158.058 118.2C158.93 118.2 159.525 117.692 159.684 116.965C159.842 116.238 159.469 115.731 158.597 115.731H157.739L157.2 118.2H158.058ZM159.228 116.965C159.116 117.476 158.752 117.81 158.129 117.81H157.716L158.085 116.12H158.498C159.121 116.12 159.34 116.454 159.228 116.965ZM162.2 117.81H160.855L161.001 117.143H162.286L162.371 116.753H161.086L161.224 116.12H162.569L162.654 115.731H160.878L160.339 118.2H162.115L162.2 117.81ZM163.495 118.2L163.726 117.143H164.886L164.971 116.753H163.811L163.949 116.12H165.17L165.255 115.731H163.604L163.065 118.2H163.495Z" fill="#667379"/>
<path d="M162.253 107.331H163.14C164.545 107.331 165.318 107.917 165.062 109.09C164.773 110.41 163.73 111.063 162.434 111.063C161.029 111.063 160.501 110.17 160.62 109.063H159.61C159.391 110.756 160.25 111.943 162.242 111.943C164.275 111.943 165.724 110.743 166.085 109.09C166.306 108.077 165.977 107.211 164.825 106.864C166.011 106.491 166.686 105.651 166.887 104.732C167.227 103.172 166.334 102.079 164.369 102.079C162.582 102.079 161.187 103.279 160.758 104.745H161.754C162.031 103.852 162.823 102.972 164.16 102.972C165.579 102.972 166.118 103.692 165.882 104.772C165.681 105.691 164.789 106.464 163.261 106.464H162.443L162.253 107.331Z" fill="#33444D"/>
<path d="M149.926 149.633H149.53L148.991 152.102H149.415L149.809 150.297L150.359 151.264H150.374L151.35 150.297L150.956 152.102H151.379L151.919 149.633H151.524L150.5 150.655L149.926 149.633ZM153.25 150.328L154.087 152.102H154.529L155.068 149.633H154.644L154.256 151.41L153.417 149.633H152.979L152.44 152.102H152.863L153.25 150.328ZM156.175 150.867C156.292 150.335 156.724 149.984 157.219 149.984C157.714 149.984 157.993 150.335 157.877 150.867C157.76 151.399 157.328 151.751 156.833 151.751C156.338 151.751 156.059 151.399 156.175 150.867ZM155.72 150.867C155.56 151.601 155.976 152.154 156.745 152.154C157.514 152.154 158.172 151.601 158.332 150.867C158.492 150.134 158.076 149.581 157.307 149.581C156.538 149.581 155.88 150.134 155.72 150.867Z" fill="#667379"/>
<path d="M154.906 145.845C156.871 145.845 158.542 144.379 158.917 142.659C159.29 140.953 158.379 139.5 156.442 139.5C155.46 139.5 154.742 139.913 154.331 140.233C155.414 138.647 157.141 137.234 158.695 136.181H157.371C155.323 137.687 152.906 139.887 152.329 142.526C151.928 144.365 152.846 145.845 154.906 145.845ZM157.88 142.659C157.578 144.045 156.422 144.965 155.098 144.965C153.761 144.965 153.021 144.045 153.323 142.659C153.626 141.273 154.771 140.34 156.108 140.34C157.432 140.34 158.183 141.273 157.88 142.659Z" fill="#33444D"/>
<path d="M142.246 184.13H142.253L142.41 186.004H142.873L144.199 183.535H143.725L142.782 185.409H142.775L142.622 183.535H142.148L141.177 185.409H141.17L141.049 183.535H140.561L140.808 186.004H141.271L142.246 184.13ZM145.733 184.411L145.259 183.535H144.718L145.403 184.749L144.143 186.004H144.688L145.586 185.086L146.079 186.004H146.624L145.912 184.749L147.117 183.535H146.586L145.733 184.411ZM149.389 183.535L148.479 184.704H148.472L148.072 183.535H147.574L148.167 185.138L147.978 186.004H148.409L148.598 185.138L149.891 183.535H149.389ZM152.492 183.535H150.489L150.403 183.925H151.845L150.016 185.635L149.935 186.004H151.967L152.052 185.615H150.583L152.412 183.904L152.492 183.535Z" fill="#667379"/>
<path d="M149.506 169.883C147.528 169.883 145.87 171.35 145.495 173.069C145.122 174.775 146.016 176.241 147.954 176.241C148.936 176.241 149.64 175.828 150.065 175.508C148.968 177.095 147.268 178.507 145.717 179.547H147.027C149.089 178.041 151.503 175.855 152.083 173.202C152.484 171.363 151.552 169.883 149.506 169.883ZM146.532 173.069C146.832 171.696 147.977 170.763 149.314 170.763C150.637 170.763 151.388 171.696 151.089 173.069C150.786 174.455 149.624 175.402 148.301 175.402C146.964 175.402 146.229 174.455 146.532 173.069Z" fill="#33444D"/>
<path d="M145.112 206.865H143.638L144.895 203.986H144.062L142.806 206.865H141.005L142.261 203.986H141.416L140.173 206.865H138.672L138.323 207.651H139.824L138.888 209.81H137.401L137.066 210.597H138.539L137.302 213.449H138.148L139.371 210.597H141.172L139.949 213.449H140.781L142.018 210.597H143.505L143.841 209.81H142.367L143.289 207.651H144.776L145.112 206.865ZM140.656 207.651H142.457L141.521 209.81H139.72L140.656 207.651Z" fill="#33444D"/>
<path d="M83.8978 63.7023L83.4223 65.8796H81.1634L81.0171 66.5495H83.276L82.8026 68.7169H83.4984L83.9718 66.5495H86.2205L86.3669 65.8796H84.1181L84.5936 63.7023H83.8978ZM91.3911 68.0864H89.7071L91.0971 61.7221H90.5223L88.7023 61.929L88.5947 62.4216H90.2082L88.9709 68.0864H87.2768L87.1391 68.7169H91.2534L91.3911 68.0864ZM96.8411 65.8402C97.2004 64.1949 97.8862 62.7171 98.9963 61.328H98.2702C97.2557 62.5102 96.4772 64.1358 96.1049 65.8402C95.7327 67.5446 95.8012 69.1701 96.2993 70.3524H97.0254C96.5199 68.9731 96.4817 67.4854 96.8411 65.8402ZM99.138 65.7318H99.8036C100.022 65.3771 100.674 64.7959 101.541 64.7959C102.579 64.7959 103.046 65.4756 102.835 66.4411C102.605 67.4953 101.774 68.2046 100.806 68.2046C99.7576 68.2046 99.4199 67.5347 99.4617 66.8352H98.7054C98.574 68.0372 99.2605 68.8647 100.662 68.8647C102.074 68.8647 103.287 67.7909 103.581 66.4411C103.85 65.2096 103.254 64.1555 101.802 64.1555C100.864 64.1555 100.246 64.6776 100.184 64.7269L101.015 62.4018H104.131L104.279 61.7221H100.589L99.138 65.7318ZM105.007 65.7318H105.673C105.891 65.3771 106.543 64.7959 107.41 64.7959C108.449 64.7959 108.915 65.4756 108.705 66.4411C108.474 67.4953 107.644 68.2046 106.676 68.2046C105.627 68.2046 105.289 67.5347 105.331 66.8352H104.575C104.443 68.0372 105.13 68.8647 106.532 68.8647C107.943 68.8647 109.156 67.7909 109.451 66.4411C109.72 65.2096 109.123 64.1555 107.671 64.1555C106.733 64.1555 106.115 64.6776 106.054 64.7269L106.884 62.4018H110L110.149 61.7221H106.458L105.007 65.7318ZM110.877 65.7318H111.542C111.761 65.3771 112.412 64.7959 113.279 64.7959C114.318 64.7959 114.785 65.4756 114.574 66.4411C114.344 67.4953 113.513 68.2046 112.545 68.2046C111.496 68.2046 111.158 67.5347 111.2 66.8352H110.444C110.313 68.0372 110.999 68.8647 112.401 68.8647C113.813 68.8647 115.025 67.7909 115.32 66.4411C115.589 65.2096 114.992 64.1555 113.54 64.1555C112.602 64.1555 111.984 64.6776 111.923 64.7269L112.753 62.4018H115.869L116.018 61.7221H112.327L110.877 65.7318ZM117.519 65.8402C117.16 67.4854 116.462 68.9731 115.354 70.3524H116.08C117.094 69.1701 117.883 67.5446 118.255 65.8402C118.627 64.1358 118.549 62.5102 118.051 61.328H117.324C117.828 62.7171 117.878 64.1949 117.519 65.8402ZM126.469 68.0864H124.785L126.175 61.7221H125.6L123.78 61.929L123.673 62.4216H125.286L124.049 68.0864H122.355L122.217 68.7169H126.331L126.469 68.0864ZM132.332 68.7169L132.48 68.0372H128.769L131.444 66.0865C132.487 65.3279 133.049 64.6481 133.249 63.7319C133.522 62.4807 132.934 61.5743 131.431 61.5743C129.999 61.5743 128.962 62.4905 128.667 63.8402C128.644 63.9486 128.64 64.057 128.64 64.057H129.386C129.386 64.057 129.386 63.9683 129.409 63.8599C129.614 62.924 130.228 62.2344 131.287 62.2344C132.265 62.2344 132.686 62.8452 132.486 63.7614C132.329 64.4806 131.828 65.0225 131.141 65.5348L127.715 68.1061L127.582 68.7169H132.332ZM135.817 65.4559H136.473C137.512 65.4559 138.082 65.8894 137.893 66.7564C137.68 67.7317 136.909 68.2145 135.951 68.2145C134.912 68.2145 134.522 67.5544 134.61 66.7367H133.864C133.701 67.9879 134.337 68.8647 135.809 68.8647C137.312 68.8647 138.383 67.978 138.649 66.7564C138.813 66.0077 138.57 65.3673 137.718 65.1111C138.595 64.8353 139.094 64.2146 139.242 63.5348C139.494 62.3821 138.833 61.5743 137.381 61.5743C136.06 61.5743 135.029 62.461 134.712 63.5447H135.448C135.653 62.8846 136.239 62.2344 137.227 62.2344C138.276 62.2344 138.674 62.7664 138.499 63.5644C138.351 64.2442 137.692 64.8156 136.562 64.8156H135.957L135.817 65.4559ZM145.555 65.8796H142.449L142.305 66.5397H145.411L145.555 65.8796ZM153.314 68.0864H151.63L153.02 61.7221H152.445L150.625 61.929L150.518 62.4216H152.131L150.894 68.0864H149.2L149.062 68.7169H153.176L153.314 68.0864ZM159.177 68.7169L159.325 68.0372H155.614L158.289 66.0865C159.332 65.3279 159.894 64.6481 160.094 63.7319C160.367 62.4807 159.779 61.5743 158.276 61.5743C156.844 61.5743 155.807 62.4905 155.512 63.8402C155.489 63.9486 155.485 64.057 155.485 64.057H156.231C156.231 64.057 156.231 63.9683 156.254 63.8599C156.459 62.924 157.073 62.2344 158.132 62.2344C159.11 62.2344 159.531 62.8452 159.331 63.7614C159.174 64.4806 158.673 65.0225 157.986 65.5348L154.561 68.1061L154.427 68.7169H159.177ZM162.662 65.4559H163.318C164.357 65.4559 164.928 65.8894 164.738 66.7564C164.525 67.7317 163.754 68.2145 162.796 68.2145C161.757 68.2145 161.367 67.5544 161.455 66.7367H160.709C160.546 67.9879 161.182 68.8647 162.654 68.8647C164.157 68.8647 165.228 67.978 165.494 66.7564C165.658 66.0077 165.415 65.3673 164.563 65.1111C165.44 64.8353 165.939 64.2146 166.087 63.5348C166.339 62.3821 165.678 61.5743 164.226 61.5743C162.905 61.5743 161.875 62.461 161.557 63.5447H162.293C162.498 62.8846 163.084 62.2344 164.072 62.2344C165.121 62.2344 165.519 62.7664 165.345 63.5644C165.196 64.2442 164.537 64.8156 163.407 64.8156H162.802L162.662 65.4559ZM171.623 66.3525H170.696L171.707 61.7221H170.92L166.385 66.3722L166.248 67.0027H169.838L169.463 68.7169H170.179L170.554 67.0027H171.481L171.623 66.3525ZM170.772 62.727L169.98 66.3525H167.227L170.761 62.727H170.772Z" fill="#33444D"/>
<path d="M179.086 63.31C179.221 63.1841 179.395 63.1115 179.562 63.1115H183.45C183.762 63.1115 183.961 63.3605 183.894 63.6678L183.125 67.1913C183.058 67.4986 182.75 67.7477 182.437 67.7477H178.55C178.383 67.7477 178.24 67.675 178.16 67.5491L177.039 65.7874C176.907 65.5805 176.973 65.2786 177.195 65.0717L179.086 63.31Z" fill="#667379"/>
<path d="M182.28 64.2705L179.401 66.5886M179.907 64.2705L181.773 66.5886" stroke="white" stroke-width="0.396101" stroke-linecap="round"/>
<path d="M112.879 82.087L113.212 81.5312H114.533L114.623 82.087H115.171L114.654 79.2067H114.119L112.348 82.087H112.879ZM114.251 79.8152L114.464 81.085H113.476L114.243 79.8152H114.251ZM116.519 82.087C117.537 82.087 118.231 81.4947 118.416 80.6468C118.601 79.799 118.166 79.2067 117.148 79.2067H116.148L115.519 82.087H116.519ZM117.884 80.6468C117.754 81.2432 117.329 81.6326 116.602 81.6326H116.12L116.551 79.6611H117.033C117.759 79.6611 118.015 80.0505 117.884 80.6468ZM119.642 82.087C120.659 82.087 121.353 81.4947 121.538 80.6468C121.723 79.799 121.288 79.2067 120.271 79.2067H119.27L118.641 82.087H119.642ZM121.007 80.6468C120.877 81.2432 120.451 81.6326 119.724 81.6326H119.243L119.673 79.6611H120.155C120.882 79.6611 121.137 80.0505 121.007 80.6468ZM125.36 79.2067H123.147L123.045 79.6732H123.901L123.373 82.087H123.876L124.403 79.6732H125.258L125.36 79.2067ZM125.655 80.6468C125.79 80.0262 126.295 79.6164 126.872 79.6164C127.45 79.6164 127.775 80.0262 127.64 80.6468C127.504 81.2675 126.999 81.6772 126.422 81.6772C125.845 81.6772 125.519 81.2675 125.655 80.6468ZM125.123 80.6468C124.936 81.5028 125.423 82.1478 126.319 82.1478C127.216 82.1478 127.984 81.5028 128.171 80.6468C128.358 79.7909 127.872 79.1459 126.975 79.1459C126.078 79.1459 125.31 79.7909 125.123 80.6468ZM129.625 80.6428C129.431 81.5312 129.912 82.1438 130.772 82.1438C131.502 82.1438 132.16 81.7178 132.43 81.0322H131.895C131.706 81.4379 131.319 81.6732 130.874 81.6732C130.285 81.6732 130.021 81.2635 130.157 80.6428C130.292 80.0221 130.734 79.6164 131.324 79.6164C131.768 79.6164 132.053 79.8517 132.064 80.2574H132.599C132.629 79.5718 132.157 79.1459 131.426 79.1459C130.567 79.1459 129.818 79.7584 129.625 80.6428ZM133.347 80.6468C133.483 80.0262 133.987 79.6164 134.565 79.6164C135.142 79.6164 135.468 80.0262 135.332 80.6468C135.196 81.2675 134.692 81.6772 134.115 81.6772C133.537 81.6772 133.212 81.2675 133.347 80.6468ZM132.816 80.6468C132.629 81.5028 133.115 82.1478 134.012 82.1478C134.909 82.1478 135.677 81.5028 135.863 80.6468C136.05 79.7909 135.564 79.1459 134.667 79.1459C133.771 79.1459 133.003 79.7909 132.816 80.6468ZM137.031 80.0181L138.008 82.087H138.523L139.152 79.2067H138.658L138.205 81.2797L137.225 79.2067H136.715L136.086 82.087H136.58L137.031 80.0181ZM141.738 79.2067H139.525L139.423 79.6732H140.279L139.752 82.087H140.254L140.781 79.6732H141.636L141.738 79.2067ZM141.394 82.087L141.727 81.5312H143.047L143.138 82.087H143.686L143.169 79.2067H142.633L140.862 82.087H141.394ZM142.766 79.8152L142.979 81.085H141.99L142.758 79.8152H142.766ZM144.093 80.6428C143.899 81.5312 144.38 82.1438 145.24 82.1438C145.971 82.1438 146.628 81.7178 146.898 81.0322H146.363C146.175 81.4379 145.787 81.6732 145.343 81.6732C144.753 81.6732 144.489 81.2635 144.625 80.6428C144.761 80.0221 145.202 79.6164 145.792 79.6164C146.236 79.6164 146.521 79.8517 146.532 80.2574H147.068C147.097 79.5718 146.625 79.1459 145.894 79.1459C145.035 79.1459 144.287 79.7584 144.093 80.6428ZM149.556 79.2067H147.343L147.241 79.6732H148.097L147.57 82.087H148.072L148.599 79.6732H149.454L149.556 79.2067ZM150.336 81.7016C149.937 81.7016 149.77 81.4947 149.817 81.1864H149.319C149.233 81.657 149.429 82.1438 150.214 82.1438C150.92 82.1438 151.46 81.803 151.574 81.2797C151.825 80.1276 150.057 80.6184 150.196 79.9856C150.251 79.73 150.494 79.588 150.839 79.588C151.217 79.588 151.362 79.8152 151.304 80.0992H151.798C151.904 79.5597 151.629 79.1459 150.935 79.1459C150.279 79.1459 149.795 79.5394 149.695 79.9978C149.443 81.1499 151.212 80.5982 151.059 81.3C151.002 81.5596 150.738 81.7016 150.336 81.7016Z" fill="#33444D"/>
<circle opacity="0.2" r="2.22445" transform="matrix(1 0 -0.213371 0.976971 108.263 80.6421)" fill="#33444D"/>
<path d="M108.633 79.6278H108.336L108.147 80.4971H107.257L107.194 80.7869H108.083L107.893 81.6561H108.19L108.38 80.7869H109.27L109.333 80.4971H108.443L108.633 79.6278Z" fill="#33444D"/>
<rect width="130.501" height="27.8797" transform="matrix(1 0 -0.213371 0.976971 75.4286 26.6013)" fill="#324149"/>
<path d="M193.046 45.8532L191.951 44.9042C192.056 44.6495 192.138 44.391 192.195 44.1319C192.25 43.8728 192.281 43.6143 192.286 43.3597L193.797 42.411C193.842 42.3833 193.877 42.3431 193.896 42.298C193.915 42.2528 193.918 42.206 193.902 42.1662L193.244 40.4468C193.229 40.407 193.197 40.377 193.155 40.3624C193.113 40.3478 193.064 40.3496 193.016 40.3675L191.372 40.9803C191.037 40.6417 190.624 40.3789 190.153 40.2055L190.291 38.6466C190.295 38.601 190.281 38.5591 190.252 38.5287C190.222 38.4984 190.18 38.4816 190.132 38.4816H188.065C188.017 38.4816 187.967 38.4984 187.925 38.5287C187.883 38.5591 187.85 38.601 187.835 38.6466L187.291 40.2055C186.744 40.3787 186.216 40.6413 185.733 40.98L184.358 40.3671C184.318 40.3492 184.269 40.3474 184.22 40.362C184.172 40.3766 184.127 40.4066 184.094 40.4464L182.685 42.1667C182.652 42.2065 182.634 42.2534 182.633 42.2985C182.633 42.3436 182.65 42.3838 182.683 42.4116L183.78 43.3597C183.568 43.87 183.453 44.3939 183.442 44.9042L181.931 45.8529C181.887 45.8806 181.852 45.9208 181.832 45.9659C181.813 46.011 181.811 46.0579 181.826 46.0977L182.484 47.8177C182.499 47.8574 182.531 47.8874 182.573 47.902C182.615 47.9166 182.665 47.9148 182.713 47.897L184.356 47.2841C184.691 47.6228 185.105 47.8853 185.576 48.0584L185.438 49.6173C185.434 49.6629 185.448 49.7048 185.477 49.7351C185.507 49.7655 185.549 49.7823 185.597 49.7823H187.664C187.712 49.7823 187.762 49.7655 187.804 49.7351C187.847 49.7048 187.879 49.6629 187.895 49.6173L188.438 48.0584C188.985 47.8852 189.513 47.6225 189.996 47.2839L191.371 47.8968C191.412 47.9146 191.46 47.9164 191.509 47.9018C191.557 47.8872 191.602 47.8572 191.635 47.8175L193.044 46.0975C193.076 46.0578 193.095 46.0111 193.095 45.9662C193.096 45.9212 193.078 45.881 193.046 45.8532ZM187.412 46.2037C186.986 46.2037 186.595 46.0822 186.29 45.8546C185.986 45.6269 185.78 45.3034 185.699 44.9248C185.619 44.5462 185.667 44.1296 185.838 43.7277C186.009 43.3259 186.295 42.9567 186.66 42.667C187.025 42.3772 187.452 42.1799 187.888 42.0999C188.323 42.02 188.748 42.061 189.108 42.2178C189.467 42.3747 189.746 42.6402 189.909 42.9809C190.071 43.3216 190.11 43.7222 190.021 44.1319C189.901 44.6814 189.558 45.2084 189.069 45.5969C188.58 45.9855 187.984 46.2037 187.412 46.2037Z" fill="white"/>
<circle r="10.3807" transform="matrix(1 0 -0.213371 0.976971 93.9118 240.736)" fill="#F92120"/>
<path d="M95.3242 241.874L94.3015 242.859C93.2078 242.141 92.3878 241.124 91.9191 239.902L93.1009 239.113C93.2394 239.021 93.351 238.893 93.4183 238.749C93.4856 238.605 93.5047 238.454 93.4728 238.318L92.9947 236.294C92.9604 236.149 92.8695 236.031 92.7381 235.962C92.6067 235.893 92.4434 235.877 92.2773 235.917L90.4285 236.361C90.256 236.403 90.0923 236.502 89.9685 236.639C89.8447 236.776 89.7694 236.942 89.7568 237.106C89.5971 239.244 90.1758 241.227 91.4053 242.754C92.6349 244.281 94.4486 245.27 96.5721 245.57C96.7344 245.592 96.9128 245.554 97.0733 245.463C97.2338 245.371 97.3653 245.232 97.4428 245.072L98.271 243.361C98.3454 243.207 98.3646 243.044 98.3252 242.901C98.2858 242.758 98.1905 242.644 98.0561 242.58L96.1806 241.681C96.0552 241.621 95.9031 241.607 95.7482 241.642C95.5932 241.677 95.4441 241.759 95.3242 241.874Z" fill="#FBFCFD"/>
<circle opacity="0.4" r="5.19037" transform="matrix(1 0 -0.213371 0.976971 36.1723 264.062)" stroke="#9DA6AB" stroke-width="0.296593"/>
<path d="M36.9598 260.904L37.6672 262.684L39.6356 263.152L37.8997 264.72L37.6317 266.789L35.8515 265.979L33.7174 266.789L34.353 264.72L33.3021 263.152L35.4752 262.684L36.9598 260.904Z" fill="#9DA6AB"/>
<path d="M26.4719 273.437C26.6321 272.703 26.2155 272.15 25.4467 272.15C24.6779 272.15 24.0198 272.703 23.8595 273.437C23.6993 274.171 24.116 274.724 24.8847 274.724C25.0805 274.724 25.2703 274.685 25.4442 274.623L25.6938 275.11H26.192L25.8286 274.411C26.1492 274.181 26.3853 273.833 26.4719 273.437ZM26.0163 273.437C25.9009 273.966 25.4711 274.32 24.9728 274.32C24.4781 274.32 24.1997 273.966 24.3151 273.437C24.4313 272.905 24.8639 272.554 25.3586 272.554C25.8569 272.554 26.1325 272.905 26.0163 273.437ZM27.6759 274.724C28.2524 274.724 28.801 274.379 28.9589 273.656L29.2764 272.203H28.8457L28.5245 273.673C28.4387 274.066 28.1773 274.334 27.7609 274.334C27.3445 274.334 27.2001 274.066 27.2859 273.673L27.6071 272.203H27.1765L26.8591 273.656C26.7011 274.379 27.0957 274.724 27.6759 274.724ZM30.2805 272.203H29.8499L29.3107 274.671H29.7413L30.2805 272.203ZM30.471 273.434C30.3047 274.195 30.7168 274.72 31.4536 274.72C32.08 274.72 32.6437 274.355 32.8753 273.767H32.4162C32.2548 274.115 31.9225 274.317 31.5416 274.317C31.0362 274.317 30.8104 273.966 30.9266 273.434C31.0428 272.902 31.4213 272.554 31.9267 272.554C32.3075 272.554 32.5517 272.755 32.5612 273.103H33.0203C33.0455 272.516 32.6412 272.15 32.0148 272.15C31.278 272.15 30.6366 272.676 30.471 273.434ZM35.3304 274.671L34.5992 273.228L35.8198 272.203H35.2539C34.0636 273.253 33.808 273.461 33.808 273.461L34.0829 272.203H33.6523L33.1131 274.671H33.5438L33.6918 273.993L34.2311 273.545L34.793 274.671H35.3304ZM37.3736 274.671C38.2455 274.671 38.8405 274.164 38.9992 273.437C39.1579 272.71 38.7847 272.203 37.9127 272.203H37.055L36.5158 274.671H37.3736ZM38.5436 273.437C38.432 273.948 38.0672 274.282 37.4444 274.282H37.0315L37.4006 272.592H37.8135C38.4363 272.592 38.6552 272.926 38.5436 273.437ZM40.1619 272.203H39.7313L39.1921 274.671H39.6228L40.1619 272.203ZM40.3775 274.671L40.6631 274.195H41.7949L41.8723 274.671H42.3421L41.899 272.203H41.4399L39.9219 274.671H40.3775ZM41.5538 272.724L41.736 273.813H40.889L41.5466 272.724H41.5538ZM44.3266 274.282H43.1557L43.6098 272.203H43.1792L42.64 274.671H44.2416L44.3266 274.282Z" fill="#9DA6AB"/>
<path d="M55.3698 272.203H54.9391L54.7159 273.225H53.5164L53.7397 272.203H53.309L52.7699 274.671H53.2005L53.4314 273.614H54.6308L54.3999 274.671H54.8306L55.3698 272.203ZM56.3986 272.203H55.968L55.4288 274.671H55.8594L56.3986 272.203ZM57.3412 274.341C56.9995 274.341 56.8567 274.164 56.8967 273.899H56.4696C56.3957 274.303 56.5644 274.72 57.2371 274.72C57.8421 274.72 58.3045 274.428 58.4025 273.979C58.6182 272.992 57.1026 273.413 57.2211 272.87C57.2689 272.651 57.477 272.529 57.7724 272.529C58.0963 272.529 58.2211 272.724 58.1715 272.968H58.595C58.6853 272.505 58.4496 272.15 57.8552 272.15C57.2929 272.15 56.8775 272.488 56.7917 272.881C56.5761 273.868 58.0923 273.395 57.9609 273.997C57.9123 274.219 57.6864 274.341 57.3412 274.341ZM60.8788 272.203H58.9818L58.8945 272.602H59.6277L59.1758 274.671H59.6065L60.0583 272.602H60.7915L60.8788 272.203ZM61.1313 273.437C61.2475 272.905 61.6801 272.554 62.1749 272.554C62.6696 272.554 62.9488 272.905 62.8326 273.437C62.7164 273.969 62.2838 274.32 61.7891 274.32C61.2944 274.32 61.0152 273.969 61.1313 273.437ZM60.6758 273.437C60.5155 274.171 60.9322 274.724 61.701 274.724C62.4698 274.724 63.1279 274.171 63.2882 273.437C63.4484 272.703 63.0317 272.15 62.263 272.15C61.4942 272.15 60.836 272.703 60.6758 273.437ZM65.5072 274.671L65.1511 273.646C65.5084 273.541 65.7263 273.277 65.7977 272.95C65.8918 272.519 65.6869 272.203 65.1281 272.203H64.0177L63.4785 274.671H63.9091L64.1218 273.698H64.7019L65.0018 274.671H65.5072ZM65.3635 272.95C65.3171 273.162 65.1571 273.308 64.8902 273.308H64.2068L64.3633 272.592H65.0466C65.3135 272.592 65.4098 272.738 65.3635 272.95ZM67.8095 272.203L66.8995 273.371H66.8924L66.4926 272.203H65.9944L66.5874 273.806L66.3983 274.671H66.829L67.0181 273.806L68.3113 272.203H67.8095Z" fill="#9DA6AB"/>
<circle opacity="0.4" r="5.19037" transform="matrix(1 0 -0.213371 0.976971 62.5689 264.062)" stroke="#9DA6AB" stroke-width="0.296593"/>
<path d="M61.9677 266.814C63.5239 266.814 65.0545 265.582 65.3866 264.062C65.7186 262.541 64.7263 261.309 63.1701 261.309C61.614 261.309 60.0833 262.541 59.7513 264.062C59.4193 265.582 60.4116 266.814 61.9677 266.814Z" fill="#9DA6AB"/>
<path d="M62.6422 263.048L62.3258 264.496H63.8087" stroke="#FBFCFD" stroke-width="0.593186" stroke-miterlimit="10" stroke-linecap="square" stroke-linejoin="round"/>
<path d="M81.9521 274.671L81.2209 273.228L82.4415 272.203H81.8756C80.6853 273.253 80.4297 273.461 80.4297 273.461L80.7047 272.203H80.274L79.7348 274.671H80.1655L80.3136 273.993L80.8529 273.545L81.4147 274.671H81.9521ZM84.074 274.282H82.7287L82.8745 273.614H84.1593L84.2444 273.225H82.9596L83.0978 272.592H84.4431L84.5282 272.203H82.7522L82.213 274.671H83.989L84.074 274.282ZM86.4919 272.203L85.5818 273.371H85.5747L85.175 272.203H84.6767L85.2698 273.806L85.0807 274.671H85.5114L85.7005 273.806L86.9937 272.203H86.4919ZM87.4458 273.308L87.6023 272.592H88.2216C88.5027 272.592 88.599 272.738 88.5519 272.954C88.5048 273.169 88.3463 273.308 88.0651 273.308H87.4458ZM87.3608 273.698H87.9765C88.5638 273.698 88.8942 273.374 88.9861 272.954C89.078 272.533 88.9045 272.203 88.3031 272.203H87.2567L86.7175 274.671H87.1481L87.3608 273.698ZM88.9248 274.671L89.2103 274.195H90.3421L90.4196 274.671H90.8894L90.4463 272.203H89.9871L88.4692 274.671H88.9248ZM90.101 272.724L90.2833 273.813H89.4362L90.0939 272.724H90.101ZM92.045 274.671C92.917 274.671 93.5119 274.164 93.6706 273.437C93.8293 272.71 93.4562 272.203 92.5842 272.203H91.7264L91.1872 274.671H92.045ZM93.215 273.437C93.1034 273.948 92.7386 274.282 92.1158 274.282H91.7029L92.072 272.592H92.4849C93.1077 272.592 93.3267 272.926 93.215 273.437Z" fill="#9DA6AB"/>
<circle opacity="0.4" r="5.19037" transform="matrix(1 0 -0.213371 0.976971 88.9656 264.062)" stroke="#9DA6AB" stroke-width="0.296593"/>
<path d="M87.3226 262.758C87.6502 262.758 87.9724 262.498 88.0423 262.178C88.1122 261.858 87.9033 261.599 87.5757 261.599C87.2481 261.599 86.9258 261.858 86.8559 262.178C86.786 262.498 86.995 262.758 87.3226 262.758Z" fill="#9DA6AB"/>
<path d="M86.8795 264.786C87.2071 264.786 87.5294 264.527 87.5993 264.207C87.6692 263.887 87.4603 263.627 87.1327 263.627C86.8051 263.627 86.4828 263.887 86.4129 264.207C86.343 264.527 86.5519 264.786 86.8795 264.786Z" fill="#9DA6AB"/>
<path d="M86.4366 266.815C86.7642 266.815 87.0864 266.555 87.1563 266.235C87.2262 265.915 87.0173 265.656 86.6897 265.656C86.3621 265.656 86.0399 265.915 85.97 266.235C85.9001 266.555 86.109 266.815 86.4366 266.815Z" fill="#9DA6AB"/>
<path d="M89.3987 262.758C89.7263 262.758 90.0486 262.498 90.1185 262.178C90.1884 261.858 89.9794 261.599 89.6518 261.599C89.3242 261.599 89.002 261.858 88.9321 262.178C88.8622 262.498 89.0711 262.758 89.3987 262.758Z" fill="#9DA6AB"/>
<path d="M88.9557 264.786C89.2833 264.786 89.6056 264.527 89.6755 264.207C89.7454 263.887 89.5365 263.627 89.2089 263.627C88.8813 263.627 88.559 263.887 88.4891 264.207C88.4192 264.527 88.6281 264.786 88.9557 264.786Z" fill="#9DA6AB"/>
<path d="M88.5128 266.815C88.8404 266.815 89.1626 266.555 89.2325 266.235C89.3024 265.915 89.0935 265.656 88.7659 265.656C88.4383 265.656 88.1161 265.915 88.0462 266.235C87.9763 266.555 88.1852 266.815 88.5128 266.815Z" fill="#9DA6AB"/>
<path d="M91.4749 262.758C91.8025 262.758 92.1247 262.498 92.1946 262.178C92.2645 261.858 92.0556 261.599 91.728 261.599C91.4004 261.599 91.0782 261.858 91.0083 262.178C90.9384 262.498 91.1473 262.758 91.4749 262.758Z" fill="#9DA6AB"/>
<path d="M91.0319 264.786C91.3595 264.786 91.6817 264.527 91.7516 264.207C91.8215 263.887 91.6126 263.627 91.285 263.627C90.9574 263.627 90.6351 263.887 90.5652 264.207C90.4953 264.527 90.7042 264.786 91.0319 264.786Z" fill="#9DA6AB"/>
<path d="M90.5889 266.815C90.9165 266.815 91.2387 266.555 91.3086 266.235C91.3785 265.915 91.1696 265.656 90.842 265.656C90.5144 265.656 90.1922 265.915 90.1223 266.235C90.0524 266.555 90.2613 266.815 90.5889 266.815Z" fill="#9DA6AB"/>
<circle opacity="0.4" r="5.19037" transform="matrix(1 0 -0.213371 0.976971 115.362 264.062)" stroke="#9DA6AB" stroke-width="0.296593"/>
<path d="M103.845 273.434C103.678 274.195 104.09 274.72 104.827 274.72C105.454 274.72 106.017 274.355 106.249 273.767H105.79C105.628 274.115 105.296 274.317 104.915 274.317C104.41 274.317 104.184 273.966 104.3 273.434C104.416 272.902 104.795 272.554 105.3 272.554C105.681 272.554 105.925 272.755 105.935 273.103H106.394C106.419 272.516 106.015 272.15 105.388 272.15C104.652 272.15 104.01 272.676 103.845 273.434ZM107.035 273.437C107.151 272.905 107.584 272.554 108.078 272.554C108.573 272.554 108.852 272.905 108.736 273.437C108.62 273.969 108.187 274.32 107.693 274.32C107.198 274.32 106.919 273.969 107.035 273.437ZM106.579 273.437C106.419 274.171 106.836 274.724 107.605 274.724C108.373 274.724 109.031 274.171 109.192 273.437C109.352 272.703 108.935 272.15 108.166 272.15C107.398 272.15 106.74 272.703 106.579 273.437ZM110.193 272.898L111.03 274.671H111.471L112.01 272.203H111.587L111.199 273.979L110.359 272.203H109.921L109.382 274.671H109.806L110.193 272.898ZM114.227 272.203H112.33L112.243 272.602H112.976L112.524 274.671H112.955L113.407 272.602H114.14L114.227 272.203ZM113.932 274.671L114.217 274.195H115.349L115.427 274.671H115.897L115.453 272.203H114.994L113.476 274.671H113.932ZM115.108 272.724L115.29 273.813H114.443L115.101 272.724H115.108ZM116.246 273.434C116.08 274.195 116.492 274.72 117.228 274.72C117.855 274.72 118.419 274.355 118.65 273.767H118.191C118.03 274.115 117.697 274.317 117.317 274.317C116.811 274.317 116.585 273.966 116.702 273.434C116.818 272.902 117.196 272.554 117.702 272.554C118.082 272.554 118.327 272.755 118.336 273.103H118.795C118.82 272.516 118.416 272.15 117.79 272.15C117.053 272.15 116.412 272.676 116.246 273.434ZM120.928 272.203H119.031L118.944 272.602H119.677L119.225 274.671H119.656L120.108 272.602H120.841L120.928 272.203ZM121.596 274.341C121.255 274.341 121.112 274.164 121.152 273.899H120.725C120.651 274.303 120.82 274.72 121.492 274.72C122.097 274.72 122.56 274.428 122.658 273.979C122.873 272.992 121.358 273.413 121.476 272.87C121.524 272.651 121.732 272.529 122.028 272.529C122.352 272.529 122.476 272.724 122.427 272.968H122.85C122.941 272.505 122.705 272.15 122.11 272.15C121.548 272.15 121.133 272.488 121.047 272.881C120.831 273.868 122.347 273.395 122.216 273.997C122.168 274.219 121.942 274.341 121.596 274.341Z" fill="#9DA6AB"/>
<path d="M114.22 261.599H117.855C118.168 261.599 118.373 261.819 118.314 262.091L117.453 266.032C117.394 266.304 117.092 266.525 116.779 266.525H113.144L114.22 261.599Z" fill="#9DA6AB"/>
<path d="M113.94 261.599H113.379L113.2 262.42H113.76L113.94 261.599Z" fill="#9DA6AB"/>
<path d="M113.641 262.967H113.08L112.901 263.788H113.461L113.641 262.967Z" fill="#9DA6AB"/>
<path d="M113.342 264.335H112.782L112.602 265.156H113.163L113.342 264.335Z" fill="#9DA6AB"/>
<path d="M113.043 265.704H112.483L112.303 266.525H112.864L113.043 265.704Z" fill="#9DA6AB"/>
<path d="M117.402 262.42H114.881L114.701 263.241H117.222L117.402 262.42Z" fill="white"/>
<circle opacity="0.4" r="5.19037" transform="matrix(1 0 -0.213371 0.976971 141.759 264.062)" stroke="#9DA6AB" stroke-width="0.296593"/>
<path d="M130.845 272.203H130.45L129.911 274.671H130.335L130.729 272.867L131.279 273.833H131.294L132.27 272.867L131.876 274.671H132.299L132.839 272.203H132.443L131.419 273.225L130.845 272.203ZM134.758 274.282H133.412L133.558 273.614H134.843L134.928 273.225H133.643L133.782 272.592H135.127L135.212 272.203H133.436L132.897 274.671H134.673L134.758 274.282ZM136.043 274.341C135.701 274.341 135.559 274.164 135.599 273.899H135.171C135.098 274.303 135.266 274.72 135.939 274.72C136.544 274.72 137.006 274.428 137.104 273.979C137.32 272.992 135.805 273.413 135.923 272.87C135.971 272.651 136.179 272.529 136.474 272.529C136.798 272.529 136.923 272.724 136.873 272.968H137.297C137.387 272.505 137.151 272.15 136.557 272.15C135.995 272.15 135.579 272.488 135.494 272.881C135.278 273.868 136.794 273.395 136.663 273.997C136.614 274.219 136.388 274.341 136.043 274.341ZM138.215 274.341C137.874 274.341 137.731 274.164 137.771 273.899H137.344C137.27 274.303 137.439 274.72 138.111 274.72C138.716 274.72 139.179 274.428 139.277 273.979C139.492 272.992 137.977 273.413 138.095 272.87C138.143 272.651 138.351 272.529 138.647 272.529C138.971 272.529 139.095 272.724 139.046 272.968H139.469C139.56 272.505 139.324 272.15 138.729 272.15C138.167 272.15 137.752 272.488 137.666 272.881C137.45 273.868 138.967 273.395 138.835 273.997C138.787 274.219 138.561 274.341 138.215 274.341ZM139.716 274.671L140.002 274.195H141.134L141.211 274.671H141.681L141.238 272.203H140.779L139.261 274.671H139.716ZM140.893 272.724L141.075 273.813H140.228L140.885 272.724H140.893ZM143.106 274.31C142.64 274.31 142.37 273.966 142.486 273.434C142.602 272.902 143.006 272.554 143.511 272.554C143.874 272.554 144.141 272.735 144.162 273.058H144.629C144.634 272.495 144.211 272.15 143.599 272.15C142.862 272.15 142.196 272.676 142.03 273.434C141.864 274.195 142.292 274.713 143.014 274.713C143.737 274.713 144.395 274.195 144.561 273.434C144.573 273.378 144.582 273.322 144.582 273.322H143.489L143.405 273.705H144.039C143.873 274.108 143.522 274.31 143.106 274.31ZM146.61 274.282H145.265L145.41 273.614H146.695L146.78 273.225H145.495L145.634 272.592H146.979L147.064 272.203H145.288L144.749 274.671H146.525L146.61 274.282ZM147.895 274.341C147.554 274.341 147.411 274.164 147.451 273.899H147.024C146.95 274.303 147.118 274.72 147.791 274.72C148.396 274.72 148.859 274.428 148.957 273.979C149.172 272.992 147.657 273.413 147.775 272.87C147.823 272.651 148.031 272.529 148.326 272.529C148.65 272.529 148.775 272.724 148.725 272.968H149.149C149.239 272.505 149.004 272.15 148.409 272.15C147.847 272.15 147.432 272.488 147.346 272.881C147.13 273.868 148.646 273.395 148.515 273.997C148.466 274.219 148.24 274.341 147.895 274.341Z" fill="#9DA6AB"/>
<path d="M139.31 263.733C139.567 262.554 140.905 261.599 142.297 261.599C143.689 261.599 144.609 262.554 144.352 263.733C144.094 264.912 142.757 265.868 141.365 265.868C141.188 265.868 141.02 265.852 140.86 265.823L139.373 266.525L139.666 265.181C139.333 264.801 139.188 264.293 139.31 263.733Z" fill="#9DA6AB"/>
</g>
<path d="M190.569 24.2314C189.954 26.9392 187.205 29.1344 184.428 29.1344C181.652 29.1344 179.899 26.9392 180.514 24.2314C181.128 21.5235 183.878 19.3284 186.654 19.3284C189.431 19.3284 191.184 21.5235 190.569 24.2314Z" fill="#1A2D37"/>
<path d="M208.147 24.2314C207.532 26.9392 204.783 29.1344 202.006 29.1344C199.229 29.1344 197.477 26.9392 198.091 24.2314C198.706 21.5235 201.455 19.3284 204.232 19.3284C207.009 19.3284 208.762 21.5235 208.147 24.2314Z" fill="#1A2D37"/>
<path d="M225.725 24.2314C225.11 26.9392 222.361 29.1344 219.584 29.1344C216.807 29.1344 215.054 26.9392 215.669 24.2314C216.284 21.5235 219.033 19.3284 221.81 19.3284C224.587 19.3284 226.339 21.5235 225.725 24.2314Z" fill="#1A2D37"/>
<defs>
<filter id="filter0_d" x="77.9528" y="0.762695" width="735.602" height="450.208" filterUnits="userSpaceOnUse" color-interpolation-filters="sRGB">
<feFlood flood-opacity="0" result="BackgroundImageFix"/>
<feColorMatrix in="SourceAlpha" type="matrix" values="0 0 0 0 0 0 0 0 0 0 0 0 0 0 0 0 0 0 127 0" result="hardAlpha"/>
<feOffset dx="43" dy="52"/>
<feGaussianBlur stdDeviation="33"/>
<feComposite in2="hardAlpha" operator="out"/>
<feColorMatrix type="matrix" values="0 0 0 0 0.0745098 0 0 0 0 0.141176 0 0 0 0 0.188235 0 0 0 0.17 0"/>
<feBlend mode="normal" in2="BackgroundImageFix" result="effect1_dropShadow"/>
<feBlend mode="normal" in="SourceGraphic" in2="effect1_dropShadow" result="shape"/>
</filter>
<filter id="filter1_d" x="248.029" y="17.8001" width="295.812" height="289.546" filterUnits="userSpaceOnUse" color-interpolation-filters="sRGB">
<feFlood flood-opacity="0" result="BackgroundImageFix"/>
<feColorMatrix in="SourceAlpha" type="matrix" values="0 0 0 0 0 0 0 0 0 0 0 0 0 0 0 0 0 0 127 0" result="hardAlpha"/>
<feOffset dx="17.619" dy="15.7644"/>
<feGaussianBlur stdDeviation="30.1378"/>
<feComposite in2="hardAlpha" operator="out"/>
<feColorMatrix type="matrix" values="0 0 0 0 0 0 0 0 0 0.0823529 0 0 0 0 0.12549 0 0 0 0.49 0"/>
<feBlend mode="normal" in2="BackgroundImageFix" result="effect1_dropShadow"/>
<feBlend mode="normal" in="SourceGraphic" in2="effect1_dropShadow" result="shape"/>
</filter>
<filter id="filter2_d" x="0.105133" y="28.4844" width="271.899" height="352.432" filterUnits="userSpaceOnUse" color-interpolation-filters="sRGB">
<feFlood flood-opacity="0" result="BackgroundImageFix"/>
<feColorMatrix in="SourceAlpha" type="matrix" values="0 0 0 0 0 0 0 0 0 0 0 0 0 0 0 0 0 0 127 0" result="hardAlpha"/>
<feOffset dx="19" dy="52"/>
<feGaussianBlur stdDeviation="21"/>
<feComposite in2="hardAlpha" operator="out"/>
<feColorMatrix type="matrix" values="0 0 0 0 0.0745098 0 0 0 0 0.141176 0 0 0 0 0.188235 0 0 0 0.11 0"/>
<feBlend mode="normal" in2="BackgroundImageFix" result="effect1_dropShadow"/>
<feBlend mode="normal" in="SourceGraphic" in2="effect1_dropShadow" result="shape"/>
</filter>
<filter id="filter3_d" x="48.4323" y="41.5392" width="166.647" height="54.21" filterUnits="userSpaceOnUse" color-interpolation-filters="sRGB">
<feFlood flood-opacity="0" result="BackgroundImageFix"/>
<feColorMatrix in="SourceAlpha" type="matrix" values="0 0 0 0 0 0 0 0 0 0 0 0 0 0 0 0 0 0 127 0" result="hardAlpha"/>
<feOffset dy="1.18637"/>
<feGaussianBlur stdDeviation="3.41082"/>
<feComposite in2="hardAlpha" operator="out"/>
<feColorMatrix type="matrix" values="0 0 0 0 0.2 0 0 0 0 0.266667 0 0 0 0 0.301961 0 0 0 0.1 0"/>
<feBlend mode="normal" in2="BackgroundImageFix" result="effect1_dropShadow"/>
<feBlend mode="normal" in="SourceGraphic" in2="effect1_dropShadow" result="shape"/>
</filter>
<linearGradient id="paint0_linear" x1="432.982" y1="13.0292" x2="432.982" y2="322.868" gradientUnits="userSpaceOnUse">
<stop stop-color="#3A4952"/>
<stop offset="1" stop-color="#2B3940"/>
</linearGradient>
<linearGradient id="paint1_linear" x1="378.316" y1="62.3113" x2="378.316" y2="231.306" gradientUnits="userSpaceOnUse">
<stop stop-color="#E6E9EF"/>
<stop offset="1" stop-color="#C3CACE"/>
</linearGradient>
<linearGradient id="paint2_linear" x1="401.698" y1="78.4077" x2="390.434" y2="95.8175" gradientUnits="userSpaceOnUse">
<stop stop-color="#F92120"/>
<stop offset="1" stop-color="#C00100"/>
</linearGradient>
<linearGradient id="paint3_linear" x1="31.7258" y1="38.4171" x2="131.424" y2="283.255" gradientUnits="userSpaceOnUse">
<stop stop-color="#E0E2E9"/>
<stop offset="1" stop-color="#C4CACE"/>
</linearGradient>
<clipPath id="clip0">
<rect width="130.501" height="259.222" rx="8" transform="matrix(1 0 -0.213371 0.976971 75.4286 26.6013)" fill="white"/>
</clipPath>
</defs>
</svg>
