<svg width="778" height="450" viewBox="0 0 778 450" fill="none" xmlns="http://www.w3.org/2000/svg">
<g clip-path="url(#clip0)">
<g filter="url(#filter0_d)">
<path d="M686.817 16.1422L686.743 16.0275C686.718 15.987 686.693 15.947 686.667 15.9074L680.131 5.7334L676.308 6.75486L676.595 9.84327H160.087C156.697 9.84327 153.363 12.5277 152.64 15.8391L87.7495 310.156L83.8347 311.987L90.0062 321.61L90.0122 321.608C90.8245 323.027 92.3843 323.942 94.3622 323.942H614.927C618.317 323.942 621.651 321.257 622.374 317.946L687.297 19.8175C687.599 18.433 687.398 17.1581 686.813 16.1432L686.817 16.1422Z" fill="#1A2D37"/>
</g>
<path d="M148.537 9.43577C149.192 6.43368 152.215 4 155.288 4H676.44C679.513 4 681.472 6.43368 680.817 9.43577L615.522 308.403C614.866 311.405 611.844 313.839 608.771 313.839H87.6186C84.5458 313.839 82.5863 311.405 83.2419 308.403L148.537 9.43577Z" fill="url(#paint0_linear)"/>
<path opacity="0.2" d="M329.523 88.9065C330.246 85.5951 333.58 82.9106 336.97 82.9106H462.782C466.171 82.9106 468.332 85.5951 467.609 88.9065L434.217 241.8C433.494 245.111 430.16 247.796 426.771 247.796H300.959C297.569 247.796 295.408 245.111 296.131 241.8L329.523 88.9065Z" fill="#001520"/>
<g filter="url(#filter1_d)">
<path d="M448.209 59.7127L448.135 59.598C448.11 59.5575 448.085 59.5174 448.058 59.4778L444.094 53.2822L440.27 54.3037L440.558 57.3921H318.05C314.66 57.3921 311.326 60.0765 310.603 63.3879L278.028 212.538L273.567 213.515L277.683 219.945L277.688 219.944C278.501 221.363 280.061 222.277 282.039 222.277H407.85C411.24 222.277 414.574 219.593 415.297 216.281L448.689 63.3879C448.991 62.0034 448.789 60.7285 448.204 59.7136L448.209 59.7127Z" fill="url(#paint1_linear)"/>
</g>
<path d="M306.537 57.0427C307.26 53.7313 310.594 51.0469 313.984 51.0469H439.795C443.185 51.0469 445.346 53.7313 444.623 57.0427L411.231 209.936C410.508 213.248 407.174 215.932 403.784 215.932H277.972C274.583 215.932 272.422 213.248 273.145 209.936L306.537 57.0427Z" fill="#FBFBFD"/>
<path d="M354.204 68.2295L351.167 68.2295L359.434 88.8173C360.305 90.8634 362.405 91.702 364.519 91.4857L355.5 69.0152C355.292 68.528 354.794 68.2313 354.204 68.2295Z" fill="#F92120"/>
<path d="M362.233 68.2295C362.823 68.2313 363.326 68.528 363.533 69.0152L369.256 83.2759C369.378 83.5727 369.824 83.574 370.073 83.2759L381.282 69.9061L381.283 69.9061L381.605 69.5209L382.052 68.9877C382.473 68.5171 383.107 68.2312 383.687 68.2295L386.709 68.2295L370.831 87.1784C371.577 88.5101 373.646 88.4971 374.957 87.0437L390.097 68.9715C390.195 68.8643 390.303 68.767 390.42 68.6807C390.722 68.4592 391.157 68.2483 391.66 68.2304C391.678 68.2298 391.697 68.2295 391.715 68.2295L394.738 68.2295L377.512 88.7831C376.006 90.5618 373.816 91.5203 371.861 91.5187C369.923 91.517 368.163 90.5238 367.455 88.8173L359.188 68.2295L362.233 68.2295Z" fill="#F92120"/>
<path d="M369.294 83.336L370.845 87.193L386.733 68.2295L383.708 68.2295C383.128 68.2312 382.494 68.5173 382.073 68.9882L381.626 69.5217L381.303 69.9072L381.302 69.9072L370.086 83.2858C369.851 83.5662 369.443 83.5819 369.294 83.336Z" fill="url(#paint2_linear)"/>
<path d="M306.225 191.949C306.586 190.293 308.253 188.951 309.948 188.951H383.594C385.289 188.951 386.369 190.293 386.008 191.949L383.389 203.94C383.027 205.596 381.36 206.938 379.666 206.938H306.02C304.325 206.938 303.244 205.596 303.606 203.94L306.225 191.949Z" fill="#F92120"/>
<path d="M337.624 200.487H335.207L336.15 196.17H335.03L333.868 201.491H337.404L337.624 200.487ZM339.593 201.581C340.882 201.581 341.907 200.644 342.151 199.527C342.395 198.411 341.779 197.474 340.49 197.474C339.201 197.474 338.176 198.411 337.932 199.527C337.688 200.644 338.304 201.581 339.593 201.581ZM339.021 199.527C339.175 198.823 339.71 198.411 340.285 198.411C340.861 198.411 341.216 198.823 341.062 199.527C340.908 200.232 340.373 200.644 339.797 200.644C339.222 200.644 338.867 200.232 339.021 199.527ZM346.002 198.044C345.827 197.684 345.436 197.474 344.868 197.474C343.748 197.474 342.843 198.351 342.604 199.445C342.365 200.539 342.887 201.416 344.007 201.416C344.575 201.416 345.026 201.176 345.292 200.907L345.173 201.454C345.071 201.918 344.722 202.218 344.169 202.218C343.625 202.218 343.504 201.926 343.508 201.701H342.418C342.344 202.323 342.712 203.132 343.954 203.132C345.182 203.132 346.062 202.368 346.286 201.341L347.111 197.564H346.106L346.002 198.044ZM345.642 199.445C345.508 200.06 345.025 200.479 344.442 200.479C343.859 200.479 343.559 200.06 343.693 199.445C343.828 198.83 344.31 198.411 344.894 198.411C345.477 198.411 345.776 198.83 345.642 199.445ZM348.668 197.054C349.052 197.054 349.385 196.792 349.467 196.417C349.549 196.042 349.332 195.773 348.948 195.773C348.565 195.773 348.229 196.042 348.148 196.417C348.066 196.792 348.285 197.054 348.668 197.054ZM347.155 201.491H348.244L349.102 197.564H348.012L347.155 201.491ZM351.049 197.564H350.044L349.187 201.491H350.276L350.767 199.243C350.882 198.718 351.245 198.388 351.775 198.388C352.258 198.388 352.389 198.703 352.289 199.16L351.78 201.491H352.869L353.404 199.04C353.609 198.103 353.232 197.474 352.266 197.474C351.667 197.474 351.202 197.706 350.945 198.044L351.049 197.564Z" fill="#FBFBFD"/>
<path d="M305.199 115.91C305.435 114.831 306.522 113.956 307.626 113.956H418.698C419.802 113.956 420.507 114.831 420.271 115.91L417.196 129.989C416.96 131.068 415.874 131.943 414.769 131.943H303.698C302.593 131.943 301.889 131.068 302.124 129.989L305.199 115.91Z" fill="#E6E9EF"/>
<path fill-rule="evenodd" clip-rule="evenodd" d="M307.969 104.481C308.182 104.309 308.441 104.212 308.688 104.212H314.491C314.739 104.212 314.956 104.309 315.093 104.481C315.231 104.652 315.279 104.885 315.226 105.128L315.051 105.928L310.767 107.978L307.379 105.928L307.554 105.128C307.607 104.885 307.757 104.652 307.969 104.481ZM308.565 104.78C308.47 104.78 308.372 104.817 308.291 104.882C308.21 104.947 308.154 105.036 308.133 105.128L308.032 105.591L310.909 107.332L314.545 105.591L314.647 105.128C314.667 105.036 314.649 104.947 314.596 104.882C314.544 104.817 314.462 104.78 314.367 104.78H308.565Z" fill="#111827"/>
<path d="M307.813 106.591L307.223 109.293C307.203 109.386 307.221 109.474 307.274 109.54C307.326 109.605 307.408 109.642 307.503 109.642H313.306C313.4 109.642 313.498 109.605 313.579 109.54C313.66 109.474 313.717 109.386 313.737 109.293L314.327 106.591H314.906L314.316 109.293C314.263 109.536 314.113 109.769 313.901 109.94C313.688 110.112 313.43 110.208 313.182 110.208H307.379C307.131 110.208 306.915 110.112 306.777 109.94C306.64 109.769 306.592 109.536 306.645 109.293L307.235 106.591H307.813Z" fill="#111827"/>
<path d="M310.645 108.537L312.473 107.663L312.332 108.309L310.504 109.184L309.059 108.309L309.2 107.663L310.645 108.537Z" fill="#111827"/>
<path d="M320.285 108.881H317.966L318.217 107.729H320.433L320.579 107.058H318.364L318.602 105.967H320.922L321.069 105.295H318.006L317.076 109.552H320.139L320.285 108.881ZM324.011 107.765C324.121 107.262 324.464 106.98 324.9 106.98C325.342 106.98 325.435 107.286 325.347 107.687L324.94 109.552H325.67L326.097 107.598C326.252 106.89 325.973 106.368 325.206 106.368C324.715 106.368 324.329 106.56 324.018 106.86C323.906 106.56 323.628 106.368 323.168 106.368C322.659 106.368 322.299 106.608 322.111 106.854L322.201 106.44H321.526L320.846 109.552H321.577L321.972 107.741C322.076 107.268 322.415 106.98 322.85 106.98C323.286 106.98 323.386 107.28 323.297 107.687L322.89 109.552H323.62L324.011 107.765ZM329.481 106.446L329.384 106.89C329.252 106.566 328.92 106.374 328.422 106.374C327.483 106.374 326.788 107.112 326.595 107.999C326.401 108.887 326.774 109.624 327.713 109.624C328.21 109.624 328.626 109.432 328.899 109.108L328.802 109.552H329.477L330.156 106.446H329.481ZM327.325 107.999C327.447 107.442 327.886 107.004 328.438 107.004C328.997 107.004 329.239 107.442 329.117 107.999C328.995 108.557 328.562 108.995 328.004 108.995C327.451 108.995 327.203 108.557 327.325 107.999ZM331.464 105.919C331.728 105.919 331.957 105.739 332.013 105.481C332.071 105.217 331.921 105.031 331.657 105.031C331.387 105.031 331.157 105.217 331.099 105.481C331.043 105.739 331.194 105.919 331.464 105.919ZM330.302 109.552H331.032L331.712 106.44H330.981L330.302 109.552ZM332.586 109.552L333.569 105.055H332.838L331.856 109.552H332.586Z" fill="#001520"/>
<path opacity="0.8" d="M313.113 120.645L313.037 120.993H311.147L310.805 122.558H312.401L312.325 122.906H310.729L310.308 124.836H309.878L310.794 120.645H313.113ZM313.97 120.945C313.884 120.945 313.816 120.915 313.768 120.855C313.72 120.795 313.705 120.721 313.725 120.633C313.744 120.545 313.79 120.473 313.864 120.417C313.938 120.357 314.018 120.327 314.104 120.327C314.19 120.327 314.257 120.357 314.306 120.417C314.355 120.473 314.37 120.545 314.351 120.633C314.331 120.721 314.285 120.795 314.21 120.855C314.136 120.915 314.055 120.945 313.97 120.945ZM314.049 121.563L313.334 124.836H312.905L313.62 121.563H314.049ZM315.325 122.144C315.463 121.94 315.641 121.782 315.858 121.67C316.079 121.559 316.33 121.503 316.613 121.503L316.517 121.94H316.4C316.089 121.94 315.822 122.022 315.598 122.186C315.374 122.35 315.22 122.624 315.136 123.008L314.737 124.836H314.307L315.022 121.563H315.452L315.325 122.144ZM317.674 124.884C317.29 124.884 316.993 124.798 316.785 124.626C316.582 124.451 316.499 124.213 316.536 123.913H316.978C316.958 124.097 317.013 124.247 317.144 124.363C317.279 124.475 317.479 124.53 317.745 124.53C317.978 124.53 318.172 124.477 318.327 124.369C318.485 124.261 318.582 124.127 318.617 123.967C318.641 123.855 318.625 123.763 318.567 123.691C318.509 123.619 318.427 123.563 318.321 123.523C318.22 123.479 318.079 123.433 317.897 123.385C317.662 123.321 317.473 123.257 317.331 123.193C317.19 123.129 317.078 123.036 316.994 122.912C316.916 122.784 316.9 122.614 316.946 122.402C316.981 122.242 317.062 122.094 317.19 121.958C317.318 121.822 317.481 121.714 317.678 121.635C317.876 121.555 318.089 121.515 318.318 121.515C318.678 121.515 318.949 121.605 319.131 121.784C319.313 121.96 319.378 122.204 319.327 122.516H318.897C318.927 122.324 318.883 122.17 318.765 122.054C318.652 121.934 318.473 121.874 318.227 121.874C318.01 121.874 317.823 121.924 317.667 122.024C317.51 122.124 317.415 122.248 317.383 122.396C317.355 122.524 317.371 122.63 317.43 122.714C317.494 122.794 317.581 122.858 317.689 122.906C317.798 122.95 317.947 123 318.135 123.056C318.362 123.119 318.541 123.181 318.671 123.241C318.801 123.301 318.905 123.389 318.982 123.505C319.059 123.621 319.078 123.775 319.041 123.967C319.002 124.143 318.919 124.301 318.79 124.441C318.662 124.576 318.501 124.684 318.308 124.764C318.114 124.844 317.903 124.884 317.674 124.884ZM320.856 121.916L320.412 123.949C320.368 124.149 320.377 124.287 320.438 124.363C320.499 124.439 320.628 124.477 320.824 124.477H321.217L321.138 124.836H320.678C320.375 124.836 320.165 124.768 320.048 124.632C319.931 124.493 319.907 124.265 319.976 123.949L320.42 121.916H319.953L320.031 121.563H320.497L320.676 120.741H321.112L320.933 121.563H321.853L321.776 121.916H320.856ZM325.83 121.503C326.231 121.503 326.532 121.625 326.732 121.868C326.934 122.108 326.984 122.458 326.884 122.918L326.465 124.836H326.041L326.45 122.966C326.527 122.61 326.495 122.338 326.352 122.15C326.213 121.962 325.986 121.868 325.671 121.868C325.347 121.868 325.068 121.968 324.832 122.168C324.596 122.368 324.435 122.662 324.351 123.05L323.961 124.836H323.531L324.246 121.563H324.676L324.554 122.12C324.704 121.92 324.89 121.768 325.114 121.664C325.338 121.557 325.577 121.503 325.83 121.503ZM327.577 123.193C327.65 122.858 327.782 122.564 327.972 122.312C328.167 122.056 328.4 121.86 328.671 121.724C328.947 121.585 329.239 121.515 329.546 121.515C329.865 121.515 330.123 121.587 330.321 121.73C330.523 121.874 330.65 122.058 330.704 122.282L330.861 121.563H331.29L330.575 124.836H330.146L330.304 124.111C330.149 124.335 329.938 124.52 329.673 124.668C329.412 124.812 329.123 124.884 328.803 124.884C328.501 124.884 328.242 124.814 328.027 124.674C327.816 124.534 327.669 124.337 327.586 124.081C327.507 123.825 327.504 123.529 327.577 123.193ZM330.503 123.199C330.561 122.936 330.556 122.704 330.489 122.504C330.423 122.304 330.305 122.15 330.136 122.042C329.971 121.934 329.775 121.88 329.545 121.88C329.308 121.88 329.084 121.932 328.873 122.036C328.662 122.14 328.48 122.292 328.326 122.492C328.176 122.688 328.072 122.922 328.013 123.193C327.954 123.461 327.956 123.697 328.018 123.901C328.085 124.101 328.2 124.255 328.365 124.363C328.531 124.467 328.732 124.518 328.969 124.518C329.198 124.518 329.419 124.465 329.631 124.357C329.846 124.249 330.031 124.095 330.186 123.895C330.34 123.695 330.446 123.463 330.503 123.199ZM336.273 121.503C336.666 121.503 336.959 121.625 337.151 121.868C337.348 122.108 337.396 122.458 337.296 122.918L336.877 124.836H336.453L336.862 122.966C336.94 122.61 336.911 122.338 336.776 122.15C336.641 121.962 336.423 121.868 336.12 121.868C335.805 121.868 335.531 121.97 335.298 122.174C335.065 122.378 334.907 122.674 334.822 123.062L334.434 124.836H334.011L334.419 122.966C334.497 122.61 334.469 122.338 334.334 122.15C334.199 121.962 333.978 121.868 333.671 121.868C333.356 121.868 333.082 121.97 332.849 122.174C332.617 122.378 332.458 122.674 332.373 123.062L331.986 124.836H331.556L332.271 121.563H332.701L332.578 122.126C332.728 121.922 332.913 121.768 333.133 121.664C333.352 121.557 333.583 121.503 333.825 121.503C334.115 121.503 334.354 121.571 334.541 121.706C334.732 121.842 334.848 122.042 334.889 122.306C335.036 122.046 335.232 121.848 335.479 121.712C335.73 121.573 335.995 121.503 336.273 121.503ZM341.257 123.032C341.226 123.175 341.197 123.285 341.173 123.361H338.393C338.351 123.609 338.366 123.821 338.438 123.997C338.51 124.173 338.626 124.307 338.786 124.399C338.947 124.487 339.133 124.53 339.346 124.53C339.624 124.53 339.872 124.465 340.089 124.333C340.31 124.201 340.476 124.023 340.586 123.799H341.04C340.889 124.119 340.655 124.381 340.341 124.584C340.031 124.784 339.674 124.884 339.269 124.884C338.954 124.884 338.686 124.816 338.467 124.68C338.247 124.54 338.094 124.345 338.006 124.093C337.922 123.837 337.918 123.539 337.992 123.199C338.066 122.86 338.201 122.562 338.396 122.306C338.591 122.05 338.828 121.854 339.107 121.718C339.387 121.583 339.686 121.515 340.005 121.515C340.324 121.515 340.587 121.583 340.795 121.718C341.007 121.854 341.151 122.038 341.227 122.27C341.308 122.498 341.318 122.752 341.257 123.032ZM340.824 123.02C340.881 122.776 340.875 122.568 340.807 122.396C340.742 122.224 340.629 122.094 340.468 122.006C340.307 121.918 340.121 121.874 339.908 121.874C339.589 121.874 339.295 121.974 339.026 122.174C338.757 122.374 338.571 122.656 338.467 123.02H340.824Z" fill="#374151"/>
<path d="M297.157 152.682C297.392 151.602 298.479 150.728 299.583 150.728H410.655C411.759 150.728 412.464 151.602 412.228 152.682L409.153 166.761C408.917 167.84 407.831 168.715 406.726 168.715H295.655C294.55 168.715 293.846 167.84 294.082 166.761L297.157 152.682Z" fill="#E6E9EF"/>
<path opacity="0.8" d="M305.23 158.622C305.152 158.982 304.968 159.272 304.678 159.492C304.389 159.712 304.003 159.822 303.52 159.822H302.655L302.265 161.608H301.835L302.75 157.417H304.045C304.524 157.417 304.86 157.527 305.053 157.747C305.251 157.967 305.31 158.259 305.23 158.622ZM303.599 159.462C304.27 159.462 304.666 159.182 304.789 158.622C304.85 158.343 304.816 158.131 304.688 157.987C304.56 157.843 304.32 157.771 303.968 157.771H303.103L302.733 159.462H303.599ZM305.462 159.966C305.535 159.63 305.667 159.336 305.857 159.084C306.052 158.828 306.285 158.632 306.556 158.497C306.832 158.357 307.123 158.287 307.43 158.287C307.749 158.287 308.008 158.359 308.205 158.503C308.407 158.646 308.535 158.83 308.588 159.054L308.745 158.335H309.175L308.46 161.608H308.03L308.189 160.883C308.033 161.107 307.823 161.293 307.557 161.44C307.297 161.584 307.007 161.656 306.688 161.656C306.385 161.656 306.126 161.586 305.911 161.446C305.701 161.307 305.554 161.109 305.47 160.853C305.391 160.597 305.388 160.301 305.462 159.966ZM308.388 159.972C308.445 159.708 308.441 159.476 308.374 159.276C308.307 159.076 308.189 158.922 308.021 158.814C307.856 158.706 307.659 158.652 307.43 158.652C307.193 158.652 306.969 158.704 306.758 158.808C306.547 158.912 306.364 159.064 306.21 159.264C306.061 159.46 305.957 159.694 305.897 159.966C305.839 160.233 305.84 160.469 305.902 160.673C305.969 160.873 306.085 161.027 306.25 161.135C306.415 161.239 306.616 161.291 306.854 161.291C307.083 161.291 307.303 161.237 307.515 161.129C307.731 161.021 307.916 160.867 308.07 160.667C308.224 160.467 308.33 160.235 308.388 159.972ZM310.584 161.656C310.199 161.656 309.903 161.57 309.695 161.399C309.492 161.223 309.409 160.985 309.446 160.685H309.888C309.868 160.869 309.923 161.019 310.053 161.135C310.188 161.247 310.389 161.303 310.655 161.303C310.888 161.303 311.082 161.249 311.237 161.141C311.395 161.033 311.492 160.899 311.527 160.739C311.551 160.627 311.534 160.535 311.477 160.463C311.419 160.391 311.337 160.335 311.231 160.295C311.13 160.251 310.989 160.205 310.807 160.157C310.571 160.093 310.383 160.029 310.241 159.966C310.1 159.902 309.987 159.808 309.904 159.684C309.825 159.556 309.809 159.386 309.856 159.174C309.89 159.014 309.972 158.866 310.1 158.73C310.228 158.594 310.39 158.487 310.588 158.407C310.785 158.327 310.999 158.287 311.228 158.287C311.588 158.287 311.859 158.377 312.04 158.556C312.223 158.732 312.288 158.976 312.236 159.288H311.807C311.836 159.096 311.792 158.942 311.674 158.826C311.562 158.706 311.382 158.646 311.137 158.646C310.92 158.646 310.733 158.696 310.576 158.796C310.419 158.896 310.325 159.02 310.293 159.168C310.265 159.296 310.28 159.402 310.34 159.486C310.404 159.566 310.49 159.63 310.599 159.678C310.708 159.722 310.856 159.772 311.045 159.828C311.272 159.892 311.451 159.954 311.581 160.013C311.711 160.073 311.815 160.161 311.892 160.277C311.968 160.393 311.988 160.547 311.95 160.739C311.912 160.915 311.828 161.073 311.699 161.213C311.572 161.349 311.411 161.456 311.218 161.536C311.024 161.616 310.813 161.656 310.584 161.656ZM313.712 161.656C313.328 161.656 313.031 161.57 312.824 161.399C312.621 161.223 312.537 160.985 312.574 160.685H313.016C312.996 160.869 313.052 161.019 313.182 161.135C313.317 161.247 313.518 161.303 313.783 161.303C314.017 161.303 314.211 161.249 314.365 161.141C314.524 161.033 314.62 160.899 314.655 160.739C314.68 160.627 314.663 160.535 314.605 160.463C314.547 160.391 314.465 160.335 314.359 160.295C314.259 160.251 314.117 160.205 313.935 160.157C313.7 160.093 313.511 160.029 313.37 159.966C313.228 159.902 313.116 159.808 313.032 159.684C312.954 159.556 312.938 159.386 312.984 159.174C313.019 159.014 313.1 158.866 313.228 158.73C313.356 158.594 313.519 158.487 313.716 158.407C313.914 158.327 314.127 158.287 314.356 158.287C314.716 158.287 314.987 158.377 315.169 158.556C315.351 158.732 315.417 158.976 315.365 159.288H314.935C314.965 159.096 314.921 158.942 314.803 158.826C314.69 158.706 314.511 158.646 314.265 158.646C314.049 158.646 313.862 158.696 313.705 158.796C313.548 158.896 313.453 159.02 313.421 159.168C313.393 159.296 313.409 159.402 313.468 159.486C313.533 159.566 313.619 159.63 313.727 159.678C313.836 159.722 313.985 159.772 314.173 159.828C314.401 159.892 314.579 159.954 314.709 160.013C314.84 160.073 314.943 160.161 315.02 160.277C315.097 160.393 315.117 160.547 315.079 160.739C315.04 160.915 314.957 161.073 314.828 161.213C314.7 161.349 314.539 161.456 314.346 161.536C314.153 161.616 313.941 161.656 313.712 161.656ZM320.831 158.335L319.067 161.608H318.637L318.31 158.862L316.784 161.608H316.348L316.014 158.335H316.449L316.662 161.183L318.223 158.335H318.653L318.956 161.189L320.408 158.335H320.831ZM322.158 161.656C321.843 161.656 321.574 161.588 321.35 161.452C321.131 161.313 320.975 161.117 320.883 160.865C320.795 160.609 320.789 160.311 320.863 159.972C320.937 159.632 321.076 159.336 321.278 159.084C321.481 158.828 321.724 158.632 322.008 158.497C322.292 158.357 322.591 158.287 322.906 158.287C323.222 158.287 323.491 158.357 323.714 158.497C323.942 158.632 324.099 158.828 324.187 159.084C324.279 159.336 324.288 159.632 324.214 159.972C324.141 160.307 324.002 160.603 323.799 160.859C323.596 161.115 323.35 161.313 323.062 161.452C322.775 161.588 322.473 161.656 322.158 161.656ZM322.238 161.291C322.459 161.291 322.674 161.243 322.883 161.147C323.093 161.047 323.277 160.899 323.434 160.703C323.597 160.503 323.709 160.259 323.772 159.972C323.835 159.684 323.83 159.442 323.759 159.246C323.688 159.046 323.569 158.898 323.401 158.802C323.235 158.702 323.041 158.652 322.82 158.652C322.6 158.652 322.384 158.702 322.174 158.802C321.965 158.898 321.781 159.046 321.623 159.246C321.47 159.442 321.362 159.684 321.299 159.972C321.236 160.259 321.238 160.503 321.305 160.703C321.377 160.899 321.494 161.047 321.656 161.147C321.823 161.243 322.017 161.291 322.238 161.291ZM325.657 158.916C325.796 158.712 325.973 158.554 326.19 158.443C326.411 158.331 326.663 158.275 326.945 158.275L326.849 158.712H326.733C326.422 158.712 326.154 158.794 325.93 158.958C325.706 159.122 325.552 159.396 325.469 159.78L325.069 161.608H324.64L325.355 158.335H325.784L325.657 158.916ZM327.025 159.966C327.099 159.63 327.233 159.336 327.427 159.084C327.622 158.828 327.855 158.632 328.126 158.497C328.402 158.357 328.693 158.287 329 158.287C329.295 158.287 329.545 158.357 329.752 158.497C329.959 158.636 330.093 158.818 330.155 159.042L330.563 157.171H330.993L330.024 161.608H329.594L329.754 160.877C329.602 161.105 329.393 161.293 329.128 161.44C328.863 161.584 328.573 161.656 328.258 161.656C327.951 161.656 327.69 161.586 327.475 161.446C327.264 161.307 327.117 161.109 327.034 160.853C326.955 160.597 326.952 160.301 327.025 159.966ZM329.952 159.972C330.009 159.708 330.005 159.476 329.938 159.276C329.871 159.076 329.753 158.922 329.584 158.814C329.42 158.706 329.223 158.652 328.994 158.652C328.757 158.652 328.532 158.704 328.322 158.808C328.111 158.912 327.928 159.064 327.774 159.264C327.625 159.46 327.521 159.694 327.461 159.966C327.403 160.233 327.404 160.469 327.466 160.673C327.533 160.873 327.649 161.027 327.813 161.135C327.979 161.239 328.18 161.291 328.418 161.291C328.647 161.291 328.867 161.237 329.079 161.129C329.295 161.021 329.48 160.867 329.634 160.667C329.788 160.467 329.894 160.235 329.952 159.972Z" fill="#374151"/>
<g opacity="0.8">
<path d="M331.658 173.236L331.586 173.569H330.191L329.96 174.626H331.092L331.02 174.958H329.887L329.579 176.37H329.16L329.845 173.236H331.658ZM332.571 176.411C332.334 176.411 332.131 176.358 331.961 176.253C331.793 176.149 331.675 176 331.607 175.808C331.542 175.613 331.537 175.389 331.593 175.134C331.648 174.882 331.752 174.66 331.904 174.468C332.06 174.273 332.246 174.125 332.462 174.023C332.678 173.918 332.906 173.866 333.145 173.866C333.384 173.866 333.589 173.918 333.76 174.023C333.931 174.125 334.051 174.272 334.119 174.464C334.191 174.656 334.199 174.879 334.143 175.134C334.087 175.389 333.98 175.613 333.821 175.808C333.665 176 333.478 176.149 333.259 176.253C333.039 176.358 332.81 176.411 332.571 176.411ZM332.649 176.051C332.8 176.051 332.948 176.017 333.095 175.948C333.242 175.879 333.371 175.775 333.481 175.637C333.594 175.5 333.672 175.332 333.715 175.134C333.758 174.936 333.755 174.768 333.705 174.63C333.656 174.492 333.574 174.39 333.459 174.324C333.345 174.255 333.213 174.221 333.063 174.221C332.909 174.221 332.761 174.255 332.617 174.324C332.477 174.39 332.353 174.492 332.246 174.63C332.139 174.768 332.064 174.936 332.021 175.134C331.977 175.335 331.977 175.504 332.021 175.642C332.067 175.78 332.146 175.883 332.257 175.952C332.368 176.018 332.499 176.051 332.649 176.051ZM335.293 174.306C335.398 174.165 335.526 174.056 335.678 173.978C335.833 173.9 336.009 173.861 336.205 173.861L336.113 174.284H336.003C335.533 174.284 335.244 174.533 335.135 175.03L334.843 176.37H334.424L334.962 173.906H335.381L335.293 174.306ZM337.728 173.866C337.946 173.866 338.126 173.912 338.268 174.005C338.414 174.098 338.511 174.215 338.56 174.356L338.658 173.906H339.082L338.532 176.424C338.483 176.649 338.39 176.849 338.254 177.022C338.117 177.199 337.946 177.337 337.74 177.436C337.537 177.535 337.315 177.585 337.072 177.585C336.741 177.585 336.482 177.508 336.294 177.355C336.106 177.202 336.022 176.994 336.039 176.73H336.454C336.467 176.88 336.536 177 336.66 177.09C336.784 177.183 336.947 177.229 337.15 177.229C337.38 177.229 337.583 177.159 337.758 177.018C337.936 176.877 338.053 176.679 338.108 176.424L338.221 175.907C338.107 176.051 337.958 176.171 337.774 176.267C337.591 176.363 337.39 176.411 337.172 176.411C336.948 176.411 336.756 176.357 336.595 176.249C336.438 176.141 336.328 175.99 336.267 175.795C336.205 175.6 336.201 175.378 336.255 175.129C336.31 174.877 336.411 174.657 336.556 174.468C336.702 174.276 336.878 174.128 337.082 174.023C337.289 173.918 337.504 173.866 337.728 173.866ZM338.39 175.134C338.431 174.948 338.428 174.786 338.381 174.648C338.335 174.51 338.253 174.405 338.137 174.333C338.024 174.258 337.89 174.221 337.733 174.221C337.577 174.221 337.426 174.257 337.282 174.329C337.137 174.401 337.011 174.506 336.905 174.644C336.798 174.782 336.724 174.943 336.683 175.129C336.642 175.318 336.645 175.483 336.69 175.624C336.737 175.762 336.817 175.868 336.929 175.943C337.042 176.015 337.177 176.051 337.334 176.051C337.49 176.051 337.641 176.015 337.785 175.943C337.934 175.868 338.061 175.762 338.168 175.624C338.276 175.483 338.35 175.32 338.39 175.134ZM340.343 176.411C340.106 176.411 339.903 176.358 339.733 176.253C339.565 176.149 339.447 176 339.379 175.808C339.314 175.613 339.309 175.389 339.365 175.134C339.42 174.882 339.524 174.66 339.676 174.468C339.832 174.273 340.018 174.125 340.234 174.023C340.45 173.918 340.678 173.866 340.917 173.866C341.156 173.866 341.361 173.918 341.532 174.023C341.703 174.125 341.822 174.272 341.891 174.464C341.963 174.656 341.971 174.879 341.915 175.134C341.859 175.389 341.752 175.613 341.593 175.808C341.437 176 341.25 176.149 341.031 176.253C340.811 176.358 340.582 176.411 340.343 176.411ZM340.421 176.051C340.572 176.051 340.72 176.017 340.867 175.948C341.014 175.879 341.143 175.775 341.253 175.637C341.366 175.5 341.444 175.332 341.487 175.134C341.53 174.936 341.527 174.768 341.477 174.63C341.428 174.492 341.345 174.39 341.231 174.324C341.117 174.255 340.985 174.221 340.835 174.221C340.681 174.221 340.533 174.255 340.389 174.324C340.248 174.39 340.125 174.492 340.018 174.63C339.911 174.768 339.836 174.936 339.793 175.134C339.749 175.335 339.749 175.504 339.792 175.642C339.839 175.78 339.918 175.883 340.029 175.952C340.14 176.018 340.271 176.051 340.421 176.051ZM343.171 174.243L342.854 175.696C342.828 175.816 342.835 175.901 342.876 175.952C342.918 176 343.003 176.024 343.132 176.024H343.44L343.365 176.37H342.987C342.754 176.37 342.591 176.318 342.497 176.213C342.403 176.108 342.383 175.936 342.435 175.696L342.752 174.243H342.425L342.499 173.906H342.826L342.961 173.286H343.38L343.245 173.906H343.903L343.829 174.243H343.171ZM347.728 174.153C347.671 174.414 347.532 174.632 347.31 174.805C347.092 174.976 346.795 175.062 346.421 175.062H345.804L345.518 176.37H345.099L345.784 173.236H346.82C347.182 173.236 347.438 173.322 347.587 173.492C347.74 173.663 347.787 173.884 347.728 174.153ZM346.494 174.725C346.728 174.725 346.91 174.675 347.042 174.576C347.174 174.477 347.26 174.336 347.3 174.153C347.385 173.767 347.2 173.573 346.746 173.573H346.129L345.878 174.725H346.494ZM347.879 175.129C347.934 174.877 348.035 174.657 348.18 174.468C348.327 174.276 348.502 174.128 348.706 174.023C348.913 173.918 349.128 173.866 349.352 173.866C349.573 173.866 349.755 173.912 349.897 174.005C350.039 174.098 350.135 174.215 350.184 174.356L350.282 173.906H350.706L350.168 176.37H349.744L349.844 175.912C349.73 176.056 349.58 176.176 349.393 176.271C349.21 176.364 349.01 176.411 348.792 176.411C348.568 176.411 348.377 176.357 348.219 176.249C348.062 176.141 347.952 175.99 347.891 175.795C347.829 175.6 347.825 175.378 347.879 175.129ZM350.014 175.134C350.055 174.948 350.052 174.786 350.005 174.648C349.959 174.51 349.877 174.405 349.761 174.333C349.648 174.258 349.514 174.221 349.357 174.221C349.201 174.221 349.05 174.257 348.906 174.329C348.761 174.401 348.635 174.506 348.529 174.644C348.422 174.782 348.348 174.943 348.307 175.129C348.266 175.318 348.269 175.483 348.315 175.624C348.361 175.762 348.441 175.868 348.553 175.943C348.666 176.015 348.801 176.051 348.958 176.051C349.114 176.051 349.265 176.015 349.409 175.943C349.558 175.868 349.685 175.762 349.792 175.624C349.9 175.483 349.974 175.32 350.014 175.134ZM351.76 176.411C351.566 176.411 351.4 176.379 351.26 176.316C351.121 176.25 351.019 176.161 350.955 176.047C350.892 175.93 350.872 175.796 350.895 175.646H351.328C351.314 175.769 351.35 175.87 351.437 175.948C351.528 176.026 351.659 176.065 351.831 176.065C351.99 176.065 352.123 176.03 352.231 175.961C352.338 175.892 352.403 175.805 352.426 175.7C352.449 175.592 352.417 175.513 352.33 175.462C352.244 175.408 352.104 175.356 351.909 175.305C351.732 175.257 351.589 175.209 351.48 175.161C351.375 175.11 351.289 175.036 351.225 174.94C351.163 174.841 351.15 174.713 351.185 174.554C351.212 174.428 351.276 174.312 351.375 174.207C351.475 174.102 351.602 174.02 351.756 173.96C351.911 173.897 352.079 173.866 352.26 173.866C352.539 173.866 352.75 173.935 352.892 174.073C353.033 174.21 353.084 174.399 353.044 174.639H352.625C352.644 174.51 352.613 174.407 352.532 174.329C352.454 174.251 352.333 174.212 352.171 174.212C352.02 174.212 351.894 174.243 351.791 174.306C351.688 174.369 351.626 174.452 351.604 174.554C351.586 174.635 351.597 174.702 351.638 174.756C351.682 174.807 351.74 174.849 351.813 174.882C351.889 174.912 351.995 174.946 352.131 174.985C352.301 175.033 352.438 175.081 352.541 175.129C352.645 175.174 352.726 175.243 352.786 175.336C352.848 175.429 352.865 175.55 352.835 175.7C352.806 175.835 352.741 175.957 352.641 176.065C352.54 176.173 352.413 176.258 352.258 176.321C352.107 176.381 351.941 176.411 351.76 176.411ZM354.164 176.411C353.971 176.411 353.805 176.379 353.665 176.316C353.526 176.25 353.424 176.161 353.36 176.047C353.297 175.93 353.277 175.796 353.3 175.646H353.733C353.718 175.769 353.755 175.87 353.842 175.948C353.932 176.026 354.064 176.065 354.235 176.065C354.395 176.065 354.528 176.03 354.635 175.961C354.742 175.892 354.808 175.805 354.83 175.7C354.854 175.592 354.822 175.513 354.735 175.462C354.649 175.408 354.508 175.356 354.314 175.305C354.137 175.257 353.994 175.209 353.885 175.161C353.78 175.11 353.694 175.036 353.629 174.94C353.568 174.841 353.555 174.713 353.59 174.554C353.617 174.428 353.681 174.312 353.78 174.207C353.88 174.102 354.007 174.02 354.161 173.96C354.316 173.897 354.484 173.866 354.665 173.866C354.944 173.866 355.155 173.935 355.296 174.073C355.438 174.21 355.489 174.399 355.449 174.639H355.03C355.049 174.51 355.018 174.407 354.937 174.329C354.859 174.251 354.738 174.212 354.576 174.212C354.425 174.212 354.299 174.243 354.196 174.306C354.093 174.369 354.031 174.452 354.008 174.554C353.991 174.635 354.002 174.702 354.042 174.756C354.087 174.807 354.145 174.849 354.217 174.882C354.294 174.912 354.4 174.946 354.535 174.985C354.706 175.033 354.843 175.081 354.946 175.129C355.05 175.174 355.131 175.243 355.191 175.336C355.253 175.429 355.27 175.55 355.24 175.7C355.211 175.835 355.146 175.957 355.045 176.065C354.945 176.173 354.818 176.258 354.663 176.321C354.511 176.381 354.345 176.411 354.164 176.411ZM359.583 173.906L358.258 176.37H357.825L357.645 174.414L356.61 176.37H356.178L355.924 173.906H356.352L356.48 175.975L357.558 173.906H357.986L358.146 175.979L359.169 173.906H359.583ZM360.552 176.411C360.316 176.411 360.112 176.358 359.942 176.253C359.775 176.149 359.657 176 359.588 175.808C359.523 175.613 359.519 175.389 359.574 175.134C359.629 174.882 359.733 174.66 359.885 174.468C360.042 174.273 360.227 174.125 360.443 174.023C360.659 173.918 360.887 173.866 361.126 173.866C361.366 173.866 361.571 173.918 361.741 174.023C361.912 174.125 362.032 174.272 362.1 174.464C362.172 174.656 362.18 174.879 362.124 175.134C362.069 175.389 361.961 175.613 361.802 175.808C361.647 176 361.459 176.149 361.24 176.253C361.021 176.358 360.791 176.411 360.552 176.411ZM360.631 176.051C360.781 176.051 360.93 176.017 361.077 175.948C361.224 175.879 361.352 175.775 361.462 175.637C361.575 175.5 361.653 175.332 361.696 175.134C361.74 174.936 361.736 174.768 361.687 174.63C361.637 174.492 361.555 174.39 361.44 174.324C361.327 174.255 361.195 174.221 361.044 174.221C360.891 174.221 360.742 174.255 360.598 174.324C360.458 174.39 360.334 174.492 360.228 174.63C360.121 174.768 360.046 174.936 360.002 175.134C359.959 175.335 359.958 175.504 360.002 175.642C360.049 175.78 360.127 175.883 360.238 175.952C360.349 176.018 360.48 176.051 360.631 176.051ZM363.275 174.306C363.379 174.165 363.507 174.056 363.659 173.978C363.814 173.9 363.99 173.861 364.187 173.861L364.094 174.284H363.984C363.514 174.284 363.225 174.533 363.117 175.03L362.824 176.37H362.405L362.943 173.906H363.362L363.275 174.306ZM364.237 175.129C364.292 174.877 364.392 174.657 364.538 174.468C364.684 174.276 364.859 174.128 365.063 174.023C365.27 173.918 365.487 173.866 365.714 173.866C365.91 173.866 366.083 173.911 366.232 174.001C366.382 174.087 366.486 174.203 366.543 174.347L366.828 173.043H367.252L366.525 176.37H366.101L366.203 175.907C366.088 176.054 365.938 176.176 365.755 176.271C365.572 176.364 365.371 176.411 365.154 176.411C364.93 176.411 364.737 176.357 364.577 176.249C364.419 176.141 364.31 175.99 364.248 175.795C364.186 175.6 364.182 175.378 364.237 175.129ZM366.371 175.134C366.412 174.948 366.409 174.786 366.362 174.648C366.316 174.51 366.234 174.405 366.118 174.333C366.006 174.258 365.871 174.221 365.715 174.221C365.558 174.221 365.408 174.257 365.263 174.329C365.118 174.401 364.993 174.506 364.886 174.644C364.779 174.782 364.705 174.943 364.665 175.129C364.623 175.318 364.626 175.483 364.672 175.624C364.718 175.762 364.798 175.868 364.91 175.943C365.024 176.015 365.158 176.051 365.315 176.051C365.471 176.051 365.622 176.015 365.767 175.943C365.915 175.868 366.042 175.762 366.149 175.624C366.257 175.483 366.331 175.32 366.371 175.134ZM368.745 173.196C369.049 173.196 369.276 173.28 369.427 173.447C369.577 173.615 369.622 173.84 369.56 174.122C369.491 174.437 369.341 174.671 369.108 174.823C368.876 174.973 368.589 175.048 368.249 175.048L368.142 175.476H367.778L367.915 174.765H368.048C368.352 174.765 368.6 174.72 368.791 174.63C368.983 174.54 369.105 174.371 369.16 174.122C369.199 173.942 369.175 173.8 369.087 173.695C369 173.59 368.862 173.537 368.675 173.537C368.485 173.537 368.324 173.588 368.191 173.69C368.062 173.789 367.978 173.926 367.94 174.099H367.544C367.584 173.92 367.66 173.762 367.772 173.627C367.885 173.489 368.025 173.383 368.191 173.308C368.361 173.233 368.546 173.196 368.745 173.196ZM367.756 176.397C367.676 176.397 367.615 176.37 367.571 176.316C367.528 176.262 367.515 176.197 367.532 176.119C367.549 176.041 367.591 175.975 367.658 175.921C367.725 175.867 367.798 175.84 367.878 175.84C367.955 175.84 368.013 175.867 368.054 175.921C368.097 175.975 368.11 176.041 368.093 176.119C368.076 176.197 368.034 176.262 367.967 176.316C367.903 176.37 367.833 176.397 367.756 176.397Z" fill="#374151"/>
<path d="M328.707 176.82H369.192L369.143 177.045H328.658L328.707 176.82Z" fill="#374151"/>
</g>
<path d="M312.859 143.974L313.129 142.739H314.197C314.682 142.739 314.848 142.991 314.766 143.362C314.685 143.734 314.412 143.974 313.927 143.974H312.859ZM312.712 144.645H313.774C314.787 144.645 315.357 144.088 315.515 143.362C315.674 142.637 315.374 142.067 314.337 142.067H312.533L311.603 146.324H312.346L312.712 144.645ZM318.162 143.218L318.065 143.662C317.933 143.338 317.601 143.146 317.104 143.146C316.165 143.146 315.47 143.884 315.276 144.771C315.082 145.659 315.455 146.396 316.394 146.396C316.891 146.396 317.307 146.204 317.581 145.881L317.484 146.324H318.159L318.837 143.218H318.162ZM316.006 144.771C316.128 144.214 316.567 143.776 317.12 143.776C317.678 143.776 317.92 144.214 317.798 144.771C317.677 145.329 317.243 145.767 316.685 145.767C316.133 145.767 315.885 145.329 316.006 144.771ZM320.06 146.396C320.95 146.396 321.489 145.953 321.604 145.425C321.879 144.166 319.933 144.699 320.066 144.094C320.115 143.866 320.331 143.722 320.693 143.722C321.067 143.722 321.19 143.95 321.166 144.172H321.865C321.926 143.752 321.753 143.14 320.838 143.14C320.053 143.14 319.475 143.596 319.361 144.118C319.084 145.383 321.042 144.795 320.898 145.455C320.851 145.671 320.612 145.809 320.231 145.809C319.783 145.809 319.608 145.599 319.649 145.329H318.943C318.855 145.899 319.127 146.396 320.06 146.396ZM323.017 146.396C323.907 146.396 324.445 145.953 324.561 145.425C324.836 144.166 322.89 144.699 323.022 144.094C323.072 143.866 323.288 143.722 323.65 143.722C324.024 143.722 324.146 143.95 324.122 144.172H324.822C324.883 143.752 324.71 143.14 323.795 143.14C323.01 143.14 322.431 143.596 322.317 144.118C322.041 145.383 323.998 144.795 323.854 145.455C323.807 145.671 323.568 145.809 323.188 145.809C322.74 145.809 322.565 145.599 322.605 145.329H321.9C321.812 145.899 322.084 146.396 323.017 146.396ZM327.823 146.324H328.517L330.307 143.212H329.564L328.358 145.449L328.122 143.212H327.447L326.23 145.443L326.005 143.212H325.25L325.681 146.324H326.375L327.565 144.19H327.571L327.823 146.324ZM331.413 146.396C332.432 146.396 333.234 145.647 333.425 144.771C333.617 143.896 333.143 143.14 332.124 143.14C331.112 143.14 330.309 143.896 330.117 144.771C329.926 145.647 330.401 146.396 331.413 146.396ZM330.848 144.771C330.98 144.166 331.459 143.77 331.987 143.77C332.521 143.77 332.827 144.166 332.695 144.771C332.564 145.371 332.085 145.767 331.551 145.767C331.023 145.767 330.717 145.371 330.848 144.771ZM336.108 143.188C336.108 143.188 336.036 143.182 336.005 143.182C335.453 143.182 335.125 143.446 334.965 143.644L335.059 143.212H334.384L333.705 146.324H334.435L334.789 144.705C334.92 144.106 335.284 143.842 335.8 143.842C335.879 143.842 335.963 143.854 335.963 143.854L336.108 143.188ZM338.63 143.62C338.51 143.356 338.213 143.14 337.716 143.14C336.777 143.14 336.082 143.878 335.887 144.771C335.693 145.659 336.066 146.396 337.005 146.396C337.502 146.396 337.918 146.204 338.192 145.881L338.095 146.324H338.77L339.752 141.827H339.022L338.63 143.62ZM338.409 144.771C338.288 145.329 337.854 145.767 337.296 145.767C336.744 145.767 336.495 145.329 336.617 144.771C336.742 144.202 337.18 143.77 337.732 143.77C338.29 143.77 338.534 144.202 338.409 144.771Z" fill="#001520"/>
<path d="M302.336 144.245C302.246 144.659 301.829 144.994 301.405 144.994C300.982 144.994 300.712 144.659 300.802 144.245C300.892 143.831 301.309 143.495 301.733 143.495C302.157 143.495 302.427 143.831 302.336 144.245Z" fill="#111827"/>
<path d="M304.638 144.245C304.547 144.659 304.131 144.994 303.707 144.994C303.283 144.994 303.013 144.659 303.103 144.245C303.194 143.831 303.611 143.495 304.034 143.495C304.458 143.495 304.728 143.831 304.638 144.245Z" fill="#111827"/>
<path d="M306.008 144.994C306.432 144.994 306.849 144.659 306.939 144.245C307.03 143.831 306.759 143.495 306.336 143.495C305.912 143.495 305.495 143.831 305.405 144.245C305.314 144.659 305.585 144.994 306.008 144.994Z" fill="#111827"/>
<path fill-rule="evenodd" clip-rule="evenodd" d="M301.514 140.984C300.518 140.984 299.539 141.773 299.327 142.746L298.672 145.744C298.459 146.716 299.094 147.505 300.09 147.505H306.227C307.223 147.505 308.202 146.716 308.415 145.744L309.069 142.746C309.282 141.773 308.647 140.984 307.651 140.984H301.514ZM299.864 142.746C300.013 142.063 300.7 141.509 301.399 141.509H307.537C308.236 141.509 308.681 142.063 308.532 142.746L307.878 145.744C307.728 146.427 307.041 146.98 306.342 146.98H300.204C299.505 146.98 299.06 146.427 299.209 145.744L299.864 142.746Z" fill="#111827"/>
<path opacity="0.2" d="M677.094 26.4045H144.814L148.537 9.43578C149.192 6.43367 152.215 4 155.288 4H676.44C679.513 4 681.472 6.43369 680.817 9.43578L677.094 26.4045Z" fill="#001520"/>
<path opacity="0.2" d="M84.4392 302.917L139.482 50.895H216.389C219.779 50.895 221.94 53.5794 221.217 56.8908L168.793 296.921C168.07 300.233 164.736 302.917 161.347 302.917H84.4392Z" fill="#001520"/>
<g filter="url(#filter2_d)">
<path d="M185.61 19.4553L192.34 26.4446L192.339 26.4477C193.642 27.8778 194.206 29.944 193.704 32.2418L142.322 270.072C141.379 274.388 137.033 277.887 132.615 277.887H17.7761C15.6541 277.887 13.9014 277.08 12.7571 275.763L5.9873 268.707C6.39945 267.589 7.44742 265.862 7.87422 265.159C7.98202 264.982 8.05019 264.869 8.05849 264.848C8.08785 264.775 11.2264 265.361 14.1373 265.923L64.7327 34.2603C65.6755 29.9438 70.0214 26.4446 74.4397 26.4446H183.899L185.61 19.4553Z" fill="url(#paint3_linear)"/>
</g>
<path d="M189.512 51.6467L193.738 32.2967C194.24 29.9989 193.676 27.9327 192.373 26.5027L192.374 26.4995L185.61 19.4553L183.899 26.4446H178.672V40.4606L189.512 51.6467Z" fill="#1A2D37"/>
<g clip-path="url(#clip1)">
<rect width="130.501" height="259.222" rx="8" transform="matrix(1 0 -0.213371 0.976971 58.3105 17.5723)" fill="white"/>
<rect opacity="0.92" width="440" height="663" transform="matrix(1 0 0.213371 -0.976971 -128.176 871.445)" fill="#FBFCFD"/>
<g filter="url(#filter3_d)">
<rect width="144.144" height="41.523" transform="matrix(1 0 -0.213371 0.976971 46.9956 38.1455)" fill="white"/>
</g>
<path d="M67.9924 101.861H65.714L67.5946 93.2499H66.8169L64.3546 93.5298L64.209 94.1963H66.3919L64.7181 101.861H62.426L62.2397 102.714H67.8061L67.9924 101.861Z" fill="#33444D"/>
<path d="M61.5371 133.417H60.2819L61.6501 127.152H60.5859L54.4504 133.443L54.2641 134.297H59.1211L58.6146 136.616H59.5832L60.0898 134.297H61.3449L61.5371 133.417ZM60.3845 128.512L59.3132 133.417H55.5886L60.3709 128.512H60.3845Z" fill="#33444D"/>
<path d="M53.5893 142.711C53.1231 142.711 52.853 142.367 52.9692 141.835C53.0854 141.303 53.4888 140.955 53.9942 140.955C54.3572 140.955 54.6238 141.136 54.6457 141.459H55.112C55.1175 140.896 54.6944 140.552 54.0823 140.552C53.3455 140.552 52.6792 141.077 52.5136 141.835C52.3473 142.596 52.7752 143.114 53.4977 143.114C54.2202 143.114 54.8779 142.596 55.0442 141.835C55.0563 141.779 55.0649 141.724 55.0649 141.724H53.9723L53.8887 142.106H54.5223C54.3559 142.509 54.0057 142.711 53.5893 142.711ZM58.2948 140.604H57.8641L57.6408 141.626H56.4414L56.6647 140.604H56.234L55.6949 143.073H56.1255L56.3564 142.016H57.5558L57.3249 143.073H57.7556L58.2948 140.604ZM59.7863 140.604H59.3556L58.8164 143.073H59.2471L59.7863 140.604Z" fill="#667379"/>
<path d="M48.9962 163.227L49.2698 161.974H54.0586C51.7346 164.307 49.9052 167.186 48.618 170.518H49.6822C51.0383 166.932 52.646 164.507 55.2981 161.921L55.4873 161.054H48.502L48.0275 163.227H48.9962Z" fill="#33444D"/>
<path d="M43.8045 175.612L43.9609 174.896H44.5802C44.8614 174.896 44.9576 175.042 44.9105 175.257C44.8635 175.473 44.705 175.612 44.4238 175.612H43.8045ZM43.7194 176.001H44.3352C44.9224 176.001 45.2529 175.678 45.3448 175.257C45.4366 174.837 45.2632 174.506 44.6617 174.506H43.6153L43.0762 176.975H43.5068L43.7194 176.001ZM48.569 175.741C48.7293 175.007 48.3126 174.454 47.5438 174.454C46.775 174.454 46.1169 175.007 45.9566 175.741C45.7964 176.474 46.2131 177.027 46.9819 177.027C47.1776 177.027 47.3675 176.989 47.5413 176.926L47.7909 177.413H48.2892L47.9257 176.714C48.2464 176.485 48.4825 176.137 48.569 175.741ZM48.1135 175.741C47.998 176.269 47.5682 176.624 47.0699 176.624C46.5752 176.624 46.2968 176.269 46.4122 175.741C46.5284 175.209 46.961 174.857 47.4557 174.857C47.954 174.857 48.2297 175.209 48.1135 175.741ZM51.2507 176.975L50.8946 175.949C51.252 175.845 51.4698 175.581 51.5412 175.254C51.6354 174.823 51.4304 174.506 50.8717 174.506H49.7612L49.222 176.975H49.6527L49.8653 176.001H50.4455L50.7453 176.975H51.2507ZM51.107 175.254C51.0607 175.466 50.9007 175.612 50.6337 175.612H49.9504L50.1068 174.896H50.7902C51.0571 174.896 51.1533 175.042 51.107 175.254ZM52.9631 176.645C52.6214 176.645 52.4786 176.467 52.5185 176.203H52.0915C52.0176 176.606 52.1863 177.024 52.859 177.024C53.464 177.024 53.9264 176.732 54.0244 176.283C54.2401 175.296 52.7245 175.716 52.843 175.174C52.8908 174.955 53.0989 174.833 53.3943 174.833C53.7182 174.833 53.843 175.028 53.7934 175.271H54.2169C54.3072 174.809 54.0715 174.454 53.4771 174.454C52.9148 174.454 52.4994 174.791 52.4136 175.184C52.1979 176.172 53.7142 175.699 53.5828 176.3C53.5342 176.523 53.3083 176.645 52.9631 176.645Z" fill="#667379"/>
<path d="M46.9703 195.486L40.0561 203.31M41.7648 195.486L45.2616 203.31M38.7677 199.398H48.2587" stroke="#33444D" stroke-width="0.593186"/>
<path d="M99.912 109.171L100.198 108.694H101.329L101.407 109.171H101.877L101.434 106.702H100.974L99.4565 109.171H99.912ZM101.088 107.223L101.271 108.312H100.423L101.081 107.223H101.088ZM103.698 109.171C104.246 109.171 104.595 108.91 104.689 108.479C104.748 108.207 104.628 108.006 104.401 107.922C104.649 107.832 104.831 107.634 104.888 107.373C104.97 106.994 104.778 106.702 104.198 106.702H103.176L102.637 109.171H103.698ZM103.925 108.114C104.188 108.114 104.307 108.239 104.261 108.451C104.212 108.673 104.041 108.788 103.774 108.788H103.144L103.292 108.114H103.925ZM104.118 107.084C104.392 107.084 104.488 107.213 104.446 107.408C104.397 107.63 104.219 107.728 103.977 107.728H103.376L103.516 107.084H104.118ZM105.609 107.933C105.442 108.694 105.855 109.219 106.591 109.219C107.218 109.219 107.781 108.854 108.013 108.267H107.554C107.393 108.614 107.06 108.816 106.679 108.816C106.174 108.816 105.948 108.465 106.064 107.933C106.181 107.401 106.559 107.053 107.064 107.053C107.445 107.053 107.689 107.255 107.699 107.602H108.158C108.183 107.015 107.779 106.65 107.153 106.65C106.416 106.65 105.774 107.175 105.609 107.933Z" fill="#667379"/>
<path d="M108.32 102.714L108.521 101.794H103.501L107.119 99.1547C108.531 98.1284 109.291 97.2087 109.561 95.969C109.931 94.2763 109.135 93.05 107.102 93.05C105.165 93.05 103.762 94.2896 103.363 96.1157C103.331 96.2623 103.326 96.4089 103.326 96.4089H104.336C104.336 96.4089 104.334 96.2889 104.366 96.1423C104.643 94.8761 105.474 93.943 106.907 93.943C108.23 93.943 108.8 94.7694 108.53 96.009C108.317 96.9821 107.638 97.7152 106.709 98.4083L102.075 101.887L101.894 102.714H108.32Z" fill="#33444D"/>
<path d="M94.2972 142.287C94.2357 142.569 94.0483 142.742 93.7706 142.742C93.5073 142.742 93.3871 142.576 93.4426 142.322C93.4646 142.221 93.4882 142.162 93.4882 142.162H93.054C93.054 142.162 93.0296 142.224 93.0083 142.322C92.899 142.822 93.1761 143.118 93.6886 143.118C94.2154 143.118 94.6193 142.784 94.7309 142.273L95.0954 140.604H94.6648L94.2972 142.287ZM97.795 143.073L97.0638 141.63L98.2843 140.604H97.7184C96.5281 141.654 96.2726 141.863 96.2726 141.863L96.5475 140.604H96.1168L95.5777 143.073H96.0083L96.1564 142.395L96.6957 141.946L97.2576 143.073H97.795ZM100.205 142.683H99.0342L99.4883 140.604H99.0577L98.5185 143.073H100.12L100.205 142.683Z" fill="#667379"/>
<path d="M95.6178 132.577H96.5182C96.814 132.097 97.6952 131.311 98.8686 131.311C100.274 131.311 100.905 132.231 100.62 133.537C100.308 134.963 99.1847 135.923 97.875 135.923C96.4561 135.923 95.9991 135.016 96.0557 134.07H95.0325C94.8547 135.696 95.7835 136.816 97.6799 136.816C99.59 136.816 101.231 135.363 101.629 133.537C101.993 131.871 101.186 130.444 99.2215 130.444C97.9527 130.444 97.1162 131.151 97.0334 131.218L98.157 128.072H102.373L102.574 127.152H97.5802L95.6178 132.577Z" fill="#33444D"/>
<path d="M87.3731 174.506H85.4761L85.3887 174.906H86.1219L85.6701 176.975H86.1007L86.5526 174.906H87.2857L87.3731 174.506ZM88.6337 177.027C89.2103 177.027 89.7589 176.683 89.9168 175.96L90.2342 174.506H89.8036L89.4824 175.977C89.3965 176.37 89.1352 176.638 88.7188 176.638C88.3024 176.638 88.158 176.37 88.2438 175.977L88.565 174.506H88.1344L87.8169 175.96C87.659 176.683 88.0536 177.027 88.6337 177.027ZM92.9219 174.506L91.7853 176.419H91.7781L91.4804 174.506H90.9928L91.4289 176.975H91.8773L93.3952 174.506H92.9219Z" fill="#667379"/>
<path d="M90.262 170.718C92.4449 170.718 93.7711 169.518 94.1058 167.985C94.3213 166.999 93.9686 166.053 93.0112 165.626C94.0185 165.2 94.6637 164.307 94.8529 163.44C95.1586 162.041 94.3672 160.854 92.4162 160.854C90.4652 160.854 89.1692 162.041 88.8665 163.427C88.6743 164.307 88.9159 165.2 89.7232 165.626C88.5795 166.053 87.8134 166.999 87.598 167.985C87.2632 169.518 88.0791 170.718 90.262 170.718ZM91.2721 166.093C92.6365 166.093 93.3524 166.813 93.105 167.945C92.8663 169.038 91.9656 169.852 90.4512 169.852C88.9368 169.852 88.3913 169.038 88.63 167.945C88.8774 166.813 89.9078 166.093 91.2721 166.093ZM91.4613 165.226C90.1379 165.226 89.5944 164.467 89.8186 163.44C90.0311 162.467 90.8763 161.721 92.227 161.721C93.5776 161.721 94.0939 162.481 93.8814 163.454C93.6601 164.467 92.7711 165.226 91.4613 165.226Z" fill="#33444D"/>
<path d="M82.8577 204.62C85.027 204.62 86.6604 202.701 87.3183 199.688C87.9762 196.676 87.1812 194.757 85.0119 194.757C82.829 194.757 81.2092 196.676 80.5513 199.688C79.8933 202.701 80.6748 204.62 82.8577 204.62ZM84.8139 195.663C86.2601 195.663 86.8802 197.009 86.2951 199.688C85.707 202.381 84.5018 203.714 83.0556 203.714C81.6094 203.714 80.9865 202.381 81.5745 199.688C82.1596 197.009 83.3677 195.663 84.8139 195.663Z" fill="#33444D"/>
<path d="M140.94 109.171C141.812 109.171 142.407 108.663 142.566 107.936C142.724 107.21 142.351 106.702 141.479 106.702H140.621L140.082 109.171H140.94ZM142.11 107.936C141.998 108.447 141.634 108.781 141.011 108.781H140.598L140.967 107.091H141.38C142.003 107.091 142.222 107.425 142.11 107.936ZM145.082 108.781H143.737L143.883 108.114H145.168L145.253 107.724H143.968L144.106 107.091H145.451L145.536 106.702H143.76L143.221 109.171H144.997L145.082 108.781ZM146.377 109.171L146.608 108.114H147.768L147.853 107.724H146.693L146.831 107.091H148.052L148.137 106.702H146.486L145.947 109.171H146.377Z" fill="#667379"/>
<path d="M145.136 98.3016H146.022C147.428 98.3016 148.2 98.8881 147.944 100.061C147.656 101.381 146.612 102.034 145.316 102.034C143.911 102.034 143.383 101.141 143.502 100.034H142.492C142.273 101.727 143.132 102.913 145.124 102.913C147.157 102.913 148.606 101.714 148.967 100.061C149.188 99.0481 148.859 98.1817 147.707 97.8351C148.893 97.4619 149.568 96.6222 149.769 95.7025C150.109 94.143 149.216 93.05 147.251 93.05C145.464 93.05 144.07 94.2496 143.64 95.7158H144.636C144.913 94.8227 145.705 93.943 147.042 93.943C148.461 93.943 149 94.6628 148.764 95.7425C148.563 96.6622 147.671 97.4352 146.143 97.4352H145.325L145.136 98.3016Z" fill="#33444D"/>
<path d="M132.807 140.604H132.412L131.873 143.073H132.297L132.691 141.268L133.241 142.235H133.256L134.232 141.268L133.838 143.073H134.261L134.801 140.604H134.406L133.381 141.626L132.807 140.604ZM136.132 141.299L136.969 143.073H137.411L137.95 140.604H137.526L137.138 142.381L136.298 140.604H135.861L135.322 143.073H135.745L136.132 141.299ZM139.057 141.838C139.173 141.306 139.606 140.955 140.101 140.955C140.596 140.955 140.875 141.306 140.759 141.838C140.642 142.37 140.21 142.722 139.715 142.722C139.22 142.722 138.941 142.37 139.057 141.838ZM138.602 141.838C138.441 142.572 138.858 143.125 139.627 143.125C140.396 143.125 141.054 142.572 141.214 141.838C141.374 141.105 140.958 140.552 140.189 140.552C139.42 140.552 138.762 141.105 138.602 141.838Z" fill="#667379"/>
<path d="M137.788 136.816C139.753 136.816 141.424 135.35 141.799 133.63C142.172 131.924 141.261 130.471 139.324 130.471C138.342 130.471 137.624 130.884 137.213 131.204C138.296 129.618 140.023 128.205 141.577 127.152H140.253C138.205 128.658 135.788 130.858 135.211 133.497C134.81 135.336 135.728 136.816 137.788 136.816ZM140.762 133.63C140.46 135.016 139.304 135.936 137.98 135.936C136.643 135.936 135.903 135.016 136.205 133.63C136.508 132.244 137.653 131.311 138.99 131.311C140.314 131.311 141.065 132.244 140.762 133.63Z" fill="#33444D"/>
<path d="M125.128 175.101H125.135L125.292 176.975H125.755L127.08 174.506H126.607L125.664 176.38H125.657L125.504 174.506H125.03L124.059 176.38H124.052L123.931 174.506H123.443L123.69 176.975H124.153L125.128 175.101ZM128.615 175.382L128.141 174.506H127.6L128.285 175.72L127.025 176.975H127.57L128.468 176.057L128.961 176.975H129.506L128.794 175.72L129.999 174.506H129.468L128.615 175.382ZM132.271 174.506L131.361 175.675H131.354L130.954 174.506H130.456L131.049 176.109L130.86 176.975H131.291L131.48 176.109L132.773 174.506H132.271ZM135.374 174.506H133.37L133.285 174.896H134.727L132.898 176.606L132.817 176.975H134.849L134.934 176.586H133.464L135.294 174.875L135.374 174.506Z" fill="#667379"/>
<path d="M132.388 160.854C130.41 160.854 128.752 162.321 128.377 164.04C128.004 165.746 128.898 167.212 130.836 167.212C131.818 167.212 132.522 166.799 132.947 166.479C131.85 168.065 130.15 169.478 128.599 170.518H129.909C131.971 169.012 134.386 166.826 134.965 164.173C135.367 162.334 134.434 160.854 132.388 160.854ZM129.414 164.04C129.714 162.667 130.859 161.734 132.196 161.734C133.519 161.734 134.271 162.667 133.971 164.04C133.668 165.426 132.506 166.373 131.183 166.373C129.846 166.373 129.111 165.426 129.414 164.04Z" fill="#33444D"/>
<path d="M127.994 197.836H126.52L127.777 194.957H126.944L125.688 197.836H123.887L125.143 194.957H124.298L123.055 197.836H121.554L121.205 198.622H122.706L121.77 200.781H120.283L119.948 201.568H121.421L120.184 204.42H121.03L122.253 201.568H124.054L122.831 204.42H123.663L124.9 201.568H126.387L126.723 200.781H125.249L126.171 198.622H127.658L127.994 197.836ZM123.538 198.622H125.339L124.403 200.781H122.602L123.538 198.622Z" fill="#33444D"/>
<path d="M66.7797 54.6731L66.3042 56.8504H64.0453L63.899 57.5203H66.1579L65.6845 59.6878H66.3803L66.8537 57.5203H69.1024L69.2487 56.8504H67L67.4755 54.6731H66.7797ZM74.273 59.0572H72.589L73.979 52.6929H73.4042L71.5842 52.8998L71.4766 53.3924H73.0901L71.8528 59.0572H70.1587L70.021 59.6878H74.1353L74.273 59.0572ZM79.723 56.811C80.0823 55.1657 80.7681 53.6879 81.8782 52.2988H81.1521C80.1376 53.481 79.3591 55.1066 78.9868 56.811C78.6146 58.5154 78.6831 60.1409 79.1812 61.3232H79.9073C79.4018 59.9439 79.3636 58.4563 79.723 56.811ZM82.0199 56.7026H82.6855C82.9041 56.348 83.5554 55.7667 84.4227 55.7667C85.4613 55.7667 85.928 56.4465 85.7171 57.412C85.4869 58.4661 84.6564 59.1755 83.6883 59.1755C82.6395 59.1755 82.3018 58.5055 82.3436 57.806H81.5873C81.4559 59.008 82.1424 59.8355 83.5441 59.8355C84.9559 59.8355 86.1686 58.7617 86.4634 57.412C86.7323 56.1805 86.1357 55.1263 84.6835 55.1263C83.7457 55.1263 83.1275 55.6485 83.0663 55.6977L83.8968 53.3727H87.0128L87.1612 52.6929H83.4704L82.0199 56.7026ZM87.8892 56.7026H88.5548C88.7734 56.348 89.4247 55.7667 90.292 55.7667C91.3306 55.7667 91.7973 56.4465 91.5864 57.412C91.3562 58.4661 90.5256 59.1755 89.5576 59.1755C88.5088 59.1755 88.1711 58.5055 88.2129 57.806H87.4566C87.3252 59.008 88.0117 59.8355 89.4134 59.8355C90.8252 59.8355 92.0379 58.7617 92.3327 57.412C92.6016 56.1805 92.0049 55.1263 90.5528 55.1263C89.615 55.1263 88.9968 55.6485 88.9356 55.6977L89.7661 53.3727H92.8821L93.0305 52.6929H89.3397L87.8892 56.7026ZM93.7585 56.7026H94.424C94.6427 56.348 95.294 55.7667 96.1613 55.7667C97.1999 55.7667 97.6666 56.4465 97.4557 57.412C97.2255 58.4661 96.3949 59.1755 95.4269 59.1755C94.3781 59.1755 94.0404 58.5055 94.0822 57.806H93.3259C93.1945 59.008 93.881 59.8355 95.2827 59.8355C96.6945 59.8355 97.9072 58.7617 98.202 57.412C98.4709 56.1805 97.8742 55.1263 96.4221 55.1263C95.4843 55.1263 94.866 55.6485 94.8049 55.6977L95.6354 53.3727H98.7514L98.8998 52.6929H95.209L93.7585 56.7026ZM100.401 56.811C100.041 58.4563 99.3434 59.9439 98.2355 61.3232H98.9615C99.976 60.1409 100.765 58.5154 101.137 56.811C101.509 55.1066 101.431 53.481 100.932 52.2988H100.206C100.71 53.6879 100.76 55.1657 100.401 56.811ZM109.351 59.0572H107.667L109.057 52.6929H108.482L106.662 52.8998L106.554 53.3924H108.168L106.931 59.0572H105.237L105.099 59.6878H109.213L109.351 59.0572ZM115.214 59.6878L115.362 59.008H111.651L114.326 57.0573C115.369 56.2987 115.931 55.6189 116.131 54.7027C116.404 53.4515 115.816 52.5451 114.313 52.5451C112.881 52.5451 111.844 53.4613 111.549 54.8111C111.526 54.9194 111.522 55.0278 111.522 55.0278H112.268C112.268 55.0278 112.267 54.9391 112.291 54.8308C112.496 53.8948 113.11 53.2052 114.169 53.2052C115.147 53.2052 115.568 53.816 115.368 54.7322C115.211 55.4514 114.71 55.9933 114.023 56.5056L110.597 59.0769L110.464 59.6878H115.214ZM118.699 56.4268H119.355C120.393 56.4268 120.964 56.8603 120.775 57.7272C120.562 58.7026 119.791 59.1853 118.833 59.1853C117.794 59.1853 117.404 58.5252 117.492 57.7075H116.746C116.583 58.9587 117.219 59.8355 118.691 59.8355C120.193 59.8355 121.264 58.9489 121.531 57.7272C121.695 56.9785 121.451 56.3381 120.6 56.082C121.477 55.8061 121.975 55.1854 122.124 54.5056C122.376 53.353 121.715 52.5451 120.263 52.5451C118.942 52.5451 117.911 53.4318 117.594 54.5155H118.33C118.535 53.8554 119.121 53.2052 120.109 53.2052C121.158 53.2052 121.556 53.7372 121.381 54.5352C121.233 55.215 120.574 55.7864 119.444 55.7864H118.839L118.699 56.4268ZM128.437 56.8504H125.331L125.187 57.5105H128.293L128.437 56.8504ZM136.196 59.0572H134.512L135.902 52.6929H135.327L133.507 52.8998L133.4 53.3924H135.013L133.776 59.0572H132.082L131.944 59.6878H136.058L136.196 59.0572ZM142.059 59.6878L142.207 59.008H138.496L141.171 57.0573C142.214 56.2987 142.776 55.6189 142.976 54.7027C143.249 53.4515 142.661 52.5451 141.158 52.5451C139.726 52.5451 138.689 53.4613 138.394 54.8111C138.371 54.9194 138.367 55.0278 138.367 55.0278H139.113C139.113 55.0278 139.113 54.9391 139.136 54.8308C139.341 53.8948 139.955 53.2052 141.014 53.2052C141.992 53.2052 142.413 53.816 142.213 54.7322C142.056 55.4514 141.555 55.9933 140.868 56.5056L137.442 59.0769L137.309 59.6878H142.059ZM145.544 56.4268H146.2C147.239 56.4268 147.809 56.8603 147.62 57.7272C147.407 58.7026 146.636 59.1853 145.678 59.1853C144.639 59.1853 144.249 58.5252 144.337 57.7075H143.591C143.428 58.9587 144.064 59.8355 145.536 59.8355C147.039 59.8355 148.11 58.9489 148.376 57.7272C148.54 56.9785 148.297 56.3381 147.445 56.082C148.322 55.8061 148.821 55.1854 148.969 54.5056C149.221 53.353 148.56 52.5451 147.108 52.5451C145.787 52.5451 144.756 53.4318 144.439 54.5155H145.175C145.38 53.8554 145.966 53.2052 146.954 53.2052C148.003 53.2052 148.401 53.7372 148.226 54.5352C148.078 55.215 147.419 55.7864 146.289 55.7864H145.684L145.544 56.4268ZM154.505 57.3233H153.578L154.589 52.6929H153.802L149.267 57.343L149.13 57.9735H152.72L152.345 59.6878H153.061L153.436 57.9735H154.363L154.505 57.3233ZM153.653 53.6978L152.862 57.3233H150.109L153.643 53.6978H153.653Z" fill="#33444D"/>
<path d="M161.968 54.2808C162.103 54.1549 162.277 54.0823 162.444 54.0823H166.332C166.644 54.0823 166.843 54.3314 166.776 54.6386L166.007 58.1621C165.939 58.4694 165.632 58.7185 165.319 58.7185H161.432C161.265 58.7185 161.122 58.6458 161.042 58.52L159.921 56.7582C159.789 56.5513 159.855 56.2494 160.077 56.0425L161.968 54.2808Z" fill="#667379"/>
<path d="M165.162 55.2412L162.283 57.5593M162.789 55.2412L164.655 57.5593" stroke="white" stroke-width="0.396101" stroke-linecap="round"/>
<path d="M95.761 73.0578L96.0941 72.502H97.4146L97.505 73.0578H98.0531L97.5361 70.1775H97.0004L95.2295 73.0578H95.761ZM97.1333 70.786L97.3459 72.0558H96.3577L97.125 70.786H97.1333ZM99.4013 73.0578C100.419 73.0578 101.113 72.4655 101.298 71.6177C101.483 70.7698 101.048 70.1775 100.03 70.1775H99.0296L98.4006 73.0578H99.4013ZM100.766 71.6177C100.636 72.214 100.211 72.6034 99.4839 72.6034H99.0022L99.4328 70.6319H99.9145C100.641 70.6319 100.897 71.0213 100.766 71.6177ZM102.524 73.0578C103.541 73.0578 104.235 72.4655 104.42 71.6177C104.605 70.7698 104.17 70.1775 103.153 70.1775H102.152L101.523 73.0578H102.524ZM103.889 71.6177C103.758 72.214 103.333 72.6034 102.606 72.6034H102.125L102.555 70.6319H103.037C103.763 70.6319 104.019 71.0213 103.889 71.6177ZM108.242 70.1775H106.029L105.927 70.6441H106.783L106.255 73.0578H106.758L107.285 70.6441H108.14L108.242 70.1775ZM108.537 71.6177C108.672 70.997 109.177 70.5873 109.754 70.5873C110.331 70.5873 110.657 70.997 110.522 71.6177C110.386 72.2383 109.881 72.6481 109.304 72.6481C108.727 72.6481 108.401 72.2383 108.537 71.6177ZM108.005 71.6177C107.818 72.4736 108.304 73.1186 109.201 73.1186C110.098 73.1186 110.866 72.4736 111.053 71.6177C111.24 70.7617 110.754 70.1167 109.857 70.1167C108.96 70.1167 108.192 70.7617 108.005 71.6177ZM112.507 71.6136C112.313 72.502 112.794 73.1146 113.653 73.1146C114.384 73.1146 115.042 72.6886 115.312 72.0031H114.777C114.588 72.4087 114.201 72.644 113.756 72.644C113.167 72.644 112.903 72.2343 113.039 71.6136C113.174 70.9929 113.616 70.5873 114.205 70.5873C114.65 70.5873 114.935 70.8226 114.946 71.2282H115.481C115.511 70.5426 115.039 70.1167 114.308 70.1167C113.449 70.1167 112.7 70.7293 112.507 71.6136ZM116.229 71.6177C116.365 70.997 116.869 70.5873 117.447 70.5873C118.024 70.5873 118.349 70.997 118.214 71.6177C118.078 72.2383 117.574 72.6481 116.996 72.6481C116.419 72.6481 116.094 72.2383 116.229 71.6177ZM115.698 71.6177C115.511 72.4736 115.997 73.1186 116.894 73.1186C117.791 73.1186 118.558 72.4736 118.745 71.6177C118.932 70.7617 118.446 70.1167 117.549 70.1167C116.652 70.1167 115.885 70.7617 115.698 71.6177ZM119.913 70.9889L120.89 73.0578H121.405L122.034 70.1775H121.54L121.087 72.2505L120.107 70.1775H119.596L118.967 73.0578H119.462L119.913 70.9889ZM124.62 70.1775H122.407L122.305 70.6441H123.161L122.633 73.0578H123.136L123.663 70.6441H124.518L124.62 70.1775ZM124.276 73.0578L124.609 72.502H125.929L126.02 73.0578H126.568L126.051 70.1775H125.515L123.744 73.0578H124.276ZM125.648 70.786L125.861 72.0558H124.872L125.64 70.786H125.648ZM126.975 71.6136C126.781 72.502 127.262 73.1146 128.122 73.1146C128.852 73.1146 129.51 72.6886 129.78 72.0031H129.245C129.056 72.4087 128.669 72.644 128.224 72.644C127.635 72.644 127.371 72.2343 127.507 71.6136C127.642 70.9929 128.084 70.5873 128.674 70.5873C129.118 70.5873 129.403 70.8226 129.414 71.2282H129.95C129.979 70.5426 129.507 70.1167 128.776 70.1167C127.917 70.1167 127.169 70.7293 126.975 71.6136ZM132.438 70.1775H130.225L130.123 70.6441H130.979L130.451 73.0578H130.954L131.481 70.6441H132.336L132.438 70.1775ZM133.218 72.6724C132.819 72.6724 132.652 72.4655 132.699 72.1572H132.201C132.114 72.6278 132.311 73.1146 133.096 73.1146C133.802 73.1146 134.341 72.7738 134.456 72.2505C134.707 71.0984 132.939 71.5893 133.077 70.9564C133.133 70.7009 133.376 70.5589 133.721 70.5589C134.099 70.5589 134.244 70.786 134.186 71.07H134.68C134.786 70.5305 134.511 70.1167 133.817 70.1167C133.161 70.1167 132.677 70.5102 132.576 70.9686C132.325 72.1207 134.094 71.569 133.941 72.2708C133.884 72.5304 133.62 72.6724 133.218 72.6724Z" fill="#33444D"/>
<circle opacity="0.2" r="2.22445" transform="matrix(1 0 -0.213371 0.976971 91.1453 71.6129)" fill="#33444D"/>
<path d="M91.515 70.5986H91.2184L91.0285 71.4679H90.1388L90.0755 71.7577H90.9653L90.7754 72.627H91.072L91.2618 71.7577H92.1516L92.2149 71.4679H91.3251L91.515 70.5986Z" fill="#33444D"/>
<rect width="130.501" height="27.8797" transform="matrix(1 0 -0.213371 0.976971 58.3105 17.5723)" fill="#324149"/>
<path d="M175.928 36.8241L174.832 35.875C174.938 35.6204 175.02 35.3619 175.077 35.1028C175.132 34.8436 175.163 34.5851 175.168 34.3305L176.679 33.3818C176.724 33.3541 176.759 33.3139 176.778 33.2688C176.797 33.2237 176.799 33.1768 176.784 33.137L176.126 31.4176C176.111 31.3778 176.079 31.3478 176.037 31.3332C175.995 31.3186 175.946 31.3204 175.898 31.3383L174.254 31.9512C173.919 31.6125 173.506 31.3497 173.035 31.1763L173.173 29.6174C173.177 29.5718 173.163 29.5299 173.134 29.4996C173.104 29.4692 173.062 29.4524 173.014 29.4524H170.947C170.899 29.4524 170.849 29.4692 170.807 29.4996C170.765 29.5299 170.732 29.5718 170.717 29.6174L170.173 31.1763C169.626 31.3495 169.098 31.6122 168.615 31.9508L167.24 31.3379C167.2 31.3201 167.151 31.3183 167.102 31.3329C167.054 31.3475 167.009 31.3775 166.976 31.4172L165.567 33.1376C165.534 33.1774 165.516 33.2242 165.515 33.2693C165.515 33.3145 165.532 33.3547 165.565 33.3824L166.662 34.3305C166.45 34.8408 166.335 35.3647 166.324 35.875L164.813 36.8237C164.769 36.8514 164.734 36.8916 164.714 36.9367C164.695 36.9819 164.693 37.0287 164.708 37.0685L165.366 38.7885C165.381 38.8283 165.413 38.8583 165.455 38.8729C165.497 38.8875 165.547 38.8857 165.595 38.8678L167.238 38.2549C167.573 38.5936 167.987 38.8562 168.458 39.0292L168.32 40.5881C168.316 40.6337 168.33 40.6756 168.359 40.706C168.388 40.7363 168.431 40.7531 168.479 40.7531H170.546C170.594 40.7531 170.644 40.7363 170.686 40.706C170.728 40.6756 170.761 40.6337 170.777 40.5881L171.32 39.0292C171.867 38.856 172.395 38.5934 172.878 38.2547L174.253 38.8676C174.294 38.8855 174.342 38.8873 174.391 38.8727C174.439 38.8581 174.484 38.8281 174.517 38.7883L175.926 37.0683C175.958 37.0287 175.977 36.982 175.977 36.937C175.978 36.892 175.96 36.8519 175.928 36.8241ZM170.294 37.1746C169.868 37.1746 169.477 37.0531 169.172 36.8254C168.868 36.5978 168.662 36.2742 168.581 35.8956C168.501 35.517 168.549 35.1005 168.72 34.6986C168.891 34.2967 169.177 33.9275 169.542 33.6378C169.907 33.348 170.334 33.1507 170.77 33.0708C171.205 32.9908 171.63 33.0319 171.99 33.1887C172.349 33.3455 172.628 33.611 172.791 33.9517C172.953 34.2924 172.992 34.693 172.903 35.1028C172.783 35.6522 172.44 36.1792 171.951 36.5677C171.462 36.9563 170.866 37.1746 170.294 37.1746Z" fill="white"/>
<circle r="10.3807" transform="matrix(1 0 -0.213371 0.976971 76.7937 231.707)" fill="#F92120"/>
<path d="M78.2061 232.845L77.1835 233.83C76.0898 233.112 75.2697 232.095 74.801 230.873L75.9828 230.084C76.1214 229.992 76.233 229.864 76.3002 229.72C76.3675 229.576 76.3866 229.425 76.3547 229.289L75.8767 227.265C75.8423 227.12 75.7514 227.002 75.62 226.933C75.4886 226.864 75.3253 226.848 75.1592 226.888L73.3104 227.332C73.1379 227.374 72.9742 227.473 72.8504 227.61C72.7266 227.747 72.6513 227.913 72.6387 228.077C72.479 230.215 73.0577 232.198 74.2873 233.725C75.5169 235.252 77.3305 236.24 79.454 236.541C79.6164 236.563 79.7947 236.525 79.9552 236.434C80.1158 236.342 80.2472 236.203 80.3248 236.043L81.153 234.332C81.2273 234.178 81.2465 234.015 81.2071 233.872C81.1678 233.729 81.0724 233.615 80.938 233.551L79.0625 232.652C78.9371 232.591 78.7851 232.578 78.6301 232.613C78.4752 232.648 78.3261 232.73 78.2061 232.845V232.845Z" fill="#FBFCFD"/>
<circle opacity="0.4" r="5.19037" transform="matrix(1 0 -0.213371 0.976971 19.0546 255.033)" stroke="#9DA6AB" stroke-width="0.296593"/>
<path d="M19.8419 251.875L20.5493 253.655L22.5177 254.123L20.7818 255.691L20.5138 257.76L18.7336 256.95L16.5995 257.76L17.2351 255.691L16.1843 254.123L18.3573 253.655L19.8419 251.875Z" fill="#9DA6AB"/>
<path d="M9.35386 264.408C9.5141 263.674 9.09742 263.121 8.32865 263.121C7.55988 263.121 6.90171 263.674 6.74147 264.408C6.58124 265.142 6.99792 265.694 7.76668 265.694C7.96244 265.694 8.1523 265.656 8.32613 265.594L8.57573 266.08H9.074L8.71057 265.382C9.03119 265.152 9.26729 264.804 9.35386 264.408ZM8.8983 264.408C8.78287 264.936 8.35305 265.291 7.85478 265.291C7.36006 265.291 7.08161 264.936 7.19704 264.408C7.31323 263.876 7.74584 263.525 8.24056 263.525C8.73883 263.525 9.01449 263.876 8.8983 264.408ZM10.5578 265.694C11.1344 265.694 11.6829 265.35 11.8409 264.627L12.1583 263.174H11.7277L11.4064 264.644C11.3206 265.037 11.0593 265.305 10.6429 265.305C10.2264 265.305 10.0821 265.037 10.1679 264.644L10.4891 263.174H10.0584L9.74101 264.627C9.58305 265.35 9.97767 265.694 10.5578 265.694ZM13.1625 263.174H12.7318L12.1927 265.642H12.6233L13.1625 263.174ZM13.353 264.404C13.1867 265.166 13.5988 265.691 14.3355 265.691C14.9619 265.691 15.5257 265.326 15.7572 264.738H15.2981C15.1368 265.086 14.8044 265.288 14.4236 265.288C13.9182 265.288 13.6924 264.936 13.8086 264.404C13.9248 263.872 14.3032 263.525 14.8086 263.525C15.1894 263.525 15.4337 263.726 15.4432 264.074H15.9023C15.9274 263.487 15.5231 263.121 14.8967 263.121C14.16 263.121 13.5186 263.646 13.353 264.404ZM18.2124 265.642L17.4812 264.199L18.7018 263.174H18.1359C16.9455 264.224 16.69 264.432 16.69 264.432L16.9649 263.174H16.5343L15.9951 265.642H16.4257L16.5738 264.964L17.1131 264.516L17.675 265.642H18.2124ZM20.2555 265.642C21.1275 265.642 21.7224 265.135 21.8811 264.408C22.0399 263.681 21.6667 263.174 20.7947 263.174H19.937L19.3978 265.642H20.2555ZM21.4256 264.408C21.3139 264.919 20.9492 265.253 20.3263 265.253H19.9135L20.2826 263.563H20.6954C21.3183 263.563 21.5372 263.897 21.4256 264.408ZM23.0439 263.174H22.6132L22.0741 265.642H22.5047L23.0439 263.174ZM23.2595 265.642L23.545 265.166H24.6768L24.7543 265.642H25.2241L24.781 263.174H24.3218L22.8039 265.642H23.2595ZM24.4357 263.695L24.618 264.783H23.7709L24.4286 263.695H24.4357ZM27.2086 265.253H26.0377L26.4918 263.174H26.0611L25.522 265.642H27.1236L27.2086 265.253Z" fill="#9DA6AB"/>
<path d="M38.2516 263.174H37.821L37.5977 264.196H36.3983L36.6215 263.174H36.1909L35.6517 265.642H36.0823L36.3132 264.585H37.5126L37.2818 265.642H37.7124L38.2516 263.174ZM39.2804 263.174H38.8498L38.3106 265.642H38.7413L39.2804 263.174ZM40.223 265.312C39.8814 265.312 39.7386 265.135 39.7785 264.87H39.3514C39.2775 265.274 39.4462 265.691 40.1189 265.691C40.724 265.691 41.1864 265.399 41.2843 264.95C41.5 263.963 39.9845 264.384 40.1029 263.841C40.1508 263.622 40.3589 263.5 40.6543 263.5C40.9782 263.5 41.1029 263.695 41.0533 263.939H41.4768C41.5672 263.476 41.3314 263.121 40.7371 263.121C40.1747 263.121 39.7594 263.459 39.6736 263.852C39.4579 264.839 40.9741 264.366 40.8428 264.968C40.7942 265.19 40.5683 265.312 40.223 265.312ZM43.7607 263.174H41.8637L41.7763 263.573H42.5095L42.0577 265.642H42.4883L42.9402 263.573H43.6733L43.7607 263.174ZM44.0132 264.408C44.1294 263.876 44.562 263.525 45.0567 263.525C45.5514 263.525 45.8306 263.876 45.7144 264.408C45.5982 264.94 45.1656 265.291 44.6709 265.291C44.1762 265.291 43.897 264.94 44.0132 264.408ZM43.5576 264.408C43.3974 265.142 43.8141 265.694 44.5828 265.694C45.3516 265.694 46.0098 265.142 46.17 264.408C46.3302 263.674 45.9136 263.121 45.1448 263.121C44.376 263.121 43.7179 263.674 43.5576 264.408ZM48.389 265.642L48.0329 264.617C48.3902 264.512 48.6081 264.248 48.6795 263.921C48.7737 263.49 48.5687 263.174 48.0099 263.174H46.8995L46.3603 265.642H46.791L47.0036 264.669H47.5837L47.8836 265.642H48.389ZM48.2453 263.921C48.199 264.133 48.0389 264.279 47.772 264.279H47.0887L47.2451 263.563H47.9284C48.1954 263.563 48.2916 263.709 48.2453 263.921ZM50.6913 263.174L49.7813 264.342H49.7742L49.3745 263.174H48.8762L49.4693 264.777L49.2802 265.642H49.7108L49.8999 264.777L51.1932 263.174H50.6913Z" fill="#9DA6AB"/>
<circle opacity="0.4" r="5.19037" transform="matrix(1 0 -0.213371 0.976971 45.4511 255.033)" stroke="#9DA6AB" stroke-width="0.296593"/>
<path d="M44.8496 257.785C46.4057 257.785 47.9364 256.553 48.2684 255.033C48.6005 253.512 47.6081 252.28 46.052 252.28C44.4959 252.28 42.9652 253.512 42.6332 255.033C42.3011 256.553 43.2935 257.785 44.8496 257.785Z" fill="#9DA6AB"/>
<path d="M45.5239 254.019L45.2075 255.467H46.6905" stroke="#FBFCFD" stroke-width="0.593186" stroke-miterlimit="10" stroke-linecap="square" stroke-linejoin="round"/>
<path d="M64.8339 265.642L64.1026 264.199L65.3232 263.174H64.7573C63.567 264.224 63.3115 264.432 63.3115 264.432L63.5864 263.174H63.1557L62.6165 265.642H63.0472L63.1953 264.964L63.7346 264.516L64.2964 265.642H64.8339ZM66.9558 265.253H65.6104L65.7562 264.585H67.0411L67.1261 264.196H65.8413L65.9795 263.563H67.3248L67.4099 263.174H65.6339L65.0947 265.642H66.8707L66.9558 265.253ZM69.3736 263.174L68.4636 264.342H68.4564L68.0567 263.174H67.5585L68.1515 264.777L67.9624 265.642H68.3931L68.5822 264.777L69.8754 263.174H69.3736ZM70.3276 264.279L70.484 263.563H71.1033C71.3844 263.563 71.4807 263.709 71.4336 263.925C71.3865 264.14 71.228 264.279 70.9468 264.279H70.3276ZM70.2425 264.669H70.8582C71.4455 264.669 71.7759 264.345 71.8678 263.925C71.9597 263.504 71.7863 263.174 71.1848 263.174H70.1384L69.5992 265.642H70.0299L70.2425 264.669ZM71.8065 265.642L72.092 265.166H73.2238L73.3013 265.642H73.7711L73.328 263.174H72.8688L71.3509 265.642H71.8065ZM72.9827 263.695L73.165 264.783H72.3179L72.9756 263.695H72.9827ZM74.9267 265.642C75.7987 265.642 76.3936 265.135 76.5523 264.408C76.711 263.681 76.3379 263.174 75.4659 263.174H74.6081L74.069 265.642H74.9267ZM76.0967 264.408C75.9851 264.919 75.6204 265.253 74.9975 265.253H74.5847L74.9537 263.563H75.3666C75.9894 263.563 76.2084 263.897 76.0967 264.408Z" fill="#9DA6AB"/>
<circle opacity="0.4" r="5.19037" transform="matrix(1 0 -0.213371 0.976971 71.8475 255.033)" stroke="#9DA6AB" stroke-width="0.296593"/>
<path d="M70.2043 253.729C70.5319 253.729 70.8542 253.469 70.9241 253.149C70.994 252.829 70.7851 252.57 70.4574 252.57C70.1298 252.57 69.8076 252.829 69.7377 253.149C69.6678 253.469 69.8767 253.729 70.2043 253.729Z" fill="#9DA6AB"/>
<path d="M69.7614 255.757C70.089 255.757 70.4113 255.498 70.4812 255.178C70.5511 254.857 70.3422 254.598 70.0146 254.598C69.687 254.598 69.3647 254.857 69.2948 255.178C69.2249 255.498 69.4338 255.757 69.7614 255.757Z" fill="#9DA6AB"/>
<path d="M69.3183 257.786C69.6459 257.786 69.9682 257.526 70.0381 257.206C70.108 256.886 69.8991 256.626 69.5715 256.626C69.2438 256.626 68.9216 256.886 68.8517 257.206C68.7818 257.526 68.9907 257.786 69.3183 257.786Z" fill="#9DA6AB"/>
<path d="M72.2805 253.729C72.6081 253.729 72.9303 253.469 73.0002 253.149C73.0701 252.829 72.8612 252.57 72.5336 252.57C72.206 252.57 71.8838 252.829 71.8139 253.149C71.744 253.469 71.9529 253.729 72.2805 253.729Z" fill="#9DA6AB"/>
<path d="M71.8376 255.757C72.1652 255.757 72.4875 255.498 72.5574 255.178C72.6273 254.857 72.4184 254.598 72.0907 254.598C71.7631 254.598 71.4409 254.857 71.371 255.178C71.3011 255.498 71.51 255.757 71.8376 255.757Z" fill="#9DA6AB"/>
<path d="M71.3945 257.786C71.7221 257.786 72.0443 257.526 72.1142 257.206C72.1841 256.886 71.9752 256.626 71.6476 256.626C71.32 256.626 70.9978 256.886 70.9279 257.206C70.858 257.526 71.0669 257.786 71.3945 257.786Z" fill="#9DA6AB"/>
<path d="M74.3566 253.729C74.6843 253.729 75.0065 253.469 75.0764 253.149C75.1463 252.829 74.9374 252.57 74.6098 252.57C74.2822 252.57 73.9599 252.829 73.89 253.149C73.8201 253.469 74.029 253.729 74.3566 253.729Z" fill="#9DA6AB"/>
<path d="M73.9138 255.757C74.2414 255.757 74.5636 255.498 74.6335 255.178C74.7034 254.857 74.4945 254.598 74.1669 254.598C73.8393 254.598 73.5171 254.857 73.4472 255.178C73.3773 255.498 73.5862 255.757 73.9138 255.757Z" fill="#9DA6AB"/>
<path d="M73.4707 257.786C73.7983 257.786 74.1205 257.526 74.1904 257.206C74.2603 256.886 74.0514 256.626 73.7238 256.626C73.3962 256.626 73.0739 256.886 73.004 257.206C72.9341 257.526 73.1431 257.786 73.4707 257.786Z" fill="#9DA6AB"/>
<circle opacity="0.4" r="5.19037" transform="matrix(1 0 -0.213371 0.976971 98.2445 255.033)" stroke="#9DA6AB" stroke-width="0.296593"/>
<path d="M86.7267 264.404C86.5604 265.166 86.9725 265.691 87.7092 265.691C88.3356 265.691 88.8994 265.326 89.131 264.738H88.6718C88.5105 265.086 88.1781 265.288 87.7973 265.288C87.2919 265.288 87.0661 264.936 87.1823 264.404C87.2985 263.872 87.677 263.525 88.1823 263.525C88.5632 263.525 88.8074 263.726 88.8169 264.074H89.276C89.3011 263.487 88.8968 263.121 88.2704 263.121C87.5337 263.121 86.8923 263.646 86.7267 264.404ZM89.9169 264.408C90.0331 263.876 90.4657 263.525 90.9604 263.525C91.4551 263.525 91.7344 263.876 91.6182 264.408C91.502 264.94 91.0694 265.291 90.5746 265.291C90.0799 265.291 89.8007 264.94 89.9169 264.408ZM89.4613 264.408C89.3011 265.142 89.7178 265.694 90.4866 265.694C91.2553 265.694 91.9135 265.142 92.0737 264.408C92.234 263.674 91.8173 263.121 91.0485 263.121C90.2798 263.121 89.6216 263.674 89.4613 264.408ZM93.0749 263.869L93.9119 265.642H94.3532L94.8924 263.174H94.4689L94.0808 264.95L93.241 263.174H92.8032L92.264 265.642H92.6876L93.0749 263.869ZM97.1093 263.174H95.2123L95.125 263.573H95.8582L95.4063 265.642H95.837L96.2888 263.573H97.022L97.1093 263.174ZM96.8139 265.642L97.0995 265.166H98.2313L98.3088 265.642H98.7786L98.3354 263.174H97.8763L96.3584 265.642H96.8139ZM97.9902 263.695L98.1724 264.783H97.3254L97.9831 263.695H97.9902ZM99.128 264.404C98.9617 265.166 99.3738 265.691 100.111 265.691C100.737 265.691 101.301 265.326 101.532 264.738H101.073C100.912 265.086 100.579 265.288 100.199 265.288C99.6932 265.288 99.4674 264.936 99.5836 264.404C99.6998 263.872 100.078 263.525 100.584 263.525C100.964 263.525 101.209 263.726 101.218 264.074H101.677C101.702 263.487 101.298 263.121 100.672 263.121C99.935 263.121 99.2936 263.646 99.128 264.404ZM103.81 263.174H101.913L101.826 263.573H102.559L102.107 265.642H102.538L102.99 263.573H103.723L103.81 263.174ZM104.478 265.312C104.137 265.312 103.994 265.135 104.034 264.87H103.607C103.533 265.274 103.702 265.691 104.374 265.691C104.979 265.691 105.442 265.399 105.54 264.95C105.755 263.963 104.24 264.384 104.358 263.841C104.406 263.622 104.614 263.5 104.91 263.5C105.234 263.5 105.358 263.695 105.309 263.939H105.732C105.823 263.476 105.587 263.121 104.992 263.121C104.43 263.121 104.015 263.459 103.929 263.852C103.713 264.839 105.23 264.366 105.098 264.968C105.05 265.19 104.824 265.312 104.478 265.312Z" fill="#9DA6AB"/>
<path d="M97.1016 252.57H100.736C101.05 252.57 101.255 252.79 101.196 253.062L100.335 257.003C100.276 257.275 99.9737 257.496 99.6606 257.496H96.0257L97.1016 252.57Z" fill="#9DA6AB"/>
<path d="M96.8215 252.57H96.2612L96.0819 253.391H96.6422L96.8215 252.57Z" fill="#9DA6AB"/>
<path d="M96.5226 253.938H95.9624L95.7831 254.759H96.3433L96.5226 253.938Z" fill="#9DA6AB"/>
<path d="M96.2238 255.306H95.6635L95.4842 256.127H96.0445L96.2238 255.306Z" fill="#9DA6AB"/>
<path d="M95.9249 256.675H95.3647L95.1854 257.496H95.7456L95.9249 256.675Z" fill="#9DA6AB"/>
<path d="M100.283 253.391H97.7625L97.5831 254.212H100.104L100.283 253.391Z" fill="white"/>
<circle opacity="0.4" r="5.19037" transform="matrix(1 0 -0.213371 0.976971 124.641 255.033)" stroke="#9DA6AB" stroke-width="0.296593"/>
<path d="M113.727 263.174H113.332L112.793 265.642H113.217L113.611 263.838L114.161 264.804H114.176L115.152 263.838L114.758 265.642H115.181L115.721 263.174H115.325L114.301 264.196L113.727 263.174ZM117.64 265.253H116.295L116.44 264.585H117.725L117.81 264.196H116.525L116.664 263.563H118.009L118.094 263.174H116.318L115.779 265.642H117.555L117.64 265.253ZM118.925 265.312C118.583 265.312 118.441 265.135 118.481 264.87H118.053C117.98 265.274 118.148 265.691 118.821 265.691C119.426 265.691 119.888 265.399 119.986 264.95C120.202 263.963 118.687 264.384 118.805 263.841C118.853 263.622 119.061 263.5 119.356 263.5C119.68 263.5 119.805 263.695 119.755 263.939H120.179C120.269 263.476 120.033 263.121 119.439 263.121C118.877 263.121 118.461 263.459 118.376 263.852C118.16 264.839 119.676 264.366 119.545 264.968C119.496 265.19 119.27 265.312 118.925 265.312ZM121.097 265.312C120.756 265.312 120.613 265.135 120.653 264.87H120.226C120.152 265.274 120.321 265.691 120.993 265.691C121.598 265.691 122.061 265.399 122.159 264.95C122.374 263.963 120.859 264.384 120.977 263.841C121.025 263.622 121.233 263.5 121.529 263.5C121.853 263.5 121.977 263.695 121.928 263.939H122.351C122.442 263.476 122.206 263.121 121.611 263.121C121.049 263.121 120.634 263.459 120.548 263.852C120.332 264.839 121.849 264.366 121.717 264.968C121.669 265.19 121.443 265.312 121.097 265.312ZM122.598 265.642L122.884 265.166H124.016L124.093 265.642H124.563L124.12 263.174H123.661L122.143 265.642H122.598ZM123.775 263.695L123.957 264.783H123.11L123.767 263.695H123.775ZM125.988 265.281C125.522 265.281 125.252 264.936 125.368 264.404C125.484 263.872 125.888 263.525 126.393 263.525C126.756 263.525 127.023 263.706 127.044 264.029H127.511C127.516 263.466 127.093 263.121 126.481 263.121C125.744 263.121 125.078 263.646 124.912 264.404C124.746 265.166 125.174 265.684 125.896 265.684C126.619 265.684 127.277 265.166 127.443 264.404C127.455 264.349 127.464 264.293 127.464 264.293H126.371L126.287 264.676H126.921C126.755 265.079 126.404 265.281 125.988 265.281ZM129.492 265.253H128.147L128.292 264.585H129.577L129.662 264.196H128.377L128.516 263.563H129.861L129.946 263.174H128.17L127.631 265.642H129.407L129.492 265.253ZM130.777 265.312C130.436 265.312 130.293 265.135 130.333 264.87H129.906C129.832 265.274 130 265.691 130.673 265.691C131.278 265.691 131.741 265.399 131.839 264.95C132.054 263.963 130.539 264.384 130.657 263.841C130.705 263.622 130.913 263.5 131.208 263.5C131.532 263.5 131.657 263.695 131.608 263.939H132.031C132.121 263.476 131.886 263.121 131.291 263.121C130.729 263.121 130.314 263.459 130.228 263.852C130.012 264.839 131.528 264.366 131.397 264.968C131.348 265.19 131.122 265.312 130.777 265.312Z" fill="#9DA6AB"/>
<path d="M122.192 254.704C122.449 253.525 123.787 252.57 125.179 252.57C126.571 252.57 127.491 253.525 127.234 254.704C126.977 255.883 125.639 256.839 124.247 256.839C124.07 256.839 123.902 256.823 123.742 256.794L122.255 257.496L122.548 256.152C122.215 255.772 122.07 255.264 122.192 254.704Z" fill="#9DA6AB"/>
</g>
<path d="M173.451 15.2023C172.836 17.9102 170.087 20.1053 167.31 20.1053C164.534 20.1053 162.781 17.9102 163.396 15.2023C164.01 12.4945 166.76 10.2993 169.536 10.2993C172.313 10.2993 174.066 12.4945 173.451 15.2023Z" fill="#1A2D37"/>
<path d="M191.029 15.2023C190.414 17.9102 187.665 20.1053 184.888 20.1053C182.111 20.1053 180.359 17.9102 180.973 15.2023C181.588 12.4945 184.337 10.2993 187.114 10.2993C189.891 10.2993 191.644 12.4945 191.029 15.2023Z" fill="#1A2D37"/>
<path d="M208.607 15.2023C207.992 17.9102 205.243 20.1053 202.466 20.1053C199.689 20.1053 197.936 17.9102 198.551 15.2023C199.166 12.4945 201.915 10.2993 204.692 10.2993C207.469 10.2993 209.221 12.4945 208.607 15.2023Z" fill="#1A2D37"/>
</g>
<defs>
<filter id="filter0_d" x="60.8347" y="-8.2666" width="735.602" height="450.208" filterUnits="userSpaceOnUse" color-interpolation-filters="sRGB">
<feFlood flood-opacity="0" result="BackgroundImageFix"/>
<feColorMatrix in="SourceAlpha" type="matrix" values="0 0 0 0 0 0 0 0 0 0 0 0 0 0 0 0 0 0 127 0" result="hardAlpha"/>
<feOffset dx="43" dy="52"/>
<feGaussianBlur stdDeviation="33"/>
<feComposite in2="hardAlpha" operator="out"/>
<feColorMatrix type="matrix" values="0 0 0 0 0.0745098 0 0 0 0 0.141176 0 0 0 0 0.188235 0 0 0 0.17 0"/>
<feBlend mode="normal" in2="BackgroundImageFix" result="effect1_dropShadow"/>
<feBlend mode="normal" in="SourceGraphic" in2="effect1_dropShadow" result="shape"/>
</filter>
<filter id="filter1_d" x="230.911" y="8.771" width="295.812" height="289.546" filterUnits="userSpaceOnUse" color-interpolation-filters="sRGB">
<feFlood flood-opacity="0" result="BackgroundImageFix"/>
<feColorMatrix in="SourceAlpha" type="matrix" values="0 0 0 0 0 0 0 0 0 0 0 0 0 0 0 0 0 0 127 0" result="hardAlpha"/>
<feOffset dx="17.619" dy="15.7644"/>
<feGaussianBlur stdDeviation="30.1378"/>
<feComposite in2="hardAlpha" operator="out"/>
<feColorMatrix type="matrix" values="0 0 0 0 0 0 0 0 0 0.0823529 0 0 0 0 0.12549 0 0 0 0.49 0"/>
<feBlend mode="normal" in2="BackgroundImageFix" result="effect1_dropShadow"/>
<feBlend mode="normal" in="SourceGraphic" in2="effect1_dropShadow" result="shape"/>
</filter>
<filter id="filter2_d" x="-17.0127" y="19.4553" width="271.899" height="352.432" filterUnits="userSpaceOnUse" color-interpolation-filters="sRGB">
<feFlood flood-opacity="0" result="BackgroundImageFix"/>
<feColorMatrix in="SourceAlpha" type="matrix" values="0 0 0 0 0 0 0 0 0 0 0 0 0 0 0 0 0 0 127 0" result="hardAlpha"/>
<feOffset dx="19" dy="52"/>
<feGaussianBlur stdDeviation="21"/>
<feComposite in2="hardAlpha" operator="out"/>
<feColorMatrix type="matrix" values="0 0 0 0 0.0745098 0 0 0 0 0.141176 0 0 0 0 0.188235 0 0 0 0.11 0"/>
<feBlend mode="normal" in2="BackgroundImageFix" result="effect1_dropShadow"/>
<feBlend mode="normal" in="SourceGraphic" in2="effect1_dropShadow" result="shape"/>
</filter>
<filter id="filter3_d" x="31.3141" y="32.5102" width="166.647" height="54.2099" filterUnits="userSpaceOnUse" color-interpolation-filters="sRGB">
<feFlood flood-opacity="0" result="BackgroundImageFix"/>
<feColorMatrix in="SourceAlpha" type="matrix" values="0 0 0 0 0 0 0 0 0 0 0 0 0 0 0 0 0 0 127 0" result="hardAlpha"/>
<feOffset dy="1.18637"/>
<feGaussianBlur stdDeviation="3.41082"/>
<feComposite in2="hardAlpha" operator="out"/>
<feColorMatrix type="matrix" values="0 0 0 0 0.2 0 0 0 0 0.266667 0 0 0 0 0.301961 0 0 0 0.1 0"/>
<feBlend mode="normal" in2="BackgroundImageFix" result="effect1_dropShadow"/>
<feBlend mode="normal" in="SourceGraphic" in2="effect1_dropShadow" result="shape"/>
</filter>
<linearGradient id="paint0_linear" x1="415.864" y1="4" x2="415.864" y2="313.839" gradientUnits="userSpaceOnUse">
<stop stop-color="#3A4952"/>
<stop offset="1" stop-color="#2B3940"/>
</linearGradient>
<linearGradient id="paint1_linear" x1="361.198" y1="53.2822" x2="361.198" y2="222.277" gradientUnits="userSpaceOnUse">
<stop stop-color="#E6E9EF"/>
<stop offset="1" stop-color="#C3CACE"/>
</linearGradient>
<linearGradient id="paint2_linear" x1="384.58" y1="69.3787" x2="373.316" y2="86.7884" gradientUnits="userSpaceOnUse">
<stop stop-color="#F92120"/>
<stop offset="1" stop-color="#C00100"/>
</linearGradient>
<linearGradient id="paint3_linear" x1="14.6079" y1="29.388" x2="114.306" y2="274.226" gradientUnits="userSpaceOnUse">
<stop stop-color="#E0E2E9"/>
<stop offset="1" stop-color="#C4CACE"/>
</linearGradient>
<clipPath id="clip0">
<rect width="778" height="450" fill="white"/>
</clipPath>
<clipPath id="clip1">
<rect width="130.501" height="259.222" rx="8" transform="matrix(1 0 -0.213371 0.976971 58.3105 17.5723)" fill="white"/>
</clipPath>
</defs>
</svg>
