<svg width="999" height="222" viewBox="0 0 999 222" fill="none" xmlns="http://www.w3.org/2000/svg">
<path d="M116.763 8.09502C113.859 3.48019 108.605 0.669352 103.141 0.652662H74.9596L193.08 195.671C203.079 211.836 221.38 221.245 239.316 221.26C257.412 221.275 275.743 212.196 286.087 195.347L403.961 0.652662L375.979 0.652588C375.81 0.652634 375.641 0.65536 375.472 0.660738C370.857 0.830309 367.251 2.82821 364.903 4.92672C364.004 5.74427 363.197 6.66627 362.51 7.68139L258.926 178.871C249.723 192.638 230.605 192.761 221.01 180.147L329.654 0.652662H301.684C296.323 0.669042 291.03 3.37678 288.088 7.83507L285.031 12.8854L282.829 16.5346H282.821L206.112 143.18C204.402 146.004 200.281 145.992 198.551 143.18L116.763 8.09502Z" fill="black"/>
<path d="M0.731445 0.652662H28.8407C34.3053 0.669352 39.5131 3.48019 42.4177 8.09502L171.307 220.948C152.18 222.997 131.046 215.053 118.849 195.671L0.731445 0.652662Z" fill="black"/>
<path fill-rule="evenodd" clip-rule="evenodd" d="M662.922 46.9231C627.521 46.9231 598.665 74.7405 598.665 108.767C598.665 143.108 627.521 170.768 662.922 170.768C698.469 170.768 727.494 143.119 727.494 108.767C727.494 74.7286 698.469 46.9231 662.922 46.9231ZM628.259 108.767C628.259 90.505 643.852 74.3786 662.922 74.3786C682.144 74.3786 697.586 90.4982 697.586 108.767C697.586 127.213 682.124 143.469 662.922 143.469C643.872 143.469 628.259 127.206 628.259 108.767Z" fill="black"/>
<path fill-rule="evenodd" clip-rule="evenodd" d="M934.421 46.9231C899.019 46.9231 870.164 74.7405 870.164 108.767C870.164 143.108 899.019 170.768 934.421 170.768C969.968 170.768 998.993 143.119 998.993 108.767C998.993 74.7286 969.968 46.9231 934.421 46.9231ZM899.757 108.767C899.757 90.505 915.35 74.3786 934.421 74.3786C953.642 74.3786 969.085 90.4982 969.085 108.767C969.085 127.213 953.622 143.469 934.421 143.469C915.37 143.469 899.757 127.206 899.757 108.767Z" fill="black"/>
<path d="M781.34 109.62L734.524 50.0446H763.965C768.716 50.0446 773.204 52.2224 776.133 55.9503L799.83 86.1015L823.535 55.9485C826.465 52.2217 830.951 50.0446 835.702 50.0446H865.152L818.339 109.552L864.067 167.804H834.613C829.86 167.804 825.371 165.624 822.441 161.894L799.845 133.121L777.202 161.904C774.272 165.628 769.786 167.804 765.038 167.804H735.484L781.34 109.62Z" fill="black"/>
<path d="M465.254 50.0446H439.18L515.654 171.619L592.027 50.0446H566.344C561.023 50.0446 556.076 52.7718 553.249 57.2639L515.655 116.999L477.89 56.9671C474.047 51.2425 468.075 50.0446 465.254 50.0446Z" fill="black"/>
</svg>
