<svg width="600" height="286" viewBox="0 0 600 286" fill="none" xmlns="http://www.w3.org/2000/svg">
<path d="M573.4 106.8C572.9 106.6 570.6 97.4 570.6 91.4C570.6 79.4 578 77.3 578 72.8C578 69.7 573.4 69.1 569.1 69.1C515 69.1 492.6 142.2 458.2 142.2C449.6 142.2 443.7 138.2 443.7 132C443.7 115.5 467.8 118.9 480.5 113.8C486.1 111.4 488.4 108 488.4 105.5C488.4 103.4 487.2 101.9 485.4 101.9C482.4 101.9 478.6 104.3 470.8 104.3C463 104.3 460.4 100.5 460.4 96C460.4 87 468.9 77.5 481 77.5C487.6 77.5 489.2 79.5 489.2 79.5C489.2 79.5 484.4 82.3 484.4 88C484.4 93.4 488.7 96.5 493.8 96.5C500 96.5 503.6 91.3 503.6 86C503.6 78 494.7 69.2 474.5 69.2C458.7 69.2 438.1 79.4 438.1 96C438.1 103.6 443.8 107.7 443.8 107.7C443.8 107.7 417.4 110.1 412.1 134.7C411.6 137.6 410 140.2 407.4 141.7C406.3 142.3 404.9 142.8 403.4 142.8C400 142.8 396.5 140.9 396.5 136.1C396.5 122.2 417.4 108.2 417.4 87.8C417.4 72.5 403.8 69.1 394.3 69.1C368.6 69.1 351.8 94.2 351.8 94.2C351.8 94.2 353.4 69.3 334 69.3C321.5 69.3 310.1 81.7 308.5 83.6C302.8 70.6 289.1 69 280.8 69C248.6 69 215.3 102.8 215.3 131.3C215.3 153.7 233.6 159.8 245.9 159.8C285.6 159.8 310.9 121.6 310.9 97.6C310.9 96.6 310.9 95.6 310.8 94.6C314.5 87.2 320.2 81 327 81C332 81 333.7 84.7 333.7 89.9C333.7 103.2 309.6 135.5 303 151.6C301.8 154.6 304 157.9 307.3 157.9H332.3C334.6 157.9 336.6 156.5 337.4 154.4C342.9 140.2 364.5 81.6 383.8 81.6C399.8 81.6 364.3 115.4 364.3 145.2C364.3 161.5 384.6 160.7 384.6 160.7C398.9 160.7 408.7 151.9 412 149C412.7 148.4 413.7 148.6 414.2 149.3C416.5 152.7 426.3 160.7 439.9 160.7C493.6 160.7 513 101.1 543.4 85.1C543.4 85.1 542 93 545 105.1C525.5 108.4 507.4 123.2 507.4 140.8C507.4 152.9 519.2 161.1 532 161.1C552.7 161.1 572.3 143.9 574.8 120.5C583.2 124.8 589.4 132.3 594 143.1C595.1 146 599.5 145.2 599.5 141.6C600.1 127.7 588.2 113.5 573.4 106.8ZM261.3 135.4C253.1 135.4 247.4 130.5 247.4 122.4C247.4 93.6 279.4 80.7 279.4 80.7C277.6 89.4 285.3 104.1 299.2 100.8C295.4 116.7 276.7 135.4 261.3 135.4ZM533 141.2C527.1 141.2 524.4 137.7 524.4 133.6C524.4 124.6 535.4 117.5 545.8 116.7C545.8 116.7 546.4 121.5 546.4 126.3C546.3 135 540.7 141.2 533 141.2Z" fill="#CF3339"/>
<path d="M189.9 162.8C185.2 162.8 180.5 162.9 175.9 163.1C189.5 134.1 202.9 104.7 220 80.7C267.9 18.5 316.4 26 316.4 7C316.4 3.3 314.1 0 310.7 0C303.7 0 296.7 10.4 261.5 10.4C234.4 10.4 220.6 6 183.2 6C80.8 6 13.4 65.2 13.4 110.7C13.4 137.1 37 153.4 70.2 153.4C120.7 153.4 148 106.5 148 81.1C148 74.7 146.8 65.3 142.7 65.3C140.2 65.3 138.8 67.8 138.8 71.5C138.8 97.7 113.9 123.4 91.7 123.4C80.5 123.4 70.6 117.2 70.6 103.8C70.6 60.3 142.4 27.6 227 27.6C242.3 27.6 254 28.9 254 28.9C217.2 37.1 178.9 81 147.1 135.6C141 146.1 135.4 157 130.2 167.7C48.4 181.7 0 222.8 0 254.4C0 275.5 22 286 47.1 286C107.7 286 141 235.4 168.3 178.9C181 177.1 194.1 176.1 207.3 176.1C229 176.1 235.8 181.2 235.8 176.6C235.9 170.5 221.7 162.8 189.9 162.8ZM57.2 270.8C49.2 270.8 42.9 265.6 42.9 257.4C42.9 231.5 74.7 205.9 119.5 190.5C99.4 234.1 83.2 270.8 57.2 270.8Z" fill="#CF3339"/>
</svg>
