<svg width="180" height="41" viewBox="0 0 180 41" fill="none" xmlns="http://www.w3.org/2000/svg">
<path fill-rule="evenodd" clip-rule="evenodd" d="M107.815 20.4355C107.815 14.3 113.018 9.28418 119.402 9.28418C125.811 9.28418 131.045 14.2979 131.045 20.4355C131.045 26.6297 125.811 31.6151 119.402 31.6151C113.018 31.6151 107.815 26.6275 107.815 20.4355ZM119.402 14.2348C115.963 14.2348 113.152 17.1426 113.152 20.4355C113.152 23.7603 115.967 26.6928 119.402 26.6928C122.864 26.6928 125.652 23.7616 125.652 20.4355C125.652 17.1414 122.868 14.2348 119.402 14.2348Z" fill="white"/>
<path fill-rule="evenodd" clip-rule="evenodd" d="M156.77 20.4355C156.77 14.3 161.973 9.28418 168.357 9.28418C174.766 9.28418 180 14.2979 180 20.4355C180 26.6297 174.766 31.6151 168.357 31.6151C161.973 31.6151 156.77 26.6275 156.77 20.4355ZM168.357 14.2348C164.918 14.2348 162.106 17.1426 162.106 20.4355C162.106 23.7603 164.922 26.6928 168.357 26.6928C171.819 26.6928 174.607 23.7616 174.607 20.4355C174.607 17.1414 171.823 14.2348 168.357 14.2348Z" fill="white"/>
<path d="M140.754 20.5893L132.313 9.84702H137.621C138.478 9.84702 139.287 10.2397 139.815 10.9119L144.088 16.3486L148.362 10.9116C148.891 10.2396 149.7 9.84702 150.556 9.84702H155.867L147.426 20.5771L155.671 31.0806H150.36C149.503 31.0806 148.694 30.6876 148.165 30.015L144.091 24.8268L140.008 30.0168C139.48 30.6884 138.671 31.0806 137.815 31.0806H132.486L140.754 20.5893Z" fill="white"/>
<path d="M79.0581 9.84704H83.7597C84.2683 9.84704 85.3451 10.063 86.038 11.0952L92.8476 21.9197L99.6264 11.1488C100.136 10.3388 101.028 9.84704 101.987 9.84704H106.619L92.8475 31.7686L79.0581 9.84704Z" fill="white"/>
<path d="M5.06848 0.940931H0L21.2982 36.1053C23.4975 39.6002 27.3083 41.0325 30.7571 40.6631L7.51659 2.28289C6.99285 1.45077 6.05382 0.943941 5.06848 0.940931Z" fill="#F92120"/>
<path d="M18.4657 0.940931C19.4511 0.943941 20.3984 1.45077 20.9221 2.28289L35.6696 26.6405C35.9814 27.1475 36.7245 27.1497 37.0328 26.6405L50.8646 3.80465H50.866L51.263 3.14666L51.8143 2.23602C52.3447 1.43213 53.2991 0.943885 54.2658 0.940931H59.3091L39.7192 33.3061C41.4494 35.5806 44.8965 35.5585 46.5559 33.076L65.2336 2.20831C65.3575 2.02527 65.5029 1.85902 65.6651 1.7116C66.0884 1.33321 66.7386 0.972963 67.5707 0.942388C67.6012 0.941418 67.6316 0.940926 67.6621 0.940918L72.7077 0.940931L51.4534 36.0469C49.5883 39.085 46.2829 40.7221 43.02 40.7193C39.7858 40.7166 36.486 39.0201 34.683 36.1053L13.3843 0.940931H18.4657Z" fill="#F92120"/>
<path d="M35.7539 26.7427L39.747 33.3306L59.3484 0.94043H54.3018C53.3345 0.943385 52.3794 1.43195 51.8487 2.23637L51.297 3.14761L50.8998 3.80603H50.8983L37.0575 26.6569C36.7675 27.1359 36.0929 27.1627 35.7539 26.7427Z" fill="url(#paint0_linear)"/>
<defs>
<linearGradient id="paint0_linear" x1="56.1755" y1="2.90328" x2="40.1306" y2="30.5544" gradientUnits="userSpaceOnUse">
<stop stop-color="#F92120"/>
<stop offset="1" stop-color="#C00100"/>
</linearGradient>
</defs>
</svg>
