<svg width="66" height="36" viewBox="0 0 66 36" fill="none" xmlns="http://www.w3.org/2000/svg">
<path d="M4.53347 0.000378171H0L19.0501 31.453C21.0173 34.579 24.4257 35.8601 27.5106 35.5297L6.72317 1.20068C6.25471 0.456403 5.4148 0.00306993 4.53347 0.000378171Z" fill="#F92120"/>
<path d="M16.5166 0.000378175C17.398 0.00306993 18.2452 0.456403 18.7137 1.20068L31.9045 22.9873C32.1834 23.4407 32.8481 23.4427 33.1238 22.9873L45.4955 2.56182H45.4968L45.8519 1.97328L46.345 1.15876C46.8194 0.439725 47.6731 0.00301996 48.5377 0.000378175H53.0487L35.5266 28.9493C37.0742 30.9836 40.1574 30.9639 41.6416 28.7434L58.3479 1.13397C58.4587 0.970255 58.5887 0.821555 58.7338 0.689701C59.1124 0.351251 59.694 0.0290291 60.4382 0.00168069C60.4655 0.000813314 60.4927 0.000373575 60.52 0.000366211L65.033 0.000378175L46.0223 31.4007C44.354 34.1181 41.3975 35.5824 38.479 35.58C35.5862 35.5775 32.6347 34.0601 31.022 31.453L11.9715 0.000378175H16.5166Z" fill="#F92120"/>
</svg>
