<svg width="704" height="664" viewBox="0 0 704 664" fill="none" xmlns="http://www.w3.org/2000/svg">
<g filter="url(#filter0_d)">
<path d="M137.557 105.235L137.665 105.101C137.761 104.975 137.86 104.852 137.963 104.733L145.178 95.8195L145.508 101.724H322.259C328.887 101.724 335.707 106.898 337.492 113.28L433.182 468.056L435.017 464.997L442.171 473.773L434.275 483.658C434.087 483.928 433.882 484.185 433.66 484.429L433.61 484.492L433.605 484.489C431.991 486.231 429.552 487.284 426.562 487.284H249.5C242.873 487.284 236.053 482.11 234.267 475.728L136.431 113.28C135.557 110.156 136.051 107.322 137.561 105.242L137.557 105.235Z" fill="url(#paint0_linear)"/>
</g>
<g filter="url(#filter1_d)">
<g clip-path="url(#clip0)">
<rect width="201" height="399.259" rx="12" transform="matrix(1 0 0.261515 0.965199 141.045 92)" fill="white"/>
<rect width="201.495" height="399.259" transform="matrix(1 0 -0.261515 -0.965199 245.457 477.365)" fill="url(#paint1_linear)"/>
<path d="M236.431 254.562H228.503L276.203 307.653C281.073 312.93 287.62 315.092 292.864 314.535L240.809 256.588C239.65 255.331 237.974 254.566 236.431 254.562Z" fill="#F92120"/>
<path d="M257.388 254.562C258.93 254.566 260.619 255.331 261.779 256.588L294.812 293.363C295.507 294.129 296.67 294.132 296.944 293.363L309.239 258.885H309.241L309.593 257.892L310.083 256.517C310.584 255.303 311.877 254.566 313.388 254.562H321.277L303.873 303.427C307.51 306.861 312.893 306.828 314.473 303.08L331.063 256.475C331.181 256.199 331.341 255.948 331.534 255.725C332.042 255.154 332.911 254.61 334.2 254.564C334.248 254.562 334.295 254.562 334.343 254.562L342.235 254.562L323.349 307.565C321.675 312.152 317.174 314.624 312.069 314.619C307.009 314.615 301.153 312.054 297.14 307.653L249.439 254.562H257.388Z" fill="#F92120"/>
<path d="M294.985 293.517L303.926 303.463L321.338 254.56H313.444C311.932 254.565 310.638 255.302 310.136 256.517L309.646 257.893L309.294 258.887H309.292L296.989 293.387C296.732 294.11 295.687 294.151 294.985 293.517Z" fill="url(#paint2_linear)"/>
</g>
</g>
<g filter="url(#filter2_d)">
<path d="M283.404 33.511L283.512 33.3773C283.607 33.2516 283.707 33.1288 283.81 33.0089L291.024 24.0958L291.354 30.0001H468.106C474.733 30.0001 481.553 35.174 483.339 41.5563L582.293 395.256L584.127 392.196L591.282 400.973L583.386 410.858C583.198 411.127 582.992 411.384 582.771 411.628L582.72 411.692L582.716 411.688C581.102 413.43 578.662 414.483 575.673 414.483H398.611C391.984 414.483 385.164 409.309 383.378 402.927L282.277 41.5563C281.403 38.4324 281.898 35.598 283.407 33.5181L283.404 33.511Z" fill="url(#paint3_linear)"/>
</g>
<path d="M305.245 30.0001L311.914 44.5529L290.635 71.4277L282.277 41.5563C281.403 38.4324 281.898 35.598 283.407 33.5181L283.404 33.511L283.512 33.3773C283.607 33.2516 283.707 33.1288 283.81 33.0089L291.024 24.0958L291.354 30.0001H305.245Z" fill="#132430"/>
<g clip-path="url(#clip1)">
<rect width="201" height="399.259" rx="12" transform="matrix(1 0 0.269424 0.963022 287.045 20)" fill="white"/>
<rect opacity="0.3" width="201.55" height="350.979" transform="matrix(1 0 -0.269424 -0.963022 394.057 405)" fill="#ECEEF4"/>
<g filter="url(#filter3_d)">
<rect width="222.014" height="63.9545" transform="matrix(1 0 0.269424 0.963022 285.276 51.2347)" fill="white"/>
</g>
<path d="M365.837 146.984H362.327L358.67 133.911H357.472L353.893 134.336L354.176 135.348H357.538L360.793 146.984H357.263L357.625 148.279H366.199L365.837 146.984Z" fill="#33444D"/>
<path d="M379.913 194.893H377.98L375.319 185.382H373.68L369.018 194.934L369.38 196.229H376.861L377.846 199.75H379.338L378.353 196.229H380.286L379.913 194.893ZM374.404 187.446L376.488 194.893H370.751L374.383 187.446H374.404Z" fill="#33444D"/>
<path d="M375.124 210.355C374.405 210.355 373.727 209.832 373.502 209.024C373.276 208.217 373.632 207.689 374.411 207.689C374.97 207.689 375.518 207.963 375.798 208.454H376.516C376.096 207.599 375.182 207.076 374.239 207.076C373.105 207.076 372.478 207.874 372.8 209.024C373.123 210.18 374.177 210.967 375.289 210.967C376.402 210.967 377.021 210.18 376.697 209.024C376.674 208.94 376.645 208.855 376.645 208.855H374.962L375.124 209.436H376.1C376.151 210.049 375.765 210.355 375.124 210.355ZM380.767 207.156H380.104L380.538 208.708H378.691L378.256 207.156H377.593L378.642 210.904H379.305L378.856 209.299H380.703L381.152 210.904H381.816L380.767 207.156ZM383.064 207.156H382.401L383.45 210.904H384.113L383.064 207.156Z" fill="#667379"/>
<path d="M383.287 240.152L382.754 238.25H390.13C388.326 241.791 387.7 246.162 388.254 251.222H389.893C389.252 245.778 389.882 242.095 391.999 238.169L391.631 236.854H380.872L381.795 240.152H383.287Z" fill="#33444D"/>
<path d="M385.095 260.306L384.791 259.218H385.745C386.178 259.218 386.437 259.44 386.529 259.767C386.62 260.094 386.482 260.306 386.049 260.306H385.095ZM385.261 260.897H386.209C387.114 260.897 387.376 260.406 387.198 259.767C387.019 259.128 386.5 258.627 385.574 258.627H383.962L385.011 262.375H385.674L385.261 260.897ZM392.532 260.501C392.22 259.387 391.157 258.548 389.973 258.548C388.789 258.548 388.196 259.387 388.508 260.501C388.82 261.615 389.882 262.454 391.066 262.454C391.368 262.454 391.631 262.396 391.851 262.301L392.606 263.04H393.374L392.282 261.979C392.601 261.631 392.7 261.103 392.532 260.501ZM391.83 260.501C392.054 261.303 391.662 261.842 390.895 261.842C390.133 261.842 389.434 261.303 389.21 260.501C388.984 259.693 389.383 259.16 390.145 259.16C390.912 259.16 391.604 259.693 391.83 260.501ZM397.602 262.375L396.272 260.818C396.743 260.659 396.878 260.258 396.739 259.762C396.556 259.107 395.999 258.627 395.139 258.627H393.428L394.477 262.375H395.14L394.727 260.897H395.62L396.823 262.375H397.602ZM396.07 259.762C396.16 260.084 396.025 260.306 395.614 260.306H394.561L394.257 259.218H395.31C395.721 259.218 395.98 259.44 396.07 259.762ZM399.988 261.874C399.461 261.874 399.106 261.604 398.967 261.203H398.309C398.502 261.815 399.08 262.449 400.116 262.449C401.048 262.449 401.537 262.006 401.347 261.325C400.927 259.825 398.913 260.464 398.683 259.64C398.59 259.308 398.818 259.123 399.273 259.123C399.772 259.123 400.112 259.419 400.221 259.788H400.873C400.66 259.086 400.027 258.548 399.112 258.548C398.246 258.548 397.863 259.06 398.03 259.656C398.449 261.156 400.425 260.438 400.68 261.351C400.775 261.689 400.519 261.874 399.988 261.874Z" fill="#667379"/>
<path d="M404.996 290.114L400.301 301.992M396.978 290.114L408.319 301.992M395.34 296.053H409.958" stroke="#33444D" stroke-width="0.913636"/>
<path d="M420.941 159.432L421.019 158.709H422.762L423.244 159.432H423.967L421.406 155.684H420.698L420.24 159.432H420.941ZM421.271 156.476L422.38 158.128H421.075L421.26 156.476H421.271ZM426.772 159.432C427.616 159.432 427.955 159.036 427.772 158.382C427.657 157.97 427.319 157.664 426.905 157.537C427.218 157.4 427.347 157.099 427.237 156.703C427.076 156.128 426.557 155.684 425.663 155.684H424.09L425.139 159.432H426.772ZM426.318 157.828C426.723 157.828 427.001 158.018 427.091 158.34C427.186 158.678 427.01 158.852 426.599 158.852H425.629L425.342 157.828H426.318ZM425.831 156.265C426.253 156.265 426.5 156.46 426.583 156.756C426.677 157.094 426.477 157.242 426.104 157.242H425.178L424.905 156.265H425.831ZM428.773 157.553C429.097 158.709 430.131 159.506 431.266 159.506C432.231 159.506 432.821 158.952 432.731 158.06H432.023C432.039 158.588 431.681 158.894 431.095 158.894C430.316 158.894 429.701 158.361 429.475 157.553C429.249 156.745 429.567 156.217 430.346 156.217C430.932 156.217 431.462 156.524 431.741 157.052H432.448C432.04 156.159 431.139 155.605 430.174 155.605C429.04 155.605 428.451 156.402 428.773 157.553Z" fill="#667379"/>
<path d="M428.599 148.279L428.209 146.883H420.476L424.041 142.876C425.433 141.317 425.904 139.921 425.377 138.039C424.658 135.469 422.499 133.607 419.367 133.607C416.384 133.607 415.166 135.489 415.942 138.262C416.004 138.484 416.108 138.707 416.108 138.707H417.663C417.663 138.707 417.57 138.525 417.508 138.302C416.97 136.38 417.54 134.963 419.747 134.963C421.785 134.963 423.292 136.218 423.818 138.1C424.232 139.577 423.745 140.69 422.841 141.742L418.351 147.024L418.702 148.279H428.599Z" fill="#33444D"/>
<path d="M437.499 209.711C437.619 210.138 437.463 210.402 437.035 210.402C436.629 210.402 436.317 210.149 436.209 209.763C436.167 209.61 436.158 209.521 436.158 209.521H435.489C435.489 209.521 435.499 209.616 435.541 209.763C435.753 210.524 436.405 210.972 437.194 210.972C438.006 210.972 438.374 210.466 438.157 209.69L437.448 207.156H436.784L437.499 209.711ZM443.485 210.904L441.26 208.713L442.359 207.156H441.488C440.454 208.75 440.219 209.067 440.219 209.067L439.684 207.156H439.021L440.07 210.904H440.733L440.445 209.874L440.934 209.193L442.657 210.904H443.485ZM446.901 210.312H445.097L444.214 207.156H443.551L444.599 210.904H447.066L446.901 210.312Z" fill="#667379"/>
<path d="M431.765 193.618H433.152C433.242 192.89 434.001 191.696 435.808 191.696C437.973 191.696 439.645 193.092 440.2 195.076C440.806 197.241 439.805 198.698 437.788 198.698C435.603 198.698 434.209 197.322 433.576 195.885H432C432.964 198.354 435.246 200.054 438.167 200.054C441.109 200.054 442.53 197.848 441.755 195.076C441.047 192.546 438.718 190.381 435.692 190.381C433.738 190.381 432.987 191.453 432.911 191.554L432.247 186.779H438.74L438.349 185.382H430.658L431.765 193.618Z" fill="#33444D"/>
<path d="M451.358 258.627H448.436L448.606 259.234H449.735L450.614 262.375H451.278L450.399 259.234H451.528L451.358 258.627ZM455.219 262.454C456.107 262.454 456.69 261.932 456.382 260.834L455.765 258.627H455.102L455.726 260.86C455.893 261.456 455.695 261.863 455.053 261.863C454.412 261.863 453.986 261.456 453.819 260.86L453.194 258.627H452.531L453.148 260.834C453.455 261.932 454.325 262.454 455.219 262.454ZM459.905 258.627L459.609 261.53H459.599L457.684 258.627H456.933L459.484 262.375H460.175L460.634 258.627H459.905Z" fill="#667379"/>
<path d="M452.546 251.525C455.909 251.525 457.038 249.704 456.387 247.377C455.968 245.879 454.705 244.442 452.905 243.795C454.132 243.147 454.446 241.791 454.078 240.476C453.484 238.351 451.362 236.55 448.357 236.55C445.352 236.55 444.259 238.351 444.848 240.456C445.221 241.791 446.273 243.147 447.841 243.795C446.404 244.442 445.945 245.879 446.364 247.377C447.015 249.704 449.184 251.525 452.546 251.525ZM450.582 244.503C452.683 244.503 454.334 245.596 454.815 247.316C455.279 248.975 454.511 250.21 452.178 250.21C449.846 250.21 448.387 248.975 447.923 247.316C447.441 245.596 448.481 244.503 450.582 244.503ZM450.214 243.188C448.176 243.188 446.76 242.034 446.324 240.476C445.911 238.999 446.645 237.865 448.725 237.865C450.805 237.865 452.179 239.019 452.592 240.496C453.022 242.034 452.231 243.188 450.214 243.188Z" fill="#33444D"/>
<path d="M466.947 302.996C470.288 302.996 471.343 300.082 470.063 295.509C468.784 290.935 466.098 288.021 462.757 288.021C459.395 288.021 458.361 290.935 459.64 295.509C460.92 300.082 463.584 302.996 466.947 302.996ZM463.142 289.397C465.369 289.397 467.349 291.441 468.487 295.509C469.631 299.597 468.789 301.62 466.562 301.62C464.334 301.62 462.36 299.597 461.216 295.509C460.079 291.441 460.915 289.397 463.142 289.397Z" fill="#33444D"/>
<path d="M484.133 159.432C485.476 159.432 486.006 158.662 485.697 157.558C485.389 156.455 484.428 155.684 483.085 155.684H481.763L482.812 159.432H484.133ZM484.996 157.558C485.213 158.334 484.905 158.841 483.946 158.841H483.31L482.592 156.276H483.228C484.187 156.276 484.779 156.782 484.996 157.558ZM490.217 158.841H488.145L487.861 157.828H489.84L489.675 157.236H487.696L487.427 156.276H489.499L489.334 155.684H486.598L487.647 159.432H490.382L490.217 158.841ZM492.508 159.432L492.059 157.828H493.846L493.68 157.236H491.893L491.625 156.276H493.505L493.339 155.684H490.796L491.844 159.432H492.508Z" fill="#667379"/>
<path d="M481.945 141.581H483.311C485.475 141.581 487.111 142.471 487.609 144.252C488.17 146.255 487.06 147.247 485.064 147.247C482.9 147.247 481.406 145.891 480.747 144.211H479.192C480.143 146.781 482.37 148.582 485.438 148.582C488.569 148.582 489.887 146.761 489.185 144.252C488.755 142.714 487.588 141.398 485.55 140.872C487.094 140.306 487.493 139.031 487.103 137.634C486.44 135.267 484.232 133.607 481.206 133.607C478.453 133.607 477.219 135.429 477.673 137.655H479.207C478.954 136.299 479.505 134.963 481.564 134.963C483.75 134.963 485.127 136.056 485.586 137.695C485.976 139.091 485.191 140.265 482.838 140.265H481.577L481.945 141.581Z" fill="#33444D"/>
<path d="M495.533 207.156H494.924L495.973 210.904H496.625L495.859 208.164L497.443 209.631H497.464L498.232 208.164L498.999 210.904H499.651L498.603 207.156H497.994L497.195 208.708L495.533 207.156ZM501.183 208.211L503.822 210.904H504.502L503.453 207.156H502.801L503.556 209.853L500.91 207.156H500.236L501.284 210.904H501.937L501.183 208.211ZM506.099 209.03C505.873 208.222 506.272 207.689 507.034 207.689C507.796 207.689 508.493 208.222 508.719 209.03C508.945 209.837 508.546 210.371 507.784 210.371C507.022 210.371 506.325 209.837 506.099 209.03ZM505.397 209.03C505.708 210.144 506.771 210.983 507.955 210.983C509.139 210.983 509.732 210.144 509.421 209.03C509.109 207.916 508.046 207.076 506.862 207.076C505.678 207.076 505.085 207.916 505.397 209.03Z" fill="#667379"/>
<path d="M499.943 200.054C502.969 200.054 504.426 197.828 503.696 195.217C502.971 192.627 500.463 190.421 497.479 190.421C495.966 190.421 495.175 191.048 494.785 191.534C495.247 189.126 496.832 186.981 498.423 185.382H496.385C494.377 187.669 492.327 191.008 493.448 195.015C494.229 197.807 496.77 200.054 499.943 200.054ZM502.099 195.217C502.688 197.322 501.607 198.718 499.569 198.718C497.51 198.718 495.669 197.322 495.08 195.217C494.492 193.113 495.545 191.696 497.605 191.696C499.643 191.696 501.51 193.113 502.099 195.217Z" fill="#33444D"/>
<path d="M509.962 259.53H509.973L511.641 262.375H512.353L512.516 258.627H511.787L511.761 261.472H511.75L510.088 258.627H509.359L509.289 261.472H509.278L507.665 258.627H506.914L509.174 262.375H509.887L509.962 259.53ZM515.547 259.957L514.149 258.627H513.316L515.295 260.469L514.31 262.375H515.149L515.833 260.981L517.292 262.375H518.131L516.079 260.469L517.011 258.627H516.194L515.547 259.957ZM520.511 258.627L519.999 260.401H519.988L518.483 258.627H517.715L519.849 261.061L520.217 262.375H520.88L520.512 261.061L521.284 258.627H520.511ZM525.29 258.627H522.204L522.37 259.218H524.59L523.074 261.815L523.231 262.375H526.361L526.196 261.784H523.932L525.447 259.186L525.29 258.627Z" fill="#667379"/>
<path d="M509.922 236.55C506.875 236.55 505.439 238.776 506.169 241.387C506.894 243.977 509.387 246.203 512.371 246.203C513.884 246.203 514.654 245.576 515.064 245.09C514.582 247.498 513.039 249.643 511.442 251.222H513.46C515.489 248.935 517.544 245.616 516.417 241.589C515.636 238.796 513.074 236.55 509.922 236.55ZM507.766 241.387C507.183 239.302 508.237 237.886 510.296 237.886C512.334 237.886 514.202 239.302 514.785 241.387C515.373 243.491 514.304 244.928 512.266 244.928C510.207 244.928 508.355 243.491 507.766 241.387Z" fill="#33444D"/>
<path d="M531.302 292.696H529.032L528.776 288.325H527.494L527.751 292.696H524.977L524.72 288.325H523.418L523.695 292.696H521.383L521.444 293.89H523.756L523.958 297.168H521.668L521.75 298.362H524.019L524.285 302.693H525.588L525.301 298.362H528.075L528.362 302.693H529.644L529.378 298.362H531.668L531.586 297.168H529.317L529.093 293.89H531.384L531.302 292.696ZM525.038 293.89H527.811L528.014 297.168H525.24L525.038 293.89Z" fill="#33444D"/>
<path d="M328.635 77.4234L329.559 80.729H326.08L326.365 81.7461H329.844L330.765 85.0368H331.836L330.916 81.7461H334.379L334.095 80.729H330.631L329.706 77.4234H328.635ZM343.513 84.0795H340.919L338.216 74.417H337.33L334.685 74.7311L334.894 75.479H337.379L339.785 84.0795H337.176L337.444 85.0368H343.781L343.513 84.0795ZM350.197 80.6692C349.498 78.1713 349.43 75.9277 350.082 73.8187H348.964C348.301 75.6136 348.34 78.0816 349.063 80.6692C349.787 83.2568 351.13 85.7248 352.797 87.5197H353.916C352.087 85.4257 350.896 83.1671 350.197 80.6692ZM353.653 80.5047H354.678C354.744 79.9662 355.305 79.0837 356.641 79.0837C358.241 79.0837 359.477 80.1158 359.887 81.5816C360.335 83.1821 359.595 84.259 358.104 84.259C356.489 84.259 355.459 83.2419 354.991 82.1799H353.826C354.539 84.0047 356.226 85.2611 358.385 85.2611C360.559 85.2611 361.61 83.6308 361.036 81.5816C360.513 79.7119 358.792 78.1115 356.555 78.1115C355.111 78.1115 354.556 78.9042 354.499 78.979L354.009 75.449H358.808L358.519 74.417H352.835L353.653 80.5047ZM362.693 80.5047H363.718C363.784 79.9662 364.345 79.0837 365.681 79.0837C367.281 79.0837 368.517 80.1158 368.927 81.5816C369.375 83.1821 368.635 84.259 367.144 84.259C365.529 84.259 364.499 83.2419 364.031 82.1799H362.866C363.579 84.0047 365.266 85.2611 367.425 85.2611C369.599 85.2611 370.65 83.6308 370.076 81.5816C369.553 79.7119 367.832 78.1115 365.595 78.1115C364.151 78.1115 363.596 78.9042 363.539 78.979L363.049 75.449H367.848L367.559 74.417H361.875L362.693 80.5047ZM371.733 80.5047H372.758C372.825 79.9662 373.385 79.0837 374.721 79.0837C376.321 79.0837 377.557 80.1158 377.967 81.5816C378.415 83.1821 377.675 84.259 376.184 84.259C374.569 84.259 373.539 83.2419 373.071 82.1799H371.906C372.619 84.0047 374.306 85.2611 376.465 85.2611C378.639 85.2611 379.69 83.6308 379.116 81.5816C378.593 79.7119 376.872 78.1115 374.635 78.1115C373.191 78.1115 372.636 78.9042 372.579 78.979L372.089 75.449H376.888L376.599 74.417H370.915L371.733 80.5047ZM382.046 80.6692C382.744 83.1671 382.802 85.4257 382.145 87.5197H383.263C383.926 85.7248 383.903 83.2568 383.179 80.6692C382.456 78.0816 381.097 75.6136 379.43 73.8187H378.312C380.144 75.9277 381.347 78.1713 382.046 80.6692ZM397.541 84.0795H394.947L392.243 74.417H391.358L388.712 74.7311L388.922 75.479H391.407L393.813 84.0795H391.204L391.471 85.0368H397.808L397.541 84.0795ZM407.05 85.0368L406.762 84.0047H401.046L403.681 81.0431C404.71 79.8914 405.058 78.8593 404.669 77.4683C404.137 75.5687 402.541 74.1926 400.227 74.1926C398.021 74.1926 397.121 75.5837 397.694 77.6328C397.741 77.7974 397.818 77.9619 397.818 77.9619H398.967C398.967 77.9619 398.898 77.8273 398.852 77.6627C398.455 76.2418 398.876 75.1948 400.507 75.1948C402.014 75.1948 403.127 76.1221 403.516 77.5132C403.822 78.6051 403.462 79.4277 402.794 80.2055L399.475 84.1094L399.735 85.0368H407.05ZM409.937 80.0859H410.946C412.546 80.0859 413.755 80.744 414.124 82.0602C414.538 83.541 413.718 84.274 412.242 84.274C410.643 84.274 409.539 83.2718 409.052 82.0303H407.903C408.605 83.9299 410.251 85.2611 412.519 85.2611C414.833 85.2611 415.808 83.915 415.289 82.0602C414.971 80.9235 414.108 79.9512 412.602 79.5623C413.743 79.1435 414.038 78.2012 413.749 77.1692C413.26 75.4191 411.628 74.1926 409.391 74.1926C407.356 74.1926 406.444 75.5388 406.78 77.1841H407.914C407.726 76.182 408.134 75.1948 409.656 75.1948C411.271 75.1948 412.289 76.0025 412.628 77.214C412.917 78.2461 412.336 79.1136 410.597 79.1136H409.665L409.937 80.0859ZM425.257 80.729H420.473L420.754 81.7312H425.538L425.257 80.729ZM438.888 84.0795H436.294L433.591 74.417H432.706L430.06 74.7311L430.269 75.479H432.754L435.16 84.0795H432.551L432.819 85.0368H439.156L438.888 84.0795ZM448.398 85.0368L448.109 84.0047H442.393L445.028 81.0431C446.057 79.8914 446.405 78.8593 446.016 77.4683C445.485 75.5687 443.888 74.1926 441.574 74.1926C439.369 74.1926 438.469 75.5837 439.042 77.6328C439.088 77.7974 439.165 77.9619 439.165 77.9619H440.314C440.314 77.9619 440.246 77.8273 440.2 77.6627C439.802 76.2418 440.224 75.1948 441.854 75.1948C443.361 75.1948 444.475 76.1221 444.864 77.5132C445.169 78.6051 444.809 79.4277 444.142 80.2055L440.823 84.1094L441.082 85.0368H448.398ZM451.284 80.0859H452.294C453.894 80.0859 455.103 80.744 455.471 82.0602C455.885 83.541 455.065 84.274 453.59 84.274C451.99 84.274 450.887 83.2718 450.399 82.0303H449.25C449.952 83.9299 451.598 85.2611 453.866 85.2611C456.18 85.2611 457.155 83.915 456.636 82.0602C456.318 80.9235 455.456 79.9512 453.949 79.5623C455.09 79.1435 455.386 78.2012 455.097 77.1692C454.607 75.4191 452.975 74.1926 450.738 74.1926C448.704 74.1926 447.791 75.5388 448.127 77.1841H449.261C449.074 76.182 449.481 75.1948 451.003 75.1948C452.618 75.1948 453.637 76.0025 453.976 77.214C454.264 78.2461 453.684 79.1136 451.944 79.1136H451.012L451.284 80.0859ZM465.769 81.447H464.34L462.373 74.417H461.161L457.716 81.4769L457.984 82.4342H463.513L464.241 85.0368H465.344L464.616 82.4342H466.045L465.769 81.447ZM461.697 75.9426L463.237 81.447H458.997L461.681 75.9426H461.697Z" fill="#33444D"/>
<path d="M474.64 75.732C474.752 75.541 474.965 75.4306 475.223 75.4306H481.21C481.692 75.4306 482.188 75.8088 482.318 76.2753L483.815 81.6248C483.945 82.0913 483.661 82.4694 483.179 82.4694H477.192C476.935 82.4694 476.659 82.3591 476.44 82.1681L473.373 79.4933C473.013 79.1792 472.884 78.7209 473.069 78.4068L474.64 75.732Z" fill="#667379"/>
<path d="M480.29 77.1903L477.62 80.7097M476.636 77.1903L481.275 80.7097" stroke="white" stroke-width="0.610084" stroke-linecap="round"/>
<path d="M386.916 104.085L387.006 103.241H389.04L389.602 104.085H390.446L387.457 99.7121H386.632L386.097 104.085H386.916ZM387.3 100.636L388.594 102.564H387.072L387.287 100.636H387.3ZM392.523 104.085C394.089 104.085 394.708 103.186 394.347 101.898C393.987 100.611 392.866 99.7121 391.299 99.7121H389.758L390.981 104.085H392.523ZM393.529 101.898C393.782 102.804 393.423 103.395 392.304 103.395H391.562L390.725 100.402H391.467C392.586 100.402 393.276 100.993 393.529 101.898ZM397.332 104.085C398.898 104.085 399.517 103.186 399.157 101.898C398.796 100.611 397.675 99.7121 396.108 99.7121H394.567L395.79 104.085H397.332ZM398.338 101.898C398.591 102.804 398.232 103.395 397.113 103.395H396.371L395.534 100.402H396.276C397.395 100.402 398.085 100.993 398.338 101.898ZM403.947 99.7121H400.538L400.737 100.42H402.054L403.079 104.085H403.853L402.828 100.42H404.145L403.947 99.7121ZM405.497 101.898C405.233 100.956 405.699 100.334 406.588 100.334C407.477 100.334 408.29 100.956 408.554 101.898C408.818 102.841 408.352 103.463 407.463 103.463C406.574 103.463 405.761 102.841 405.497 101.898ZM404.678 101.898C405.042 103.198 406.282 104.177 407.663 104.177C409.045 104.177 409.736 103.198 409.373 101.898C409.009 100.599 407.769 99.6197 406.388 99.6197C405.007 99.6197 404.315 100.599 404.678 101.898ZM411.609 101.892C411.987 103.241 413.193 104.171 414.517 104.171C415.643 104.171 416.332 103.524 416.226 102.484H415.401C415.42 103.099 415.002 103.457 414.317 103.457C413.409 103.457 412.692 102.835 412.428 101.892C412.164 100.95 412.536 100.334 413.444 100.334C414.128 100.334 414.746 100.691 415.072 101.307H415.897C415.42 100.266 414.37 99.6197 413.244 99.6197C411.92 99.6197 411.234 100.55 411.609 101.892ZM417.345 101.898C417.081 100.956 417.547 100.334 418.436 100.334C419.325 100.334 420.138 100.956 420.402 101.898C420.666 102.841 420.2 103.463 419.311 103.463C418.422 103.463 417.609 102.841 417.345 101.898ZM416.526 101.898C416.89 103.198 418.13 104.177 419.511 104.177C420.892 104.177 421.584 103.198 421.221 101.898C420.857 100.599 419.617 99.6197 418.236 99.6197C416.854 99.6197 416.163 100.599 416.526 101.898ZM422.541 100.944L425.62 104.085H426.413L425.189 99.7121H424.428L425.309 102.859L422.222 99.7121H421.435L422.659 104.085H423.42L422.541 100.944ZM429.173 99.7121H425.764L425.962 100.42H427.28L428.305 104.085H429.079L428.054 100.42H429.371L429.173 99.7121ZM430.834 104.085L430.925 103.241H432.958L433.521 104.085H434.365L431.376 99.7121H430.551L430.016 104.085H430.834ZM431.219 100.636L432.513 102.564H430.991L431.206 100.636H431.219ZM433.893 101.892C434.271 103.241 435.478 104.171 436.801 104.171C437.927 104.171 438.616 103.524 438.51 102.484H437.685C437.704 103.099 437.286 103.457 436.602 103.457C435.693 103.457 434.976 102.835 434.712 101.892C434.448 100.95 434.82 100.334 435.728 100.334C436.412 100.334 437.03 100.691 437.356 101.307H438.181C437.704 100.266 436.654 99.6197 435.528 99.6197C434.204 99.6197 433.518 100.55 433.893 101.892ZM441.214 99.7121H437.806L438.004 100.42H439.321L440.347 104.085H441.12L440.095 100.42H441.413L441.214 99.7121ZM444.314 103.5C443.7 103.5 443.286 103.186 443.123 102.718H442.355C442.581 103.432 443.254 104.171 444.463 104.171C445.55 104.171 446.122 103.654 445.9 102.859C445.41 101.11 443.061 101.855 442.792 100.895C442.683 100.507 442.949 100.291 443.48 100.291C444.062 100.291 444.459 100.636 444.586 101.067H445.347C445.099 100.248 444.36 99.6197 443.292 99.6197C442.282 99.6197 441.835 100.217 442.029 100.913C442.519 102.662 444.824 101.825 445.122 102.89C445.232 103.284 444.934 103.5 444.314 103.5Z" fill="#33444D"/>
<circle opacity="0.2" r="3.42614" transform="matrix(1 0 0.269424 0.963022 378.75 102.046)" fill="#33444D"/>
<path d="M378.547 100.506H378.091L378.46 101.826H377.089L377.213 102.266H378.583L378.952 103.586H379.409L379.04 102.266H380.41L380.287 101.826H378.917L378.547 100.506Z" fill="#33444D"/>
<rect width="201" height="42.9409" transform="matrix(1 0 0.269424 0.963022 287.045 20)" fill="#33434C"/>
<path d="M482.855 49.2288L480.445 47.7879C480.414 47.4013 480.343 47.0089 480.234 46.6155C480.122 46.2221 479.973 45.8296 479.787 45.4431L481.392 44.0028C481.439 43.9607 481.463 43.8996 481.458 43.8311C481.453 43.7626 481.421 43.6914 481.367 43.631L479.045 41.0206C478.992 40.9602 478.92 40.9147 478.844 40.8925C478.768 40.8703 478.693 40.8731 478.633 40.9002L476.568 41.8307C475.795 41.3165 474.958 40.9176 474.1 40.6543L473.126 38.2875C473.097 38.2183 473.044 38.1547 472.976 38.1086C472.908 38.0624 472.83 38.037 472.756 38.037H469.572C469.499 38.037 469.435 38.0624 469.393 38.1086C469.35 38.1547 469.333 38.2183 469.343 38.2875L469.693 40.6543C468.982 40.9173 468.368 41.316 467.882 41.8301L465.297 40.8996C465.222 40.8725 465.145 40.8698 465.082 40.8919C465.018 40.9141 464.972 40.9596 464.952 41.02L464.09 43.6319C464.07 43.6923 464.078 43.7635 464.111 43.832C464.145 43.9004 464.203 43.9615 464.273 44.0036L466.685 45.4431C466.747 46.2178 466.969 47.0132 467.341 47.7879L465.735 49.2283C465.688 49.2704 465.665 49.3314 465.669 49.3999C465.674 49.4684 465.706 49.5396 465.76 49.6L468.082 52.2113C468.136 52.2717 468.207 52.3172 468.283 52.3394C468.359 52.3615 468.434 52.3588 468.495 52.3317L470.559 51.4012C471.333 51.9154 472.17 52.314 473.028 52.5767L474.002 54.9436C474.031 55.0127 474.084 55.0763 474.152 55.1225C474.22 55.1686 474.298 55.194 474.372 55.1941H477.556C477.63 55.194 477.694 55.1686 477.736 55.1225C477.778 55.0763 477.796 55.0127 477.786 54.9436L477.436 52.5767C478.146 52.3138 478.76 51.915 479.246 51.4009L481.831 52.3314C481.907 52.3585 481.983 52.3613 482.047 52.3391C482.11 52.3169 482.156 52.2714 482.176 52.211L483.037 49.5997C483.057 49.5395 483.05 49.4686 483.016 49.4003C482.983 49.332 482.926 49.271 482.855 49.2288ZM474.444 49.761C473.787 49.761 473.094 49.5765 472.451 49.2309C471.808 48.8852 471.245 48.394 470.833 47.8192C470.421 47.2445 470.178 46.612 470.135 46.0019C470.093 45.3917 470.252 44.8312 470.594 44.3913C470.935 43.9514 471.443 43.6518 472.053 43.5305C472.663 43.4091 473.349 43.4714 474.022 43.7095C474.695 43.9475 475.327 44.3507 475.837 44.868C476.346 45.3853 476.711 45.9934 476.885 46.6155C477.119 47.4497 476.992 48.2498 476.535 48.8397C476.077 49.4296 475.325 49.761 474.444 49.761Z" fill="white"/>
<circle r="15.9886" transform="matrix(1 0 0.269424 0.963022 478.499 345.105)" fill="#F92120"/>
<path d="M481.541 346.834L480.716 348.329C478.485 347.239 476.447 345.694 474.795 343.84L476.015 342.642C476.158 342.501 476.232 342.307 476.227 342.088C476.221 341.87 476.135 341.64 475.983 341.435L473.706 338.361C473.542 338.141 473.313 337.962 473.058 337.857C472.803 337.753 472.539 337.728 472.314 337.789L469.804 338.463C469.57 338.526 469.393 338.676 469.307 338.885C469.221 339.093 469.231 339.345 469.336 339.593C470.718 342.84 473.119 345.851 476.175 348.169C479.231 350.488 482.777 351.988 486.276 352.444C486.543 352.479 486.789 352.421 486.966 352.282C487.144 352.142 487.241 351.931 487.238 351.689L487.211 349.091C487.209 348.857 487.114 348.61 486.945 348.393C486.775 348.176 486.542 348.003 486.286 347.904L482.713 346.54C482.474 346.448 482.229 346.428 482.017 346.481C481.805 346.534 481.638 346.658 481.541 346.834Z" fill="#FBFCFD"/>
<circle opacity="0.4" r="7.99432" transform="matrix(1 0 0.269424 0.963022 417.322 380.519)" stroke="#9DA6AB" stroke-width="0.456818"/>
<path d="M416.132 375.726L418.575 378.427L421.964 379.138L420.484 381.519L421.646 384.66L418.287 383.43L415.617 384.66L415.021 381.519L412.209 379.138L415.199 378.427L416.132 375.726Z" fill="#9DA6AB"/>
<path d="M412.461 394.662C412.233 393.849 411.458 393.237 410.594 393.237C409.73 393.237 409.297 393.849 409.525 394.662C409.752 395.475 410.528 396.087 411.392 396.087C411.612 396.087 411.804 396.045 411.964 395.975L412.515 396.515H413.075L412.279 395.74C412.511 395.486 412.584 395.101 412.461 394.662ZM411.949 394.662C412.113 395.247 411.827 395.64 411.267 395.64C410.711 395.64 410.201 395.247 410.037 394.662C409.872 394.072 410.163 393.683 410.719 393.683C411.279 393.683 411.784 394.072 411.949 394.662ZM414.528 396.087C415.176 396.087 415.602 395.706 415.378 394.904L414.927 393.294H414.443L414.899 394.924C415.021 395.359 414.876 395.656 414.408 395.656C413.94 395.656 413.629 395.359 413.507 394.924L413.051 393.294H412.567L413.018 394.904C413.242 395.706 413.876 396.087 414.528 396.087ZM416.056 393.294H415.572L416.337 396.029H416.821L416.056 393.294ZM416.953 394.658C417.189 395.502 417.944 396.083 418.772 396.083C419.476 396.083 419.907 395.679 419.841 395.028H419.325C419.337 395.413 419.075 395.636 418.647 395.636C418.079 395.636 417.63 395.247 417.465 394.658C417.3 394.069 417.533 393.683 418.101 393.683C418.529 393.683 418.915 393.907 419.119 394.292H419.635C419.337 393.641 418.68 393.237 417.976 393.237C417.148 393.237 416.718 393.818 416.953 394.658ZM423.102 396.029L421.479 394.431L422.281 393.294H421.645C420.891 394.458 420.719 394.689 420.719 394.689L420.329 393.294H419.845L420.61 396.029H421.094L420.884 395.278L421.241 394.781L422.498 396.029H423.102ZM425.398 396.029C426.378 396.029 426.765 395.467 426.54 394.662C426.315 393.857 425.613 393.294 424.633 393.294H423.669L424.434 396.029H425.398ZM426.028 394.662C426.186 395.228 425.962 395.598 425.262 395.598H424.798L424.274 393.726H424.738C425.438 393.726 425.869 394.096 426.028 394.662ZM427.161 393.294H426.677L427.442 396.029H427.926L427.161 393.294ZM428.775 396.029L428.831 395.502H430.103L430.455 396.029H430.983L429.113 393.294H428.597L428.263 396.029H428.775ZM429.015 393.872L429.824 395.078H428.872L429.007 393.872H429.015ZM432.997 395.598H431.681L431.036 393.294H430.552L431.317 396.029H433.117L432.997 395.598Z" fill="#9DA6AB"/>
<path d="M451.566 393.294H451.082L451.399 394.427H450.051L449.734 393.294H449.25L450.016 396.029H450.5L450.172 394.858H451.52L451.848 396.029H452.332L451.566 393.294ZM452.723 393.294H452.239L453.004 396.029H453.488L452.723 393.294ZM454.97 395.663C454.586 395.663 454.327 395.467 454.225 395.174H453.745C453.886 395.621 454.307 396.083 455.063 396.083C455.743 396.083 456.101 395.76 455.962 395.263C455.656 394.169 454.186 394.635 454.018 394.034C453.95 393.791 454.116 393.656 454.448 393.656C454.812 393.656 455.061 393.872 455.14 394.142H455.616C455.461 393.629 454.999 393.237 454.331 393.237C453.699 393.237 453.419 393.61 453.541 394.045C453.847 395.139 455.289 394.616 455.475 395.282C455.544 395.529 455.358 395.663 454.97 395.663ZM457.758 393.294H455.626L455.75 393.737H456.574L457.215 396.029H457.699L457.058 393.737H457.882L457.758 393.294ZM458.727 394.662C458.562 394.072 458.853 393.683 459.409 393.683C459.965 393.683 460.474 394.072 460.639 394.662C460.804 395.251 460.513 395.64 459.957 395.64C459.401 395.64 458.892 395.251 458.727 394.662ZM458.215 394.662C458.443 395.475 459.218 396.087 460.082 396.087C460.946 396.087 461.379 395.475 461.151 394.662C460.924 393.849 460.148 393.237 459.284 393.237C458.42 393.237 457.988 393.849 458.215 394.662ZM464.331 396.029L463.361 394.893C463.704 394.777 463.803 394.485 463.701 394.123C463.568 393.645 463.161 393.294 462.533 393.294H461.285L462.051 396.029H462.535L462.233 394.951H462.885L463.763 396.029H464.331ZM463.213 394.123C463.279 394.357 463.18 394.519 462.88 394.519H462.112L461.89 393.726H462.658C462.958 393.726 463.147 393.888 463.213 394.123ZM465.547 393.294L465.173 394.589H465.165L464.067 393.294H463.507L465.064 395.07L465.332 396.029H465.816L465.548 395.07L466.111 393.294H465.547Z" fill="#9DA6AB"/>
<circle opacity="0.4" r="7.99432" transform="matrix(1 0 0.269424 0.963022 455.024 380.519)" stroke="#9DA6AB" stroke-width="0.456818"/>
<path d="M456.193 384.698C458.59 384.698 460.009 382.827 459.364 380.519C458.718 378.211 456.251 376.34 453.855 376.34C451.458 376.34 450.038 378.211 450.684 380.519C451.33 382.827 453.796 384.698 456.193 384.698Z" fill="#9DA6AB"/>
<path d="M454.365 378.979L454.98 381.179H457.264" stroke="#FBFCFD" stroke-width="0.913636" stroke-miterlimit="10" stroke-linecap="square" stroke-linejoin="round"/>
<path d="M486.06 396.029L484.437 394.431L485.239 393.294H484.603C483.848 394.458 483.677 394.689 483.677 394.689L483.287 393.294H482.803L483.568 396.029H484.052L483.842 395.278L484.199 394.781L485.456 396.029H486.06ZM488.228 395.598H486.716L486.509 394.858H487.953L487.833 394.427H486.389L486.192 393.726H487.704L487.584 393.294H485.588L486.353 396.029H488.349L488.228 395.598ZM489.791 393.294L489.417 394.589H489.409L488.311 393.294H487.751L489.308 395.07L489.576 396.029H490.06L489.792 395.07L490.355 393.294H489.791ZM491.477 394.519L491.255 393.726H491.951C492.267 393.726 492.456 393.888 492.523 394.126C492.59 394.365 492.489 394.519 492.173 394.519H491.477ZM491.598 394.951H492.29C492.95 394.951 493.141 394.592 493.011 394.126C492.881 393.66 492.502 393.294 491.826 393.294H490.65L491.415 396.029H491.899L491.598 394.951ZM493.896 396.029L493.952 395.502H495.224L495.576 396.029H496.104L494.235 393.294H493.719L493.384 396.029H493.896ZM494.137 393.872L494.946 395.078H493.994L494.129 393.872H494.137ZM497.403 396.029C498.383 396.029 498.769 395.467 498.544 394.662C498.319 393.857 497.618 393.294 496.638 393.294H495.674L496.439 396.029H497.403ZM498.032 394.662C498.191 395.228 497.966 395.598 497.266 395.598H496.802L496.278 393.726H496.742C497.442 393.726 497.874 394.096 498.032 394.662Z" fill="#9DA6AB"/>
<circle opacity="0.4" r="7.99432" transform="matrix(1 0 0.269424 0.963022 488.024 380.519)" stroke="#9DA6AB" stroke-width="0.456818"/>
<path d="M484.501 378.54C485.005 378.54 485.304 378.146 485.168 377.66C485.032 377.174 484.513 376.78 484.008 376.78C483.504 376.78 483.205 377.174 483.341 377.66C483.477 378.146 483.996 378.54 484.501 378.54Z" fill="#9DA6AB"/>
<path d="M485.362 381.619C485.867 381.619 486.166 381.225 486.03 380.739C485.894 380.253 485.375 379.859 484.87 379.859C484.365 379.859 484.067 380.253 484.202 380.739C484.338 381.225 484.858 381.619 485.362 381.619Z" fill="#9DA6AB"/>
<path d="M486.224 384.698C486.728 384.698 487.027 384.305 486.891 383.819C486.755 383.333 486.236 382.939 485.732 382.939C485.227 382.939 484.928 383.333 485.064 383.819C485.2 384.305 485.719 384.698 486.224 384.698Z" fill="#9DA6AB"/>
<path d="M487.698 378.54C488.203 378.54 488.502 378.146 488.366 377.66C488.23 377.174 487.711 376.78 487.206 376.78C486.702 376.78 486.403 377.174 486.539 377.66C486.675 378.146 487.194 378.54 487.698 378.54Z" fill="#9DA6AB"/>
<path d="M488.56 381.619C489.065 381.619 489.363 381.225 489.227 380.739C489.092 380.253 488.572 379.859 488.068 379.859C487.563 379.859 487.264 380.253 487.4 380.739C487.536 381.225 488.055 381.619 488.56 381.619Z" fill="#9DA6AB"/>
<path d="M489.422 384.698C489.926 384.698 490.225 384.305 490.089 383.819C489.953 383.333 489.434 382.939 488.929 382.939C488.425 382.939 488.126 383.333 488.262 383.819C488.398 384.305 488.917 384.698 489.422 384.698Z" fill="#9DA6AB"/>
<path d="M490.896 378.54C491.401 378.54 491.7 378.146 491.564 377.66C491.428 377.174 490.908 376.78 490.404 376.78C489.899 376.78 489.6 377.174 489.736 377.66C489.872 378.146 490.392 378.54 490.896 378.54Z" fill="#9DA6AB"/>
<path d="M491.758 381.619C492.262 381.619 492.561 381.225 492.425 380.739C492.289 380.253 491.77 379.859 491.265 379.859C490.761 379.859 490.462 380.253 490.598 380.739C490.734 381.225 491.253 381.619 491.758 381.619Z" fill="#9DA6AB"/>
<path d="M492.619 384.698C493.124 384.698 493.423 384.305 493.287 383.819C493.151 383.333 492.632 382.939 492.127 382.939C491.622 382.939 491.324 383.333 491.46 383.819C491.595 384.305 492.115 384.698 492.619 384.698Z" fill="#9DA6AB"/>
<circle opacity="0.4" r="7.99432" transform="matrix(1 0 0.269424 0.963022 523.678 380.519)" stroke="#9DA6AB" stroke-width="0.456818"/>
<path d="M516.143 394.658C516.379 395.502 517.134 396.083 517.962 396.083C518.666 396.083 519.097 395.679 519.031 395.028H518.515C518.527 395.413 518.265 395.636 517.837 395.636C517.269 395.636 516.82 395.247 516.655 394.658C516.49 394.069 516.723 393.683 517.291 393.683C517.719 393.683 518.105 393.907 518.309 394.292H518.825C518.527 393.641 517.87 393.237 517.166 393.237C516.338 393.237 515.908 393.818 516.143 394.658ZM519.731 394.662C519.566 394.072 519.857 393.683 520.413 393.683C520.969 393.683 521.478 394.072 521.643 394.662C521.808 395.251 521.516 395.64 520.96 395.64C520.404 395.64 519.896 395.251 519.731 394.662ZM519.219 394.662C519.446 395.475 520.221 396.087 521.085 396.087C521.949 396.087 522.382 395.475 522.155 394.662C521.927 393.849 521.152 393.237 520.288 393.237C519.424 393.237 518.991 393.849 519.219 394.662ZM522.98 394.065L524.906 396.029H525.402L524.637 393.294H524.161L524.712 395.263L522.781 393.294H522.289L523.054 396.029H523.53L522.98 394.065ZM527.128 393.294H524.996L525.12 393.737H525.944L526.586 396.029H527.07L526.428 393.737H527.252L527.128 393.294ZM528.168 396.029L528.224 395.502H529.496L529.848 396.029H530.376L528.506 393.294H527.99L527.656 396.029H528.168ZM528.408 393.872L529.217 395.078H528.265L528.4 393.872H528.408ZM530.081 394.658C530.317 395.502 531.072 396.083 531.9 396.083C532.604 396.083 533.034 395.679 532.968 395.028H532.452C532.464 395.413 532.203 395.636 531.775 395.636C531.207 395.636 530.758 395.247 530.593 394.658C530.428 394.069 530.66 393.683 531.228 393.683C531.656 393.683 532.043 393.907 532.246 394.292H532.762C532.464 393.641 531.807 393.237 531.103 393.237C530.275 393.237 529.846 393.818 530.081 394.658ZM534.66 393.294H532.528L532.652 393.737H533.476L534.117 396.029H534.601L533.96 393.737H534.784L534.66 393.294ZM536.598 395.663C536.214 395.663 535.955 395.467 535.853 395.174H535.373C535.514 395.621 535.936 396.083 536.692 396.083C537.372 396.083 537.729 395.76 537.59 395.263C537.284 394.169 535.814 394.635 535.646 394.034C535.578 393.791 535.745 393.656 536.077 393.656C536.441 393.656 536.689 393.872 536.768 394.142H537.244C537.089 393.629 536.627 393.237 535.959 393.237C535.327 393.237 535.048 393.61 535.169 394.045C535.476 395.139 536.917 394.616 537.103 395.282C537.172 395.529 536.986 395.663 536.598 395.663Z" fill="#9DA6AB"/>
<path d="M520.044 376.78H525.642C526.124 376.78 526.609 377.115 526.724 377.528L528.398 383.511C528.514 383.924 528.217 384.259 527.734 384.259H522.136L520.044 376.78Z" fill="#9DA6AB"/>
<path d="M519.612 376.78H518.749L519.098 378.026H519.961L519.612 376.78Z" fill="#9DA6AB"/>
<path d="M520.193 378.857H519.33L519.679 380.104H520.542L520.193 378.857Z" fill="#9DA6AB"/>
<path d="M520.775 380.935H519.912L520.26 382.181H521.123L520.775 380.935Z" fill="#9DA6AB"/>
<path d="M521.356 383.012H520.493L520.842 384.259H521.704L521.356 383.012Z" fill="#9DA6AB"/>
<path d="M525.569 378.026H521.687L522.035 379.273H525.918L525.569 378.026Z" fill="white"/>
<circle opacity="0.4" r="7.99432" transform="matrix(1 0 0.269424 0.963022 560.949 380.519)" stroke="#9DA6AB" stroke-width="0.456818"/>
<path d="M554.119 393.294H553.675L554.44 396.029H554.916L554.356 394.03L555.512 395.101H555.528L556.088 394.03L556.648 396.029H557.124L556.359 393.294H555.915L555.331 394.427L554.119 393.294ZM559.671 395.598H558.159L557.952 394.858H559.396L559.275 394.427H557.831L557.635 393.726H559.147L559.026 393.294H557.03L557.795 396.029H559.791L559.671 395.598ZM561.148 395.663C560.764 395.663 560.505 395.467 560.403 395.174H559.923C560.064 395.621 560.485 396.083 561.241 396.083C561.921 396.083 562.279 395.76 562.14 395.263C561.834 394.169 560.364 394.635 560.196 394.034C560.128 393.791 560.294 393.656 560.626 393.656C560.99 393.656 561.239 393.872 561.318 394.142H561.794C561.639 393.629 561.177 393.237 560.509 393.237C559.877 393.237 559.597 393.61 559.719 394.045C560.025 395.139 561.467 394.616 561.653 395.282C561.722 395.529 561.536 395.663 561.148 395.663ZM563.589 395.663C563.205 395.663 562.946 395.467 562.844 395.174H562.364C562.505 395.621 562.927 396.083 563.683 396.083C564.363 396.083 564.72 395.76 564.581 395.263C564.275 394.169 562.806 394.635 562.637 394.034C562.57 393.791 562.736 393.656 563.068 393.656C563.432 393.656 563.68 393.872 563.76 394.142H564.236C564.08 393.629 563.618 393.237 562.95 393.237C562.318 393.237 562.039 393.61 562.161 394.045C562.467 395.139 563.908 394.616 564.095 395.282C564.164 395.529 563.977 395.663 563.589 395.663ZM565.46 396.029L565.516 395.502H566.788L567.14 396.029H567.668L565.798 393.294H565.282L564.948 396.029H565.46ZM565.7 393.872L566.509 395.078H565.557L565.692 393.872H565.7ZM569.068 395.629C568.544 395.629 568.05 395.247 567.885 394.658C567.72 394.069 567.98 393.683 568.548 393.683C568.956 393.683 569.356 393.884 569.56 394.242H570.084C569.778 393.618 569.111 393.237 568.423 393.237C567.595 393.237 567.138 393.818 567.373 394.658C567.609 395.502 568.377 396.076 569.189 396.076C570.001 396.076 570.453 395.502 570.217 394.658C570.2 394.596 570.178 394.535 570.178 394.535H568.95L569.069 394.958H569.781C569.818 395.405 569.536 395.629 569.068 395.629ZM572.991 395.598H571.479L571.272 394.858H572.716L572.595 394.427H571.151L570.955 393.726H572.467L572.346 393.294H570.35L571.116 396.029H573.112L572.991 395.598ZM574.468 395.663C574.084 395.663 573.825 395.467 573.723 395.174H573.243C573.384 395.621 573.806 396.083 574.562 396.083C575.242 396.083 575.599 395.76 575.46 395.263C575.154 394.169 573.684 394.635 573.516 394.034C573.448 393.791 573.615 393.656 573.947 393.656C574.311 393.656 574.559 393.872 574.638 394.142H575.114C574.959 393.629 574.497 393.237 573.829 393.237C573.197 393.237 572.918 393.61 573.04 394.045C573.346 395.139 574.787 394.616 574.973 395.282C575.042 395.529 574.856 395.663 574.468 395.663Z" fill="#9DA6AB"/>
<path d="M556.926 380.021C556.426 378.231 557.758 376.78 559.903 376.78C562.047 376.78 564.192 378.231 564.692 380.021C565.193 381.81 563.86 383.261 561.716 383.261C561.444 383.261 561.172 383.237 560.904 383.193L559.148 384.259L558.577 382.219C557.774 381.641 557.164 380.87 556.926 380.021Z" fill="#9DA6AB"/>
<path d="M316.373 45.8115L315.866 43.999H317.455C318.177 43.999 318.609 44.3685 318.762 44.914C318.915 45.4595 318.684 45.8115 317.962 45.8115H316.373ZM316.648 46.7969H318.229C319.736 46.7969 320.174 45.9787 319.877 44.914C319.579 43.8494 318.715 43.0136 317.17 43.0136H314.484L316.232 49.2605H317.338L316.648 46.7969ZM323.166 44.6589C323.166 44.6589 323.054 44.6501 323.008 44.6501C322.186 44.6501 321.892 45.0372 321.8 45.3276L321.623 44.6941H320.618L321.895 49.2605H322.982L322.318 46.8849C322.072 46.0051 322.42 45.6179 323.188 45.6179C323.306 45.6179 323.439 45.6355 323.439 45.6355L323.166 44.6589ZM327.212 49.3661C328.729 49.3661 329.371 48.2663 329.012 46.9817C328.653 45.6971 327.392 44.5885 325.876 44.5885C324.368 44.5885 323.728 45.6971 324.088 46.9817C324.447 48.2663 325.705 49.3661 327.212 49.3661ZM325.175 46.9817C324.926 46.093 325.348 45.5123 326.134 45.5123C326.929 45.5123 327.676 46.093 327.925 46.9817C328.171 47.8615 327.749 48.4422 326.954 48.4422C326.168 48.4422 325.421 47.8615 325.175 46.9817ZM331.986 48.0199L329.758 44.6941H328.606L331.812 49.2605H332.835L333.494 44.6941H332.371L331.986 48.0199ZM334.531 43.9286C334.924 43.9286 335.133 43.6647 335.028 43.2863C334.919 42.8992 334.56 42.6264 334.167 42.6264C333.765 42.6264 333.558 42.8992 333.666 43.2863C333.772 43.6647 334.129 43.9286 334.531 43.9286ZM335.475 49.2605H336.562L335.284 44.6941H334.197L335.475 49.2605ZM340.163 45.2924C339.79 44.9052 339.19 44.5885 338.45 44.5885C337.052 44.5885 336.56 45.6707 336.927 46.9817C337.291 48.2839 338.389 49.3661 339.786 49.3661C340.527 49.3661 341.005 49.0845 341.174 48.6094L341.356 49.2605H342.361L340.515 42.6616H339.427L340.163 45.2924ZM340.682 46.9817C340.911 47.8 340.588 48.4422 339.756 48.4422C338.934 48.4422 338.243 47.8 338.014 46.9817C337.78 46.1458 338.114 45.5123 338.937 45.5123C339.768 45.5123 340.448 46.1458 340.682 46.9817ZM347.497 47.2808C347.497 47.2808 347.461 47.1225 347.415 46.9553C347.04 45.6179 345.83 44.5885 344.423 44.5885C343.016 44.5885 342.361 45.6443 342.733 46.9729C343.114 48.3367 344.334 49.3661 345.768 49.3661C346.874 49.3661 347.535 48.7238 347.564 47.8176H346.468C346.408 48.2223 346.047 48.4686 345.545 48.4686C344.786 48.4686 344.172 48.0023 343.888 47.2808H347.497ZM344.661 45.442C345.365 45.442 345.942 45.8731 346.211 46.5066H343.689C343.624 45.8819 343.958 45.442 344.661 45.442ZM350.325 44.6589C350.325 44.6589 350.213 44.6501 350.167 44.6501C349.345 44.6501 349.051 45.0372 348.959 45.3276L348.782 44.6941H347.777L349.054 49.2605H350.142L349.477 46.8849C349.231 46.0051 349.579 45.6179 350.347 45.6179C350.466 45.6179 350.598 45.6355 350.598 45.6355L350.325 44.6589Z" fill="white"/>
<rect opacity="0.3" width="55.275" height="18.7295" rx="9.36477" transform="matrix(1 0 0.269424 0.963022 302.018 37.597)" stroke="white" stroke-width="0.913636"/>
</g>
<g filter="url(#filter4_d)">
<path d="M519.691 219.055L519.763 218.964C519.874 218.821 519.987 218.68 520.103 218.541L528.277 208.342L529.431 209.025L532.895 211.929L532.825 212.33C533.483 212.275 534.156 212.248 534.843 212.248H596.843C610.098 212.248 623.653 222.619 627.12 235.412L643.334 295.255C643.881 297.276 644.144 299.237 644.147 301.106L648.996 301.316L640.458 312.014L640.447 312.009C637.215 315.98 632.038 318.42 625.61 318.42H563.61C550.355 318.42 536.8 308.048 533.334 295.255L517.12 235.412C515.389 229.027 516.5 223.245 519.694 219.055L519.691 219.055Z" fill="url(#paint4_linear)"/>
</g>
<g filter="url(#filter5_d)">
<rect width="110" height="110" rx="24" transform="matrix(1 0 0.261515 0.965199 519.045 202)" fill="url(#paint5_linear)"/>
</g>
<path d="M545.34 232.888H539.414L575.07 272.574C578.711 276.519 583.605 278.135 587.524 277.718L548.613 234.402C547.746 233.463 546.493 232.891 545.34 232.888Z" fill="#F92120"/>
<path d="M561.005 232.888C562.159 232.891 563.421 233.463 564.288 234.402L588.98 261.892C589.5 262.465 590.37 262.467 590.574 261.892L599.765 236.12H599.767L600.03 235.377L600.396 234.349C600.77 233.442 601.737 232.891 602.866 232.888H608.763L595.754 269.415C598.473 271.982 602.496 271.957 603.678 269.155L616.078 234.318C616.167 234.111 616.286 233.924 616.431 233.757C616.81 233.33 617.46 232.924 618.424 232.889C618.459 232.888 618.495 232.888 618.531 232.888L624.43 232.888L610.313 272.508C609.061 275.937 605.697 277.785 601.88 277.782C598.098 277.779 593.721 275.864 590.721 272.574L555.064 232.888H561.005Z" fill="#F92120"/>
<path d="M589.11 262.007L595.794 269.442L608.809 232.886H602.908C601.778 232.89 600.81 233.441 600.436 234.349L600.069 235.377L599.806 236.12H599.805L590.608 261.91C590.415 262.451 589.635 262.481 589.11 262.007Z" fill="url(#paint6_linear)"/>
<defs>
<filter id="filter0_d" x="-48" y="71.8195" width="506.171" height="591.464" filterUnits="userSpaceOnUse" color-interpolation-filters="sRGB">
<feFlood flood-opacity="0" result="BackgroundImageFix"/>
<feColorMatrix in="SourceAlpha" type="matrix" values="0 0 0 0 0 0 0 0 0 0 0 0 0 0 0 0 0 0 127 0" result="hardAlpha"/>
<feOffset dx="-84" dy="76"/>
<feGaussianBlur stdDeviation="50"/>
<feComposite in2="hardAlpha" operator="out"/>
<feColorMatrix type="matrix" values="0 0 0 0 0 0 0 0 0 0.0666667 0 0 0 0 0.101961 0 0 0 0.11 0"/>
<feBlend mode="normal" in2="BackgroundImageFix" result="effect1_dropShadow"/>
<feBlend mode="normal" in="SourceGraphic" in2="effect1_dropShadow" result="shape"/>
</filter>
<filter id="filter1_d" x="-7.95532" y="22" width="505.412" height="585.365" filterUnits="userSpaceOnUse" color-interpolation-filters="sRGB">
<feFlood flood-opacity="0" result="BackgroundImageFix"/>
<feColorMatrix in="SourceAlpha" type="matrix" values="0 0 0 0 0 0 0 0 0 0 0 0 0 0 0 0 0 0 127 0" result="hardAlpha"/>
<feOffset dx="-49" dy="30"/>
<feGaussianBlur stdDeviation="50"/>
<feComposite in2="hardAlpha" operator="out"/>
<feColorMatrix type="matrix" values="0 0 0 0 0.521569 0 0 0 0 0.545098 0 0 0 0 0.603922 0 0 0 0.23 0"/>
<feBlend mode="normal" in2="BackgroundImageFix" result="effect1_dropShadow"/>
<feBlend mode="normal" in="SourceGraphic" in2="effect1_dropShadow" result="shape"/>
</filter>
<filter id="filter2_d" x="97.8464" y="0.0958252" width="509.435" height="590.388" filterUnits="userSpaceOnUse" color-interpolation-filters="sRGB">
<feFlood flood-opacity="0" result="BackgroundImageFix"/>
<feColorMatrix in="SourceAlpha" type="matrix" values="0 0 0 0 0 0 0 0 0 0 0 0 0 0 0 0 0 0 127 0" result="hardAlpha"/>
<feOffset dx="-84" dy="76"/>
<feGaussianBlur stdDeviation="50"/>
<feComposite in2="hardAlpha" operator="out"/>
<feColorMatrix type="matrix" values="0 0 0 0 0 0 0 0 0 0.0666667 0 0 0 0 0.101961 0 0 0 0.29 0"/>
<feBlend mode="normal" in2="BackgroundImageFix" result="effect1_dropShadow"/>
<feBlend mode="normal" in="SourceGraphic" in2="effect1_dropShadow" result="shape"/>
</filter>
<filter id="filter3_d" x="274.77" y="42.5552" width="260.258" height="82.6032" filterUnits="userSpaceOnUse" color-interpolation-filters="sRGB">
<feFlood flood-opacity="0" result="BackgroundImageFix"/>
<feColorMatrix in="SourceAlpha" type="matrix" values="0 0 0 0 0 0 0 0 0 0 0 0 0 0 0 0 0 0 127 0" result="hardAlpha"/>
<feOffset dy="1.82727"/>
<feGaussianBlur stdDeviation="5.25341"/>
<feComposite in2="hardAlpha" operator="out"/>
<feColorMatrix type="matrix" values="0 0 0 0 0.2 0 0 0 0 0.266667 0 0 0 0 0.301961 0 0 0 0.1 0"/>
<feBlend mode="normal" in2="BackgroundImageFix" result="effect1_dropShadow"/>
<feBlend mode="normal" in="SourceGraphic" in2="effect1_dropShadow" result="shape"/>
</filter>
<filter id="filter4_d" x="416.306" y="208.342" width="248.69" height="237.078" filterUnits="userSpaceOnUse" color-interpolation-filters="sRGB">
<feFlood flood-opacity="0" result="BackgroundImageFix"/>
<feColorMatrix in="SourceAlpha" type="matrix" values="0 0 0 0 0 0 0 0 0 0 0 0 0 0 0 0 0 0 127 0" result="hardAlpha"/>
<feOffset dx="-42" dy="69"/>
<feGaussianBlur stdDeviation="29"/>
<feComposite in2="hardAlpha" operator="out"/>
<feColorMatrix type="matrix" values="0 0 0 0 0 0 0 0 0 0.0823529 0 0 0 0 0.12549 0 0 0 0.1 0"/>
<feBlend mode="normal" in2="BackgroundImageFix" result="effect1_dropShadow"/>
<feBlend mode="normal" in="SourceGraphic" in2="effect1_dropShadow" result="shape"/>
</filter>
<filter id="filter5_d" x="375.508" y="132" width="327.84" height="306.172" filterUnits="userSpaceOnUse" color-interpolation-filters="sRGB">
<feFlood flood-opacity="0" result="BackgroundImageFix"/>
<feColorMatrix in="SourceAlpha" type="matrix" values="0 0 0 0 0 0 0 0 0 0 0 0 0 0 0 0 0 0 127 0" result="hardAlpha"/>
<feOffset dx="-49" dy="30"/>
<feGaussianBlur stdDeviation="50"/>
<feComposite in2="hardAlpha" operator="out"/>
<feColorMatrix type="matrix" values="0 0 0 0 0.521569 0 0 0 0 0.545098 0 0 0 0 0.603922 0 0 0 0.23 0"/>
<feBlend mode="normal" in2="BackgroundImageFix" result="effect1_dropShadow"/>
<feBlend mode="normal" in="SourceGraphic" in2="effect1_dropShadow" result="shape"/>
</filter>
<linearGradient id="paint0_linear" x1="139.797" y1="95.8195" x2="250.271" y2="507.102" gradientUnits="userSpaceOnUse">
<stop stop-color="#031722"/>
<stop offset="1" stop-color="#001520"/>
</linearGradient>
<linearGradient id="paint1_linear" x1="100.748" y1="0" x2="100.748" y2="399.259" gradientUnits="userSpaceOnUse">
<stop stop-color="#33444D"/>
<stop offset="1" stop-color="#33444D"/>
</linearGradient>
<linearGradient id="paint2_linear" x1="317.178" y1="257.524" x2="298.122" y2="296.71" gradientUnits="userSpaceOnUse">
<stop stop-color="#F92120"/>
<stop offset="1" stop-color="#C00100"/>
</linearGradient>
<linearGradient id="paint3_linear" x1="295.903" y1="38.9958" x2="436.564" y2="414.483" gradientUnits="userSpaceOnUse">
<stop stop-color="#E0E2E9"/>
<stop offset="1" stop-color="#C4CACE"/>
</linearGradient>
<linearGradient id="paint4_linear" x1="522.334" y1="212.543" x2="550.373" y2="326.371" gradientUnits="userSpaceOnUse">
<stop stop-color="#E0E2E9"/>
<stop offset="1" stop-color="#C4CACE"/>
</linearGradient>
<linearGradient id="paint5_linear" x1="55" y1="0" x2="55" y2="110" gradientUnits="userSpaceOnUse">
<stop stop-color="#F0F1F4"/>
<stop offset="1" stop-color="#FAFAFC"/>
</linearGradient>
<linearGradient id="paint6_linear" x1="605.699" y1="235.102" x2="591.455" y2="264.394" gradientUnits="userSpaceOnUse">
<stop stop-color="#F92120"/>
<stop offset="1" stop-color="#C00100"/>
</linearGradient>
<clipPath id="clip0">
<rect width="201" height="399.259" rx="12" transform="matrix(1 0 0.261515 0.965199 141.045 92)" fill="white"/>
</clipPath>
<clipPath id="clip1">
<rect width="201" height="399.259" rx="12" transform="matrix(1 0 0.269424 0.963022 287.045 20)" fill="white"/>
</clipPath>
</defs>
</svg>
