<svg width="680" height="403" viewBox="0 0 680 403" fill="none" xmlns="http://www.w3.org/2000/svg">
<g clip-path="url(#clip0)">
<rect width="680" height="403" rx="12" fill="#04202F"/>
<g opacity="0.2" filter="url(#filter0_i)">
<path d="M250.86 403.135H250.861H764.617L764.526 0H-43.6147L169.356 356.072C188.032 387.296 219.417 402.973 250.86 403.135Z" fill="#001520"/>
</g>
<g opacity="0.2" filter="url(#filter1_i)">
<path d="M278.785 358.715H278.785H757.347V0H16.7563L206.261 316.838C222.879 344.622 250.806 358.571 278.785 358.715Z" fill="#001520"/>
</g>
<g opacity="0.2" filter="url(#filter2_i)">
<path d="M307.179 313.549H307.179H771.886V0H78.1426L243.787 276.945C258.312 301.231 282.723 313.423 307.179 313.549Z" fill="#001520"/>
</g>
<path opacity="0.9" d="M267.857 252.956C266.182 252.956 265.293 252.066 265.205 250.74H263.112C263.182 252.764 264.455 254.858 267.752 254.858C270.718 254.858 272.672 253.392 272.672 251.142C272.672 246.187 265.694 248.298 265.694 245.576C265.694 244.477 266.584 243.867 268.032 243.867C269.619 243.867 270.439 244.844 270.457 246.065H272.533C272.48 243.745 270.945 241.965 268.032 241.965C265.275 241.965 263.6 243.657 263.6 245.629C263.6 250.583 270.526 248.211 270.526 251.229C270.526 252.345 269.549 252.956 267.857 252.956ZM275.459 244.041C276.209 244.041 276.75 243.518 276.75 242.768C276.75 242 276.209 241.459 275.459 241.459C274.691 241.459 274.151 242 274.151 242.768C274.151 243.518 274.691 244.041 275.459 244.041ZM274.412 254.613H276.488V245.559H274.412V254.613ZM286.532 249.415C286.532 247.949 287.334 247.129 288.573 247.129C289.829 247.129 290.283 248.019 290.283 249.188V254.613H292.359V248.926C292.359 246.867 291.242 245.35 289.061 245.35C287.666 245.35 286.689 245.908 285.991 246.78C285.485 245.908 284.578 245.35 283.269 245.35C281.821 245.35 280.949 246.048 280.565 246.763V245.559H278.646V254.613H280.722V249.345C280.722 247.967 281.507 247.129 282.746 247.129C283.985 247.129 284.456 248.001 284.456 249.188V254.613H286.532V249.415ZM296.507 253.427C297.013 254.212 298.008 254.823 299.403 254.823C302.09 254.823 303.608 252.677 303.608 250.095C303.608 247.496 302.09 245.35 299.403 245.35C298.008 245.35 296.944 245.925 296.35 246.85V245.559H294.431V258.242H296.507V253.427ZM296.438 250.095C296.438 248.42 297.397 247.147 298.985 247.147C300.555 247.147 301.532 248.42 301.532 250.095C301.532 251.717 300.555 252.991 298.985 252.991C297.397 252.991 296.438 251.717 296.438 250.095ZM307.25 254.613V241.529H305.173V254.613H307.25ZM310.35 258.242H312.408L317.572 245.559H315.409L312.914 252.119L310.454 245.559H308.239L311.885 254.544L310.35 258.242ZM322.277 248.403C322.277 252.223 324.859 254.858 328.47 254.858C331.541 254.858 333.913 253.026 334.419 250.077H332.169C331.75 251.822 330.337 252.834 328.47 252.834C325.993 252.834 324.51 251.072 324.51 248.403C324.51 245.733 325.993 243.989 328.47 243.989C330.337 243.989 331.75 245.001 332.169 246.745H334.419C333.913 243.797 331.541 241.965 328.47 241.965C324.859 241.965 322.277 244.6 322.277 248.403ZM340.094 254.823C342.99 254.823 344.805 252.642 344.805 250.095C344.805 247.548 342.99 245.35 340.094 245.35C337.216 245.35 335.401 247.548 335.401 250.095C335.401 252.642 337.216 254.823 340.094 254.823ZM337.478 250.095C337.478 248.333 338.594 247.181 340.094 247.181C341.612 247.181 342.729 248.333 342.729 250.095C342.729 251.84 341.612 252.991 340.094 252.991C338.594 252.991 337.478 251.84 337.478 250.095ZM354.264 249.415C354.264 247.949 355.067 247.129 356.306 247.129C357.562 247.129 358.015 248.019 358.015 249.188V254.613H360.091V248.926C360.091 246.867 358.975 245.35 356.794 245.35C355.398 245.35 354.421 245.908 353.724 246.78C353.218 245.908 352.311 245.35 351.002 245.35C349.554 245.35 348.682 246.048 348.298 246.763V245.559H346.379V254.613H348.455V249.345C348.455 247.967 349.24 247.129 350.479 247.129C351.717 247.129 352.188 248.001 352.188 249.188V254.613H354.264V249.415ZM370.05 249.415C370.05 247.949 370.852 247.129 372.091 247.129C373.347 247.129 373.8 248.019 373.8 249.188V254.613H375.876V248.926C375.876 246.867 374.76 245.35 372.579 245.35C371.183 245.35 370.207 245.908 369.509 246.78C369.003 245.908 368.096 245.35 366.787 245.35C365.339 245.35 364.467 246.048 364.083 246.763V245.559H362.164V254.613H364.24V249.345C364.24 247.967 365.025 247.129 366.264 247.129C367.502 247.129 367.973 248.001 367.973 249.188V254.613H370.05V249.415ZM381.857 252.991C380.601 252.991 379.938 252.293 379.938 250.88V245.559H377.862V250.775C377.862 253.096 378.926 254.823 381.857 254.823C384.788 254.823 385.852 253.096 385.852 250.775V245.559H383.776V250.88C383.776 252.293 383.113 252.991 381.857 252.991ZM389.844 245.559H387.925V254.613H390.001V249.362C390.001 247.949 390.821 247.129 392.129 247.129C393.368 247.129 393.926 247.949 393.926 249.188V254.613H396.002V248.926C396.002 246.815 394.833 245.35 392.635 245.35C391.152 245.35 390.227 246.048 389.844 246.763V245.559ZM399.134 244.041C399.884 244.041 400.425 243.518 400.425 242.768C400.425 242 399.884 241.459 399.134 241.459C398.367 241.459 397.826 242 397.826 242.768C397.826 243.518 398.367 244.041 399.134 244.041ZM398.087 254.613H400.163V245.559H398.087V254.613ZM401.728 250.095C401.728 252.712 403.578 254.823 406.247 254.823C408.933 254.823 410.294 252.956 410.538 251.334H408.41C408.166 252.311 407.346 252.991 406.229 252.991C404.746 252.991 403.804 251.787 403.804 250.095C403.804 248.385 404.746 247.181 406.229 247.181C407.346 247.181 408.166 247.862 408.41 248.839H410.538C410.294 247.216 408.933 245.35 406.247 245.35C403.578 245.35 401.728 247.461 401.728 250.095ZM418.501 245.576V246.867C417.925 245.925 416.861 245.367 415.448 245.367C412.779 245.367 411.261 247.513 411.261 250.095C411.261 252.677 412.779 254.823 415.448 254.823C416.861 254.823 417.925 254.264 418.501 253.322V254.613H420.42V245.576H418.501ZM413.337 250.095C413.337 248.472 414.314 247.199 415.884 247.199C417.471 247.199 418.431 248.472 418.431 250.095C418.431 251.717 417.471 252.991 415.884 252.991C414.314 252.991 413.337 251.717 413.337 250.095ZM424.987 247.216H426.504V245.559H424.987V243.204H422.91V245.559H421.532V247.216H422.91V254.613H424.987V247.216ZM435.714 250.688C435.714 250.688 435.732 250.374 435.732 250.043C435.732 247.391 433.97 245.35 431.283 245.35C428.596 245.35 426.782 247.443 426.782 250.077C426.782 252.782 428.562 254.823 431.301 254.823C433.411 254.823 435.016 253.549 435.557 251.752H433.464C433.132 252.555 432.312 253.043 431.353 253.043C429.905 253.043 428.98 252.119 428.823 250.688H435.714ZM431.283 247.042C432.626 247.042 433.499 247.897 433.673 249.153H428.858C429.067 247.914 429.94 247.042 431.283 247.042Z" fill="#FEFEFF"/>
<path fill-rule="evenodd" clip-rule="evenodd" d="M371.593 182.263C371.593 173.656 378.892 166.62 387.846 166.62C396.838 166.62 404.18 173.653 404.18 182.263C404.18 190.952 396.838 197.945 387.846 197.945C378.892 197.945 371.593 190.949 371.593 182.263ZM387.846 173.564C383.023 173.564 379.079 177.643 379.079 182.263C379.079 186.927 383.028 191.04 387.846 191.04C392.703 191.04 396.614 186.928 396.614 182.263C396.614 177.642 392.708 173.564 387.846 173.564Z" fill="#FDFDFE"/>
<path fill-rule="evenodd" clip-rule="evenodd" d="M440.267 182.263C440.267 173.656 447.566 166.62 456.521 166.62C465.512 166.62 472.854 173.653 472.854 182.263C472.854 190.952 465.512 197.945 456.521 197.945C447.566 197.945 440.267 190.949 440.267 182.263ZM456.521 173.564C451.697 173.564 447.753 177.643 447.753 182.263C447.753 186.927 451.702 191.04 456.521 191.04C461.377 191.04 465.289 186.928 465.289 182.263C465.289 177.642 461.382 173.564 456.521 173.564Z" fill="#FDFDFE"/>
<path d="M417.8 182.478L405.958 167.409H413.405C414.606 167.409 415.742 167.96 416.483 168.903L422.476 176.529L428.472 168.902C429.214 167.96 430.348 167.409 431.55 167.409H438.999L427.158 182.461L438.725 197.196H431.275C430.072 197.196 428.937 196.644 428.196 195.701L422.48 188.423L416.753 195.703C416.012 196.645 414.877 197.196 413.676 197.196H406.201L417.8 182.478Z" fill="#FDFDFE"/>
<path d="M331.252 167.409H337.847C338.561 167.409 340.071 167.712 341.043 169.16L350.596 184.345L360.105 169.235C360.82 168.099 362.072 167.409 363.417 167.409H369.914L350.596 198.161L331.252 167.409Z" fill="#FDFDFE"/>
<path d="M231.86 155.654H224.978L254.423 203.526C257.371 208.318 262.608 210.385 267.534 209.736L236.475 159.553H236.475L235.193 157.481C234.48 156.348 233.201 155.658 231.86 155.654Z" fill="#F92120"/>
<path d="M250.171 155.654C251.513 155.658 252.802 156.348 253.515 157.481L254.033 158.321L273.914 190.643C274.339 191.333 275.346 191.33 275.766 190.637L294.585 159.553H294.587L295.127 158.657L295.878 157.417C296.6 156.323 297.899 155.658 299.215 155.654H306.081L279.452 199.638C281.661 202.938 286.607 202.858 288.689 199.419L314.146 157.38C314.315 157.13 314.513 156.904 314.734 156.703C315.31 156.188 316.195 155.698 317.328 155.656C317.37 155.655 317.411 155.654 317.453 155.654L324.321 155.654L295.387 203.447C290.236 211.953 277.873 211.996 272.663 203.526L243.218 155.654H250.171Z" fill="#F92120"/>
<path d="M273.981 190.743L279.455 199.647L279.456 199.647C279.454 199.645 279.453 199.643 279.452 199.641L306.081 155.657L299.209 155.657C298.395 155.657 296.88 155.937 295.862 157.438L275.766 190.64C275.367 191.299 274.436 191.334 273.981 190.743Z" fill="url(#paint0_linear)"/>
</g>
<g style="mix-blend-mode:multiply">
<circle cx="340" cy="201.5" r="49" fill="#667379" fill-opacity="0.89"/>
</g>
<path d="M332 187.095C332 185.527 333.722 184.569 335.055 185.396L358.262 199.801C359.523 200.583 359.523 202.417 358.262 203.199L335.055 217.604C333.722 218.431 332 217.473 332 215.905V187.095Z" fill="white"/>
<defs>
<filter id="filter0_i" x="-43.6147" y="-14.5382" width="820.589" height="417.673" filterUnits="userSpaceOnUse" color-interpolation-filters="sRGB">
<feFlood flood-opacity="0" result="BackgroundImageFix"/>
<feBlend mode="normal" in="SourceGraphic" in2="BackgroundImageFix" result="shape"/>
<feColorMatrix in="SourceAlpha" type="matrix" values="0 0 0 0 0 0 0 0 0 0 0 0 0 0 0 0 0 0 127 0" result="hardAlpha"/>
<feOffset dx="12.3574" dy="-14.5382"/>
<feGaussianBlur stdDeviation="18.8996"/>
<feComposite in2="hardAlpha" operator="arithmetic" k2="-1" k3="1"/>
<feColorMatrix type="matrix" values="0 0 0 0 0 0 0 0 0 0 0 0 0 0 0 0 0 0 1 0"/>
<feBlend mode="normal" in2="shape" result="effect1_innerShadow"/>
</filter>
<filter id="filter1_i" x="16.7563" y="-14.5382" width="752.949" height="373.253" filterUnits="userSpaceOnUse" color-interpolation-filters="sRGB">
<feFlood flood-opacity="0" result="BackgroundImageFix"/>
<feBlend mode="normal" in="SourceGraphic" in2="BackgroundImageFix" result="shape"/>
<feColorMatrix in="SourceAlpha" type="matrix" values="0 0 0 0 0 0 0 0 0 0 0 0 0 0 0 0 0 0 127 0" result="hardAlpha"/>
<feOffset dx="12.3574" dy="-14.5382"/>
<feGaussianBlur stdDeviation="18.8996"/>
<feComposite in2="hardAlpha" operator="arithmetic" k2="-1" k3="1"/>
<feColorMatrix type="matrix" values="0 0 0 0 0 0 0 0 0 0 0 0 0 0 0 0 0 0 1 0"/>
<feBlend mode="normal" in2="shape" result="effect1_innerShadow"/>
</filter>
<filter id="filter2_i" x="78.1426" y="-14.5382" width="706.101" height="328.087" filterUnits="userSpaceOnUse" color-interpolation-filters="sRGB">
<feFlood flood-opacity="0" result="BackgroundImageFix"/>
<feBlend mode="normal" in="SourceGraphic" in2="BackgroundImageFix" result="shape"/>
<feColorMatrix in="SourceAlpha" type="matrix" values="0 0 0 0 0 0 0 0 0 0 0 0 0 0 0 0 0 0 127 0" result="hardAlpha"/>
<feOffset dx="12.3574" dy="-14.5382"/>
<feGaussianBlur stdDeviation="18.8996"/>
<feComposite in2="hardAlpha" operator="arithmetic" k2="-1" k3="1"/>
<feColorMatrix type="matrix" values="0 0 0 0 0 0 0 0 0 0 0 0 0 0 0 0 0 0 1 0"/>
<feBlend mode="normal" in2="shape" result="effect1_innerShadow"/>
</filter>
<linearGradient id="paint0_linear" x1="301.764" y1="158.323" x2="279.992" y2="195.91" gradientUnits="userSpaceOnUse">
<stop stop-color="#F92120"/>
<stop offset="1" stop-color="#C00100"/>
</linearGradient>
<clipPath id="clip0">
<rect width="680" height="403" rx="12" fill="white"/>
</clipPath>
</defs>
</svg>
