<svg width="864" height="587" viewBox="0 0 864 587" fill="none" xmlns="http://www.w3.org/2000/svg">
<g filter="url(#filter0_d)">
<g clip-path="url(#clip0)">
<rect x="92" y="88" width="680" height="403" rx="12" fill="#04202F"/>
<g opacity="0.2" filter="url(#filter1_i)">
<path d="M342.86 491.135H342.861H856.617L856.526 88H48.3852L261.356 444.072C280.032 475.297 311.417 490.973 342.86 491.135Z" fill="#001520"/>
</g>
<g opacity="0.2" filter="url(#filter2_i)">
<path d="M370.785 446.715H370.785H849.348V88.0001H108.757L298.261 404.838C314.879 432.622 342.806 446.571 370.785 446.715Z" fill="#001520"/>
</g>
<g opacity="0.2" filter="url(#filter3_i)">
<path d="M399.179 401.549H399.179H863.886V88.0001H170.143L335.787 364.945C350.312 389.231 374.723 401.424 399.179 401.549Z" fill="#001520"/>
</g>
<path opacity="0.9" d="M359.857 340.956C358.183 340.956 357.293 340.066 357.206 338.74H355.112C355.182 340.764 356.455 342.858 359.753 342.858C362.718 342.858 364.672 341.392 364.672 339.142C364.672 334.187 357.694 336.298 357.694 333.576C357.694 332.477 358.584 331.867 360.032 331.867C361.619 331.867 362.439 332.844 362.457 334.065H364.533C364.48 331.745 362.945 329.965 360.032 329.965C357.275 329.965 355.601 331.657 355.601 333.629C355.601 338.583 362.527 336.211 362.527 339.229C362.527 340.345 361.55 340.956 359.857 340.956ZM367.459 332.041C368.209 332.041 368.75 331.518 368.75 330.768C368.75 330 368.209 329.459 367.459 329.459C366.692 329.459 366.151 330 366.151 330.768C366.151 331.518 366.692 332.041 367.459 332.041ZM366.412 342.613H368.489V333.559H366.412V342.613ZM378.532 337.415C378.532 335.949 379.334 335.129 380.573 335.129C381.829 335.129 382.283 336.019 382.283 337.188V342.613H384.359V336.926C384.359 334.867 383.242 333.35 381.062 333.35C379.666 333.35 378.689 333.908 377.991 334.78C377.485 333.908 376.578 333.35 375.27 333.35C373.822 333.35 372.949 334.047 372.566 334.763V333.559H370.646V342.613H372.723V337.345C372.723 335.967 373.508 335.129 374.746 335.129C375.985 335.129 376.456 336.001 376.456 337.188V342.613H378.532V337.415ZM388.508 341.427C389.014 342.212 390.008 342.823 391.404 342.823C394.09 342.823 395.608 340.677 395.608 338.095C395.608 335.495 394.09 333.35 391.404 333.35C390.008 333.35 388.944 333.925 388.351 334.85V333.559H386.432V346.242H388.508V341.427ZM388.438 338.095C388.438 336.42 389.397 335.147 390.985 335.147C392.555 335.147 393.532 336.42 393.532 338.095C393.532 339.717 392.555 340.991 390.985 340.991C389.397 340.991 388.438 339.717 388.438 338.095ZM399.25 342.613V329.529H397.174V342.613H399.25ZM402.35 346.242H404.408L409.572 333.559H407.409L404.914 340.119L402.454 333.559H400.239L403.885 342.544L402.35 346.242ZM414.277 336.403C414.277 340.223 416.859 342.858 420.47 342.858C423.541 342.858 425.914 341.026 426.42 338.077H424.169C423.75 339.822 422.337 340.834 420.47 340.834C417.993 340.834 416.51 339.072 416.51 336.403C416.51 333.733 417.993 331.989 420.47 331.989C422.337 331.989 423.75 333.001 424.169 334.745H426.42C425.914 331.797 423.541 329.965 420.47 329.965C416.859 329.965 414.277 332.599 414.277 336.403ZM432.095 342.823C434.991 342.823 436.805 340.642 436.805 338.095C436.805 335.548 434.991 333.35 432.095 333.35C429.216 333.35 427.402 335.548 427.402 338.095C427.402 340.642 429.216 342.823 432.095 342.823ZM429.478 338.095C429.478 336.333 430.594 335.181 432.095 335.181C433.612 335.181 434.729 336.333 434.729 338.095C434.729 339.84 433.612 340.991 432.095 340.991C430.594 340.991 429.478 339.84 429.478 338.095ZM446.265 337.415C446.265 335.949 447.067 335.129 448.306 335.129C449.562 335.129 450.015 336.019 450.015 337.188V342.613H452.092V336.926C452.092 334.867 450.975 333.35 448.794 333.35C447.399 333.35 446.422 333.908 445.724 334.78C445.218 333.908 444.311 333.35 443.002 333.35C441.554 333.35 440.682 334.047 440.298 334.763V333.559H438.379V342.613H440.455V337.345C440.455 335.967 441.24 335.129 442.479 335.129C443.718 335.129 444.189 336.001 444.189 337.188V342.613H446.265V337.415ZM462.05 337.415C462.05 335.949 462.852 335.129 464.091 335.129C465.347 335.129 465.801 336.019 465.801 337.188V342.613H467.877V336.926C467.877 334.867 466.76 333.35 464.579 333.35C463.184 333.35 462.207 333.908 461.509 334.78C461.003 333.908 460.096 333.35 458.787 333.35C457.339 333.35 456.467 334.047 456.083 334.763V333.559H454.164V342.613H456.24V337.345C456.24 335.967 457.025 335.129 458.264 335.129C459.503 335.129 459.974 336.001 459.974 337.188V342.613H462.05V337.415ZM473.857 340.991C472.601 340.991 471.938 340.293 471.938 338.88V333.559H469.862V338.775C469.862 341.096 470.926 342.823 473.857 342.823C476.788 342.823 477.852 341.096 477.852 338.775V333.559H475.776V338.88C475.776 340.293 475.113 340.991 473.857 340.991ZM481.844 333.559H479.925V342.613H482.001V337.362C482.001 335.949 482.821 335.129 484.129 335.129C485.368 335.129 485.926 335.949 485.926 337.188V342.613H488.002V336.926C488.002 334.815 486.833 333.35 484.635 333.35C483.152 333.35 482.228 334.047 481.844 334.763V333.559ZM491.134 332.041C491.884 332.041 492.425 331.518 492.425 330.768C492.425 330 491.884 329.459 491.134 329.459C490.367 329.459 489.826 330 489.826 330.768C489.826 331.518 490.367 332.041 491.134 332.041ZM490.088 342.613H492.164V333.559H490.088V342.613ZM493.728 338.095C493.728 340.712 495.578 342.823 498.247 342.823C500.934 342.823 502.294 340.956 502.539 339.334H500.41C500.166 340.311 499.346 340.991 498.229 340.991C496.747 340.991 495.804 339.787 495.804 338.095C495.804 336.385 496.747 335.181 498.229 335.181C499.346 335.181 500.166 335.862 500.41 336.839H502.539C502.294 335.216 500.934 333.35 498.247 333.35C495.578 333.35 493.728 335.461 493.728 338.095ZM510.501 333.576V334.867C509.925 333.925 508.861 333.367 507.448 333.367C504.779 333.367 503.261 335.513 503.261 338.095C503.261 340.677 504.779 342.823 507.448 342.823C508.861 342.823 509.925 342.264 510.501 341.322V342.613H512.42V333.576H510.501ZM505.337 338.095C505.337 336.472 506.314 335.199 507.884 335.199C509.472 335.199 510.431 336.472 510.431 338.095C510.431 339.717 509.472 340.991 507.884 340.991C506.314 340.991 505.337 339.717 505.337 338.095ZM516.987 335.216H518.504V333.559H516.987V331.204H514.911V333.559H513.532V335.216H514.911V342.613H516.987V335.216ZM527.715 338.688C527.715 338.688 527.732 338.374 527.732 338.043C527.732 335.391 525.97 333.35 523.283 333.35C520.597 333.35 518.782 335.443 518.782 338.077C518.782 340.782 520.562 342.823 523.301 342.823C525.412 342.823 527.017 341.549 527.557 339.752H525.464C525.133 340.555 524.313 341.043 523.353 341.043C521.905 341.043 520.98 340.119 520.823 338.688H527.715ZM523.283 335.042C524.627 335.042 525.499 335.897 525.673 337.153H520.858C521.068 335.914 521.94 335.042 523.283 335.042Z" fill="#FEFEFF"/>
<path fill-rule="evenodd" clip-rule="evenodd" d="M463.593 270.263C463.593 261.656 470.892 254.62 479.847 254.62C488.838 254.62 496.18 261.653 496.18 270.263C496.18 278.952 488.838 285.945 479.847 285.945C470.892 285.945 463.593 278.949 463.593 270.263ZM479.847 261.564C475.023 261.564 471.079 265.643 471.079 270.263C471.079 274.927 475.028 279.04 479.847 279.04C484.704 279.04 488.615 274.928 488.615 270.263C488.615 265.642 484.709 261.564 479.847 261.564Z" fill="#FDFDFE"/>
<path fill-rule="evenodd" clip-rule="evenodd" d="M532.267 270.263C532.267 261.656 539.566 254.62 548.521 254.62C557.512 254.62 564.854 261.653 564.854 270.263C564.854 278.952 557.512 285.945 548.521 285.945C539.566 285.945 532.267 278.949 532.267 270.263ZM548.521 261.564C543.697 261.564 539.753 265.643 539.753 270.263C539.753 274.927 543.702 279.04 548.521 279.04C553.378 279.04 557.289 274.928 557.289 270.263C557.289 265.642 553.383 261.564 548.521 261.564Z" fill="#FDFDFE"/>
<path d="M509.8 270.478L497.958 255.409H505.405C506.607 255.409 507.742 255.96 508.483 256.903L514.477 264.529L520.473 256.902C521.214 255.96 522.349 255.409 523.55 255.409H531L519.159 270.461L530.725 285.196H523.275C522.073 285.196 520.937 284.644 520.196 283.701L514.481 276.423L508.753 283.703C508.012 284.645 506.878 285.196 505.676 285.196H498.201L509.8 270.478Z" fill="#FDFDFE"/>
<path d="M423.252 255.409H429.848C430.561 255.409 432.072 255.712 433.044 257.16L442.596 272.345L452.106 257.235C452.821 256.099 454.072 255.409 455.418 255.409H461.914L442.596 286.161L423.252 255.409Z" fill="#FDFDFE"/>
<path d="M323.86 243.654H316.978L346.423 291.526C349.371 296.318 354.608 298.385 359.534 297.736L328.476 247.553H328.475L327.193 245.481C326.48 244.348 325.201 243.658 323.86 243.654Z" fill="#F92120"/>
<path d="M342.172 243.654C343.513 243.658 344.803 244.348 345.516 245.481L346.034 246.321L365.914 278.643C366.339 279.333 367.346 279.33 367.766 278.637L386.585 247.553H386.587L387.127 246.657L387.878 245.417C388.6 244.323 389.899 243.658 391.215 243.654H398.081L371.452 287.638C373.661 290.938 378.607 290.858 380.689 287.419L406.147 245.38C406.315 245.131 406.513 244.904 406.734 244.703C407.31 244.188 408.195 243.698 409.328 243.656C409.37 243.655 409.411 243.654 409.453 243.654L416.322 243.654L387.387 291.447C382.237 299.953 369.873 299.996 364.663 291.526L335.219 243.654H342.172Z" fill="#F92120"/>
<path d="M365.981 278.743L371.455 287.647L371.456 287.647C371.454 287.645 371.453 287.643 371.452 287.641L398.081 243.657L391.209 243.657C390.395 243.657 388.88 243.937 387.862 245.438L367.766 278.64C367.367 279.299 366.436 279.334 365.981 278.743Z" fill="url(#paint0_linear)"/>
</g>
</g>
<g style="mix-blend-mode:multiply">
<circle cx="432" cy="289.5" r="49" fill="#667379" fill-opacity="0.89"/>
</g>
<path d="M424 275.095C424 273.527 425.722 272.569 427.055 273.396L450.262 287.801C451.523 288.583 451.523 290.417 450.262 291.199L427.055 305.604C425.722 306.431 424 305.473 424 303.905V275.095Z" fill="white"/>
<defs>
<filter id="filter0_d" x="0" y="0" width="864" height="587" filterUnits="userSpaceOnUse" color-interpolation-filters="sRGB">
<feFlood flood-opacity="0" result="BackgroundImageFix"/>
<feColorMatrix in="SourceAlpha" type="matrix" values="0 0 0 0 0 0 0 0 0 0 0 0 0 0 0 0 0 0 127 0" result="hardAlpha"/>
<feOffset dy="4"/>
<feGaussianBlur stdDeviation="46"/>
<feComposite in2="hardAlpha" operator="out"/>
<feColorMatrix type="matrix" values="0 0 0 0 0 0 0 0 0 0.0823529 0 0 0 0 0.12549 0 0 0 0.24 0"/>
<feBlend mode="normal" in2="BackgroundImageFix" result="effect1_dropShadow"/>
<feBlend mode="normal" in="SourceGraphic" in2="effect1_dropShadow" result="shape"/>
</filter>
<filter id="filter1_i" x="48.3852" y="73.4619" width="820.589" height="417.673" filterUnits="userSpaceOnUse" color-interpolation-filters="sRGB">
<feFlood flood-opacity="0" result="BackgroundImageFix"/>
<feBlend mode="normal" in="SourceGraphic" in2="BackgroundImageFix" result="shape"/>
<feColorMatrix in="SourceAlpha" type="matrix" values="0 0 0 0 0 0 0 0 0 0 0 0 0 0 0 0 0 0 127 0" result="hardAlpha"/>
<feOffset dx="12.3574" dy="-14.5382"/>
<feGaussianBlur stdDeviation="18.8996"/>
<feComposite in2="hardAlpha" operator="arithmetic" k2="-1" k3="1"/>
<feColorMatrix type="matrix" values="0 0 0 0 0 0 0 0 0 0 0 0 0 0 0 0 0 0 1 0"/>
<feBlend mode="normal" in2="shape" result="effect1_innerShadow"/>
</filter>
<filter id="filter2_i" x="108.757" y="73.4619" width="752.949" height="373.253" filterUnits="userSpaceOnUse" color-interpolation-filters="sRGB">
<feFlood flood-opacity="0" result="BackgroundImageFix"/>
<feBlend mode="normal" in="SourceGraphic" in2="BackgroundImageFix" result="shape"/>
<feColorMatrix in="SourceAlpha" type="matrix" values="0 0 0 0 0 0 0 0 0 0 0 0 0 0 0 0 0 0 127 0" result="hardAlpha"/>
<feOffset dx="12.3574" dy="-14.5382"/>
<feGaussianBlur stdDeviation="18.8996"/>
<feComposite in2="hardAlpha" operator="arithmetic" k2="-1" k3="1"/>
<feColorMatrix type="matrix" values="0 0 0 0 0 0 0 0 0 0 0 0 0 0 0 0 0 0 1 0"/>
<feBlend mode="normal" in2="shape" result="effect1_innerShadow"/>
</filter>
<filter id="filter3_i" x="170.143" y="73.4619" width="706.101" height="328.087" filterUnits="userSpaceOnUse" color-interpolation-filters="sRGB">
<feFlood flood-opacity="0" result="BackgroundImageFix"/>
<feBlend mode="normal" in="SourceGraphic" in2="BackgroundImageFix" result="shape"/>
<feColorMatrix in="SourceAlpha" type="matrix" values="0 0 0 0 0 0 0 0 0 0 0 0 0 0 0 0 0 0 127 0" result="hardAlpha"/>
<feOffset dx="12.3574" dy="-14.5382"/>
<feGaussianBlur stdDeviation="18.8996"/>
<feComposite in2="hardAlpha" operator="arithmetic" k2="-1" k3="1"/>
<feColorMatrix type="matrix" values="0 0 0 0 0 0 0 0 0 0 0 0 0 0 0 0 0 0 1 0"/>
<feBlend mode="normal" in2="shape" result="effect1_innerShadow"/>
</filter>
<linearGradient id="paint0_linear" x1="393.764" y1="246.323" x2="371.992" y2="283.91" gradientUnits="userSpaceOnUse">
<stop stop-color="#F92120"/>
<stop offset="1" stop-color="#C00100"/>
</linearGradient>
<clipPath id="clip0">
<rect x="92" y="88" width="680" height="403" rx="12" fill="white"/>
</clipPath>
</defs>
</svg>
